<svg width="50" height="51" viewBox="0 0 50 51" fill="none" xmlns="http://www.w3.org/2000/svg">
<circle cx="24.5" cy="25.5" r="23.5" fill="#EDF1F6"/>
<circle cx="24.5" cy="25.5" r="23" stroke="#454B51" stroke-opacity="0.13"/>
<g filter="url(#filter0_di)">
<ellipse cx="25" cy="25.5" rx="17" ry="17.5" fill="url(#paint0_linear)"/>
</g>
<path d="M21.6698 33.2134H20.3022C18.3606 33.2134 16.7866 31.6394 16.7866 29.6978V27.0164C16.7866 25.4462 17.5067 23.9628 18.7403 22.9915L21.2515 21.0142L19.5027 18.2816C19.0426 17.5628 19.5588 16.6196 20.4122 16.6196H23.373L23.3828 17.4062C21.9063 17.4062 22.0133 18.3846 22.3417 19.0075L23.2605 20.5683C23.6524 21.1564 23.5384 21.9453 22.9961 22.3984L19.7198 25.0352C19.19 25.4779 18.8864 26.1348 18.8925 26.8252L18.918 29.7812C18.918 31.4605 20.0955 32.8646 21.6698 33.2134ZM29.7813 25.8789C29.7813 25.1413 30.5085 24.5102 31.5391 24.2493C31.2133 24.1669 30.8575 24.1211 30.4844 24.1211C28.9311 24.1211 27.6719 24.9081 27.6719 25.8789C27.6719 26.8497 28.9311 27.6367 30.4844 27.6367C30.8575 27.6367 31.2133 27.5909 31.5391 27.5085C30.5085 27.2476 29.7813 26.6165 29.7813 25.8789Z" fill="url(#paint1_linear)"/>
<path d="M30.4844 28.3398C28.513 28.3398 26.9688 27.2589 26.9688 25.8789C26.9688 24.499 28.513 23.418 30.4844 23.418C32.4558 23.418 34 24.499 34 25.8789C34 27.2589 32.4558 28.3398 30.4844 28.3398ZM30.4844 24.8242C29.8722 24.8242 29.2832 24.9729 28.8683 25.2322C28.5548 25.4281 28.375 25.6639 28.375 25.8789C28.375 26.094 28.5548 26.3297 28.8683 26.5256C29.2832 26.7849 29.8722 26.9336 30.4844 26.9336C31.0966 26.9336 31.6856 26.7849 32.1004 26.5256C32.414 26.3297 32.5938 26.094 32.5938 25.8789C32.5938 25.6639 32.414 25.4281 32.1004 25.2322C31.6856 24.9729 31.0966 24.8242 30.4844 24.8242ZM25.7383 33.2969C25.7383 32.9085 25.4235 32.5938 25.0352 32.5938H20.2188C18.6679 32.5938 17.4062 31.3321 17.4062 29.7812V27.0998C17.4062 25.7365 18.0206 24.4708 19.0917 23.6274L21.603 21.6501C21.8872 21.4263 21.9552 21.0233 21.7602 20.7186L20.0113 17.986C19.9027 17.8163 19.9659 17.661 19.9982 17.6021C20.0304 17.5432 20.1271 17.4062 20.3286 17.4062H29.0518C29.2527 17.4062 29.3495 17.5426 29.3818 17.6012C29.4141 17.6598 29.4776 17.8144 29.3702 17.9843L27.64 20.722C27.4492 21.0239 27.515 21.4208 27.793 21.645L28.8125 22.4672C29.1148 22.7109 29.5574 22.6635 29.8013 22.3612C30.045 22.0589 29.9976 21.6163 29.6953 21.3725L29.1635 20.9436L30.559 18.7355C30.9061 18.1863 30.927 17.4916 30.6135 16.9226C30.2999 16.3535 29.7015 16 29.0518 16H20.3286C19.6768 16 19.0775 16.3552 18.7645 16.927C18.4516 17.4989 18.4755 18.1951 18.8269 18.7441L20.232 20.9397L18.2218 22.5225C17.5334 23.0645 16.9674 23.7677 16.5848 24.5558C16.2022 25.344 16 26.2238 16 27.0998V29.7812C16 32.1075 17.8925 34 20.2188 34H25.0352C25.4235 34 25.7383 33.6852 25.7383 33.2969Z" fill="white"/>
<path d="M30.4492 34C29.2398 34 28.0945 33.6529 27.2243 33.0226C26.9098 32.7948 26.8395 32.3552 27.0673 32.0407C27.2951 31.7262 27.7347 31.6559 28.0492 31.8836C29.3502 32.8259 31.5483 32.8259 32.8493 31.8836C33.1637 31.6559 33.6034 31.7262 33.8312 32.0407C34.059 32.3551 33.9886 32.7948 33.6742 33.0226C32.8039 33.6529 31.6586 34 30.4492 34ZM33.6741 30.1749C33.9886 29.9472 34.0589 29.5075 33.8311 29.193C33.6034 28.8785 33.1637 28.8082 32.8493 29.036C31.5483 29.9783 29.3501 29.9783 28.0491 29.036C27.7347 28.8082 27.295 28.8785 27.0673 29.193C26.8395 29.5075 26.9098 29.9471 27.2243 30.1749C28.0945 30.8052 29.2398 31.1523 30.4492 31.1523C31.6586 31.1523 32.8039 30.8052 33.6741 30.1749ZM26.3359 21.0977C26.3359 20.7093 26.0211 20.3945 25.6328 20.3945H23.7695C23.3812 20.3945 23.0664 20.7093 23.0664 21.0977C23.0664 21.486 23.3812 21.8008 23.7695 21.8008H25.6328C26.0211 21.8008 26.3359 21.486 26.3359 21.0977Z" fill="url(#paint2_linear)"/>
<defs>
<filter id="filter0_di" x="0" y="0" width="50" height="51" filterUnits="userSpaceOnUse" color-interpolation-filters="sRGB">
<feFlood flood-opacity="0" result="BackgroundImageFix"/>
<feColorMatrix in="SourceAlpha" type="matrix" values="0 0 0 0 0 0 0 0 0 0 0 0 0 0 0 0 0 0 127 0" result="hardAlpha"/>
<feOffset/>
<feGaussianBlur stdDeviation="4"/>
<feComposite in2="hardAlpha" operator="out"/>
<feColorMatrix type="matrix" values="0 0 0 0 0.313726 0 0 0 0 0.701961 0 0 0 0 0 0 0 0 0.79 0"/>
<feBlend mode="normal" in2="BackgroundImageFix" result="effect1_dropShadow"/>
<feBlend mode="normal" in="SourceGraphic" in2="effect1_dropShadow" result="shape"/>
<feColorMatrix in="SourceAlpha" type="matrix" values="0 0 0 0 0 0 0 0 0 0 0 0 0 0 0 0 0 0 127 0" result="hardAlpha"/>
<feOffset dy="2"/>
<feComposite in2="hardAlpha" operator="arithmetic" k2="-1" k3="1"/>
<feColorMatrix type="matrix" values="0 0 0 0 0 0 0 0 0 0 0 0 0 0 0 0 0 0 0.12 0"/>
<feBlend mode="normal" in2="shape" result="effect2_innerShadow"/>
</filter>
<linearGradient id="paint0_linear" x1="-44.2143" y1="8" x2="44.0718" y2="80.4763" gradientUnits="userSpaceOnUse">
<stop stop-color="#50B300"/>
<stop offset="1" stop-color="#62CE0A" stop-opacity="0.7"/>
</linearGradient>
<linearGradient id="paint1_linear" x1="16.5975" y1="25.0926" x2="31.6586" y2="25.0926" gradientUnits="userSpaceOnUse">
<stop stop-color="#E2C35D"/>
<stop offset="0.485719" stop-color="#F2E090"/>
<stop offset="1" stop-color="#E8C96F"/>
</linearGradient>
<linearGradient id="paint2_linear" x1="22.9267" y1="27.3417" x2="34.0531" y2="27.3417" gradientUnits="userSpaceOnUse">
<stop stop-color="#E2C35D"/>
<stop offset="0.485719" stop-color="#F2E090"/>
<stop offset="1" stop-color="#E8C96F"/>
</linearGradient>
</defs>
</svg>
