<svg width="23" height="14" viewBox="0 0 23 14" fill="none" xmlns="http://www.w3.org/2000/svg">
<path d="M0 0H22.3864V13.9924H0V0Z" fill="white"/>
<path d="M0 0H6.39394C5.2803 0.787879 4.37879 1.83333 3.75 3.05303C3.12121 4.27273 2.79545 5.62121 2.79545 6.99242C2.79545 8.36364 3.12121 9.7197 3.75 10.9394C4.37879 12.1591 5.2803 13.2045 6.39394 13.9924H0V0ZM11.1894 0C9.36364 0 7.61364 0.734851 6.31818 2.04546C5.0303 3.35606 4.30303 5.13636 4.30303 6.99242C4.30303 8.84849 5.0303 10.6288 6.31818 11.9394C7.60606 13.25 9.36364 13.9848 11.1894 13.9848C13.0152 13.9848 14.7652 13.25 16.0606 11.9394C17.3485 10.6288 18.0758 8.84849 18.0758 6.99242C18.0758 5.13636 17.3485 3.35606 16.0606 2.04546C14.7727 0.734851 13.0152 0 11.1894 0ZM22.3864 0H15.9924C17.1061 0.787879 18.0076 1.83333 18.6364 3.05303C19.2652 4.27273 19.5909 5.62121 19.5909 7C19.5909 8.37121 19.2652 9.72727 18.6364 10.947C18.0076 12.1667 17.1061 13.2121 15.9924 14H22.3864V0Z" fill="#F7931A"/>
<path d="M14.2351 4.94528C13.9245 4.05891 13.0761 3.95285 12.0836 4.11194L11.773 2.85437L11.0154 3.04376L11.3185 4.27103C11.1215 4.32406 10.917 4.3771 10.72 4.43013L10.417 3.19528L9.65939 3.38467L9.96999 4.64225C9.8109 4.6877 9.64423 4.73316 9.49272 4.77104V4.76346L8.44727 5.02861L8.65181 5.84679C8.65181 5.84679 9.20484 5.69528 9.19727 5.71043C9.5003 5.63467 9.64423 5.78618 9.71242 5.9377L10.0685 7.37709C10.0988 7.36952 10.1215 7.36195 10.1518 7.36195L10.0685 7.38467L10.5609 9.39982C10.5685 9.49831 10.5533 9.67255 10.3412 9.72558C10.3564 9.73315 9.78817 9.86195 9.78817 9.86195L9.86393 10.8165L10.8488 10.5665C11.0306 10.521 11.2124 10.4756 11.3867 10.4377L11.6973 11.7104L12.4548 11.521L12.1442 10.2559C12.3564 10.2104 12.5533 10.1574 12.7503 10.1119L13.0609 11.3695L13.8185 11.1801L13.5079 9.9074C14.7579 9.51346 15.5685 8.96043 15.3791 7.718C15.2276 6.718 14.667 6.39982 13.9018 6.4074C14.2882 6.06649 14.4624 5.59679 14.2351 4.94528ZM13.8488 7.9377C14.0836 8.89225 12.4473 9.1877 11.9397 9.31649L11.523 7.6271C12.0382 7.50589 13.6064 6.95285 13.8488 7.9377ZM12.917 5.64982C13.1291 6.51346 11.7654 6.75588 11.3412 6.86194L10.9624 5.33164C11.3867 5.218 12.6897 4.74073 12.917 5.64982Z" fill="white"/>
</svg>
