<svg width="35" height="31" viewBox="0 0 35 31" fill="none" xmlns="http://www.w3.org/2000/svg">
<path d="M33.989 30.3625H30.9512C30.7991 30.3625 30.6758 30.2392 30.6758 30.0871C30.6758 29.935 30.7991 29.8117 30.9512 29.8117H33.989C34.1411 29.8117 34.2644 29.935 34.2644 30.0871C34.2644 30.2392 34.1411 30.3625 33.989 30.3625Z" fill="#166176"/>
<path d="M33.989 30.3625H30.9512C30.7991 30.3625 30.6758 30.2392 30.6758 30.0871C30.6758 29.935 30.7991 29.8117 30.9512 29.8117H33.989C34.1411 29.8117 34.2644 29.935 34.2644 30.0871C34.2644 30.2392 34.1411 30.3625 33.989 30.3625Z" fill="url(#paint0_linear)"/>
<path d="M29.9877 30.3625H29.4849C29.3328 30.3625 29.2095 30.2392 29.2095 30.0871C29.2095 29.935 29.3328 29.8117 29.4849 29.8117H29.9877C30.1398 29.8117 30.2631 29.935 30.2631 30.0871C30.2631 30.2392 30.1398 30.3625 29.9877 30.3625Z" fill="#166176"/>
<path d="M29.9877 30.3625H29.4849C29.3328 30.3625 29.2095 30.2392 29.2095 30.0871C29.2095 29.935 29.3328 29.8117 29.4849 29.8117H29.9877C30.1398 29.8117 30.2631 29.935 30.2631 30.0871C30.2631 30.2392 30.1398 30.3625 29.9877 30.3625Z" fill="url(#paint1_linear)"/>
<path d="M5.22604 3.79287H0.879639C0.727531 3.79287 0.604248 3.66959 0.604248 3.51749C0.604248 3.36538 0.727531 3.2421 0.879639 3.2421H5.22604C5.37814 3.2421 5.50143 3.36538 5.50143 3.51749C5.50143 3.66959 5.37814 3.79287 5.22604 3.79287Z" fill="#166176"/>
<path d="M5.22604 3.79287H0.879639C0.727531 3.79287 0.604248 3.66959 0.604248 3.51749C0.604248 3.36538 0.727531 3.2421 0.879639 3.2421H5.22604C5.37814 3.2421 5.50143 3.36538 5.50143 3.51749C5.50143 3.66959 5.37814 3.79287 5.22604 3.79287Z" fill="url(#paint2_linear)"/>
<path d="M18.8315 29.4886C26.1697 29.4886 32.1185 23.5398 32.1185 16.2016C32.1185 8.86337 26.1697 2.91455 18.8315 2.91455C11.4932 2.91455 5.54443 8.86337 5.54443 16.2016C5.54443 23.5398 11.4932 29.4886 18.8315 29.4886Z" fill="#FCE8A6"/>
<path d="M18.8315 29.764C11.3532 29.764 5.26904 23.68 5.26904 16.2017C5.26904 12.658 6.62718 9.30563 9.09339 6.76203C9.19933 6.65289 9.37356 6.65013 9.4828 6.75597C9.59194 6.86182 9.5947 7.03623 9.48876 7.14538C7.12279 9.5857 5.81982 12.8019 5.81982 16.2017C5.81982 23.3763 11.6568 29.2133 18.8315 29.2133C26.0061 29.2133 31.8431 23.3763 31.8431 16.2017C31.8431 9.02703 26.0061 3.19003 18.8315 3.19003C17.3731 3.19003 15.9414 3.42944 14.5761 3.90173C14.4324 3.9514 14.2756 3.8752 14.2258 3.73154C14.1761 3.58788 14.2524 3.431 14.396 3.38134C15.8194 2.88903 17.3117 2.63934 18.8315 2.63934C26.3098 2.63934 32.3939 8.72336 32.3939 16.2018C32.3939 23.6799 26.3098 29.764 18.8315 29.764Z" fill="url(#paint3_linear)"/>
<path d="M18.8314 24.8382C23.6013 24.8382 27.4681 20.9715 27.4681 16.2016C27.4681 11.4317 23.6013 7.56497 18.8314 7.56497C14.0616 7.56497 10.1948 11.4317 10.1948 16.2016C10.1948 20.9715 14.0616 24.8382 18.8314 24.8382Z" fill="white"/>
<path d="M18.8314 25.1137C13.9173 25.1137 9.91943 21.1157 9.91943 16.2017C9.91943 11.2875 13.9174 7.28958 18.8314 7.28958C19.4944 7.28958 20.1557 7.36283 20.797 7.50714C20.9454 7.54055 21.0386 7.68789 21.0052 7.83632C20.9718 7.98467 20.8243 8.07775 20.6761 8.04452C20.0744 7.90903 19.4537 7.84036 18.8314 7.84036C14.221 7.84036 10.4702 11.5912 10.4702 16.2017C10.4702 20.8121 14.221 24.5629 18.8314 24.5629C23.4418 24.5629 27.1927 20.8121 27.1927 16.2017C27.1927 13.1329 25.5159 10.3157 22.8167 8.8493C22.6831 8.77678 22.6336 8.60953 22.7062 8.47596C22.7789 8.34231 22.9461 8.29265 23.0796 8.36544C25.9563 9.92819 27.7435 12.9309 27.7435 16.2017C27.7435 21.1157 23.7456 25.1137 18.8314 25.1137Z" fill="url(#paint4_linear)"/>
<path d="M18.8314 19.3418C20.5656 19.3418 21.9715 17.9359 21.9715 16.2016C21.9715 14.4673 20.5656 13.0614 18.8314 13.0614C17.0971 13.0614 15.6912 14.4673 15.6912 16.2016C15.6912 17.9359 17.0971 19.3418 18.8314 19.3418Z" fill="#FFEDB3"/>
<path d="M18.8314 19.6172C16.948 19.6172 15.4158 18.085 15.4158 16.2017C15.4158 14.3183 16.948 12.7861 18.8314 12.7861C20.7147 12.7861 22.2469 14.3183 22.2469 16.2017C22.2468 18.0849 20.7147 19.6172 18.8314 19.6172ZM18.8314 13.3369C17.2517 13.3369 15.9666 14.6221 15.9666 16.2017C15.9666 17.7813 17.2517 19.0664 18.8314 19.0664C20.411 19.0664 21.6962 17.7813 21.6962 16.2017C21.6962 14.6221 20.411 13.3369 18.8314 13.3369Z" fill="url(#paint5_linear)"/>
<path d="M30.0872 2.02808V4.94584H33.0049L34.1202 3.8307H31.2023V0.912842L30.0872 2.02808Z" fill="#FFF2C6"/>
<path d="M33.005 5.22123H30.0872C29.9351 5.22123 29.8118 5.09795 29.8118 4.94584V2.02808C29.8118 1.95501 29.8408 1.88496 29.8925 1.83338L31.0076 0.718226C31.0863 0.639373 31.2048 0.615689 31.3077 0.658558C31.4106 0.701152 31.4777 0.801578 31.4777 0.912928V3.5553H34.1202C34.2315 3.5553 34.3319 3.62231 34.3745 3.72531C34.4171 3.8283 34.3936 3.94672 34.3149 4.02548L33.1997 5.14063C33.1481 5.19222 33.0781 5.22123 33.005 5.22123ZM30.3626 4.67045H32.891L33.4554 4.10608H31.2024C31.0503 4.10608 30.927 3.9828 30.927 3.83069V1.57772L30.3626 2.14209V4.67045Z" fill="url(#paint6_linear)"/>
<path d="M28.9719 3.14323V6.06108H31.8898L33.0049 4.94584H30.0872V2.02808L28.9719 3.14323Z" fill="white"/>
<path d="M31.8898 6.33646H28.9719C28.8198 6.33646 28.6965 6.21318 28.6965 6.06107V3.14331C28.6965 3.07024 28.7255 3.0002 28.7772 2.94861L29.8925 1.83337C29.9711 1.75461 30.0896 1.73092 30.1925 1.7737C30.2955 1.81629 30.3626 1.91672 30.3626 2.02807V4.67044H33.005C33.1164 4.67044 33.2168 4.73745 33.2594 4.84045C33.302 4.94345 33.2785 5.06186 33.1997 5.14063L32.0846 6.25577C32.0328 6.30736 31.9628 6.33646 31.8898 6.33646ZM29.2473 5.78568H31.7757L32.34 5.22132H30.0871C29.935 5.22132 29.8117 5.09803 29.8117 4.94593V2.69295L29.2473 3.25732V5.78568Z" fill="url(#paint7_linear)"/>
<path d="M18.8315 16.4771C18.761 16.4771 18.6905 16.4502 18.6368 16.3964C18.5293 16.2889 18.5293 16.1145 18.6368 16.007L31.0078 3.63599C31.1153 3.5284 31.2897 3.5284 31.3972 3.63599C31.5047 3.74348 31.5047 3.9179 31.3972 4.02539L19.0262 16.3964C18.9725 16.4502 18.902 16.4771 18.8315 16.4771Z" fill="url(#paint8_linear)"/>
<path d="M23.9854 20.5141H23.4121C23.26 20.5141 23.1367 20.3908 23.1367 20.2387C23.1367 20.0866 23.26 19.9633 23.4121 19.9633H23.9854C24.1375 19.9633 24.2608 20.0866 24.2608 20.2387C24.2608 20.3908 24.1375 20.5141 23.9854 20.5141Z" fill="url(#paint9_linear)"/>
<path d="M18.6944 14.3694H18.1211C17.969 14.3694 17.8457 14.2461 17.8457 14.094C17.8457 13.9419 17.969 13.8186 18.1211 13.8186H18.6944C18.8465 13.8186 18.9698 13.9419 18.9698 14.094C18.9698 14.2461 18.8464 14.3694 18.6944 14.3694Z" fill="url(#paint10_linear)"/>
<defs>
<linearGradient id="paint0_linear" x1="30.6298" y1="30.0929" x2="34.2935" y2="30.0929" gradientUnits="userSpaceOnUse">
<stop stop-color="#E2C35D"/>
<stop offset="0.494614" stop-color="#F7E38C"/>
<stop offset="1" stop-color="#E8C96F"/>
</linearGradient>
<linearGradient id="paint1_linear" x1="29.196" y1="30.0929" x2="30.2717" y2="30.0929" gradientUnits="userSpaceOnUse">
<stop stop-color="#E2C35D"/>
<stop offset="0.494614" stop-color="#F7E38C"/>
<stop offset="1" stop-color="#E8C96F"/>
</linearGradient>
<linearGradient id="paint2_linear" x1="0.541464" y1="3.52333" x2="5.54108" y2="3.52333" gradientUnits="userSpaceOnUse">
<stop stop-color="#E2C35D"/>
<stop offset="0.494614" stop-color="#F7E38C"/>
<stop offset="1" stop-color="#E8C96F"/>
</linearGradient>
<linearGradient id="paint3_linear" x1="4.92129" y1="16.4895" x2="32.6136" y2="16.4895" gradientUnits="userSpaceOnUse">
<stop stop-color="#E2C35D"/>
<stop offset="0.494614" stop-color="#F7E38C"/>
<stop offset="1" stop-color="#E8C96F"/>
</linearGradient>
<linearGradient id="paint4_linear" x1="9.69092" y1="16.3908" x2="27.8878" y2="16.3908" gradientUnits="userSpaceOnUse">
<stop stop-color="#E2C35D"/>
<stop offset="0.494614" stop-color="#F7E38C"/>
<stop offset="1" stop-color="#E8C96F"/>
</linearGradient>
<linearGradient id="paint5_linear" x1="15.3282" y1="16.2742" x2="22.3022" y2="16.2742" gradientUnits="userSpaceOnUse">
<stop stop-color="#E2C35D"/>
<stop offset="0.494614" stop-color="#F7E38C"/>
<stop offset="1" stop-color="#E8C96F"/>
</linearGradient>
<linearGradient id="paint6_linear" x1="29.753" y1="2.97798" x2="34.4326" y2="2.97798" gradientUnits="userSpaceOnUse">
<stop stop-color="#E2C35D"/>
<stop offset="0.494614" stop-color="#F7E38C"/>
<stop offset="1" stop-color="#E8C96F"/>
</linearGradient>
<linearGradient id="paint7_linear" x1="28.6378" y1="4.0932" x2="33.3175" y2="4.0932" gradientUnits="userSpaceOnUse">
<stop stop-color="#E2C35D"/>
<stop offset="0.494614" stop-color="#F7E38C"/>
<stop offset="1" stop-color="#E8C96F"/>
</linearGradient>
<linearGradient id="paint8_linear" x1="18.3905" y1="10.1533" x2="31.5825" y2="10.1533" gradientUnits="userSpaceOnUse">
<stop stop-color="#E2C35D"/>
<stop offset="0.494614" stop-color="#F7E38C"/>
<stop offset="1" stop-color="#E8C96F"/>
</linearGradient>
<linearGradient id="paint9_linear" x1="23.1223" y1="20.2446" x2="24.2699" y2="20.2446" gradientUnits="userSpaceOnUse">
<stop stop-color="#E2C35D"/>
<stop offset="0.494614" stop-color="#F7E38C"/>
<stop offset="1" stop-color="#E8C96F"/>
</linearGradient>
<linearGradient id="paint10_linear" x1="17.8313" y1="14.0998" x2="18.9789" y2="14.0998" gradientUnits="userSpaceOnUse">
<stop stop-color="#E2C35D"/>
<stop offset="0.494614" stop-color="#F7E38C"/>
<stop offset="1" stop-color="#E8C96F"/>
</linearGradient>
</defs>
</svg>
