<svg width="40" height="32" viewBox="0 0 40 32" fill="none" xmlns="http://www.w3.org/2000/svg">
<path d="M5.72068 0.812286H1.07837C0.903607 0.812286 0.761963 0.670642 0.761963 0.49588C0.761963 0.321118 0.903607 0.179474 1.07837 0.179474H5.72079C5.89555 0.179474 6.03719 0.321118 6.03719 0.49588C6.03719 0.670642 5.89544 0.812286 5.72068 0.812286Z" fill="url(#paint0_linear)"/>
<path d="M32.6306 31.8205H27.9883C27.8135 31.8205 27.6719 31.6789 27.6719 31.5041C27.6719 31.3294 27.8135 31.1877 27.9883 31.1877H32.6306C32.8054 31.1877 32.947 31.3294 32.947 31.5041C32.947 31.6789 32.8054 31.8205 32.6306 31.8205Z" fill="url(#paint1_linear)"/>
<path d="M35.7497 31.8205H34.5945C34.4197 31.8205 34.2781 31.6789 34.2781 31.5041C34.2781 31.3294 34.4197 31.1877 34.5945 31.1877H35.7497C35.9244 31.1877 36.0661 31.3294 36.0661 31.5041C36.0661 31.6789 35.9244 31.8205 35.7497 31.8205Z" fill="url(#paint2_linear)"/>
<path d="M31.5958 18.5541L4.7629 23.531L3.63354 24.185L14.0297 30.0445L20.4374 26.3235L22.7893 24.9577L32.7094 19.1969L31.5958 18.5541Z" fill="#FAFAFA"/>
<path d="M14.0298 30.361C13.9762 30.361 13.9227 30.3473 13.8745 30.3201L3.47819 24.4607C3.37926 24.405 3.31778 24.3004 3.31714 24.1869C3.31651 24.0733 3.37673 23.9682 3.47503 23.9113L4.60439 23.2573C4.75553 23.1697 4.94927 23.2213 5.03681 23.3725C5.12435 23.5238 5.07278 23.7174 4.92153 23.8049L4.27143 24.1814L14.0274 29.6802L20.2785 26.0499C20.4294 25.9624 20.6233 26.0136 20.7111 26.1647C20.7988 26.3158 20.7474 26.5095 20.5963 26.5973L14.1887 30.3183C14.1396 30.3466 14.0847 30.361 14.0298 30.361Z" fill="url(#paint3_linear)"/>
<path d="M22.7896 25.2743C22.6806 25.2743 22.5744 25.2177 22.5157 25.1167C22.428 24.9656 22.4794 24.7718 22.6305 24.6841L32.078 19.1977L31.4377 18.8281C31.2863 18.7407 31.2344 18.5473 31.3218 18.3958C31.4093 18.2446 31.6026 18.1927 31.7541 18.2799L32.8676 18.9227C32.9654 18.9792 33.0257 19.0835 33.0258 19.1964C33.0259 19.3094 32.9659 19.4138 32.8682 19.4705L22.9482 25.2314C22.8982 25.2604 22.8435 25.2742 22.7896 25.2743Z" fill="url(#paint4_linear)"/>
<path d="M31.5958 17.264L4.7629 22.2409L3.63354 22.895L4.7629 23.531L14.0297 28.7545L31.5947 18.5541H31.5958L32.7094 17.9069L31.5958 17.264Z" fill="#FAFAFA"/>
<path d="M14.0297 29.071C13.9761 29.071 13.9226 29.0574 13.8744 29.0301L3.4783 23.1707C3.37937 23.115 3.31788 23.0104 3.31714 22.8969C3.31651 22.7833 3.37663 22.6781 3.47503 22.6212L4.60439 21.9671C4.75553 21.8795 4.94917 21.9311 5.03681 22.0823C5.12435 22.2335 5.07278 22.4272 4.92153 22.5147L4.27153 22.8912L14.0274 28.3901L31.4357 18.2805C31.4411 18.2774 31.4467 18.2743 31.4523 18.2715L32.078 17.9078L31.4375 17.5382C31.2862 17.4507 31.2344 17.2573 31.3217 17.1058C31.4092 16.9546 31.6025 16.9027 31.7539 16.9899L32.8675 17.6328C32.9653 17.6892 33.0256 17.7934 33.0257 17.9064C33.0258 18.0193 32.9659 18.1237 32.8682 18.1805L31.7547 18.8277C31.7492 18.8309 31.7436 18.834 31.7379 18.8368L14.1884 29.0282C14.1395 29.0566 14.0846 29.071 14.0297 29.071Z" fill="url(#paint5_linear)"/>
<path d="M31.5947 15.9729L4.76406 20.9509L3.63354 21.6049L4.7629 22.2409L8.14044 24.1447L10.6893 25.5815L14.0297 27.4645L31.5947 17.264H31.5958L32.7094 16.6168L31.5947 15.9729Z" fill="#FAFAFA"/>
<path d="M14.0299 27.7809C13.9763 27.7809 13.9227 27.7673 13.8745 27.74L10.5341 25.857C10.3819 25.7713 10.328 25.5781 10.4139 25.426C10.4996 25.2738 10.6926 25.2199 10.8448 25.3057L14.0276 27.0999L31.4359 16.9902C31.4413 16.9872 31.4469 16.9841 31.4525 16.9813L32.0784 16.6175L31.4367 16.2467C31.2853 16.1593 31.2335 15.9657 31.321 15.8144C31.4084 15.663 31.6019 15.6111 31.7532 15.6987L32.8679 16.3426C32.9657 16.399 33.0259 16.5032 33.0261 16.6161C33.0263 16.7291 32.9663 16.8334 32.8686 16.8902L31.7551 17.5374C31.7496 17.5406 31.744 17.5437 31.7383 17.5465L14.1889 27.7379C14.1397 27.7665 14.0847 27.7809 14.0299 27.7809Z" fill="url(#paint6_linear)"/>
<path d="M8.14001 24.4613C8.08739 24.4613 8.03412 24.4482 7.98497 24.4204L3.4783 21.8807C3.37926 21.825 3.31778 21.7204 3.31714 21.6068C3.31651 21.4932 3.37673 21.388 3.47514 21.3311L4.60565 20.677C4.7569 20.5896 4.95043 20.6412 5.03797 20.7924C5.12551 20.9437 5.07383 21.1373 4.92259 21.2248L4.27185 21.6013L8.29579 23.8692C8.44798 23.955 8.50188 24.1481 8.41603 24.3003C8.35781 24.4033 8.25055 24.4612 8.14001 24.4613Z" fill="url(#paint7_linear)"/>
<path d="M31.5958 14.6829L4.7629 19.6597L3.63354 20.3138L4.76406 20.9509L14.0297 26.1745L23.4748 20.6889L26.5879 18.8808L31.5947 15.9729L32.7094 15.3257L31.5958 14.6829Z" fill="#FAFAFA"/>
<path d="M26.5882 19.1973C26.4792 19.1973 26.373 19.1409 26.3143 19.0397C26.2266 18.8886 26.2779 18.6949 26.429 18.6072L32.0779 15.3264L31.4377 14.9569C31.2863 14.8696 31.2344 14.6761 31.3218 14.5246C31.4091 14.3734 31.6027 14.3215 31.754 14.4087L32.8675 15.0514C32.9653 15.1078 33.0256 15.2122 33.0257 15.3251C33.0258 15.4381 32.9658 15.5425 32.8682 15.5992L26.7467 19.1544C26.6969 19.1835 26.6422 19.1973 26.5882 19.1973Z" fill="url(#paint8_linear)"/>
<path d="M14.0297 26.4909C13.9761 26.4909 13.9226 26.4773 13.8744 26.4501L3.47819 20.5895C3.37926 20.5338 3.31778 20.4293 3.31714 20.3157C3.31651 20.2022 3.37673 20.097 3.47503 20.0401L4.60439 19.386C4.75553 19.2982 4.94917 19.35 5.03681 19.5012C5.12435 19.6524 5.07278 19.846 4.92154 19.9336L4.27143 20.3101L14.0275 25.81L23.3158 20.4155C23.4668 20.3275 23.6606 20.3789 23.7483 20.5301C23.8361 20.6813 23.7847 20.8749 23.6337 20.9626L14.1888 26.4482C14.1395 26.4766 14.0846 26.4909 14.0297 26.4909Z" fill="url(#paint9_linear)"/>
<path d="M31.5958 13.3928L4.7629 18.3697L3.63354 19.0238L4.7629 19.6597L14.0297 24.8832L31.5947 14.6829H31.5958L32.7094 14.0355L31.5958 13.3928Z" fill="#FAFAFA"/>
<path d="M14.0297 25.1997C13.9761 25.1997 13.9226 25.1861 13.8744 25.1589L3.4783 19.2995C3.37937 19.2438 3.31788 19.1392 3.31714 19.0257C3.31651 18.9121 3.37663 18.8068 3.47503 18.75L4.60439 18.0959C4.75553 18.0082 4.94917 18.0599 5.03681 18.211C5.12435 18.3623 5.07278 18.5559 4.92153 18.6435L4.27164 19.0199L14.0275 24.5188L31.4359 14.4092C31.4412 14.4062 31.4468 14.4031 31.4524 14.4003L32.0782 14.0366L31.4377 13.6669C31.2864 13.5796 31.2345 13.3861 31.3218 13.2346C31.4092 13.0834 31.6028 13.0316 31.754 13.1187L32.8676 13.7614C32.9654 13.8179 33.0257 13.9221 33.0258 14.035C33.0259 14.148 32.966 14.2524 32.8684 14.3091L31.7549 14.9565C31.7494 14.9597 31.7438 14.9627 31.738 14.9656L14.1887 25.157C14.1395 25.1854 14.0846 25.1997 14.0297 25.1997Z" fill="url(#paint10_linear)"/>
<path d="M31.5958 12.1028L4.7629 17.0797L3.63354 17.7337L14.0297 23.5932L32.7094 12.7455L31.5958 12.1028Z" fill="#FAFAFA"/>
<path d="M14.0298 23.9096C13.9762 23.9096 13.9227 23.896 13.8745 23.8688L3.47819 18.0094C3.37926 17.9537 3.31778 17.8491 3.31714 17.7356C3.31651 17.6221 3.37673 17.5168 3.47503 17.46L4.60439 16.8059C4.75553 16.7182 4.94917 16.7699 5.03681 16.9211C5.12435 17.0723 5.07278 17.2659 4.92153 17.3535L4.27132 17.7301L14.0274 23.2288L32.0778 12.7464L31.4376 12.3769C31.2863 12.2896 31.2344 12.0961 31.3217 11.9446C31.4091 11.7934 31.6027 11.7415 31.7539 11.8287L32.8675 12.4714C32.9653 12.5279 33.0256 12.6322 33.0257 12.7451C33.0258 12.8581 32.9658 12.9625 32.8681 13.0192L14.1887 23.8669C14.1396 23.8953 14.0847 23.9096 14.0298 23.9096Z" fill="url(#paint11_linear)"/>
<path d="M22.4654 5.54141L18.4494 7.86636L16.2052 9.16563L3.63379 16.4437L14.0294 22.3032L32.7092 11.4556L22.4654 5.54141Z" fill="#FAFAFA"/>
<path d="M14.0302 22.6198C13.9766 22.6198 13.923 22.6061 13.8748 22.5789L3.47917 16.7192C3.38024 16.6635 3.31875 16.5589 3.31812 16.4454C3.31749 16.3318 3.37771 16.2267 3.47601 16.1697L16.0475 8.89173C16.1988 8.80429 16.3922 8.85576 16.4798 9.00711C16.5673 9.15835 16.5157 9.35199 16.3645 9.43953L4.2724 16.4399L14.0278 21.9388L32.0786 11.4564L22.4665 5.90686L18.6088 8.14037C18.4575 8.22791 18.264 8.17633 18.1764 8.02499C18.0889 7.87374 18.1405 7.6801 18.2917 7.59256L22.3078 5.26751C22.4057 5.21087 22.5264 5.21076 22.6245 5.2674L32.8682 11.1816C32.966 11.238 33.0263 11.3422 33.0264 11.4551C33.0266 11.5681 32.9665 11.6725 32.8689 11.7293L14.189 22.5769C14.14 22.6054 14.085 22.6198 14.0302 22.6198Z" fill="url(#paint12_linear)"/>
<path d="M27.8478 10.2171L24.644 8.37051C23.4106 9.08528 21.4242 9.09856 20.2068 8.39888L8.6081 15.1165C9.83671 15.8122 9.82732 16.9576 8.58838 17.6756L11.8328 19.5075C13.0685 18.7906 15.0598 18.7699 16.2784 19.4599L19.6151 17.523L27.8078 12.7672C26.6002 12.0732 26.6176 10.9307 27.8478 10.2171Z" fill="#FDFDFD"/>
<path d="M11.8327 19.8239C11.779 19.8239 11.7254 19.8103 11.6771 19.783L8.43282 17.951C8.33399 17.8952 8.27261 17.7907 8.27198 17.6772C8.27134 17.5637 8.33157 17.4587 8.42976 17.4017C8.93295 17.1101 9.20896 16.7457 9.20717 16.3757C9.20538 16.0158 8.93727 15.6663 8.45222 15.3917C8.3535 15.3358 8.29233 15.2313 8.29181 15.1179C8.29128 15.0045 8.3515 14.8995 8.44969 14.8426L20.0484 8.12509C20.1463 8.06845 20.2667 8.06835 20.3646 8.12446C21.4922 8.77256 23.3409 8.76012 24.4855 8.09672C24.5833 8.03997 24.704 8.03998 24.8021 8.0963L28.0059 9.94284C28.1038 9.99927 28.1641 10.1036 28.1643 10.2166C28.1644 10.3295 28.1044 10.4341 28.0066 10.4908C27.5123 10.7775 27.2292 11.1517 27.23 11.5172C27.2307 11.8742 27.4919 12.2207 27.9656 12.493C28.0636 12.5492 28.124 12.6535 28.1243 12.7666C28.1246 12.8796 28.0645 12.9841 27.9668 13.041L19.7741 17.7967C19.6229 17.8844 19.4292 17.833 19.3415 17.6818C19.2538 17.5307 19.3053 17.337 19.4564 17.2493L27.2219 12.7417C26.8165 12.3937 26.5981 11.9711 26.5973 11.5185C26.5963 11.0493 26.8281 10.6082 27.2597 10.2432L24.6396 8.73322C23.3532 9.39251 21.4852 9.40411 20.2124 8.76128L9.1981 15.1403C9.61312 15.4903 9.83756 15.9162 9.83977 16.3727C9.84209 16.8408 9.61132 17.2812 9.18038 17.6465L11.8352 19.1457C13.1794 18.4545 15.1596 18.4628 16.4342 19.1846C16.5862 19.2707 16.6397 19.4637 16.5536 19.6159C16.4676 19.768 16.2745 19.8216 16.1223 19.7353C14.9918 19.0953 13.1386 19.1158 11.9914 19.7813C11.9425 19.8097 11.8875 19.8239 11.8327 19.8239Z" fill="url(#paint13_linear)"/>
<path d="M20.5607 12.5922C21.8225 13.3141 21.8068 14.5003 20.5271 15.2428C19.2469 15.9857 17.1837 16.005 15.9172 15.2846C14.6487 14.5631 14.6608 13.3737 15.9457 12.6292C17.2301 11.8851 19.2968 11.8691 20.5607 12.5922Z" fill="#FAFAFA"/>
<path d="M18.1647 16.129C17.26 16.129 16.4064 15.9268 15.7608 15.5597C15.0517 15.1565 14.6599 14.5963 14.6575 13.9827C14.6551 13.3568 15.0562 12.7791 15.7871 12.3555C16.4676 11.9612 17.3622 11.744 18.306 11.744C19.2147 11.744 20.0711 11.9478 20.7177 12.3177C21.4225 12.7208 21.8115 13.2797 21.8134 13.8916C21.8153 14.5165 21.4149 15.0935 20.6859 15.5164C20.0051 15.9114 19.1097 16.129 18.1647 16.129ZM18.306 12.3767C17.484 12.3767 16.6815 12.5685 16.1043 12.9029C15.5778 13.208 15.2888 13.5906 15.2903 13.98C15.2919 14.3574 15.57 14.7231 16.0736 15.0095C16.6253 15.3233 17.3679 15.4961 18.1647 15.4961C18.9878 15.4961 19.791 15.304 20.3683 14.969C20.8933 14.6643 21.1818 14.2824 21.1806 13.8935C21.1795 13.5176 20.9035 13.153 20.4035 12.8668C19.851 12.5509 19.1062 12.3767 18.306 12.3767Z" fill="url(#paint14_linear)"/>
<path d="M18.3913 15.0596C18.3641 15.0596 18.337 15.0592 18.3098 15.0583C18.1351 15.0525 17.9982 14.9062 18.0041 14.7315C18.0099 14.5569 18.1563 14.42 18.331 14.4259C18.7839 14.4417 19.0822 14.2895 19.1628 14.2429C19.2191 14.2101 19.2635 14.1755 19.2942 14.1469C19.0347 14.0187 18.5926 14.1429 18.4009 14.1967L18.3003 14.2247C17.9833 14.3138 17.4526 14.4625 16.9834 14.2163C16.6662 14.0499 16.6145 13.8188 16.6119 13.6958C16.6048 13.3505 16.9263 13.1264 17.0649 13.046C17.3804 12.8631 17.6794 12.793 18.0983 12.7974C18.2731 12.8001 18.4125 12.9439 18.4099 13.1187C18.4072 13.2918 18.2661 13.4302 18.0936 13.4302C18.0919 13.4302 18.0903 13.4302 18.0887 13.4302C17.7823 13.4244 17.5983 13.4683 17.3823 13.5936C17.3423 13.6167 17.3109 13.6406 17.2877 13.6613C17.5338 13.7825 17.8916 13.6823 18.1292 13.6155L18.2299 13.5874C18.5033 13.5107 19.1434 13.3313 19.6291 13.6086C19.925 13.7776 19.9698 14.0019 19.9703 14.1205C19.9714 14.4679 19.628 14.7046 19.4803 14.7904C19.1824 14.963 18.7894 15.0596 18.3913 15.0596Z" fill="url(#paint15_linear)"/>
<path d="M17.2233 13.6361C17.1701 13.6361 17.1162 13.6226 17.0667 13.5944L16.6975 13.3836C16.5457 13.297 16.4929 13.1038 16.5795 12.952C16.6661 12.8003 16.8593 12.7476 17.0111 12.834L17.3803 13.0448C17.5321 13.1314 17.5849 13.3246 17.4983 13.4765C17.44 13.5788 17.3332 13.6361 17.2233 13.6361Z" fill="url(#paint16_linear)"/>
<path d="M19.6891 15.043C19.636 15.043 19.5821 15.0295 19.5326 15.0012L19.1645 14.7912C19.0128 14.7046 18.9599 14.5114 19.0465 14.3596C19.1331 14.2078 19.3262 14.1549 19.4781 14.2416L19.8462 14.4516C19.9979 14.5382 20.0508 14.7314 19.9642 14.8832C19.9059 14.9856 19.799 15.043 19.6891 15.043Z" fill="url(#paint17_linear)"/>
<path d="M12.6078 17.5201C12.4986 17.5201 12.3924 17.4636 12.3338 17.3624C12.2461 17.2111 12.2976 17.0175 12.4487 16.9298L14.3757 15.8125C14.5269 15.7249 14.7205 15.7762 14.8082 15.9276C14.8958 16.0788 14.8443 16.2725 14.6932 16.3601L12.7662 17.4774C12.7162 17.5063 12.6616 17.5201 12.6078 17.5201Z" fill="url(#paint18_linear)"/>
<path d="M21.941 12.1085C21.8319 12.1085 21.7256 12.052 21.667 11.9507C21.5794 11.7995 21.6308 11.606 21.782 11.5182L23.7035 10.404C23.8546 10.3163 24.0482 10.3679 24.1359 10.5191C24.2236 10.6704 24.1721 10.8639 24.021 10.9516L22.0994 12.0658C22.0494 12.0947 21.9949 12.1085 21.941 12.1085Z" fill="url(#paint19_linear)"/>
<path d="M28.822 13.2647V22.2598H28.8218C28.8218 22.7747 29.162 23.2862 29.8412 23.6735C31.209 24.4516 33.4388 24.431 34.8215 23.6275C35.5191 23.2229 35.8697 22.6954 35.8697 22.1724V13.2647H28.822Z" fill="#FAFAFA"/>
<path d="M32.2701 24.5653C31.3365 24.5654 30.4088 24.3604 29.6848 23.9485C28.9242 23.5149 28.5054 22.9151 28.5054 22.2597L28.5056 13.2647C28.5056 13.0899 28.6472 12.9483 28.822 12.9483C28.9967 12.9483 29.1384 13.0899 29.1384 13.2647V22.2597C29.1383 22.6781 29.4435 23.0824 29.998 23.3985C31.276 24.1258 33.3686 24.1057 34.6625 23.3539C35.2371 23.0208 35.5533 22.6011 35.5533 22.1724V13.2647C35.5533 13.0899 35.695 12.9483 35.8697 12.9483C36.0445 12.9483 36.1861 13.0899 36.1861 13.2647V22.1724C36.1861 22.8363 35.7578 23.4502 34.9802 23.9012C34.2194 24.3433 33.2415 24.5653 32.2701 24.5653Z" fill="url(#paint20_linear)"/>
<path d="M32.2702 22.7396C31.3366 22.7396 30.4089 22.5345 29.6848 22.1226C28.9242 21.689 28.5054 21.0892 28.5054 20.4338C28.5054 20.259 28.647 20.1174 28.8218 20.1174C28.9965 20.1174 29.1382 20.259 29.1382 20.4338C29.1382 20.8521 29.4435 21.2566 29.998 21.5726C31.276 22.3 33.3687 22.2798 34.6625 21.528C35.2371 21.1949 35.5533 20.7752 35.5533 20.3465C35.5533 20.1717 35.695 20.0301 35.8697 20.0301C36.0445 20.0301 36.1861 20.1717 36.1861 20.3465C36.1861 21.0104 35.7578 21.6243 34.9802 22.0753C34.2194 22.5175 33.2416 22.7396 32.2702 22.7396Z" fill="url(#paint21_linear)"/>
<path d="M32.272 20.9086C32.2404 20.9086 32.2088 20.9084 32.1771 20.908C32.0024 20.9056 31.8627 20.7618 31.8653 20.587C31.8677 20.4139 32.0089 20.2752 32.1816 20.2752H32.1861C33.1134 20.2883 34.0132 20.0796 34.6624 19.7023C35.2287 19.3739 35.5532 18.9433 35.5532 18.5208C35.5532 18.3461 35.6948 18.2044 35.8696 18.2044C36.0444 18.2044 36.186 18.3461 36.186 18.5208C36.186 19.1846 35.7577 19.7986 34.9801 20.2495C34.2466 20.6759 33.288 20.9086 32.272 20.9086Z" fill="url(#paint22_linear)"/>
<path d="M29.841 20.3385C29.788 20.3385 29.7341 20.325 29.6846 20.2968C28.9242 19.8632 28.5054 19.2634 28.5054 18.6082C28.5054 18.4334 28.647 18.2917 28.8218 18.2917C28.9965 18.2917 29.1382 18.4334 29.1382 18.6082C29.1382 19.0264 29.4436 19.4309 29.998 19.747C30.1497 19.8336 30.2027 20.0268 30.1161 20.1787C30.0578 20.281 29.9509 20.3385 29.841 20.3385Z" fill="url(#paint23_linear)"/>
<path d="M32.2701 19.0879C31.3365 19.088 30.4088 18.883 29.6848 18.471C28.9242 18.0374 28.5054 17.4376 28.5054 16.7823C28.5054 16.6075 28.647 16.4659 28.8218 16.4659C28.9965 16.4659 29.1382 16.6075 29.1382 16.7823C29.1382 17.2006 29.4436 17.605 29.998 17.9211C31.276 18.6483 33.3686 18.6282 34.6625 17.8765C35.237 17.5432 35.5533 17.1237 35.5533 16.6949C35.5533 16.5202 35.695 16.3785 35.8697 16.3785C36.0445 16.3785 36.1861 16.5202 36.1861 16.6949C36.1861 17.3588 35.7578 17.9727 34.9802 18.4238C34.2194 18.8659 33.2415 19.0879 32.2701 19.0879Z" fill="url(#paint24_linear)"/>
<path d="M34.8219 16.6408C34.7127 16.6408 34.6065 16.5843 34.5479 16.4831C34.4602 16.3318 34.5117 16.1383 34.6628 16.0506C35.2371 15.7176 35.5534 15.2979 35.5534 14.8692C35.5534 14.6944 35.695 14.5528 35.8698 14.5528C36.0446 14.5528 36.1862 14.6944 36.1862 14.8692C36.1862 15.5331 35.7579 16.147 34.9803 16.598C34.9303 16.627 34.8757 16.6408 34.8219 16.6408Z" fill="url(#paint25_linear)"/>
<path d="M32.2625 17.258C31.3063 17.258 30.3864 17.0446 29.6848 16.6452C28.9242 16.2116 28.5054 15.6118 28.5054 14.9565C28.5054 14.7817 28.647 14.6401 28.8218 14.6401C28.9965 14.6401 29.1382 14.7817 29.1382 14.9565C29.1382 15.3748 29.4436 15.7792 29.998 16.0953C30.8007 16.5521 31.9991 16.7305 33.1251 16.5607C33.2982 16.5352 33.4591 16.6537 33.4852 16.8264C33.5112 16.9993 33.3923 17.1605 33.2195 17.1865C32.901 17.2345 32.5797 17.258 32.2625 17.258Z" fill="url(#paint26_linear)"/>
<path d="M34.858 11.8565C36.2213 12.6365 36.2043 13.918 34.8217 14.7202C33.4386 15.5227 31.2094 15.5435 29.8411 14.7653C28.4707 13.9858 28.4839 12.7007 29.8719 11.8964C31.2596 11.0924 33.4926 11.0752 34.858 11.8565Z" fill="#E2E467"/>
<path d="M32.2705 15.6522C31.2974 15.6522 30.3796 15.4348 29.6859 15.0402C28.9282 14.6093 28.5095 14.012 28.5068 13.3586C28.5042 12.692 28.9332 12.0754 29.7146 11.6226C30.4461 11.1988 31.4081 10.9654 32.4234 10.9654C33.4008 10.9654 34.3217 11.1843 35.0163 11.5819C35.7694 12.0128 36.1852 12.6089 36.1873 13.2605C36.1893 13.9261 35.7611 14.5416 34.9817 14.9939C34.2498 15.4184 33.287 15.6522 32.2705 15.6522ZM32.4232 11.5982C31.5307 11.5982 30.659 11.8067 30.0316 12.1702C29.4546 12.5046 29.1378 12.9257 29.1396 13.356C29.1412 13.7733 29.4464 14.176 29.9987 14.4903C30.5985 14.8314 31.4053 15.0195 32.2705 15.0195C33.1641 15.0195 34.0366 14.8106 34.664 14.4466C35.2394 14.1127 35.5556 13.6921 35.5543 13.2624C35.553 12.8467 35.2503 12.4449 34.7019 12.131C34.1013 11.7875 33.2921 11.5982 32.4232 11.5982Z" fill="url(#paint27_linear)"/>
<path d="M32.5141 14.4969C32.4851 14.4969 32.4562 14.4965 32.4272 14.4954C32.2525 14.4896 32.1156 14.3434 32.1214 14.1687C32.1273 13.994 32.2736 13.859 32.4481 13.863C32.9425 13.8781 33.2721 13.713 33.3606 13.6618C33.4403 13.6156 33.4982 13.5662 33.5319 13.5299C33.5297 13.5286 33.5275 13.5274 33.5252 13.526C33.2396 13.363 32.7339 13.5047 32.518 13.5653L32.4091 13.5956C32.0703 13.6907 31.5031 13.8498 31.0049 13.5885C30.6738 13.4149 30.6199 13.1755 30.6173 13.0483C30.6097 12.6887 30.9482 12.4531 31.094 12.3686C31.4308 12.1733 31.7498 12.098 32.1976 12.1036C32.3723 12.1063 32.5117 12.2503 32.509 12.425C32.5064 12.5997 32.3623 12.7387 32.1877 12.7364C31.857 12.7304 31.6465 12.78 31.4115 12.9161C31.3499 12.9519 31.3062 12.9888 31.2793 13.0172C31.2852 13.0206 31.2918 13.0242 31.2992 13.0281C31.5744 13.1726 31.9741 13.0605 32.2384 12.9864L32.3474 12.956C32.6396 12.8741 33.3239 12.6823 33.8393 12.9764C34.1325 13.1439 34.1946 13.3577 34.1951 13.5076C34.1963 13.8697 33.8341 14.1188 33.6783 14.2091C33.36 14.3937 32.9399 14.4969 32.5141 14.4969Z" fill="url(#paint28_linear)"/>
<path d="M31.2523 12.9587C31.1992 12.9587 31.1454 12.9452 31.0959 12.917L30.697 12.6895C30.5453 12.603 30.4924 12.4098 30.5789 12.2579C30.6654 12.1062 30.8586 12.0532 31.0105 12.1399L31.4094 12.3674C31.5611 12.4538 31.614 12.6471 31.5275 12.7989C31.4692 12.9012 31.3622 12.9587 31.2523 12.9587Z" fill="url(#paint29_linear)"/>
<path d="M33.9167 14.4787C33.8635 14.4787 33.8096 14.4652 33.7602 14.437L33.3625 14.2101C33.2108 14.1235 33.1579 13.9303 33.2445 13.7784C33.3311 13.6268 33.5242 13.574 33.6761 13.6605L34.0737 13.8874C34.2255 13.974 34.2783 14.1672 34.1917 14.3191C34.1334 14.4214 34.0266 14.4787 33.9167 14.4787Z" fill="url(#paint30_linear)"/>
<path d="M38.9213 22.7345H35.8428C35.668 22.7345 35.5264 22.5929 35.5264 22.4181C35.5264 22.2433 35.668 22.1017 35.8428 22.1017H38.9213C39.0961 22.1017 39.2377 22.2433 39.2377 22.4181C39.2377 22.5929 39.0961 22.7345 38.9213 22.7345Z" fill="url(#paint31_linear)"/>
<path d="M35.3458 4.27365L35.5579 4.93483C35.8709 5.91063 36.6357 6.67539 37.6115 6.98842L38.2727 7.20051L37.6115 7.41261C36.6357 7.72564 35.8709 8.4904 35.5579 9.46619L35.3458 10.1274L35.1337 9.46619C34.8207 8.4904 34.0559 7.72564 33.0801 7.41261L32.4189 7.20051L33.0801 6.98842C34.0559 6.67539 34.8207 5.91063 35.1337 4.93483L35.3458 4.27365Z" fill="#E2E467"/>
<path d="M35.3457 10.4437C35.2082 10.4437 35.0865 10.3549 35.0445 10.224L34.8324 9.56282C34.5512 8.68616 33.86 7.99503 32.9834 7.71385L32.3222 7.50164C32.1912 7.45967 32.1025 7.33785 32.1025 7.20042C32.1025 7.063 32.1913 6.94118 32.3223 6.8992L32.9835 6.68711C33.8601 6.40582 34.5512 5.71458 34.8324 4.83824L35.0445 4.17695C35.0865 4.04596 35.2083 3.95715 35.3457 3.95715C35.4831 3.95715 35.6049 4.04596 35.6469 4.17695L35.859 4.83824C36.1403 5.71469 36.8314 6.40582 37.708 6.68711L38.3692 6.8992C38.5002 6.94118 38.589 7.063 38.589 7.20042C38.589 7.33785 38.5002 7.45967 38.3693 7.50164L37.7081 7.71385C36.8315 7.99503 36.1404 8.68627 35.8591 9.56271L35.647 10.224C35.6049 10.355 35.4832 10.4437 35.3457 10.4437ZM33.4224 7.20042C34.2951 7.5548 34.9913 8.251 35.3457 9.12375C35.7001 8.251 36.3963 7.5548 37.269 7.20042C36.3963 6.84605 35.7002 6.14985 35.3457 5.2772C34.9913 6.14985 34.2952 6.84605 33.4224 7.20042Z" fill="url(#paint32_linear)"/>
<path d="M7.98763 7.13989L8.15616 7.66534C8.40496 8.44085 9.01267 9.04856 9.78818 9.29736L10.3136 9.4659L9.78818 9.63444C9.01267 9.88324 8.40496 10.491 8.15616 11.2665L7.98763 11.7919L7.81909 11.2665C7.57029 10.491 6.96258 9.88324 6.18706 9.63444L5.66162 9.4659L6.18706 9.29736C6.96258 9.04856 7.57029 8.44085 7.81909 7.66534L7.98763 7.13989Z" fill="#FBFBFB"/>
<path d="M7.98752 12.1084C7.84999 12.1084 7.72828 12.0196 7.6863 11.8886L7.51776 11.3632C7.3006 10.6865 6.76704 10.1528 6.09035 9.93586L5.56491 9.76721C5.43391 9.72523 5.34521 9.60342 5.34521 9.46599C5.34521 9.32857 5.43402 9.20664 5.56501 9.16477L6.09046 8.99623C6.76714 8.77907 7.30071 8.24551 7.51787 7.56882L7.68641 7.04337C7.72838 6.91238 7.8502 6.82358 7.98763 6.82358C8.12505 6.82358 8.24687 6.91238 8.28884 7.04327L8.45749 7.56871C8.67465 8.24551 9.20821 8.77918 9.8849 8.99623L10.4102 9.16477C10.5412 9.20664 10.63 9.32857 10.63 9.46599C10.63 9.60342 10.5412 9.72523 10.4103 9.76721L9.8849 9.93586C9.20821 10.1529 8.67454 10.6865 8.45749 11.3632L8.28884 11.8887C8.24687 12.0196 8.12505 12.1084 7.98752 12.1084ZM6.62117 9.46589C7.22108 9.74749 7.70602 10.2324 7.98763 10.8323C8.26923 10.2324 8.75417 9.74749 9.35408 9.46589C8.75417 9.18428 8.26923 8.69934 7.98763 8.09943C7.70602 8.69934 7.22108 9.18428 6.62117 9.46589Z" fill="url(#paint33_linear)"/>
<defs>
<linearGradient id="paint0_linear" x1="0.694332" y1="0.502596" x2="6.07991" y2="0.502596" gradientUnits="userSpaceOnUse">
<stop stop-color="#E2C35D"/>
<stop offset="0.508333" stop-color="#E3CB5C"/>
<stop offset="1" stop-color="#D2B45C"/>
</linearGradient>
<linearGradient id="paint1_linear" x1="27.6042" y1="31.5108" x2="32.9897" y2="31.5108" gradientUnits="userSpaceOnUse">
<stop stop-color="#E2C35D"/>
<stop offset="0.508333" stop-color="#E3CB5C"/>
<stop offset="1" stop-color="#D2B45C"/>
</linearGradient>
<linearGradient id="paint2_linear" x1="34.2552" y1="31.5108" x2="36.0806" y2="31.5108" gradientUnits="userSpaceOnUse">
<stop stop-color="#E2C35D"/>
<stop offset="0.508333" stop-color="#E3CB5C"/>
<stop offset="1" stop-color="#D2B45C"/>
</linearGradient>
<linearGradient id="paint3_linear" x1="3.09359" y1="26.8636" x2="20.8951" y2="26.8636" gradientUnits="userSpaceOnUse">
<stop stop-color="#E2C35D"/>
<stop offset="0.508333" stop-color="#E3CB5C"/>
<stop offset="1" stop-color="#D2B45C"/>
</linearGradient>
<linearGradient id="paint4_linear" x1="22.3376" y1="21.8306" x2="33.1112" y2="21.8306" gradientUnits="userSpaceOnUse">
<stop stop-color="#E2C35D"/>
<stop offset="0.508333" stop-color="#E3CB5C"/>
<stop offset="1" stop-color="#D2B45C"/>
</linearGradient>
<linearGradient id="paint5_linear" x1="2.93626" y1="23.1379" x2="33.2662" y2="23.1379" gradientUnits="userSpaceOnUse">
<stop stop-color="#E2C35D"/>
<stop offset="0.508333" stop-color="#E3CB5C"/>
<stop offset="1" stop-color="#D2B45C"/>
</linearGradient>
<linearGradient id="paint6_linear" x1="10.0826" y1="21.8472" x2="33.2095" y2="21.8472" gradientUnits="userSpaceOnUse">
<stop stop-color="#E2C35D"/>
<stop offset="0.508333" stop-color="#E3CB5C"/>
<stop offset="1" stop-color="#D2B45C"/>
</linearGradient>
<linearGradient id="paint7_linear" x1="3.25124" y1="22.5885" x2="8.49849" y2="22.5885" gradientUnits="userSpaceOnUse">
<stop stop-color="#E2C35D"/>
<stop offset="0.508333" stop-color="#E3CB5C"/>
<stop offset="1" stop-color="#D2B45C"/>
</linearGradient>
<linearGradient id="paint8_linear" x1="26.1849" y1="16.8331" x2="33.0804" y2="16.8331" gradientUnits="userSpaceOnUse">
<stop stop-color="#E2C35D"/>
<stop offset="0.508333" stop-color="#E3CB5C"/>
<stop offset="1" stop-color="#D2B45C"/>
</linearGradient>
<linearGradient id="paint9_linear" x1="3.05465" y1="22.9929" x2="23.957" y2="22.9929" gradientUnits="userSpaceOnUse">
<stop stop-color="#E2C35D"/>
<stop offset="0.508333" stop-color="#E3CB5C"/>
<stop offset="1" stop-color="#D2B45C"/>
</linearGradient>
<linearGradient id="paint10_linear" x1="2.93626" y1="19.2667" x2="33.2663" y2="19.2667" gradientUnits="userSpaceOnUse">
<stop stop-color="#E2C35D"/>
<stop offset="0.508333" stop-color="#E3CB5C"/>
<stop offset="1" stop-color="#D2B45C"/>
</linearGradient>
<linearGradient id="paint11_linear" x1="2.93626" y1="17.9767" x2="33.2662" y2="17.9767" gradientUnits="userSpaceOnUse">
<stop stop-color="#E2C35D"/>
<stop offset="0.508333" stop-color="#E3CB5C"/>
<stop offset="1" stop-color="#D2B45C"/>
</linearGradient>
<linearGradient id="paint12_linear" x1="2.93724" y1="14.107" x2="33.267" y2="14.107" gradientUnits="userSpaceOnUse">
<stop stop-color="#E2C35D"/>
<stop offset="0.508333" stop-color="#E3CB5C"/>
<stop offset="1" stop-color="#D2B45C"/>
</linearGradient>
<linearGradient id="paint13_linear" x1="8.01694" y1="14.0639" x2="28.3254" y2="14.0639" gradientUnits="userSpaceOnUse">
<stop stop-color="#E2C35D"/>
<stop offset="0.508333" stop-color="#E3CB5C"/>
<stop offset="1" stop-color="#D2B45C"/>
</linearGradient>
<linearGradient id="paint14_linear" x1="14.5657" y1="13.983" x2="21.8714" y2="13.983" gradientUnits="userSpaceOnUse">
<stop stop-color="#E2C35D"/>
<stop offset="0.508333" stop-color="#E3CB5C"/>
<stop offset="1" stop-color="#D2B45C"/>
</linearGradient>
<linearGradient id="paint15_linear" x1="16.5688" y1="13.9524" x2="19.9975" y2="13.9524" gradientUnits="userSpaceOnUse">
<stop stop-color="#E2C35D"/>
<stop offset="0.508333" stop-color="#E3CB5C"/>
<stop offset="1" stop-color="#D2B45C"/>
</linearGradient>
<linearGradient id="paint16_linear" x1="16.525" y1="13.2232" x2="17.5481" y2="13.2232" gradientUnits="userSpaceOnUse">
<stop stop-color="#E2C35D"/>
<stop offset="0.508333" stop-color="#E3CB5C"/>
<stop offset="1" stop-color="#D2B45C"/>
</linearGradient>
<linearGradient id="paint17_linear" x1="18.9921" y1="14.6304" x2="20.0139" y2="14.6304" gradientUnits="userSpaceOnUse">
<stop stop-color="#E2C35D"/>
<stop offset="0.508333" stop-color="#E3CB5C"/>
<stop offset="1" stop-color="#D2B45C"/>
</linearGradient>
<linearGradient id="paint18_linear" x1="12.2582" y1="16.6635" x2="14.8716" y2="16.6635" gradientUnits="userSpaceOnUse">
<stop stop-color="#E2C35D"/>
<stop offset="0.508333" stop-color="#E3CB5C"/>
<stop offset="1" stop-color="#D2B45C"/>
</linearGradient>
<linearGradient id="paint19_linear" x1="21.5915" y1="11.2534" x2="24.1994" y2="11.2534" gradientUnits="userSpaceOnUse">
<stop stop-color="#E2C35D"/>
<stop offset="0.508333" stop-color="#E3CB5C"/>
<stop offset="1" stop-color="#D2B45C"/>
</linearGradient>
<linearGradient id="paint20_linear" x1="28.4069" y1="18.8801" x2="36.2483" y2="18.8801" gradientUnits="userSpaceOnUse">
<stop stop-color="#E2C35D"/>
<stop offset="0.508333" stop-color="#E3CB5C"/>
<stop offset="1" stop-color="#D2B45C"/>
</linearGradient>
<linearGradient id="paint21_linear" x1="28.4069" y1="21.4136" x2="36.2483" y2="21.4136" gradientUnits="userSpaceOnUse">
<stop stop-color="#E2C35D"/>
<stop offset="0.508333" stop-color="#E3CB5C"/>
<stop offset="1" stop-color="#D2B45C"/>
</linearGradient>
<linearGradient id="paint22_linear" x1="31.8098" y1="19.5852" x2="36.221" y2="19.5852" gradientUnits="userSpaceOnUse">
<stop stop-color="#E2C35D"/>
<stop offset="0.508333" stop-color="#E3CB5C"/>
<stop offset="1" stop-color="#D2B45C"/>
</linearGradient>
<linearGradient id="paint23_linear" x1="28.4842" y1="19.3368" x2="30.1711" y2="19.3368" gradientUnits="userSpaceOnUse">
<stop stop-color="#E2C35D"/>
<stop offset="0.508333" stop-color="#E3CB5C"/>
<stop offset="1" stop-color="#D2B45C"/>
</linearGradient>
<linearGradient id="paint24_linear" x1="28.4069" y1="17.762" x2="36.2483" y2="17.762" gradientUnits="userSpaceOnUse">
<stop stop-color="#E2C35D"/>
<stop offset="0.508333" stop-color="#E3CB5C"/>
<stop offset="1" stop-color="#D2B45C"/>
</linearGradient>
<linearGradient id="paint25_linear" x1="34.4836" y1="15.619" x2="36.1998" y2="15.619" gradientUnits="userSpaceOnUse">
<stop stop-color="#E2C35D"/>
<stop offset="0.508333" stop-color="#E3CB5C"/>
<stop offset="1" stop-color="#D2B45C"/>
</linearGradient>
<linearGradient id="paint26_linear" x1="28.4415" y1="15.9768" x2="33.5291" y2="15.9768" gradientUnits="userSpaceOnUse">
<stop stop-color="#E2C35D"/>
<stop offset="0.508333" stop-color="#E3CB5C"/>
<stop offset="1" stop-color="#D2B45C"/>
</linearGradient>
<linearGradient id="paint27_linear" x1="28.4084" y1="13.3585" x2="36.2495" y2="13.3585" gradientUnits="userSpaceOnUse">
<stop stop-color="#E2C35D"/>
<stop offset="0.508333" stop-color="#E3CB5C"/>
<stop offset="1" stop-color="#D2B45C"/>
</linearGradient>
<linearGradient id="paint28_linear" x1="30.5713" y1="13.3255" x2="34.2241" y2="13.3255" gradientUnits="userSpaceOnUse">
<stop stop-color="#E2C35D"/>
<stop offset="0.508333" stop-color="#E3CB5C"/>
<stop offset="1" stop-color="#D2B45C"/>
</linearGradient>
<linearGradient id="paint29_linear" x1="30.5241" y1="12.5376" x2="31.5774" y2="12.5376" gradientUnits="userSpaceOnUse">
<stop stop-color="#E2C35D"/>
<stop offset="0.508333" stop-color="#E3CB5C"/>
<stop offset="1" stop-color="#D2B45C"/>
</linearGradient>
<linearGradient id="paint30_linear" x1="33.1897" y1="14.058" x2="34.2417" y2="14.058" gradientUnits="userSpaceOnUse">
<stop stop-color="#E2C35D"/>
<stop offset="0.508333" stop-color="#E3CB5C"/>
<stop offset="1" stop-color="#D2B45C"/>
</linearGradient>
<linearGradient id="paint31_linear" x1="35.4788" y1="22.4248" x2="39.2678" y2="22.4248" gradientUnits="userSpaceOnUse">
<stop stop-color="#E2C35D"/>
<stop offset="0.508333" stop-color="#E3CB5C"/>
<stop offset="1" stop-color="#D2B45C"/>
</linearGradient>
<linearGradient id="paint32_linear" x1="32.0194" y1="7.26926" x2="38.6415" y2="7.26926" gradientUnits="userSpaceOnUse">
<stop stop-color="#E2C35D"/>
<stop offset="0.508333" stop-color="#E3CB5C"/>
<stop offset="1" stop-color="#D2B45C"/>
</linearGradient>
<linearGradient id="paint33_linear" x1="5.27746" y1="9.52208" x2="10.6728" y2="9.52208" gradientUnits="userSpaceOnUse">
<stop stop-color="#E2C35D"/>
<stop offset="0.508333" stop-color="#E3CB5C"/>
<stop offset="1" stop-color="#D2B45C"/>
</linearGradient>
</defs>
</svg>
