<svg width="19" height="19" viewBox="0 0 19 19" fill="none" xmlns="http://www.w3.org/2000/svg">
<path d="M3.29146 14.1631V8.51886C3.29146 6.65225 4.86183 5.1391 6.77207 5.1391H4.76595C2.85568 5.1391 1.30713 6.65225 1.30713 8.51886V14.1631C1.30713 16.0297 2.85568 17.5428 4.76595 17.5428H6.77207C4.86183 17.5428 3.29146 16.0297 3.29146 14.1631Z" fill="#F1F1F1"/>
<path d="M12.0423 18.2343H4.675C2.38637 18.2343 0.524414 16.4149 0.524414 14.1785V8.63573C0.524414 6.39941 2.38637 4.58002 4.675 4.58002H14.083C16.3716 4.58002 18.2336 6.39941 18.2336 8.63573C18.2336 9.00906 17.9239 9.31168 17.5418 9.31168C17.1598 9.31168 16.8501 9.00906 16.8501 8.63573C16.8501 7.14485 15.6088 5.93192 14.083 5.93192H4.675C3.14925 5.93192 1.90794 7.14485 1.90794 8.63573V14.1785C1.90794 15.6694 3.14925 16.8823 4.675 16.8823H12.0423C12.4244 16.8823 12.7341 17.185 12.7341 17.5583C12.7341 17.9316 12.4244 18.2343 12.0423 18.2343ZM5.05547 7.75699C4.57791 7.75699 4.19077 8.13529 4.19077 8.60193C4.19077 9.06858 4.57791 9.44687 5.05547 9.44687C5.53303 9.44687 5.92018 9.06858 5.92018 8.60193C5.92018 8.13529 5.53303 7.75699 5.05547 7.75699ZM8.03006 7.75699C7.5525 7.75699 7.16535 8.13529 7.16535 8.60193C7.16535 9.06858 7.5525 9.44687 8.03006 9.44687C8.50762 9.44687 8.89477 9.06858 8.89477 8.60193C8.89477 8.13529 8.50762 7.75699 8.03006 7.75699ZM11.0046 7.75699C10.5271 7.75699 10.1399 8.13529 10.1399 8.60193C10.1399 9.06858 10.5271 9.44687 11.0046 9.44687C11.4822 9.44687 11.8694 9.06858 11.8694 8.60193C11.8694 8.13529 11.4822 7.75699 11.0046 7.75699ZM13.9101 7.75699C13.4325 7.75699 13.0454 8.13529 13.0454 8.60193C13.0454 9.06858 13.4325 9.44687 13.9101 9.44687C14.3876 9.44687 14.7748 9.06858 14.7748 8.60193C14.7748 8.13529 14.3876 7.75699 13.9101 7.75699ZM5.05547 10.6636C4.57791 10.6636 4.19077 11.0419 4.19077 11.5085C4.19077 11.9752 4.57791 12.3535 5.05547 12.3535C5.53303 12.3535 5.92018 11.9752 5.92018 11.5085C5.92018 11.0419 5.53303 10.6636 5.05547 10.6636ZM5.05547 13.5702C4.57791 13.5702 4.19077 13.9485 4.19077 14.4151C4.19077 14.8818 4.57791 15.2601 5.05547 15.2601C5.53303 15.2601 5.92018 14.8818 5.92018 14.4151C5.92018 13.9485 5.53303 13.5702 5.05547 13.5702ZM8.03006 10.6636C7.5525 10.6636 7.16535 11.0419 7.16535 11.5085C7.16535 11.9752 7.5525 12.3535 8.03006 12.3535C8.50762 12.3535 8.89477 11.9752 8.89477 11.5085C8.89477 11.0419 8.50762 10.6636 8.03006 10.6636ZM8.03006 13.5702C7.5525 13.5702 7.16535 13.9485 7.16535 14.4151C7.16535 14.8818 7.5525 15.2601 8.03006 15.2601C8.50762 15.2601 8.89477 14.8818 8.89477 14.4151C8.89477 13.9485 8.50762 13.5702 8.03006 13.5702ZM11.0046 10.6636C10.5271 10.6636 10.1399 11.0419 10.1399 11.5085C10.1399 11.9752 10.5271 12.3535 11.0046 12.3535C11.4822 12.3535 11.8694 11.9752 11.8694 11.5085C11.8694 11.0419 11.4822 10.6636 11.0046 10.6636ZM11.0046 13.5702C10.5271 13.5702 10.1399 13.9485 10.1399 14.4151C10.1399 14.8818 10.5271 15.2601 11.0046 15.2601C11.4822 15.2601 11.8694 14.8818 11.8694 14.4151C11.8694 13.9485 11.4822 13.5702 11.0046 13.5702Z" fill="white"/>
<path d="M7.51118 2.95773C7.51118 3.33106 7.20148 3.63368 6.81942 3.63368C6.43736 3.63368 6.12765 3.33106 6.12765 2.95773C6.12765 2.58501 5.81733 2.28178 5.43589 2.28178C5.05445 2.28178 4.74413 2.58501 4.74413 2.95773C4.74413 3.33106 4.43442 3.63368 4.05236 3.63368C3.6703 3.63368 3.3606 3.33106 3.3606 2.95773C3.3606 1.83957 4.29157 0.929871 5.43589 0.929871C6.58021 0.929871 7.51118 1.83957 7.51118 2.95773ZM14.0829 2.95773C14.0829 3.33106 14.3927 3.63368 14.7747 3.63368C15.1568 3.63368 15.4665 3.33106 15.4665 2.95773C15.4665 1.83957 14.5355 0.929871 13.3912 0.929871C12.2469 0.929871 11.3159 1.83957 11.3159 2.95773C11.3159 3.33106 11.6256 3.63368 12.0077 3.63368C12.3897 3.63368 12.6994 3.33106 12.6994 2.95773C12.6994 2.58501 13.0097 2.28178 13.3912 2.28178C13.7726 2.28178 14.0829 2.58501 14.0829 2.95773ZM18.2335 15.3389C18.2335 14.2829 17.2724 13.4237 16.091 13.4237C15.5888 13.4237 15.2244 13.1868 15.2244 12.8604C15.2244 12.5498 15.4804 12.2971 15.7951 12.2971C16.1123 12.2971 16.5256 12.3309 17.1853 12.5816C17.5414 12.7169 17.9423 12.5446 18.0808 12.1966C18.2193 11.8487 18.0429 11.457 17.6868 11.3217C17.3434 11.1912 17.0439 11.1056 16.7808 11.0492V10.5284C16.7808 10.1551 16.4711 9.85244 16.0891 9.85244C15.707 9.85244 15.3973 10.1551 15.3973 10.5284V10.9852C14.5098 11.1658 13.8408 11.9379 13.8408 12.8604C13.8408 13.9523 14.8082 14.7756 16.091 14.7756C16.5025 14.7756 16.85 15.0336 16.85 15.3389C16.85 15.639 16.5644 15.9022 16.2389 15.9022C15.985 15.9022 15.3477 15.8112 14.719 15.567C14.364 15.4292 13.9617 15.5985 13.8206 15.9454C13.6794 16.2924 13.8529 16.6854 14.2079 16.8233C14.6085 16.9789 15.0264 17.0899 15.3973 17.1603V17.5583C15.3973 17.9316 15.707 18.2343 16.0891 18.2343C16.4711 18.2343 16.7808 17.9316 16.7808 17.5583V17.1808C17.0971 17.0939 17.3894 16.9313 17.6331 16.7019C18.0203 16.3373 18.2335 15.8532 18.2335 15.3389Z" fill="url(#paint0_linear)"/>
<defs>
<linearGradient id="paint0_linear" x1="3.16992" y1="9.7657" x2="18.354" y2="9.7657" gradientUnits="userSpaceOnUse">
<stop stop-color="#E2C35D"/>
<stop offset="0.485719" stop-color="#F2E090"/>
<stop offset="1" stop-color="#E8C96F"/>
</linearGradient>
</defs>
</svg>
