<svg width="32" height="28" viewBox="0 0 32 28" fill="none" xmlns="http://www.w3.org/2000/svg">
<path d="M25.5376 3.83215H22.1197H2.83918C1.47661 3.83215 0.37207 4.93669 0.37207 6.29926V19.4568C0.37207 20.8194 1.47661 21.9239 2.83918 21.9239H7.55373H25.5377C26.9002 21.9239 28.0048 20.8194 28.0048 19.4568V6.29917C28.0047 4.93669 26.9001 3.83215 25.5376 3.83215Z" fill="#FFE4BA"/>
<path d="M25.5375 22.1933H7.55364C7.40477 22.1933 7.28411 22.0727 7.28411 21.9238C7.28411 21.7749 7.40477 21.6543 7.55364 21.6543H25.5375C26.7492 21.6543 27.735 20.6684 27.735 19.4568V6.29926C27.735 5.08754 26.7491 4.10168 25.5375 4.10168H2.83909C1.62737 4.10168 0.641602 5.08754 0.641602 6.29926V19.4568C0.641602 20.6685 1.62746 21.6543 2.83909 21.6543C2.98796 21.6543 3.10862 21.7749 3.10862 21.9238C3.10862 22.0727 2.98796 22.1933 2.83909 22.1933C1.33016 22.1933 0.102539 20.9657 0.102539 19.4568V6.29926C0.102539 4.79025 1.33016 3.56262 2.83909 3.56262H25.5376C27.0465 3.56262 28.2741 4.79025 28.2741 6.29926V19.4568C28.2741 20.9657 27.0465 22.1933 25.5375 22.1933Z" fill="#F39200"/>
<path d="M24.997 13.2729H3.37977C1.57274 13.2729 0.102539 11.8027 0.102539 9.99567C0.102539 9.8468 0.223199 9.72614 0.37207 9.72614C0.520941 9.72614 0.641602 9.8468 0.641602 9.99567C0.641602 11.5055 1.86995 12.7338 3.37977 12.7338H24.997C26.5068 12.7338 27.7352 11.5055 27.7352 9.99567C27.7352 9.8468 27.8558 9.72614 28.0047 9.72614C28.1536 9.72614 28.2742 9.8468 28.2742 9.99567C28.2742 11.8027 26.804 13.2729 24.997 13.2729Z" fill="#F39200"/>
<path d="M16.0166 14.4197H12.3602C12.0947 14.4197 11.8794 14.2044 11.8794 13.9389V11.817C11.8794 11.5514 12.0947 11.3362 12.3602 11.3362H16.0166C16.2822 11.3362 16.4975 11.5514 16.4975 11.817V13.9389C16.4975 14.2044 16.2822 14.4197 16.0166 14.4197Z" fill="white"/>
<path d="M16.0166 14.6892H12.3602C11.9465 14.6892 11.6099 14.3526 11.6099 13.9388V11.8169C11.6099 11.4032 11.9465 11.0665 12.3602 11.0665H16.0166C16.4303 11.0665 16.767 11.4032 16.767 11.8169V13.9388C16.767 14.3527 16.4303 14.6892 16.0166 14.6892ZM12.3602 11.6058C12.2437 11.6058 12.1489 11.7006 12.1489 11.8171V13.939C12.1489 14.0555 12.2437 14.1503 12.3602 14.1503H16.0166C16.1331 14.1503 16.2279 14.0555 16.2279 13.939V11.8171C16.2279 11.7006 16.1331 11.6058 16.0166 11.6058H12.3602Z" fill="#F39200"/>
<path d="M18.4341 4.10166C18.2852 4.10166 18.1646 3.981 18.1646 3.83213V2.70774C18.1646 1.98863 17.5795 1.40356 16.8604 1.40356H11.5166C10.7975 1.40356 10.2124 1.98863 10.2124 2.70774V3.83213C10.2124 3.981 10.0917 4.10166 9.94287 4.10166C9.794 4.10166 9.67334 3.981 9.67334 3.83213V2.70774C9.67334 1.69133 10.5002 0.864502 11.5166 0.864502H16.8604C17.8768 0.864502 18.7036 1.69142 18.7036 2.70774V3.83213C18.7036 3.98091 18.583 4.10166 18.4341 4.10166Z" fill="#F39200"/>
<path d="M7.24668 5.91083H4.17456C4.02569 5.91083 3.90503 5.79017 3.90503 5.6413C3.90503 5.49243 4.02569 5.37177 4.17456 5.37177H7.24668C7.39555 5.37177 7.51621 5.49243 7.51621 5.6413C7.51621 5.79017 7.39555 5.91083 7.24668 5.91083Z" fill="#F39200"/>
<path d="M10.6142 5.91083H9.94287C9.794 5.91083 9.67334 5.79017 9.67334 5.6413C9.67334 5.49243 9.794 5.37177 9.94287 5.37177H10.6142C10.7631 5.37177 10.8837 5.49243 10.8837 5.6413C10.8837 5.79017 10.7631 5.91083 10.6142 5.91083Z" fill="#F39200"/>
<path d="M12.0974 15.9745V26.866H31.6281V24.2413V21.5531V15.9745H12.0974Z" fill="white"/>
<path d="M31.6281 27.1355H12.0974C11.9485 27.1355 11.8279 27.0149 11.8279 26.866V15.9746C11.8279 15.8257 11.9485 15.7051 12.0974 15.7051H31.6281C31.777 15.7051 31.8976 15.8257 31.8976 15.9746V21.5532C31.8976 21.7021 31.777 21.8227 31.6281 21.8227C31.4792 21.8227 31.3586 21.7021 31.3586 21.5532V16.2441H12.3669V26.5966H31.3586V24.2413C31.3586 24.0924 31.4792 23.9718 31.6281 23.9718C31.777 23.9718 31.8976 24.0924 31.8976 24.2413V26.866C31.8976 27.0149 31.777 27.1355 31.6281 27.1355Z" fill="#F39200"/>
<path d="M27.8837 17.3909H15.8417C15.8417 18.6764 14.7992 19.7189 13.5137 19.7189V23.1217C14.7992 23.1217 15.8417 24.1642 15.8417 25.4498H27.8836C27.8836 24.1642 28.9261 23.1217 30.2117 23.1217V19.7189C28.9262 19.7189 27.8837 18.6764 27.8837 17.3909Z" fill="#FFE4BA"/>
<path d="M27.8837 25.7193H15.8417C15.6928 25.7193 15.5722 25.5986 15.5722 25.4497C15.5722 24.3146 14.6488 23.3911 13.5137 23.3911C13.3648 23.3911 13.2441 23.2705 13.2441 23.1216V19.7188C13.2441 19.5699 13.3648 19.4492 13.5137 19.4492C14.6488 19.4492 15.5722 18.5258 15.5722 17.3907C15.5722 17.2419 15.6928 17.1212 15.8417 17.1212H27.8836C28.0325 17.1212 28.1532 17.2419 28.1532 17.3907C28.1532 18.5258 29.0766 19.4492 30.2117 19.4492C30.3605 19.4492 30.4812 19.5699 30.4812 19.7188V23.1216C30.4812 23.2705 30.3605 23.3911 30.2117 23.3911C29.0766 23.3911 28.1532 24.3146 28.1532 25.4497C28.1533 25.5986 28.0325 25.7193 27.8837 25.7193ZM16.0974 25.1802H27.628C27.7542 23.9626 28.7248 22.9921 29.9422 22.866V19.9746C28.7248 19.8484 27.7542 18.8778 27.628 17.6604H16.0974C15.9713 18.8778 15.0007 19.8484 13.7832 19.9746V22.866C15.0007 22.9921 15.9713 23.9627 16.0974 25.1802Z" fill="#F39200"/>
<path d="M21.8628 23.838C23.198 23.838 24.2805 22.7555 24.2805 21.4203C24.2805 20.085 23.198 19.0026 21.8628 19.0026C20.5275 19.0026 19.4451 20.085 19.4451 21.4203C19.4451 22.7555 20.5275 23.838 21.8628 23.838Z" fill="white"/>
<path d="M21.8628 24.1074C20.3811 24.1074 19.1755 22.902 19.1755 21.4202C19.1755 19.9384 20.381 18.733 21.8628 18.733C23.3446 18.733 24.55 19.9384 24.55 21.4202C24.55 22.902 23.3446 24.1074 21.8628 24.1074ZM21.8628 19.2721C20.6783 19.2721 19.7146 20.2358 19.7146 21.4203C19.7146 22.6048 20.6783 23.5685 21.8628 23.5685C23.0473 23.5685 24.0109 22.6048 24.0109 21.4203C24.0109 20.2358 23.0473 19.2721 21.8628 19.2721Z" fill="#F39200"/>
<path d="M21.8978 22.797C21.5451 22.797 21.1991 22.6402 20.9723 22.3776C20.875 22.2649 20.8875 22.0948 21.0001 21.9975C21.1127 21.9001 21.283 21.9127 21.3803 22.0253C21.5061 22.1711 21.6996 22.258 21.8978 22.258C21.9616 22.258 22.2797 22.2468 22.2797 22.0262C22.2797 21.8491 22.0747 21.7515 21.8533 21.6724L21.7757 21.6445C21.5384 21.5599 21.0447 21.3839 21.0227 20.8396C21.0143 20.6329 21.0812 20.4495 21.2162 20.3089C21.4525 20.0628 21.7977 20.0436 21.8978 20.0436C22.2495 20.0436 22.4988 20.1515 22.7315 20.4041C22.8324 20.5136 22.8253 20.6841 22.7159 20.7849C22.6064 20.8859 22.4358 20.8788 22.335 20.7693C22.2049 20.6281 22.0987 20.5827 21.8978 20.5827C21.8028 20.5827 21.6706 20.6139 21.605 20.6822C21.583 20.7051 21.5582 20.7411 21.5614 20.8176C21.5676 20.9712 21.6938 21.0429 21.9568 21.1366L22.0346 21.1646C22.2286 21.2339 22.8188 21.4445 22.8188 22.0261C22.8188 22.5558 22.3414 22.797 21.8978 22.797Z" fill="#F39200"/>
<path d="M21.8979 20.5827C21.7491 20.5827 21.6284 20.4621 21.6284 20.3132V19.9241C21.6284 19.7752 21.7491 19.6545 21.8979 19.6545C22.0468 19.6545 22.1675 19.7752 22.1675 19.9241V20.3132C22.1675 20.462 22.0468 20.5827 21.8979 20.5827Z" fill="#F39200"/>
<path d="M21.8979 23.186C21.7491 23.186 21.6284 23.0654 21.6284 22.9165V22.5274C21.6284 22.3785 21.7491 22.2578 21.8979 22.2578C22.0468 22.2578 22.1675 22.3785 22.1675 22.5274V22.9165C22.1675 23.0654 22.0468 23.186 21.8979 23.186Z" fill="#F39200"/>
<path d="M18.0067 21.6898H16.0029C15.8541 21.6898 15.7334 21.5692 15.7334 21.4203C15.7334 21.2714 15.8541 21.1508 16.0029 21.1508H18.0067C18.1556 21.1508 18.2762 21.2714 18.2762 21.4203C18.2762 21.5692 18.1556 21.6898 18.0067 21.6898Z" fill="#F39200"/>
<path d="M27.7228 21.6898H25.719C25.5701 21.6898 25.4495 21.5692 25.4495 21.4203C25.4495 21.2714 25.5701 21.1508 25.719 21.1508H27.7228C27.8717 21.1508 27.9923 21.2714 27.9923 21.4203C27.9923 21.5692 27.8716 21.6898 27.7228 21.6898Z" fill="#F39200"/>
<path d="M10.614 27.1355H6.65942C6.51055 27.1355 6.38989 27.0149 6.38989 26.866C6.38989 26.7171 6.51055 26.5965 6.65942 26.5965H10.614C10.7629 26.5965 10.8835 26.7171 10.8835 26.866C10.8835 27.0149 10.7629 27.1355 10.614 27.1355Z" fill="#F39200"/>
<path d="M26.7207 1.40356H22.7661C22.6172 1.40356 22.4966 1.2829 22.4966 1.13403C22.4966 0.985162 22.6172 0.864502 22.7661 0.864502H26.7207C26.8695 0.864502 26.9902 0.985162 26.9902 1.13403C26.9902 1.2829 26.8695 1.40356 26.7207 1.40356Z" fill="#F39200"/>
<path d="M29.5254 1.40356H28.3938C28.2449 1.40356 28.1243 1.2829 28.1243 1.13403C28.1243 0.985162 28.2449 0.864502 28.3938 0.864502H29.5254C29.6743 0.864502 29.7949 0.985162 29.7949 1.13403C29.7949 1.2829 29.6743 1.40356 29.5254 1.40356Z" fill="#F39200"/>
</svg>
