<svg width="35" height="30" viewBox="0 0 35 30" fill="none" xmlns="http://www.w3.org/2000/svg">
<path d="M27.7977 5.51605H11.787H9.04264H6.66491C5.86702 5.51605 5.22021 6.14909 5.22021 6.93001V21.1937H29.2424V6.93001C29.2424 6.14909 28.5956 5.51605 27.7977 5.51605Z" fill="#B4DEE1"/>
<path d="M29.2424 21.4632H5.22021C5.06811 21.4632 4.94482 21.3425 4.94482 21.1937V6.92998C4.94482 6.00172 5.71647 5.24658 6.66491 5.24658H9.04264C9.19474 5.24658 9.31803 5.36724 9.31803 5.51611C9.31803 5.66498 9.19474 5.78564 9.04264 5.78564H6.66491C6.02023 5.78564 5.49561 6.29901 5.49561 6.92998V20.9241H28.967V6.92998C28.967 6.29901 28.4424 5.78564 27.7977 5.78564H11.7869C11.6348 5.78564 11.5115 5.66498 11.5115 5.51611C11.5115 5.36724 11.6348 5.24658 11.7869 5.24658H27.7977C28.7462 5.24658 29.5177 6.00172 29.5177 6.92998V21.1937C29.5177 21.3425 29.3945 21.4632 29.2424 21.4632Z" fill="url(#paint0_linear)"/>
<path d="M27.3864 7.66022H24.6689H22.1768H7.07591C6.6922 7.66022 6.3811 7.9647 6.3811 8.34024V19.3085C6.3811 19.684 6.6922 19.9885 7.07591 19.9885H27.3864C27.7701 19.9885 28.0812 19.684 28.0812 19.3085V8.34034C28.0812 7.9647 27.7702 7.66022 27.3864 7.66022Z" fill="white"/>
<path d="M27.3864 20.258H7.07591C6.54092 20.258 6.10571 19.8321 6.10571 19.3085V8.34037C6.10571 7.81676 6.54092 7.39081 7.07591 7.39081H22.1769C22.329 7.39081 22.4523 7.51147 22.4523 7.66034C22.4523 7.80921 22.329 7.92987 22.1769 7.92987H7.07591C6.84459 7.92987 6.65649 8.11405 6.65649 8.34037V19.3085C6.65649 19.5349 6.84468 19.719 7.07591 19.719H27.3864C27.6178 19.719 27.8059 19.5348 27.8059 19.3085V8.34037C27.8059 8.11396 27.6177 7.92987 27.3864 7.92987H24.6689C24.5168 7.92987 24.3935 7.80921 24.3935 7.66034C24.3935 7.51147 24.5168 7.39081 24.6689 7.39081H27.3864C27.9214 7.39081 28.3566 7.81676 28.3566 8.34037V19.3085C28.3567 19.8321 27.9214 20.258 27.3864 20.258Z" fill="url(#paint1_linear)"/>
<path d="M10.759 15.6602H12.969V18.7423H10.759V15.6602Z" fill="white"/>
<path d="M12.969 19.0119H10.759C10.6069 19.0119 10.4836 18.8912 10.4836 18.7423V15.6602C10.4836 15.5113 10.6069 15.3906 10.759 15.3906H12.969C13.1211 15.3906 13.2444 15.5113 13.2444 15.6602V18.7423C13.2444 18.8913 13.1211 19.0119 12.969 19.0119ZM11.0344 18.4728H12.6936V15.9297H11.0344V18.4728Z" fill="url(#paint2_linear)"/>
<path d="M14.3372 13.505H16.5472V18.7424H14.3372V13.505Z" fill="#EBECEC"/>
<path d="M16.5472 19.0119H14.3372C14.1851 19.0119 14.0618 18.8912 14.0618 18.7424V13.505C14.0618 13.3561 14.1851 13.2355 14.3372 13.2355H16.5472C16.6993 13.2355 16.8226 13.3561 16.8226 13.505V18.7424C16.8226 18.8913 16.6992 19.0119 16.5472 19.0119ZM14.6125 18.4728H16.2718V13.7745H14.6125V18.4728Z" fill="url(#paint3_linear)"/>
<path d="M17.9153 12.166H20.1253V18.7423H17.9153V12.166Z" fill="white"/>
<path d="M20.1253 19.0119H17.9153C17.7632 19.0119 17.6399 18.8912 17.6399 18.7423V12.166C17.6399 12.0171 17.7632 11.8964 17.9153 11.8964H20.1253C20.2774 11.8964 20.4007 12.0171 20.4007 12.166V18.7423C20.4007 18.8913 20.2774 19.0119 20.1253 19.0119ZM18.1907 18.4728H19.8499V12.4355H18.1907V18.4728Z" fill="url(#paint4_linear)"/>
<path d="M21.4934 10.5695V18.7423H23.7034V15.0585V13.0208V10.5695H21.4934Z" fill="#E9EFEF"/>
<path d="M23.7034 19.0119H21.4934C21.3413 19.0119 21.218 18.8912 21.218 18.7424V10.5695C21.218 10.4206 21.3413 10.2999 21.4934 10.2999H23.7034C23.8555 10.2999 23.9788 10.4206 23.9788 10.5695V13.0208C23.9788 13.1697 23.8555 13.2904 23.7034 13.2904C23.5513 13.2904 23.428 13.1697 23.428 13.0208V10.839H21.7688V18.4728H23.428V15.0584C23.428 14.9095 23.5513 14.7889 23.7034 14.7889C23.8555 14.7889 23.9788 14.9095 23.9788 15.0584V18.7424C23.9788 18.8913 23.8554 19.0119 23.7034 19.0119Z" fill="url(#paint5_linear)"/>
<path d="M25.5756 19.0119H8.88696C8.73486 19.0119 8.61157 18.8912 8.61157 18.7424V9.35065C8.61157 9.20178 8.73486 9.08112 8.88696 9.08112C9.03907 9.08112 9.16235 9.20178 9.16235 9.35065V18.4728H25.5756C25.7277 18.4728 25.851 18.5935 25.851 18.7424C25.851 18.8912 25.7277 19.0119 25.5756 19.0119Z" fill="url(#paint6_linear)"/>
<path d="M0.756348 21.1937V21.5538C0.756348 22.5245 1.5604 23.3116 2.55235 23.3116H3.7212H6.38102H31.9099C32.9018 23.3116 33.7059 22.5246 33.7059 21.5538V21.1937H0.756348Z" fill="white"/>
<path d="M31.9099 23.5811H6.38102C6.22891 23.5811 6.10563 23.4604 6.10563 23.3116C6.10563 23.1627 6.22891 23.042 6.38102 23.042H31.91C32.7485 23.042 33.4305 22.3744 33.4305 21.5538V21.4632H1.03174V21.5538C1.03174 22.3745 1.71388 23.042 2.55235 23.042H3.7212C3.87331 23.042 3.99659 23.1627 3.99659 23.3116C3.99659 23.4604 3.87331 23.5811 3.7212 23.5811H2.55235C1.41022 23.5811 0.480957 22.6717 0.480957 21.5538V21.1937C0.480957 21.0448 0.60424 20.9241 0.756348 20.9241H33.7059C33.858 20.9241 33.9813 21.0448 33.9813 21.1937V21.5538C33.9813 22.6717 33.052 23.5811 31.9099 23.5811Z" fill="url(#paint7_linear)"/>
<path d="M18.5087 6.95575H15.9534C15.8013 6.95575 15.678 6.83509 15.678 6.68622C15.678 6.53735 15.8013 6.41669 15.9534 6.41669H18.5087C18.6608 6.41669 18.7841 6.53735 18.7841 6.68622C18.7841 6.83509 18.6608 6.95575 18.5087 6.95575Z" fill="url(#paint8_linear)"/>
<path d="M18.5087 22.5222H15.9534C15.8013 22.5222 15.678 22.4015 15.678 22.2527C15.678 22.1038 15.8013 21.9831 15.9534 21.9831H18.5087C18.6608 21.9831 18.7841 22.1038 18.7841 22.2527C18.7841 22.4015 18.6608 22.5222 18.5087 22.5222Z" fill="url(#paint9_linear)"/>
<path d="M3.3851 1.47198H0.51709C0.364982 1.47198 0.241699 1.35132 0.241699 1.20245C0.241699 1.05358 0.364982 0.932922 0.51709 0.932922H3.38519C3.5373 0.932922 3.66058 1.05358 3.66058 1.20245C3.66058 1.35132 3.53721 1.47198 3.3851 1.47198Z" fill="url(#paint10_linear)"/>
<path d="M33.8978 29.0671H29.7092C29.5571 29.0671 29.4338 28.9464 29.4338 28.7976C29.4338 28.6487 29.5571 28.528 29.7092 28.528H33.8978C34.0499 28.528 34.1732 28.6487 34.1732 28.7976C34.1732 28.9464 34.0499 29.0671 33.8978 29.0671Z" fill="url(#paint11_linear)"/>
<path d="M6.19949 1.47198H5.15723C5.00512 1.47198 4.88184 1.35132 4.88184 1.20245C4.88184 1.05358 5.00512 0.932922 5.15723 0.932922H6.19949C6.3516 0.932922 6.47488 1.05358 6.47488 1.20245C6.47488 1.35132 6.35151 1.47198 6.19949 1.47198Z" fill="url(#paint12_linear)"/>
<path d="M34.4828 23.5811H34.0969C33.9448 23.5811 33.8215 23.4604 33.8215 23.3116C33.8215 23.1627 33.9448 23.042 34.0969 23.042H34.4828C34.6349 23.042 34.7582 23.1627 34.7582 23.3116C34.7582 23.4604 34.6349 23.5811 34.4828 23.5811Z" fill="url(#paint13_linear)"/>
<defs>
<linearGradient id="paint0_linear" x1="-32.7922" y1="5.24658" x2="7.66922" y2="57.0586" gradientUnits="userSpaceOnUse">
<stop stop-color="#50B300"/>
<stop offset="1" stop-color="#62CE0A" stop-opacity="0.7"/>
</linearGradient>
<linearGradient id="paint1_linear" x1="-28.0653" y1="7.39081" x2="2.77939" y2="52.4659" gradientUnits="userSpaceOnUse">
<stop stop-color="#50B300"/>
<stop offset="1" stop-color="#62CE0A" stop-opacity="0.7"/>
</linearGradient>
<linearGradient id="paint2_linear" x1="6.24386" y1="15.3906" x2="14.7239" y2="20.8541" gradientUnits="userSpaceOnUse">
<stop stop-color="#50B300"/>
<stop offset="1" stop-color="#62CE0A" stop-opacity="0.7"/>
</linearGradient>
<linearGradient id="paint3_linear" x1="9.82199" y1="13.2355" x2="20.139" y2="17.4024" gradientUnits="userSpaceOnUse">
<stop stop-color="#50B300"/>
<stop offset="1" stop-color="#62CE0A" stop-opacity="0.7"/>
</linearGradient>
<linearGradient id="paint4_linear" x1="13.4001" y1="11.8964" x2="24.2352" y2="15.4491" gradientUnits="userSpaceOnUse">
<stop stop-color="#50B300"/>
<stop offset="1" stop-color="#62CE0A" stop-opacity="0.7"/>
</linearGradient>
<linearGradient id="paint5_linear" x1="16.9782" y1="10.2999" x2="28.1752" y2="13.2985" gradientUnits="userSpaceOnUse">
<stop stop-color="#50B300"/>
<stop offset="1" stop-color="#62CE0A" stop-opacity="0.7"/>
</linearGradient>
<linearGradient id="paint6_linear" x1="-17.8633" y1="9.08112" x2="5.90888" y2="43.9551" gradientUnits="userSpaceOnUse">
<stop stop-color="#50B300"/>
<stop offset="1" stop-color="#62CE0A" stop-opacity="0.7"/>
</linearGradient>
<linearGradient id="paint7_linear" x1="-50.966" y1="20.9241" x2="-49.6946" y2="34.4707" gradientUnits="userSpaceOnUse">
<stop stop-color="#50B300"/>
<stop offset="1" stop-color="#62CE0A" stop-opacity="0.7"/>
</linearGradient>
<linearGradient id="paint8_linear" x1="10.9078" y1="6.41669" x2="11.4542" y2="9.07713" gradientUnits="userSpaceOnUse">
<stop stop-color="#50B300"/>
<stop offset="1" stop-color="#62CE0A" stop-opacity="0.7"/>
</linearGradient>
<linearGradient id="paint9_linear" x1="10.9078" y1="21.9831" x2="11.4542" y2="24.6436" gradientUnits="userSpaceOnUse">
<stop stop-color="#50B300"/>
<stop offset="1" stop-color="#62CE0A" stop-opacity="0.7"/>
</linearGradient>
<linearGradient id="paint10_linear" x1="-5.00873" y1="0.932922" x2="-4.50882" y2="3.61229" gradientUnits="userSpaceOnUse">
<stop stop-color="#50B300"/>
<stop offset="1" stop-color="#62CE0A" stop-opacity="0.7"/>
</linearGradient>
<linearGradient id="paint11_linear" x1="22.1555" y1="28.528" x2="22.522" y2="31.2514" gradientUnits="userSpaceOnUse">
<stop stop-color="#50B300"/>
<stop offset="1" stop-color="#62CE0A" stop-opacity="0.7"/>
</linearGradient>
<linearGradient id="paint12_linear" x1="2.43538" y1="0.932922" x2="3.39219" y2="3.32243" gradientUnits="userSpaceOnUse">
<stop stop-color="#50B300"/>
<stop offset="1" stop-color="#62CE0A" stop-opacity="0.7"/>
</linearGradient>
<linearGradient id="paint13_linear" x1="32.383" y1="23.042" x2="33.673" y2="24.9362" gradientUnits="userSpaceOnUse">
<stop stop-color="#50B300"/>
<stop offset="1" stop-color="#62CE0A" stop-opacity="0.7"/>
</linearGradient>
</defs>
</svg>
