<svg width="8" height="5" viewBox="0 0 8 5" fill="none" xmlns="http://www.w3.org/2000/svg">
<path d="M7.56338 0.70739C7.55482 0.577541 7.51525 0.451638 7.44799 0.340235C7.38999 0.224717 7.29136 0.134688 7.17105 0.0874221C7.04841 0.0262664 6.91256 -0.00364251 6.77557 0.000353825H1.6354L1.27139 1.10392H5.92482L5.19051 3.3572H0.538126L0.169922 4.46077H5.33003C5.48381 4.45668 5.63585 4.42726 5.78006 4.3737C5.93809 4.29309 6.08869 4.19866 6.23009 4.09152C6.36725 3.98451 6.4909 3.86122 6.59829 3.72436C6.68792 3.59072 6.76383 3.44839 6.82488 3.29951L7.50674 1.15427C7.56877 1.01327 7.58845 0.857278 7.56338 0.705292V0.70739Z" fill="#1C75BC"/>
<path d="M3.10614 1.7196H0.368205L0 2.7382H2.76625L3.10614 1.7196Z" fill="#1C75BC"/>
</svg>
