<svg width="17" height="17" viewBox="0 0 17 17" fill="none" xmlns="http://www.w3.org/2000/svg">
<path d="M8.5 17C13.1944 17 17 13.1944 17 8.5C17 3.80558 13.1944 0 8.5 0C3.80558 0 0 3.80558 0 8.5C0 13.1944 3.80558 17 8.5 17Z" fill="#988430"/>
<path d="M8.50013 16.7277C13.0441 16.7277 16.7278 13.044 16.7278 8.50001C16.7278 3.95599 13.0441 0.272339 8.50013 0.272339C3.95611 0.272339 0.272461 3.95599 0.272461 8.50001C0.272461 13.044 3.95611 16.7277 8.50013 16.7277Z" fill="#7A6A2A"/>
<path d="M8.49968 16.5543C12.948 16.5543 16.5541 12.9482 16.5541 8.49993C16.5541 4.05162 12.948 0.445557 8.49968 0.445557C4.05138 0.445557 0.445312 4.05162 0.445312 8.49993C0.445312 12.9482 4.05138 16.5543 8.49968 16.5543Z" fill="#BA9F33"/>
<path d="M6.46685 11.8285L6.19727 11.3182L6.35406 10.68L7.47227 10.2481L6.99638 9.27158L7.23157 8.28541L7.67308 7.4024L9.03748 7.18784L10.0401 6.23193L12.205 6.39561L12.63 8.71041L11.8117 11.6249L11.3454 13.1337L9.4556 13.2052L8.57809 12.5973L7.55066 12.1682L6.46685 11.8285Z" fill="#E2CC85"/>
<path d="M9.78168 11.8119C9.78168 11.8119 9.52035 11.9316 9.07472 11.9041C8.94543 11.7308 8.04179 11.6496 8.04179 11.6496C8.04179 11.6496 7.92901 11.6153 7.72958 11.6978C7.52877 11.7789 7.33896 11.7693 7.16154 11.8133C6.98411 11.8573 6.80806 11.6263 6.67189 11.5781C6.53573 11.5272 6.35555 11.4048 6.35555 11.4048L5.97456 11.3677L5.20984 11.0445L3.99535 9.83411L3.66526 10.3513L3.56348 10.9908L3.93071 11.7487L4.91963 12.6496L6.84794 13.1392L7.9909 12.8022L9.4227 12.1971L9.78168 11.8119Z" fill="#F1D789"/>
<path d="M2.93111 7.53447L3.17594 6.79312L3.46752 6.31448L4.40692 6.23608L4.12496 7.05858L3.33961 8.45599L3.66558 9.70348L3.08791 9.99231L2.91048 9.71998L2.76744 9.09555L2.75781 8.39409L2.93111 7.53447Z" fill="#F4ECB4"/>
<path d="M3.98421 11.7611L3.80403 11.5094C3.80403 11.5094 3.75589 11.3897 3.7834 11.2852C3.81091 11.1793 3.80678 11.1724 3.79303 11.1325C3.77927 11.0926 3.66374 10.9551 3.67061 10.8368C3.67749 10.7171 3.66099 10.6772 3.74901 10.5823C3.84116 10.4902 3.81366 10.3306 3.81366 10.3306L3.93332 10.4049L3.96082 10.3636C3.96082 10.3636 4.00484 10.398 4.00484 10.4517C4.01447 10.3774 3.97458 10.0336 4.06536 9.95515C4.15751 9.87675 4.31705 10.3224 4.31705 10.3224L4.21803 9.67595L3.96358 9.013L3.51107 8.40782L3.48356 7.74075V7.68298C3.48356 7.68298 3.27587 8.00208 3.21811 8.25378C3.17684 8.42708 3.27587 8.63751 3.25524 8.88646C3.23874 9.13404 3.21811 9.11478 3.27862 9.21243C3.33914 9.31009 3.48631 9.51227 3.42854 9.65806C3.37765 9.78323 3.20435 9.6952 3.20435 9.6952C3.20435 9.6952 3.16997 9.79698 3.1232 9.83412C3.1067 9.7736 3.08882 9.73509 3.05581 9.69795C3.05306 9.72133 3.04618 9.75297 3.04618 9.75297C3.04618 9.75297 3.01592 9.65806 2.98566 9.5384C2.9444 9.37886 2.90039 9.16842 2.8605 9.05564C2.844 9.12028 2.80273 9.31696 2.80273 9.31696L2.82612 9.61955L2.9389 10.0349L3.04756 10.3073L3.15346 10.6401L3.24561 10.8643L3.31989 11.0348L3.38453 11.4186L3.69675 11.7487L3.86317 11.823L3.98421 11.7611Z" fill="#F3E19D"/>
<path d="M3.0948 6.92929C3.0948 6.92929 2.87061 7.31028 2.80597 7.69402C2.74132 8.07776 2.68355 8.4835 2.72482 9.00615C2.76608 9.53293 2.84448 9.85615 2.90775 10.0872C3.0164 10.471 3.29836 11.0046 3.29836 11.0046L3.30799 10.984C3.30799 10.984 3.23372 10.8478 3.19521 10.702C3.15807 10.5562 3.14432 10.3829 3.10993 10.3045C3.07967 10.2261 3.02878 10.1587 3.00402 10.0625C2.98064 9.97031 2.97652 9.82452 2.90499 9.71586C2.87474 9.67185 2.8376 9.55632 2.8266 9.44078C2.81284 9.26748 2.83347 9.07355 2.81697 8.914C2.78671 8.64855 2.76608 8.46837 2.79359 8.32945C2.8211 8.19054 2.96414 7.7958 3.05216 7.4822C3.10993 7.2814 3.07555 7.11222 3.18145 6.93754C3.28736 6.76424 3.352 6.61157 3.37538 6.50567C3.40289 6.40939 3.0948 6.92929 3.0948 6.92929Z" fill="#F2E8B0"/>
<path d="M4.15747 6.77661C4.15747 6.77661 4.04194 6.811 3.98692 6.87151C3.93191 6.92928 3.90852 6.97742 3.83425 7.07507C3.75998 7.1741 3.75585 7.2525 3.69534 7.37491C3.63482 7.49457 3.5014 7.67475 3.4849 7.73939C3.46839 7.80404 3.44089 8.10663 3.4065 8.24967C3.37624 8.39271 3.44089 8.56876 3.44089 8.56876L3.51928 8.55226C3.51928 8.55226 3.51928 8.65404 3.59768 8.72281C3.67608 8.7902 3.68983 8.49449 3.68983 8.49449L3.9828 7.50558L4.4243 7.20574L4.47244 6.96367L4.15747 6.77661Z" fill="#F5EEC0"/>
<path d="M4.37188 7.22497C4.37188 7.22497 4.16419 7.23873 4.06241 7.313C4.02115 7.34326 4.00464 7.36802 3.96063 7.40515C3.87948 7.47255 3.79696 7.53444 3.75707 7.62247C3.71306 7.71049 3.66492 7.84391 3.63191 8.0956C3.61816 8.20151 3.61816 8.29916 3.60853 8.38444C3.59477 8.49997 3.57414 8.59213 3.58515 8.65677C3.5989 8.78881 3.73506 8.85758 3.74882 9.0075L4.03078 8.86446L4.29623 7.81777L4.86015 7.46429L4.54105 7.10669L4.37188 7.22497Z" fill="#E6DB9D"/>
<path d="M4.40635 7.18785C4.40635 7.18785 4.28669 7.18785 4.26331 7.20435C4.23992 7.22086 4.38297 7.25524 4.42698 7.27175C4.47099 7.28825 4.5659 7.3639 4.59065 7.42442C4.61403 7.48219 5.45028 7.81916 5.45028 7.81916L6.0417 7.7889L6.24527 7.50694L5.8574 7.16722L6.12973 6.36536L5.76937 6.42312L4.90287 6.94028L4.46824 7.1067L4.40635 7.18785Z" fill="#DFC57C"/>
<path d="M5.70548 7.45326C5.70548 7.45326 5.72886 7.49727 5.78663 7.49727C5.90904 7.49727 6.02182 7.52753 6.06858 7.58943C6.14698 7.68846 6.3643 8.0048 6.3643 8.0048L6.8842 8.19185L6.91858 7.5798L6.35054 7.18506L5.7041 7.423V7.45326H5.70548Z" fill="#E5CC7C"/>
<path d="M5.60363 7.68031C5.60363 7.68031 5.69853 7.68719 5.81819 7.64317C5.93785 7.59916 6.13454 7.50426 6.21981 7.54139C6.33947 7.59228 6.31472 7.75183 6.444 7.89487C6.5224 7.9829 6.66544 7.98015 6.74659 8.07505C6.82774 8.16995 7.10695 8.12594 7.10695 8.12594L7.21285 8.69673L6.78785 9.24139L6.64894 9.91809H6.07402L5.54861 9.71041L5.29004 9.0846L5.41933 8.45191L5.60363 7.68031Z" fill="#D2C281"/>
<path d="M6.71435 7.70772C6.71435 7.70772 6.73498 7.7146 6.75836 7.7146C6.74186 7.72835 6.70747 7.75861 6.72123 7.83701C6.73498 7.91541 6.77899 8.01444 6.74186 8.07495C6.75836 8.09559 6.78312 8.11897 6.8065 8.18774C6.82988 8.25513 6.83676 8.31703 6.98943 8.32665C6.95504 8.34729 6.92891 8.37479 6.92891 8.37479C6.92891 8.37479 7.03482 8.46694 7.08846 8.55222C7.14347 8.54947 7.28927 8.50408 7.28927 8.50408L7.31953 8.52471L7.38417 8.4972C7.38417 8.4972 7.32365 8.47382 7.36767 8.32665C7.40893 8.19737 7.44606 8.20424 7.44881 8.19461C7.45156 8.18499 7.47907 8.04882 7.47907 7.99381C7.4997 7.92229 7.51621 7.70497 7.51621 7.70497L7.4722 7.22495L7.22462 7.07504L7.02381 6.8811L6.83401 7.23871L6.70885 7.36387L6.69922 7.67334L6.71435 7.70772Z" fill="#E2C270"/>
<path d="M7.31055 7.3062C7.31055 7.3062 7.35456 7.43136 7.37107 7.52764C7.38069 7.49738 7.38069 7.46987 7.38069 7.46987C7.38069 7.46987 7.41508 7.65968 7.42195 7.73808C7.43571 7.73533 7.44946 7.7312 7.45221 7.74495C7.45496 7.75871 7.4866 7.91138 7.47972 7.99665C7.49623 7.96639 7.57462 7.84673 7.71079 7.76558C7.76581 7.7312 7.83045 7.69406 7.89784 7.69131C8.00375 7.68856 8.08077 7.75871 8.20731 7.75871C8.51265 7.75871 8.78911 7.53452 8.99267 7.46575C9.14259 7.41486 9.27187 7.37772 9.36265 7.2952C9.40666 7.25806 9.48506 7.17554 9.55658 7.05312C9.65149 6.88945 9.75051 6.74778 9.84954 6.7299C9.77115 6.74366 9.71338 6.73953 9.71338 6.73953C9.71338 6.73953 9.74364 6.70927 9.79453 6.66801C9.84542 6.62675 9.90731 6.57586 9.99534 6.57586C10.1521 6.57586 10.2305 6.59924 10.3186 6.59924C10.4066 6.59649 10.4575 6.57586 10.4575 6.57586C10.4575 6.57586 10.5496 6.6405 10.7573 6.6405C10.965 6.64325 11.1039 6.66113 11.2126 6.67076C11.3212 6.68039 11.6857 6.6405 11.7902 6.64325C11.8989 6.646 11.9869 6.69139 11.9869 6.69139L11.6499 5.71211L10.4396 4.65442L9.71888 5.16469L8.6103 6.27327L7.53749 6.67076L7.3133 6.92246V7.3062H7.31055Z" fill="#CCB360"/>
<path d="M9.71769 6.74495C9.71769 6.74495 9.74795 6.71469 9.79884 6.67343C9.84973 6.63217 9.91163 6.58128 9.99965 6.58128C10.1564 6.58128 10.2348 6.60466 10.3229 6.60466C10.4109 6.60191 10.4618 6.58128 10.4618 6.58128C10.4618 6.58128 10.5539 6.64592 10.7616 6.64592C10.9693 6.64867 11.1082 6.66655 11.2169 6.67618C11.3255 6.68581 11.69 6.64592 11.7946 6.64867C11.9032 6.65142 11.9912 6.69681 11.9912 6.69681L11.8386 6.25531L11.6611 5.91833L11.155 5.36405C11.155 5.36405 10.5471 5.00644 10.5429 5.00369C10.5402 5.00094 10.3325 4.94592 10.3325 4.94592L9.78234 5.27877L9.28307 6.57028L9.27344 6.84261L9.59666 6.99528C9.67781 6.85911 9.76721 6.75045 9.85111 6.7367C9.77546 6.74495 9.71769 6.74495 9.71769 6.74495Z" fill="#D5B457"/>
<path d="M9.71041 6.83718C9.66227 6.83993 9.62238 6.8303 9.61138 6.79592C9.57012 6.68038 9.53711 6.66388 9.50272 6.66388C9.46834 6.66388 9.42157 6.73815 9.39407 6.74502C9.36656 6.7519 9.33355 6.65975 9.33355 6.65975L9.30329 6.646C9.30329 6.646 9.12586 6.76153 9.0007 6.89769C8.87554 7.03386 8.6706 7.26493 8.57845 7.30619C8.4863 7.34745 8.16996 7.36121 8.0613 7.38459C7.95264 7.40797 7.83298 7.48637 7.81648 7.50425C7.79997 7.52213 7.86462 7.54138 7.87424 7.55926C7.88387 7.57577 7.76834 7.56889 7.75871 7.58677C7.75183 7.60053 7.78622 7.67892 7.80272 7.71881C7.83298 7.70506 7.86324 7.69543 7.89763 7.69543C8.00353 7.69268 8.08056 7.76282 8.20709 7.76282C8.51243 7.76282 8.78889 7.53863 8.99245 7.46986C9.14237 7.41897 9.27166 7.38184 9.36243 7.29931C9.40645 7.26218 9.48484 7.17965 9.55636 7.05724C9.60863 6.97334 9.65952 6.89494 9.71041 6.83718Z" fill="#D2B257"/>
<path d="M5.33063 13.6441C5.33063 13.6441 5.30313 13.5423 5.05143 13.2796C4.97991 13.2053 4.93589 13.1434 4.88775 13.0994C4.76809 12.9866 4.69795 12.9564 4.61267 12.8917C4.42562 12.7528 4.22206 12.7528 4.06526 12.5823C3.90847 12.4117 3.72554 12.0857 3.599 11.7529C3.47384 11.42 3.43945 11.3141 3.43945 11.3045C3.43945 11.2949 3.47384 11.2302 3.51785 11.2399C3.56186 11.2495 3.56186 11.3348 3.57287 11.3554C3.57562 11.3623 3.60725 11.4063 3.64714 11.4503C3.71178 11.5246 3.80394 11.614 3.8507 11.746C3.84107 11.6332 3.80256 11.5081 3.80256 11.5081C3.80256 11.5081 4.04463 11.6607 4.25094 11.8203C4.45863 11.9798 4.5439 12.0349 4.60442 12.1366C4.66494 12.2384 4.80798 12.5066 4.87675 12.585C4.94552 12.6634 5.88355 12.9591 5.88355 12.9591L6.32918 13.292L6.55062 13.7775L6.37732 14.0498L6.04447 14.1213L5.50394 13.8793L5.33063 13.6441Z" fill="#D2B159"/>
<path d="M4.13 11.9715C4.13 11.9715 4.24279 12.1516 4.51787 12.3222C4.76544 12.4721 5.15743 12.6083 5.50678 12.6894C5.70759 12.7376 5.9084 12.7747 6.08858 12.7775C6.5741 12.7843 6.90832 12.6454 7.32232 12.6C7.54651 12.5766 7.82159 12.5588 8.10767 12.4914C8.47491 12.4033 8.69222 12.3043 8.98793 12.1654C9.2025 12.0664 9.39918 11.9921 9.55873 11.8972C9.78292 11.7652 9.94659 11.618 10.1364 11.574C10.113 11.6386 10.0883 11.7542 9.9012 11.8738C10.0002 11.8711 10.1364 11.8642 10.1364 11.8642C10.1364 11.8642 10.0044 11.9426 9.77191 12.1186C9.62887 12.2273 9.43907 12.4116 9.24513 12.534C9.11997 12.6124 8.98381 12.6702 8.89441 12.7169C8.67709 12.8366 8.58907 12.8971 8.44602 13.0429C8.49691 13.0402 8.50104 13.0429 8.50104 13.0429C8.50104 13.0429 8.32086 13.0663 8.19157 13.1351C8.16407 13.1351 8.1173 13.1254 8.03478 13.1488C7.97013 13.1694 7.88486 13.2162 7.79683 13.241C7.67167 13.2781 7.63041 13.2616 7.63041 13.2616L7.65104 13.3029C7.65104 13.3029 7.48737 13.3001 7.43373 13.3056C7.44335 13.3084 7.4406 13.3125 7.4406 13.3125C7.4406 13.3125 7.43373 13.3125 7.4131 13.3221C7.39659 13.3317 7.36908 13.3496 7.32782 13.3592C7.31132 13.362 7.29756 13.362 7.27693 13.3661C7.28381 13.3826 7.33745 13.4748 7.36221 13.5298C7.34157 13.5436 7.03211 13.7774 7.03211 13.7774C7.03211 13.7774 7.04586 13.798 7.05549 13.8255C7.06512 13.8558 7.06924 13.8998 7.07887 13.9204C7.10225 13.9617 7.11601 13.9686 7.11601 13.9686C7.11601 13.9686 7.07887 13.9754 7.01423 13.9919C6.95921 14.0057 6.89182 14.0291 6.79691 14.0428C6.76941 14.0456 6.73915 14.0497 6.70889 14.0497C6.72264 14.08 6.78316 14.1955 6.67175 14.3289C6.55897 14.4609 6.52596 14.4816 6.49157 14.5669C6.48195 14.56 6.46407 14.5462 6.43656 14.5325C6.39942 14.516 6.34853 14.4912 6.33065 14.4582C6.3279 14.472 6.31415 14.5256 6.28939 14.5875C6.255 14.6796 6.20411 14.7704 6.19449 14.8392C6.15735 14.7979 6.08858 14.7168 5.99368 14.7333C5.89877 14.7498 5.82313 14.8791 5.80662 14.9162C5.80662 14.8928 5.79012 14.8749 5.78599 14.9025C5.78324 14.9327 5.73098 15.2491 5.43939 15.5049C5.43664 15.4402 5.43664 15.2972 5.42976 15.2504C5.40225 15.2779 5.36924 15.3178 5.17119 15.4031C4.97725 15.4884 5.00751 15.5737 5.00751 15.5737C5.00751 15.5737 4.99101 15.4375 5.09554 15.2944C5.20144 15.1514 5.26609 15.084 5.26609 15.073C5.26609 15.0703 5.26334 15.0565 5.25233 15.0427C5.23858 15.029 5.21107 15.0125 5.21107 15.0015C5.22758 14.9946 5.39125 14.9162 5.38162 14.7539C5.37199 14.6081 5.3101 14.5325 5.26609 14.4788C5.25921 14.472 5.33073 14.4211 5.3211 14.4046C5.31423 14.3949 5.2262 14.3303 5.2152 14.2959C5.21795 14.2794 5.22208 14.2519 5.22895 14.2354C5.23858 14.2051 5.24546 14.1845 5.24271 14.1639C5.23583 14.1295 5.19869 14.0346 5.18769 14.0249C5.19732 14.0277 5.26609 14.0249 5.26609 14.0249C5.26609 14.0249 5.21107 13.9369 5.20144 13.8957C5.19182 13.8544 5.17119 13.7457 5.16018 13.7251C5.18356 13.7279 5.24133 13.732 5.24133 13.7251C5.24408 13.7045 5.19044 13.6701 5.21382 13.644C5.23033 13.6467 5.26196 13.6605 5.29222 13.699C5.27572 13.655 5.24821 13.5697 5.19044 13.5353C5.21795 13.5257 5.3101 13.5009 5.39125 13.5491C5.4724 13.5972 5.49991 13.6646 5.49991 13.6646C5.49991 13.6646 5.54805 13.7017 5.62232 13.7567C5.70759 13.8241 5.81625 13.9204 5.98955 13.9878C6.02669 14.0084 6.12159 14.0084 6.19036 13.9947C6.23162 13.9851 6.255 13.9713 6.27564 13.9603C6.29214 13.9507 6.30589 13.9465 6.30589 13.9465C6.30589 13.9465 6.27839 13.8915 6.255 13.8613C6.27839 13.8613 6.30589 13.864 6.30589 13.864C6.30589 13.864 6.3224 13.8269 6.24813 13.7554C6.26463 13.7389 6.28526 13.7279 6.28526 13.7003C6.26188 13.6976 6.22062 13.6632 6.21099 13.6495C6.22475 13.6398 6.24538 13.6082 6.26876 13.5986C6.24813 13.5821 6.19724 13.5133 6.17386 13.5064C6.19724 13.4995 6.2385 13.4762 6.2385 13.4762C6.2385 13.4762 6.12297 13.4459 6.08583 13.4211C6.04869 13.3936 5.99368 13.3469 5.96067 13.3331C5.92628 13.3194 5.86576 13.3125 5.84101 13.285C5.86439 13.2919 5.90153 13.285 5.92903 13.285C5.94966 13.285 5.95929 13.2877 5.96617 13.2877C5.96342 13.2781 5.96342 13.2575 6.01706 13.2506C6.06795 13.241 6.09133 13.2272 6.09133 13.2272C6.09133 13.2272 6.04044 13.2245 5.98267 13.1694C5.92491 13.1144 5.87677 13.0704 5.84376 13.0635C5.80937 13.0567 5.74473 13.0869 5.70484 13.0842C5.64983 13.0773 5.62644 13.0498 5.62644 13.0498C5.62644 13.0498 5.44352 13.0663 5.03777 12.8187C4.68704 12.6042 4.53437 12.4143 4.53437 12.4143C4.53437 12.4143 4.49311 12.4006 4.43947 12.3703C4.30743 12.3016 4.1245 12.1585 4.13 11.9715Z" fill="#C2A44D"/>
<path d="M9.19032 3.71637C9.19032 3.71637 9.23846 3.73012 9.27147 3.77138C9.33611 3.84566 9.37737 3.98595 9.23021 4.13587C9.28797 4.1565 9.31135 4.16337 9.36224 4.1565C9.31135 4.21702 9.19582 4.3463 9.18894 4.45909C9.18207 4.55124 9.23983 4.57875 9.23983 4.57875C9.23983 4.57875 9.15181 4.68053 9.14768 4.85108C9.16831 4.82769 9.21508 4.7768 9.28385 4.72179C9.38563 4.64064 9.52592 4.54849 9.62082 4.49072C9.61807 4.52786 9.63045 4.56224 9.63045 4.56224C9.63045 4.56224 9.80788 4.41645 9.95642 4.48109C10.0238 4.51135 9.99355 4.60625 9.99355 4.60625C9.99355 4.60625 10.0857 4.57187 10.1504 4.63651C10.215 4.70116 10.3071 4.86758 10.3539 4.93223C10.3745 4.96248 10.4282 5.02025 10.4832 5.10965C10.5478 5.21556 10.6194 5.36135 10.6703 5.50439C10.673 5.43287 10.6909 5.32146 10.8944 5.39161C11.098 5.46313 11.3291 5.61305 11.523 5.90876C11.7169 6.20447 11.7651 6.53732 11.8627 6.66386C11.9618 6.78627 12.0635 6.98983 12.0704 7.07511C12.0773 7.16038 12.0402 7.43546 12.2437 8.17956C12.3015 7.94849 12.3895 7.43546 12.3895 7.43546L12.4376 6.98295L12.4927 5.58279L11.0306 4.36831L9.88765 3.53894L9.14355 3.61046L9.19032 3.71637Z" fill="#CAA13E"/>
<path d="M11.9066 5.80015C11.9066 5.80015 11.886 5.66398 11.5421 5.43291C11.1983 5.2046 10.93 5.2046 10.6825 5.01067C10.4927 4.858 10.2946 4.50727 10.1653 4.39173C10.0402 4.27757 10.0195 3.94748 10.0195 3.94748L10.4418 3.594L11.0703 2.68623L11.6012 2.10168L11.8557 2.45516L12.2092 2.87054L12.4059 3.70403L12.4774 4.92401L11.9066 5.80015Z" fill="#B59544"/>
<path d="M12.3321 7.26208C12.3321 7.26208 12.3555 6.99663 12.2647 6.71467C12.1739 6.43271 11.9759 5.93206 11.8837 5.74501C11.8466 5.53732 11.8741 5.52082 11.914 5.49744C11.9553 5.47405 12.1038 5.38878 12.1863 5.08894C12.2675 4.7891 12.5233 4.77947 12.5233 4.77947L12.6801 4.66394L12.918 5.25949L13.1257 5.79727L13.1904 6.20852L13.2385 6.55925L13.1257 7.30059L12.5687 7.80399L12.3321 7.26208Z" fill="#C89D3A"/>
<path d="M11.8838 12.7776C11.8838 12.7776 12.0984 12.4915 12.1726 12.3498C12.2469 12.204 11.9374 10.3541 11.9374 10.3541L12.5591 8.31711L12.5426 7.65417C12.5426 7.65417 12.5729 7.04211 12.6444 6.77666C12.7297 6.92933 12.9951 7.11363 13.0529 7.21129C13.0804 7.02423 13.1725 6.62949 13.1588 6.20862C13.2097 6.28702 13.3321 7.07512 13.3321 7.07512L13.4545 7.60603L13.614 8.16995L13.7915 8.7655L13.8974 9.17674L13.9579 9.27577L14.0088 9.44907L14.0569 9.63613L14.1958 10.0749L14.277 10.4352L14.3416 11.0886C14.3416 11.0886 14.365 11.1697 14.3719 11.2412C14.3746 11.3127 14.3623 11.354 14.3623 11.3664C14.3623 11.3801 14.3856 11.5232 14.376 11.6318C14.3623 11.7405 14.3623 11.8258 14.277 11.9042C14.1917 11.9826 14.1381 12.4488 14.1381 12.4488L13.9854 12.347C13.9854 12.347 14.0157 12.2081 13.9441 12.0816C13.8726 11.9564 13.7337 11.9289 13.6553 11.9496C13.5769 11.9661 13.4201 11.9908 13.3692 12.0348C13.3211 12.0788 13.2028 12.215 13.0941 12.2769C12.958 12.3581 12.7365 12.3649 12.6183 12.3924C12.4986 12.4199 12.3666 12.5011 12.2276 12.596C12.0832 12.6895 11.9374 12.7569 11.8838 12.7776Z" fill="#CCA847"/>
<mask id="mask0" style="mask-type:alpha" maskUnits="userSpaceOnUse" x="0" y="0" width="17" height="17">
<path d="M8.49968 16.5543C12.948 16.5543 16.5541 12.9482 16.5541 8.49993C16.5541 4.05162 12.948 0.445557 8.49968 0.445557C4.05138 0.445557 0.445312 4.05162 0.445312 8.49993C0.445312 12.9482 4.05138 16.5543 8.49968 16.5543Z" fill="#BA9F33"/>
</mask>
<g mask="url(#mask0)">
<path d="M4.41678 16.5681L3.15828 16.5983L2.49121 16.5475C2.49121 16.5475 2.53247 16.0578 2.5421 15.9423C2.56548 15.8708 2.64388 15.6672 2.66726 15.6301C2.68377 15.575 2.7044 15.4361 2.65763 15.2656C2.68789 15.2174 2.7828 15.1913 2.8887 14.2423C2.92996 13.8888 2.93684 13.6206 2.9671 13.4528C3.01111 13.2149 3.04137 13.1268 3.0345 13.0374C3.02487 12.8944 3.01386 12.7899 3.02762 12.6798C3.04825 12.534 3.19129 12.3607 3.18717 12.2411C3.18441 12.1462 3.13628 12.0843 3.09501 12.0265C3.05375 11.9687 3.02074 11.9206 3.02074 11.9206C3.02074 11.9206 3.3027 11.7267 3.29995 10.9454C3.30958 10.9482 3.31645 10.9523 3.31645 10.9523L3.45537 11.3471L3.55027 11.4626L3.91475 12.142L4.38377 12.5973L5.07697 13.0636L5.5116 13.5367L5.55561 14.7979L4.98757 15.5352L4.41678 16.5681Z" fill="#E5CB7A"/>
<path d="M4.62012 15.4802C4.62012 15.4802 4.62975 15.3234 4.75903 15.2216C4.77966 15.256 4.79342 15.289 4.78929 15.3138C4.81267 15.2725 4.97635 15.0084 5.34633 14.9397C5.71631 14.8723 5.80572 14.6027 5.80572 14.6027L6.59107 13.8889L7.48921 13.0622L8.58128 12.6785L9.09156 12.5533C9.09156 12.5533 9.10118 12.5905 9.08193 12.673C9.17683 12.6661 9.38727 12.618 9.60596 12.541C9.69398 12.5066 9.77651 12.4928 9.82052 12.5382C9.88517 12.5987 9.89479 12.7418 9.89892 12.8271C10.0048 12.8037 10.1272 12.7019 10.2249 12.7115C10.3817 12.728 10.5206 12.9123 10.6801 12.9123C10.8906 12.9123 10.9855 12.783 11.1327 12.6813C11.2207 12.6207 11.3472 12.5451 11.4187 12.4942C11.5893 12.369 13.3938 11.8175 13.3938 11.8175L14.0265 11.8588L14.1283 12.5382L14.0733 14.3235L11.1767 15.8364L6.61033 16.5365L4.75078 16.0606L4.62012 15.4802Z" fill="#D8C173"/>
<path d="M2.68848 16.5723C2.68848 16.5723 2.8549 16.1954 2.9333 15.6507C2.99794 15.2051 2.94018 15.1033 2.95668 14.9603C2.98006 14.7457 3.22213 14.3276 3.24276 14.2465C3.25927 14.4129 3.30741 15.0414 3.48071 15.1817C3.44357 15.2368 3.38168 15.4266 3.60312 15.5723C3.56598 15.6507 3.49034 15.7456 3.53848 15.8887C3.58662 16.0317 3.64438 16.2353 3.61687 16.4595C3.53848 16.476 3.4532 16.5104 3.38581 16.575C3.31841 16.6355 2.68848 16.5723 2.68848 16.5723Z" fill="#F1D789"/>
<path d="M5.54173 16.3095L6.5554 16.0275L6.59941 16.0413C6.59941 16.0413 6.6228 16.055 6.6228 16.1018C6.68744 16.0647 6.74246 16.0715 6.78234 16.0468C6.80297 16.0908 6.82361 16.2366 6.91438 16.2545C7.00929 16.2751 7.11107 16.2132 7.21422 16.1348C7.316 16.0537 7.43153 15.9519 7.51956 15.9106C7.53607 15.9381 7.57733 16.0234 7.60484 16.0936C7.72037 16.0014 7.92118 15.6273 8.20726 15.6342C8.23477 15.5695 8.33655 15.3343 8.60475 15.1542C8.87021 14.974 9.03663 14.9602 9.24432 14.9767C9.32547 14.8708 9.43137 14.7759 9.54416 14.7085C9.57854 14.7223 9.67344 14.78 9.79173 14.725C9.91139 14.67 10.0462 14.4568 10.2236 14.4293C10.3804 14.4059 10.4987 14.4871 10.4987 14.4871C10.4987 14.4871 11.0158 13.9741 11.3721 13.8035C11.3583 13.7622 11.3308 13.6068 11.7489 13.263C11.7723 13.2836 11.7558 13.3414 11.7723 13.3441C11.7792 13.3441 11.881 13.3001 12.0103 13.2011C12.1698 13.0814 12.361 12.9563 12.4765 12.9219C12.6938 12.8572 12.9249 12.9893 12.9249 12.9893C12.9249 12.9893 12.9524 12.9686 12.9895 12.959C13.0446 12.9494 13.0844 12.9425 13.1147 12.9315C13.112 13.003 13.1518 13.1254 13.1147 13.2313C13.1147 13.2313 13.1725 13.2657 13.2509 13.2891C13.2275 13.34 13.1766 13.4693 13.0913 13.5312C13.1628 13.5656 13.1725 13.6054 13.2743 13.6398C13.233 13.6976 13.1656 13.7966 13.1353 13.8571C13.1051 13.9218 12.9964 14.19 12.9483 14.2918C12.8974 14.3936 12.8286 14.5806 12.7956 14.6177C12.7612 14.6549 12.6429 14.8144 12.5508 14.8928C12.6319 14.8626 12.9662 14.7608 13.1078 14.7223C13.0226 14.8474 12.2344 16.0179 12.2344 16.0179L10.6472 16.491L9.86875 16.6231L5.81268 16.6203L5.45508 16.4429L5.54173 16.3095Z" fill="#E0CD81"/>
<path d="M4.41637 16.568C4.41637 16.568 4.29121 16.337 4.28433 16.2379C4.28158 16.143 4.31871 16.0811 4.31871 16.0811C4.31871 16.0811 4.27058 16.0096 4.22656 15.9931C4.23619 15.945 4.25407 15.8872 4.29121 15.8473C4.32834 15.8033 4.39986 15.7456 4.41362 15.7249C4.42737 15.7043 4.43425 15.6768 4.47414 15.6699C4.5154 15.663 4.55941 15.663 4.55941 15.6094V15.5104C4.55941 15.5104 4.57592 15.5007 4.58967 15.4828C4.5993 15.4691 4.60617 15.4526 4.61305 15.4485C4.62681 15.4416 4.69145 15.421 4.72583 15.4278C4.76022 15.4347 4.851 15.4718 4.89914 15.4691C4.99816 15.4663 5.1137 15.3907 5.29663 15.4251C5.57171 15.476 5.63635 15.663 5.7959 15.7689C5.90456 15.8432 6.01734 15.8102 6.03384 15.8102H6.07098C6.07786 15.8102 6.12875 15.7524 6.15626 15.7552C6.21127 15.7579 6.21677 15.8033 6.25116 15.8061C6.33231 15.8157 6.4891 15.7648 6.5675 15.7854C6.60464 15.7951 6.65278 15.8336 6.66653 15.8845C6.68304 15.9354 6.66928 16 6.62939 16.0371C6.54412 16.1155 6.46297 16.1898 6.44647 16.2545C6.46985 16.271 6.51111 16.3095 6.51111 16.3095C6.51111 16.3095 6.47397 16.3439 6.4052 16.3769C6.37494 16.3906 6.32681 16.414 6.27316 16.4209C6.17138 16.4305 6.04485 16.4443 5.97058 16.5529C5.8963 16.6616 5.64048 16.6011 5.64048 16.6011L4.41637 16.568Z" fill="#CEB052"/>
<path d="M11.8838 15.7827C11.8838 15.7827 12.0034 15.8611 12.2235 15.9148C12.4436 15.9684 13.0061 16.2916 13.0061 16.2916L13.4793 16.5805L14.0638 16.6245L14.5768 16.553C14.5768 16.553 14.5933 16.3356 14.5603 15.5255C14.5259 14.7127 14.4998 14.5971 14.4998 14.5366C14.4998 14.4761 14.4792 13.4445 14.4558 13.2204C14.4324 12.9962 14.4489 12.7678 14.442 12.6358C14.4352 12.5038 14.3609 11.966 14.3265 11.8271C14.2894 11.6882 14.2179 11.6194 14.2068 11.6194C14.1972 11.6221 14.1395 11.8807 14.1395 11.9454C14.1395 12.01 14.1257 12.1668 14.1257 12.2067C14.1161 12.2039 14.1119 12.1792 14.1119 12.1695C14.0982 12.2039 14.0817 12.2644 14.0748 12.2713C14.0679 12.2782 14.0844 12.2136 14.0748 12.1998C14.0652 12.1861 14.0473 12.1929 14.0514 12.1585C14.0542 12.1242 14.0611 12.098 14.0611 12.098C14.0611 12.098 14.0198 12.1585 13.9895 12.3126C13.9593 12.4653 13.9593 12.4694 13.9483 12.4831C13.9386 12.4996 13.8836 12.5547 13.8809 12.5753C13.8781 12.6124 13.9318 12.6496 13.9359 12.6702C13.9386 12.7046 13.8878 12.8641 13.8712 12.9425C13.8547 13.0209 13.8616 13.1736 13.8437 13.252C13.83 13.3235 13.8162 13.3648 13.7695 13.395C13.8039 13.4019 13.8369 13.4115 13.8369 13.4115C13.8369 13.4115 13.885 13.6151 13.7626 13.7884C13.7186 13.8489 13.7076 13.8764 13.6608 13.9314C13.5687 14.0332 13.4971 14.1488 13.4903 14.2244C13.4834 14.1969 13.4806 14.157 13.4806 14.157C13.4806 14.157 13.3376 14.3234 13.2771 14.4183C13.1987 14.5407 13.09 14.5339 13.0598 14.5641C13.0295 14.5944 13.0226 14.6494 13.0323 14.6934C13.0047 14.7003 12.9539 14.7099 12.9195 14.8158C12.903 14.8708 12.8617 14.9245 12.7971 14.9616C12.7324 14.9988 12.654 15.0098 12.6141 15.0194C12.6485 15.029 12.6623 15.029 12.6788 15.04C12.6581 15.0744 12.5632 15.128 12.4573 15.1968C12.3514 15.2615 12.3005 15.3564 12.2744 15.4183C12.2469 15.476 12.207 15.5132 12.1424 15.52C12.1699 15.5365 12.2098 15.575 12.2304 15.5874C12.2001 15.5943 12.1492 15.5943 12.0571 15.6727C11.9608 15.7525 11.9278 15.7759 11.8838 15.7827Z" fill="#C39D3C"/>
<path d="M9.83984 16.5447C9.83984 16.5447 9.92512 16.4127 10.1397 16.3301C10.3542 16.2449 10.5812 16.2284 10.6706 16.2009C10.7559 16.1733 10.8233 16.1362 10.9292 16.1156C10.9195 16.1967 10.9154 16.2614 10.892 16.3164C10.9704 16.3301 11.1671 16.1775 11.273 16.1431C11.3789 16.1087 11.6196 16.0578 11.6402 16.0413C11.6609 16.0248 11.7049 15.9258 11.7186 15.9216C11.7324 15.9189 11.7695 15.9423 11.7929 15.9423C11.8369 15.9423 12.1464 15.6562 12.3912 15.6603C12.6333 15.6631 12.9084 15.8639 12.8671 16.0441C12.9318 16.0069 12.9991 15.9725 13.0542 15.9863C13.0473 16.0097 13.0445 16.0372 13.0445 16.0372C13.0445 16.0372 13.1766 16.0069 13.211 16.0509C13.2481 16.095 13.2275 16.1362 13.3169 16.2407C13.3884 16.3288 13.3678 16.3494 13.354 16.3797C13.3884 16.3893 13.5576 16.4471 13.7144 16.5942C13.8712 16.74 12.4627 16.6492 12.4627 16.6492L9.8646 16.6259L9.83984 16.5447Z" fill="#D2BA6B"/>
</g>
<path d="M13.926 10.7777C13.926 10.7777 13.8819 11.0156 13.8036 11.1656C13.7252 11.3155 13.6399 11.5232 13.6399 11.5232C13.6399 11.5232 13.6399 11.4489 13.6564 11.3842C13.5574 11.442 13.3167 11.5809 13.2479 11.6428C13.1832 11.7006 13.0746 11.8024 13.0471 11.8505C13.1117 11.6607 13.1791 11.4902 13.1901 11.4118C13.0911 11.4833 12.629 11.8643 12.3883 12.116L11.6387 12.7225C11.6387 12.7225 11.5231 12.7872 11.3732 12.8477C11.2439 12.9027 11.0913 12.9495 10.9785 12.9935C11.0087 12.9123 11.0569 12.8408 11.1243 12.772C11.1958 12.7046 11.4103 12.4722 11.4434 12.3635C11.4736 12.2508 11.4805 12.1834 11.4406 12.0885C11.4035 12.0981 11.3182 12.1022 11.2604 12.1187C11.2027 12.1352 11.1408 12.1971 11.1408 12.1971C11.1408 12.1971 11.1848 11.9454 11.2797 11.7075C11.2082 11.7102 11.0858 11.7308 11.0858 11.7308C11.0858 11.7308 11.2563 11.4448 11.5479 11.2453C11.4997 11.255 11.3911 11.2825 11.2866 11.3265C11.116 11.398 10.929 11.5039 10.79 11.5617C10.8684 11.453 11.4186 10.6677 11.7459 9.93595C12.0719 9.20561 12.1943 9.01855 12.2658 8.62656C12.303 8.43263 12.2934 8.14654 12.303 7.88934C12.3126 7.63489 12.3442 7.40658 12.3236 7.25391C12.4089 7.35981 12.728 7.65827 12.739 8.32535C12.7486 8.99242 12.4336 9.89331 12.0994 10.3788C12.1806 10.4022 12.3924 10.4297 12.6097 10.0529C12.827 9.67599 12.8243 9.57009 12.9027 9.41329C12.9123 9.49169 12.9095 9.5192 12.9095 9.5192C12.9095 9.5192 13.2259 9.13546 13.3758 8.65269C13.4061 8.86038 13.4955 9.04331 13.3552 9.42429C13.23 9.76815 13.0663 9.85205 13.0663 9.85205C13.0663 9.85205 13.1475 9.83829 13.2671 9.76677C13.2878 9.81766 13.2836 9.87543 13.318 9.89606C13.3524 9.91669 13.3992 9.95107 13.4061 9.98408C13.4432 9.92907 13.501 9.85892 13.5188 9.80666C13.5051 9.91531 13.4955 10.3912 13.5464 10.6333C13.6523 10.6236 13.7609 10.6168 13.8352 10.4256C13.7843 10.6126 13.7843 10.7254 13.8187 10.885C13.8751 10.8465 13.926 10.7777 13.926 10.7777Z" fill="#C0993A"/>
<path d="M10.3528 3.19644C10.3528 3.19644 10.2469 3.24045 10.0668 3.24045C9.90997 3.24045 9.95398 3.17993 9.70916 3.17993C9.3323 3.17993 8.01603 3.39725 7.78497 3.39449C7.63505 3.39174 8.29111 3.45914 8.29111 3.45914L9.96773 3.48252L10.3047 3.45501L10.4299 3.20056L10.3528 3.19644Z" fill="#A88F33"/>
<path d="M6.00542 6.4741C6.00542 6.4741 5.79086 6.63777 5.70008 6.76293C5.60793 6.88809 5.56116 6.97062 5.45801 7.0724C5.49239 7.07515 5.52953 7.06277 5.52953 7.06277C5.52953 7.06277 5.52953 7.09028 5.51302 7.09716C5.54741 7.09441 5.57354 7.10678 5.59142 7.12466C5.56116 7.14117 5.47864 7.22369 5.54328 7.32135C5.59142 7.39562 5.6932 7.4025 5.6932 7.4025C5.6932 7.4025 5.66982 7.46989 5.76747 7.46301C5.97791 7.45339 6.21311 7.36123 6.32176 7.38462C6.43042 7.41212 6.49231 7.42175 6.56933 7.55517C6.65048 7.6872 6.722 7.70784 6.722 7.70784C6.722 7.70784 6.77014 7.58542 6.75914 7.4025C6.82378 7.2457 6.82378 7.09303 6.82378 7.09303L6.75226 6.56625L6.44005 6.17151L6.03568 6.3957L6.00542 6.4741Z" fill="#E3C571"/>
<path d="M6.38867 6.39569C6.38867 6.39569 6.41893 6.46721 6.54547 6.47409C6.53171 6.50435 6.53171 6.50848 6.53584 6.53186C6.53859 6.55524 6.54272 6.58963 6.54272 6.58963C6.54272 6.58963 6.55922 6.58275 6.57985 6.56212C6.58673 6.59238 6.57298 6.64052 6.57985 6.6749C6.58673 6.70929 6.60048 6.73542 6.60048 6.73542C6.60048 6.73542 6.60323 6.72854 6.60736 6.72166C6.61011 6.71479 6.63487 6.79594 6.70226 6.85783C6.70226 6.84132 6.70914 6.83032 6.70914 6.83032C6.70914 6.83032 6.70914 6.8537 6.72565 6.87846C6.71877 6.87571 6.71189 6.86883 6.71189 6.86883C6.71189 6.86883 6.71877 7.08615 6.75591 7.19893C6.76553 7.18518 6.76966 7.18242 6.77241 7.17555C6.77241 7.16867 6.76966 7.23607 6.76278 7.2842C6.75315 7.33234 6.76003 7.39974 6.76003 7.39974C6.76003 7.39974 6.79717 7.36948 6.84118 7.3516C6.88244 7.33509 6.94984 7.2842 6.9911 7.17142C7.03236 7.05864 7.04612 6.97474 7.04612 6.97474C7.04612 6.97474 7.0695 7.01875 7.07362 7.05589C7.07637 7.09027 7.14102 7.07239 7.14102 7.07239L7.15477 6.92247L7.23592 6.58275L7.31019 6.37231L7.6678 5.81527L8.31424 5.31875L8.87815 5.44804L9.35404 4.8016L8.5343 4.3092L7.75857 4.39035L7.05437 5.36552L6.49045 6.2499L6.38867 6.39569Z" fill="#D8B65B"/>
<path d="M10.4515 4.98444C10.4515 4.98444 10.4034 4.99407 10.2644 5.06559C10.1255 5.13711 10.0292 5.1605 9.97561 5.2664C9.92059 5.37231 9.91784 5.45621 9.91784 5.45621C9.91784 5.45621 10.0127 5.41495 10.0678 5.40119C10.1255 5.38744 10.1902 5.39156 10.1833 5.41495C10.1764 5.43558 10.1558 5.45896 10.1558 5.45896C10.1558 5.45896 10.2644 5.45621 10.2617 5.50985C10.2589 5.56486 10.2411 5.62263 10.2204 5.64876C10.1998 5.67627 10.1145 5.71616 10.1049 5.74779C10.0815 5.81244 10.1145 5.81519 10.1021 5.86745C10.0925 5.91834 10.0471 6.01737 9.89859 6.19067C9.74592 6.36397 9.68127 6.48639 9.68127 6.48639C9.68127 6.48639 9.607 6.34747 9.56849 6.22781C9.54098 6.24156 9.39519 6.32271 9.39519 6.32271L9.05684 5.14399L9.06371 5.06559C9.06371 5.06559 9.09397 5.02846 9.10085 4.95969C9.04996 4.94318 9.04308 4.92943 8.97569 4.86478C8.90829 4.80014 8.85328 4.72174 8.74049 4.6681C8.72399 4.63784 8.70336 4.59658 8.62083 4.58007C8.53969 4.56357 8.4888 4.54982 8.4888 4.54982C8.4888 4.54982 8.53281 4.53331 8.55344 4.49893C8.50255 4.5058 8.46129 4.52231 8.34988 4.51956C8.2371 4.51681 8.22472 4.51268 8.16282 4.52231C8.10093 4.53194 8.02666 4.55944 7.99915 4.46454C7.96889 4.44116 7.90425 4.46179 7.84923 4.54294C7.79422 4.62409 7.77496 4.68873 7.66905 4.72037C7.6663 4.741 7.6553 4.79464 7.62092 4.8524C7.59066 4.90329 7.54252 4.95419 7.47787 5.02983C7.37609 5.14949 7.3926 5.34618 7.2303 5.49609C7.06663 5.64601 7.25781 5.08072 7.25781 5.08072L7.51914 4.45491L8.26323 3.72732L9.41857 3.64893L9.53135 4.24723L10.0953 4.44116L10.4515 4.98444Z" fill="#D3AE4D"/>
<path d="M10.6343 5.11654L10.1488 4.41646L9.80903 4.15513C9.80903 4.15513 9.56696 3.7095 9.55046 3.69575C9.5367 3.68612 9.30838 3.66136 9.16259 3.65173L9.1901 3.71913C9.1901 3.71913 9.23824 3.73288 9.27125 3.77414C9.33589 3.84842 9.37715 3.98871 9.22999 4.13863C9.28775 4.15926 9.31113 4.16613 9.36202 4.15926C9.31113 4.21978 9.1956 4.34906 9.18872 4.46185C9.18185 4.554 9.23961 4.58151 9.23961 4.58151C9.23961 4.58151 9.15159 4.68329 9.14746 4.85384C9.16809 4.83046 9.21486 4.77957 9.28363 4.72455C9.38541 4.6434 9.5257 4.55125 9.6206 4.49348C9.61785 4.53062 9.63023 4.565 9.63023 4.565C9.63023 4.565 9.80766 4.41921 9.9562 4.48385C10.0236 4.51411 9.99333 4.60902 9.99333 4.60902C9.99333 4.60902 10.0855 4.57463 10.1501 4.63927C10.2148 4.70392 10.3069 4.87034 10.3537 4.93499C10.3743 4.96524 10.428 5.02301 10.483 5.11241C10.5476 5.21832 10.6191 5.36411 10.67 5.50715C10.6728 5.45214 10.6838 5.37512 10.7787 5.37512L10.6343 5.11654Z" fill="#CAA13E"/>
<path d="M3.3561 7.10535C3.3561 7.10535 3.32172 7.02008 3.3561 6.85365C3.39049 6.68723 3.44413 6.60883 3.46201 6.36401C3.47851 6.11919 3.63944 5.81385 3.63944 5.81385L4.08094 5.61304L4.39316 5.69831L4.48531 6.11644L4.09057 6.33375C4.09057 6.33375 4.06994 6.4259 3.95853 6.50017C3.84575 6.57444 3.69308 6.63221 3.65594 6.70786C3.6188 6.78626 3.6078 6.85365 3.6078 6.85365C3.6078 6.85365 3.49502 6.83027 3.42762 6.90454C3.3561 6.98019 3.35885 7.04758 3.3561 7.10535Z" fill="#F4EFC8"/>
<path d="M4.24774 6.99392C4.24774 6.99392 4.21061 7.0173 4.1831 7.07507C4.15559 7.03106 4.09095 6.76973 4.08819 6.53454C4.08544 6.29934 4.07169 6.24157 4.12533 6.16043C4.18035 6.07928 4.39353 5.994 4.36328 5.84821C4.33302 5.70929 4.20648 5.65153 4.05106 5.69141C3.9424 5.71892 3.86125 5.94999 3.74847 6.06552C3.66319 6.15355 3.56141 6.13979 3.53391 6.18793C3.49677 6.25258 3.53116 6.31722 3.52015 6.35848C3.5174 6.37224 3.48302 6.44651 3.42112 6.53591C3.29596 6.71609 3.08415 6.97054 3.05664 7.19886C3.06627 7.06957 3.05939 7.06682 3.09378 6.92377L3.07315 6.88939L3.20931 6.44376L3.29734 6.07653L3.49402 5.46172L3.84062 4.83316L4.1776 4.4563L4.52832 4.47968L4.56959 5.00646L4.77039 5.99538L5.19264 6.51528L4.51594 6.97054L4.24774 6.99392Z" fill="#EBCC73"/>
<path d="M4.4577 7.18097C4.4577 7.18097 4.39993 7.19473 4.3793 7.18372C4.35867 7.1741 4.33804 7.16034 4.34491 7.14659C4.35179 7.13283 4.38893 7.10945 4.38893 7.09845C4.38893 7.08882 4.38618 7.06131 4.35454 7.05719C4.32291 7.05306 4.31328 7.07369 4.31328 7.07369C4.31328 7.07369 4.28302 7.05031 4.25826 7.04618C4.2789 7.04343 4.30228 7.04343 4.30228 7.04343C4.30228 7.04343 4.24451 7.01592 4.18262 7.00905C4.217 6.98842 4.2844 6.9279 4.32841 6.9279C4.37242 6.9279 4.39993 6.92102 4.39305 6.89764C4.38618 6.87426 4.35179 6.83987 4.31466 6.82612C4.32841 6.80961 4.33804 6.78486 4.30503 6.71746C4.27064 6.65007 4.2844 6.60468 4.2954 6.58817C4.30503 6.56754 4.33941 6.53041 4.35592 6.50702C4.37242 6.48364 4.38618 6.45201 4.41369 6.4355C4.42744 6.42588 4.47145 6.408 4.51546 6.39149C4.5636 6.37499 4.60349 6.35435 4.631 6.37499C4.66126 6.39562 4.6475 6.42312 4.6475 6.42312C4.6475 6.42312 4.74241 6.38874 4.82768 6.43275C4.91296 6.47401 5.12064 6.50015 5.12064 6.50015L5.19492 6.65007L4.70252 7.07232L4.49896 7.1741L4.4577 7.18097Z" fill="#E5C66B"/>
<path d="M5.14136 6.49058C5.14136 6.49058 4.98869 6.59237 4.95431 6.6295C4.97494 6.63225 5.00933 6.64601 4.99557 6.66664C4.97907 6.68727 4.88004 6.75879 4.82502 6.82618C4.76725 6.89358 4.71224 6.97885 4.69298 7.02012C4.67235 7.05725 4.51555 7.16591 4.46191 7.17966C4.5747 7.17966 4.80164 7.04075 4.88691 7.04075C4.88416 7.08201 4.9103 7.12877 4.95844 7.1329C5.00657 7.13565 5.14549 7.16316 5.33255 7.04762C5.5196 6.93484 5.45771 6.85094 5.53611 6.79592C5.68602 6.6969 5.74654 6.60887 5.82907 6.55385C5.91022 6.49884 5.95423 6.48646 5.95423 6.48646C5.95423 6.48646 5.95698 6.4452 5.98174 6.44932C6.00512 6.45207 6.012 6.4727 6.012 6.4727C6.012 6.4727 6.15504 6.37093 6.33797 6.34342C6.33109 6.34067 6.32834 6.33379 6.32834 6.33379C6.32834 6.33379 6.34209 6.32691 6.34484 6.32003C6.34484 6.32003 6.35447 6.30628 6.36135 6.31316C6.36822 6.32003 6.37785 6.37093 6.39161 6.39156C6.42187 6.3778 6.47963 6.24851 6.47963 6.24851L6.61855 5.85102V5.48792L6.50989 5.50855L5.69428 5.85515L5.19913 6.36817L5.14136 6.49058Z" fill="#E6BD62"/>
<path d="M7.49019 4.70944C7.49019 4.70944 7.56171 4.69294 7.61535 4.65855C7.59885 4.70256 7.59885 4.7507 7.52733 4.85523C7.45581 4.96114 7.45306 4.97489 7.39529 5.08355C7.33752 5.19633 7.33065 5.35863 7.27563 5.43015C7.31964 5.40952 7.35403 5.40677 7.35403 5.40677C7.35403 5.40677 7.29901 5.45491 7.27563 5.5058C7.25225 5.55669 7.21099 5.6626 7.10921 5.72724C7.00743 5.79188 6.87814 5.83315 6.73922 5.98582C6.60031 6.13574 6.45726 6.32554 6.38574 6.39431C6.42288 6.32967 6.47377 6.20038 6.48752 6.1151C6.50128 6.02983 6.48477 5.92805 6.50815 5.81527C6.53154 5.70248 6.53154 5.62133 6.64432 5.42465C6.7571 5.22797 6.94966 4.54439 6.94966 4.54439L7.36503 4.41235L7.49019 4.70944Z" fill="#B6933F"/>
<path d="M7.19112 4.4577C7.19112 4.4577 7.06596 4.63788 7.03157 4.79742C6.99719 4.95697 7.02882 4.94322 7.00819 5.02161C6.98756 5.10001 7.00819 5.16741 7.00819 5.16741C7.00819 5.16741 7.06321 5.06838 7.18149 4.99686C7.29978 4.92534 7.39606 4.87445 7.45382 4.81393C7.51159 4.74928 7.55973 4.64338 7.68489 4.56223C7.634 4.55535 7.56248 4.53197 7.54873 4.53472C7.59962 4.47695 7.75229 4.38893 7.90633 4.28302C8.059 4.17437 8.04937 4.13035 8.29695 4.0217C8.2158 4.03545 8.17729 4.01482 8.10989 4.0217C8.1374 3.96393 8.2323 3.93642 8.32721 3.84152C8.42211 3.74661 8.26669 3.60632 8.26669 3.60632L7.54185 4.04508L7.19112 4.4577Z" fill="#C49937"/>
<path d="M5.22266 4.13035L5.23916 3.99831L5.44685 3.66546L5.66416 3.08092V2.28181L5.64766 1.81967L5.68204 1.51708L5.70817 1.4208L5.73568 1.38367L5.91311 1.47582L6.15793 1.80867L6.18131 2.45098L5.94337 3.46465L5.26392 4.206L5.22266 4.13035Z" fill="#DFC068"/>
<path d="M5.76312 1.34647C5.76312 1.34647 5.65446 1.34922 5.63108 1.80173C5.6077 2.25424 5.5967 2.49218 5.58019 2.71637C5.56369 2.94056 5.52517 3.07673 5.50592 3.20877C5.48529 3.34081 5.47566 3.52098 5.41377 3.63102C5.38626 3.68191 5.32849 3.84145 5.19233 3.96111C5.03966 4.09315 4.81134 4.1853 4.77695 4.19218C4.71644 4.20593 4.40972 4.23619 4.28456 4.30496C4.24055 4.32835 4.1649 4.35585 4.081 4.43425C3.91458 4.58417 3.69314 4.85237 3.53359 5.1756C3.28877 5.65836 3.04395 7.02139 3.04395 7.02139L3.09896 6.92924C3.09896 6.92924 3.10584 6.80682 3.22825 6.59226C3.34791 6.3777 3.31352 6.137 3.47995 5.72576C3.54459 5.56896 3.62574 5.3654 3.72477 5.1921C3.88157 4.91014 4.07137 4.66807 4.26255 4.53603C4.57477 4.32147 4.91862 4.2747 4.91862 4.2747L5.28861 4.02988C5.28861 4.02988 5.35325 3.90472 5.43852 3.76168C5.55818 3.56087 5.71085 3.33668 5.74386 3.01071C5.79475 2.52794 5.67234 2.2116 5.67922 1.92551C5.6861 1.63943 5.68885 1.42899 5.74662 1.3781C5.80438 1.32721 5.76312 1.34647 5.76312 1.34647Z" fill="#A88F33"/>
<path d="M5.76313 3.50592C5.76313 3.50592 5.9268 3.1043 6.00108 2.74807C6.01483 2.67655 6.04234 2.60503 6.04922 2.54726C6.0836 2.21029 6.09323 2.07137 6.04922 1.88707C6.01483 1.7509 5.88279 1.62849 5.81402 1.53359C5.74663 1.43456 5.71499 1.39742 5.72875 1.37679C5.7425 1.35616 5.79614 1.32178 5.84841 1.3259C5.8993 1.32865 6.03134 1.33966 6.14137 1.46207C6.24727 1.58448 6.33117 1.99985 6.33117 1.99985L6.4192 2.54726L6.64339 3.23771L5.76313 3.50592Z" fill="#C99E3D"/>
<path d="M7.29701 3.08782C7.29701 3.08782 7.26675 3.10157 7.21173 3.08782C7.21448 3.11533 7.20898 3.16897 7.15672 3.20335C7.09895 3.17997 6.55841 3.22673 6.55841 3.22673C6.55841 3.22673 6.30671 3.18272 6.22832 2.84987C6.1733 2.62843 6.26958 2.32309 6.23794 2.12228C6.18981 1.82657 6.12241 1.7688 6.11553 1.67665C6.10866 1.5845 6.10178 1.56112 6.10178 1.50335C6.07152 1.49647 6.05364 1.48685 6.02338 1.48685C6.0165 1.45934 6.03026 1.43596 6 1.38782C6.0165 1.39469 6.12929 1.40845 6.26133 1.53361C6.36998 1.63539 6.36998 1.67253 6.38649 1.69316C6.40712 1.71379 6.57354 1.85683 6.64506 1.9985C6.71659 2.14016 6.8555 2.59405 6.88714 2.66832C6.89676 2.69858 6.91739 2.72884 6.96828 2.79761C7.04806 2.89664 7.16497 3.06031 7.29701 3.08782Z" fill="#B58634"/>
<path d="M6.40527 1.69995C6.45616 1.7811 6.55107 1.94477 6.62946 2.11807C6.71061 2.301 6.75875 2.45092 6.86053 2.57333C6.80552 2.41379 6.70786 2.10019 6.6501 1.98879C6.58545 1.8705 6.45341 1.74396 6.40527 1.69995Z" fill="#A88F33"/>
<path d="M5.47014 3.96118C5.47014 3.96118 5.33122 3.99557 5.07265 4.13173C4.98737 4.17574 4.90622 4.21288 4.82783 4.24727C4.62427 4.33942 4.40558 4.42469 4.23228 4.47146C4.24603 4.48796 4.25291 4.49484 4.25291 4.49484C4.25291 4.49484 4.25291 4.56223 4.29004 4.60074C4.26941 4.62138 3.99433 4.80843 4.07548 5.43424C4.1305 5.41361 4.19514 5.3861 4.20477 5.3861C4.22127 5.38885 4.2254 5.43424 4.24603 5.43424C4.26666 5.43424 4.33406 5.40673 4.40558 5.31458C4.40283 5.35172 4.36156 5.72583 4.583 5.97752C4.62427 5.92939 4.7288 5.76984 4.7288 5.76984L4.73155 5.71895C4.73155 5.71895 4.74118 5.54152 4.79894 5.37922C4.85671 5.21555 4.96949 5.09727 4.96949 5.09727L5.55817 4.25689L5.47014 3.96118Z" fill="#E6C367"/>
<path d="M4.91963 5.19495C4.91963 5.19495 4.87837 5.22521 4.8316 5.23897C4.82197 5.20458 4.80822 5.0863 4.88937 4.97076C4.98427 4.83185 5.19196 4.65167 5.24973 4.50863C5.28686 4.41647 5.27036 4.18541 5.60045 3.88969C5.93055 3.59398 6.05984 3.4922 6.05984 3.4922L6.5935 3.224L7.24956 3.48258L6.92359 4.76033L6.67052 5.35863L5.66372 5.16882L4.91963 5.19495Z" fill="#DCBA5A"/>
<path d="M5.30371 4.84833L5.42887 4.69154V4.58013C5.42887 4.58013 5.56779 4.543 5.71771 4.39033C5.86763 4.23766 6.07531 3.94469 6.25824 3.96257C6.44117 3.98321 6.45905 4.36007 6.46593 4.46597C6.4728 4.57188 6.49619 4.81257 6.53332 4.94186C6.57458 5.07115 6.08769 5.56079 6.08769 5.56079L5.75759 5.81249L5.30371 4.84833Z" fill="#E9CE77"/>
<path d="M5.69141 6.15355C5.69141 6.15355 5.79319 5.99401 5.71891 5.95962C5.76293 5.86059 5.84408 5.75606 5.84408 5.75606C5.84408 5.75606 5.90184 5.61302 6.0889 5.43697C6.27595 5.25954 6.39149 5.14401 6.42175 5.02572C6.45201 4.90606 6.45201 4.79053 6.45201 4.79053C6.45201 4.79053 6.48914 4.82079 6.51665 4.83454C6.54691 4.84829 6.68995 4.96658 6.66932 5.20452C6.64869 5.44247 6.56066 5.5415 6.56066 5.5415C6.56066 5.5415 6.47539 5.62677 6.41487 5.67079C6.35023 5.7148 6.32684 5.76569 6.21819 5.76982C6.23469 5.75606 6.25532 5.74918 6.25532 5.74918C6.25532 5.74918 6.14254 5.73543 6.08202 5.79045C6.0215 5.84546 5.89222 6.01464 5.82757 6.06553C5.76293 6.10679 5.69141 6.15355 5.69141 6.15355Z" fill="#CDAE50"/>
<path d="M10.2641 3.4784C10.2641 3.4784 10.0468 3.39037 9.75799 3.37937C9.46916 3.36974 9.04691 3.38625 8.63291 3.389C8.18728 3.39175 7.78291 3.23633 7.22175 3.20882C7.1296 3.1538 6.89578 2.91311 6.16406 3.42338C6.20808 3.42063 6.69497 3.3106 6.86414 3.52241C7.03469 3.73285 6.98655 4.09045 6.96317 4.17573C6.91916 4.36553 6.77612 4.64199 6.71835 4.83592C6.66058 5.02985 6.67434 5.13163 6.63308 5.2678C6.59181 5.40396 6.50104 5.47136 6.55468 5.62816C6.6262 5.58414 6.66333 5.58414 6.78299 5.31594C6.90265 5.04773 6.8779 4.85655 7.07596 4.62961C7.26989 4.40129 7.59311 4.08908 7.71552 4.01068C7.83793 3.93228 8.81309 3.42613 9.83364 3.9089C10.0798 3.88277 10.2641 3.4784 10.2641 3.4784Z" fill="#D2A83E"/>
<path d="M6.57627 3.29141C6.57627 3.29141 6.57352 3.26803 6.56939 3.26116C6.55289 3.22677 6.53226 3.20614 6.53226 3.20614C6.53226 3.20614 6.29018 3.16213 6.16777 3.17588C5.95321 3.19926 5.75928 3.46472 5.6685 3.60088C5.57635 3.73705 5.46494 3.94748 5.34253 4.05614C5.34528 4.03963 5.33565 4.02588 5.33565 4.02588C5.33565 4.02588 5.34253 4.03551 5.32878 4.04926C5.31502 4.06302 5.31502 4.06989 5.3219 4.07677L5.34253 4.0974C5.34941 4.0974 5.53921 4.01213 5.79779 3.77143C6.07287 3.51973 6.28331 3.39044 6.39334 3.34643C6.47724 3.30792 6.57627 3.29141 6.57627 3.29141Z" fill="#C29637"/>
<path d="M11.271 2.25708C11.271 2.25708 11.227 2.3121 11.172 2.37261C11.0496 2.5019 10.89 2.64769 10.7538 2.79761C10.6246 2.94066 10.4788 3.05206 10.3151 3.23912C10.1514 3.42617 9.96161 3.63386 9.91347 3.69438C9.86945 3.7549 9.83507 3.85392 9.83507 3.90481C9.81169 3.88831 9.78418 3.87043 9.78418 3.87043C9.78418 3.87043 9.79793 3.89794 9.82544 3.93095C9.85983 3.97909 9.91347 4.0396 9.94098 4.07674C9.98499 4.13726 10.0084 4.20878 10.0125 4.23354C10.029 4.23629 10.1349 4.25692 10.2669 4.0396C10.399 3.82229 10.5723 3.58435 10.5723 3.58435L10.8474 3.17585L11.0207 2.82925L11.238 2.44138L11.271 2.25708Z" fill="#AC8132"/>
<path d="M11.5529 1.97925C11.5529 1.97925 11.3864 2.11541 11.3218 2.19656C11.2572 2.27771 11.1045 2.49227 11.1045 2.49227L11.1595 2.4854L11.4387 2.23782L11.5474 2.04389L11.5529 1.97925Z" fill="#A88F33"/>
<path d="M11.5029 12.9095C11.5029 12.9095 11.5002 12.7967 11.5635 12.7293C11.6281 12.6619 11.7918 12.5629 11.9513 12.1915C12.1109 11.8215 12.1288 11.7363 12.1288 11.7363C12.1288 11.7363 11.8427 11.9811 11.6666 12.0389C11.7079 11.9536 11.7313 11.8931 11.7519 11.8491C11.7285 11.8284 11.6295 11.805 11.6199 11.794C11.6749 11.739 11.7051 11.6042 11.8165 11.5148C11.9596 11.4062 12.2209 11.2191 12.4245 11.0527C12.628 10.8863 13.0269 10.4984 13.0778 10.3856C13.108 10.4296 13.1149 10.4571 13.1149 10.4571C13.1149 10.4571 12.9141 10.7185 12.8096 10.8849C12.7174 11.0279 12.7243 11.1091 12.7243 11.1091L12.9141 11.0279C12.9141 11.0279 12.9691 11.2315 12.7202 11.541C12.8288 11.4997 12.8729 11.5245 12.9347 11.4901C12.833 11.5547 12.6927 11.6427 12.5606 11.8848C12.4313 12.1269 12.2553 12.4088 11.9582 12.5849C11.6694 12.7706 11.5029 12.9095 11.5029 12.9095Z" fill="#A67A2E"/>
<path d="M10.7574 3.62146C10.7574 3.62146 10.6447 3.85665 10.6282 4.03958C10.6254 4.08359 10.6144 4.11798 10.6144 4.16887C10.6116 4.33254 10.624 4.51547 10.5869 4.60075C10.5731 4.56636 10.5663 4.54298 10.5525 4.52922C10.5319 4.58699 10.4947 4.76717 10.4645 4.83456C10.4507 4.79055 10.4205 4.63788 10.4232 4.4577C10.426 4.27753 10.4301 4.24314 10.4301 4.206C10.4232 4.26102 10.3861 4.33529 10.3723 4.37931C10.3517 4.34217 10.3283 4.29403 10.3008 4.25414C10.2843 4.28165 10.2637 4.32154 10.2458 4.34217C10.243 4.32566 10.2362 4.28165 10.232 4.21976C10.2293 4.14824 10.2252 4.05609 10.2293 4.03683C10.2362 3.99969 10.2939 3.8539 10.4163 3.72049C10.5621 3.56094 10.7121 3.25422 10.7561 3.15932C10.8001 3.06442 10.9871 2.66968 10.9871 2.66968H11.1302L10.9225 3.14282C10.9225 3.14282 10.7973 3.40139 10.7327 3.4963C10.668 3.5912 10.5319 3.86353 10.4714 3.96944C10.5154 3.91167 10.5525 3.88141 10.5965 3.82639C10.6392 3.78788 10.7574 3.62146 10.7574 3.62146Z" fill="#8C6228"/>
<path d="M11.5561 1.9613C11.5561 1.9613 11.5285 2.06033 11.4474 2.15799C11.3621 2.25977 11.1792 2.39593 11.0898 2.50459C11.0086 2.61049 10.845 2.89933 10.9192 3.24181C10.9468 3.16753 10.9976 3.02037 11.1338 2.85394C11.27 2.68752 11.4158 2.49634 11.4873 2.34779C11.5588 2.19787 11.5684 2.07959 11.5684 2.07959L11.5959 2.0452L11.5794 1.96681L11.5561 1.9613Z" fill="#CBA94C"/>
<path d="M14.3417 11.0844C14.3417 11.0844 14.2867 10.9345 14.2702 10.7983C14.2537 10.6622 14.2977 10.6347 14.2468 10.4792C14.2165 10.3843 14.1615 10.3981 14.1478 10.3843C14.134 10.3706 14.1244 10.2275 14.1271 10.1491C14.1299 10.0707 14.1244 9.96896 14.1106 9.92494C14.09 9.90844 14.0762 9.89468 14.046 9.7929C14.0116 9.69112 13.9951 9.64023 13.9786 9.60998C13.9621 9.57972 13.9139 9.55221 13.9139 9.52195C13.9139 9.46143 13.9689 9.4298 13.9689 9.41329C13.9662 9.37891 13.9249 9.40642 13.9139 9.39679C13.9002 9.38028 13.9483 9.28125 13.9304 9.2675C13.9236 9.26062 13.8754 9.31839 13.863 9.30188C13.8493 9.28538 13.8328 9.12171 13.808 9.01305C13.7846 8.90714 13.7599 8.83012 13.7571 8.79849C13.7544 8.76823 13.5673 8.23457 13.5219 8.10528C13.4779 7.97599 13.4435 7.83708 13.4298 7.77243C13.416 7.70779 13.4064 7.57575 13.3995 7.58951C13.3927 7.60326 13.3968 7.67066 13.3858 7.6679C13.3762 7.66515 13.3418 7.42996 13.3308 7.39282C13.3211 7.35569 13.2634 7.22915 13.2496 7.13837C13.2359 7.04622 13.2056 6.80553 13.185 6.64185C13.1643 6.47818 13.1547 6.41078 13.1547 6.36952C13.1547 6.34889 13.1616 6.23061 13.1382 6.06968C13.1107 5.89638 13.0571 5.68595 13.0089 5.56354C12.9168 5.33247 12.6719 4.74104 12.6279 4.59388C12.6279 4.55674 12.6761 4.57737 12.6761 4.57737C12.6761 4.57737 12.7957 4.87721 12.8838 5.10828C12.969 5.33934 13.0502 5.5429 13.0708 5.56354C13.0873 5.58417 13.2166 5.81111 13.2744 6.18247C13.3321 6.55383 13.3528 6.8963 13.3872 7.12462C13.4037 7.23328 13.4174 7.34881 13.4518 7.46434C13.4889 7.58951 13.5467 7.71879 13.6223 7.91685C13.687 8.08328 13.7351 8.22219 13.7613 8.34185C13.7915 8.49452 13.7915 8.61006 13.8094 8.6857C13.8259 8.75035 13.8507 8.87964 13.9084 9.06669C13.9662 9.25375 14.0515 9.49444 14.1092 9.64436C14.222 9.9442 14.2729 10.1945 14.2894 10.3279C14.3045 10.4655 14.3554 10.9414 14.3417 11.0844Z" fill="#A88F33"/>
<path d="M11.5631 1.94478L11.5562 1.96129C11.5562 1.96129 11.5769 1.96817 11.5727 1.99567C11.5727 2.00943 11.5727 2.06307 11.5659 2.10846C11.559 2.1566 11.5452 2.19373 11.5425 2.22399C11.5425 2.28864 11.5521 2.36291 11.4613 2.54721C11.4338 2.5981 11.4173 2.64211 11.4036 2.67237C11.3692 2.74665 11.3623 2.75765 11.332 2.79203C11.3802 2.76453 11.5535 2.65587 11.6415 2.67237C11.581 2.70676 11.4888 2.77415 11.4311 2.86218C11.4448 2.86493 11.5026 2.87593 11.5947 2.86218C11.7474 2.8388 11.918 2.78378 12.0679 2.79478C12.2315 2.80441 12.1669 2.5981 12.1669 2.5981L11.9771 2.18273L11.6195 1.93103L11.5631 1.94478Z" fill="#BE9C44"/>
<path d="M12.4956 5.05595C12.4956 5.05595 12.3361 4.8964 12.2714 4.34899C12.2068 3.79883 12.2205 2.98872 12.2205 2.98872L12.0912 2.67237C12.0912 2.67237 12.0637 2.46194 11.9963 2.38354C11.9289 2.30514 11.7955 2.1731 11.735 2.10846C11.6745 2.04381 11.6057 1.95579 11.5645 1.94203C11.5851 1.90765 11.6772 1.71372 12.0307 1.71097C12.3842 1.70822 12.4929 1.9049 12.53 1.97642C12.5671 2.04794 12.7335 2.35741 12.7954 2.94608C12.8532 3.53475 12.856 3.57877 12.8463 3.78233C12.8395 3.89511 12.8023 4.15644 12.7377 4.43564C12.6785 4.67221 12.6139 4.93629 12.4956 5.05595Z" fill="#A17C34"/>
<path d="M11.9952 5.52499C11.9952 5.52499 12.0695 5.53461 12.1479 5.4906C12.1988 5.48785 12.3831 5.51123 12.5248 5.33105C12.5344 5.37232 12.5591 5.48372 12.4945 5.58275C12.5289 5.54837 12.5798 5.53461 12.5866 5.52499C12.5894 5.57588 12.6375 5.73267 12.434 6.11366C12.489 6.05314 12.5536 6.05589 12.6114 6.04902C12.6142 6.12054 12.6527 6.36123 12.5509 6.49052C12.4835 6.57855 12.3735 6.55104 12.3735 6.55104C12.3735 6.55104 12.3762 6.52078 12.3735 6.49327C12.3707 6.45614 12.357 6.419 12.3666 6.39424C12.3528 6.38737 12.2951 6.36398 12.2235 6.29521C12.1039 6.18243 11.9485 5.98987 11.9375 5.84683C11.9237 5.68728 12.0667 5.6529 12.0667 5.6529C12.0667 5.6529 12.0502 5.63915 12.0365 5.61576C12.0296 5.59238 12.0227 5.55525 11.9952 5.52499Z" fill="#8C6228"/>
<path d="M10.9346 3.79473C10.9346 3.79473 10.9278 3.7851 10.8906 3.82911C10.8975 3.7851 10.9044 3.74384 10.9071 3.70395C10.9209 3.67369 10.9443 3.63655 10.9745 3.60217C10.9539 3.64343 10.9401 3.68057 10.9401 3.68057C10.9401 3.68057 10.991 3.58566 11.0653 3.5279C11.1162 3.48664 11.1808 3.46738 11.2083 3.42887C11.2386 3.38761 11.2317 3.38073 11.2386 3.37385C11.2386 3.37385 11.306 3.32984 11.4092 3.20055C11.4229 3.18405 11.4435 3.16617 11.4573 3.14966C11.4807 3.14003 11.5357 3.11528 11.6003 3.08227C11.6677 3.04513 11.7434 2.99424 11.7901 2.97361C11.8823 2.93235 11.9799 2.93647 12.0253 2.87183C12.0597 2.8622 12.0969 2.75905 12.09 2.67102C12.1409 2.69165 12.4022 2.85395 12.4916 3.2088C12.5562 3.4605 12.4407 3.84837 12.3926 4.03542C12.3444 4.22248 12.3376 4.36139 12.2702 4.44667C12.1849 4.55945 11.9098 4.719 11.8424 4.7974C11.7846 4.86204 11.6113 5.02571 11.6182 5.144C11.6251 5.23202 11.7337 5.28016 11.7571 5.29667C11.7805 5.31317 11.7805 5.3338 11.8245 5.32418C11.8685 5.31455 11.885 5.29392 11.9029 5.29392C11.9236 5.29667 11.9236 5.30079 11.9332 5.30079C11.9428 5.30079 11.9538 5.29804 11.9538 5.29804C11.9538 5.29804 11.9469 5.42321 11.654 5.46172C11.6333 5.46447 11.6127 5.47134 11.5866 5.47547C11.621 5.45897 11.6416 5.45897 11.6787 5.40808C11.6375 5.4012 11.5192 5.39432 11.4889 5.38469C11.4986 5.36819 11.5302 5.32418 11.5563 5.30355C11.5797 5.28291 11.5536 5.27604 11.5329 5.28704C11.5233 5.29392 11.4779 5.32418 11.4312 5.36544C11.3968 5.3957 11.3665 5.43696 11.3115 5.4741C11.295 5.41908 11.2977 5.31455 11.3624 5.2389C11.3459 5.24165 11.3143 5.28979 11.284 5.28016C11.2812 5.25953 11.2771 5.19214 11.2936 5.13024C11.3101 5.06835 11.3995 4.95969 11.3995 4.95969L11.8314 4.18809L11.9236 3.60354L10.9346 3.79473Z" fill="#92723A"/>
<path d="M10.9105 3.82778C10.9105 3.82778 10.8871 3.84429 10.9339 3.87592C10.927 3.88555 10.9105 3.91993 10.8899 3.94332C10.8665 3.97082 10.8417 3.98733 10.8321 4.01071C10.8115 4.05885 10.795 4.09186 10.795 4.11249C10.795 4.13312 10.7881 4.26516 10.7303 4.35044C10.7097 4.38069 10.6863 4.43158 10.6698 4.46597C10.6354 4.52649 10.6052 4.57463 10.5983 4.60213C10.5845 4.65027 10.5749 4.78231 10.5749 4.78231C10.5749 4.78231 10.6052 4.74518 10.6162 4.73142C10.5997 4.76581 10.5818 4.80294 10.5557 4.83045C10.5722 4.8167 10.6203 4.78231 10.7015 4.71079C10.8142 4.61589 10.9903 4.45634 11.2049 4.3298C11.1402 4.35319 11.0852 4.35319 11.0412 4.36006C11.0756 4.32568 11.385 3.96257 11.5473 3.92819C11.5638 3.90756 11.5611 3.88417 11.5611 3.88417L11.4222 3.87042L11.1402 3.93094L11.0989 3.71362L10.9105 3.82778Z" fill="#B18E3E"/>
<path d="M11.3596 5.0656C11.3596 5.0656 11.3225 5.10274 11.2881 5.19489C11.2785 5.18526 11.2468 5.15088 11.2207 5.10274C11.1698 5.01746 11.0914 4.90881 10.9085 4.9707C10.9057 4.91293 10.9016 4.88267 10.9085 4.84141C10.9387 4.83453 11.0309 4.76026 11.1231 4.65161C11.1877 4.57733 11.2482 4.49206 11.2895 4.3834C11.317 4.36277 11.3638 4.32838 11.4256 4.2885C11.5137 4.22798 11.6196 4.14546 11.6361 4.0533C11.5948 4.06981 11.5068 4.11107 11.3748 4.10419C11.4256 4.08081 11.504 4.05605 11.4944 3.95428C11.515 3.94052 11.5315 3.93089 11.5315 3.93089C11.5315 3.93089 11.515 3.92402 11.4834 3.92402C11.4807 3.91439 11.4765 3.90063 11.4532 3.90751C11.4298 3.91439 11.4256 3.91439 11.4229 3.92402C11.4133 3.92677 11.3816 3.92402 11.3582 3.94052C11.3349 3.95703 11.2702 4.01204 11.2455 4.02167C11.2551 4.00516 11.2688 3.98041 11.2688 3.98041C11.2688 3.98041 11.2015 3.98728 11.1533 4.00792C11.0653 4.03817 10.9635 4.09319 10.8604 4.14683C10.87 4.13033 10.8741 4.11932 10.881 4.11657C10.8879 4.11382 10.9044 4.1097 10.9044 4.10695C10.9044 4.10419 10.8975 4.07944 10.9016 4.06981C10.9044 4.06018 10.9621 3.9474 11.0103 3.88275C11.0584 3.81811 11.068 3.72596 11.068 3.72596L11.2785 3.62005L11.8699 3.48389L12.2536 3.50727L12.2055 3.77272L11.9786 4.23623L11.7846 4.65848L11.5632 4.91706L11.3596 5.0656Z" fill="#543E26"/>
<path d="M12.3178 3.91712C12.3178 3.91712 12.0867 4.20321 12.022 4.24722C12.0633 4.15919 12.3178 3.63516 12.4099 3.48937C12.3893 3.47287 12.3618 3.47287 12.4264 3.21704C12.3714 3.34633 12.3521 3.41372 12.3068 3.44811C12.2627 3.48249 12.2559 3.47149 12.2256 3.47149C12.2352 3.45499 12.2325 3.43711 12.2325 3.43711C12.2325 3.43711 12.0386 3.41372 11.9065 3.41372C11.7745 3.41372 11.5118 3.48525 11.366 3.54301C11.2504 3.59115 11.1858 3.59115 11.1445 3.62141C11.1033 3.65579 11.0799 3.69293 11.0593 3.70256C11.0428 3.71219 10.9644 3.73694 10.9465 3.76308C10.93 3.79058 10.9025 3.82084 10.9025 3.82772C10.9025 3.8346 10.8956 3.84423 10.9162 3.83735C10.9231 3.8346 10.974 3.80709 11.0318 3.7727C11.1102 3.72869 11.2051 3.6778 11.2738 3.64754C11.4705 3.56914 11.5324 3.5829 11.6204 3.56639C11.7126 3.54989 11.8446 3.51138 11.9326 3.51138C12.0207 3.50863 12.1871 3.51138 12.2256 3.51825C12.2091 3.53201 12.1953 3.54851 12.2022 3.60628C12.2022 3.62279 12.1885 3.64067 12.1747 3.68055C12.1335 3.79334 12.0551 3.98039 12.011 4.07529C11.9505 4.20458 11.8818 4.31324 11.8474 4.38063C11.813 4.44803 11.7387 4.62546 11.6644 4.72036C11.5902 4.81526 11.5517 4.87303 11.5283 4.89366C11.5049 4.91429 11.3385 5.0367 11.3508 5.08071C11.3811 5.07109 11.5723 4.99957 11.7112 4.84277C11.8501 4.68597 11.8776 4.59107 11.9863 4.5058C12.0949 4.42052 12.1802 4.27748 12.2311 4.15919C12.2737 4.04916 12.2641 4.01478 12.3178 3.91712Z" fill="#806031"/>
<path d="M7.33736 6.05173C7.33736 6.05173 7.3071 6.1769 7.23833 6.23879C7.17093 6.29931 7.05127 6.35157 7.03752 6.45335C7.02102 6.55513 7.15718 6.60602 7.15718 6.60602C7.15718 6.60602 7.08291 6.72843 7.08291 6.82059C7.08291 6.91549 7.08016 6.93337 7.08979 7.02415C7.07328 7.03377 7.06228 7.05165 7.06228 7.05165C7.06228 7.05165 7.06916 7.13968 7.13655 7.1947C7.20394 7.24971 7.26171 7.28272 7.2961 7.26897C7.30297 7.28272 7.30985 7.30335 7.30985 7.30335C7.30985 7.30335 7.36074 7.17407 7.39513 7.06128C7.42951 6.94575 7.45977 6.96225 7.47352 6.80683C7.48728 6.65004 7.6372 6.38458 7.6372 6.38458L7.73898 6.15627L7.57255 6.02698L7.33736 6.05173Z" fill="#B6903C"/>
<path d="M7.64763 6.276C7.64763 6.276 7.59674 6.32689 7.55272 6.38878C7.50871 6.4493 7.47432 6.50432 7.40968 6.5277C7.34504 6.55108 7.30377 6.55108 7.3079 6.61573C7.31203 6.68037 7.37254 6.70788 7.40693 6.74089C7.44407 6.77527 7.47432 6.83304 7.45782 6.89768C7.47845 6.88806 7.51559 6.87705 7.54997 6.80278C7.58436 6.72851 7.82505 6.276 7.82505 6.276H7.64763Z" fill="#685026"/>
<path d="M8.5948 5.2321C8.5948 5.2321 8.61543 5.17708 8.5948 5.1372C8.57417 5.09594 8.44901 5.08218 8.38711 5.03542C8.32247 4.98728 8.24407 4.95427 8.17943 4.9749C8.18906 4.95152 8.22757 4.90063 8.19593 4.88963C8.16567 4.88 8.05289 4.93089 8.02263 4.95427C7.99237 4.97765 7.9236 5.00516 7.90985 5.02166C7.89609 5.03817 7.87271 5.0698 7.85896 5.05605C7.84521 5.04642 7.83833 5.02166 7.81495 5.03542C7.79156 5.04917 7.67878 5.14132 7.65815 5.19497C7.63752 5.24861 7.59076 5.36827 7.45046 5.50443C7.31155 5.6406 7.24965 5.72862 7.29092 5.77951C7.33218 5.8304 7.35143 5.79327 7.35831 5.83728C7.36106 5.85791 7.36519 5.91155 7.35143 5.96657C7.33493 6.03809 7.30742 6.10548 7.34456 6.11924C7.43946 6.1495 7.53161 6.09173 7.55224 6.10961C7.59351 6.14675 7.52886 6.28016 7.62652 6.30629C7.72554 6.3338 7.8232 6.28291 7.8232 6.28291L8.18355 6.08898L8.53016 5.90605L8.70758 5.55532L8.61268 5.26236L8.5948 5.2321Z" fill="#D4B968"/>
<path d="M8.25566 6.0697C8.25566 6.0697 8.19515 5.97755 8.26942 5.8964C8.34369 5.81525 8.4496 5.78086 8.49086 5.72997C8.4771 5.71347 8.4606 5.70934 8.4606 5.70934C8.4606 5.70934 8.49773 5.63507 8.58026 5.59656C8.55963 5.57593 8.53212 5.55942 8.50186 5.55942C8.43447 5.55942 8.3932 5.60069 8.33131 5.60069C8.27079 5.60069 8.26392 5.57043 8.26392 5.57043C8.26392 5.57043 8.3657 5.5608 8.35607 5.51541C8.34644 5.46727 8.32856 5.46727 8.32856 5.46727C8.32856 5.46727 8.52524 5.38612 8.55963 5.34211C8.59401 5.2981 8.58989 5.24721 8.59676 5.22658C8.62015 5.22658 8.75631 5.15505 8.81133 5.18531C8.86634 5.21557 8.82783 5.2981 8.82783 5.2981C8.82783 5.2981 8.99426 5.17293 9.07953 5.05052C9.1538 5.0574 9.18819 4.99963 9.2432 4.99963C9.3106 4.99963 9.4165 5.09179 9.43714 5.28847C9.45089 5.40125 9.47152 5.4659 9.45089 5.66533C9.44126 5.77811 9.44401 6.01881 9.4784 6.13847C9.50178 6.23337 9.5568 6.22374 9.5568 6.22374C9.5568 6.22374 9.54717 6.26501 9.50866 6.29802C9.47152 6.3324 9.46739 6.42318 9.47152 6.45756C9.4784 6.49195 9.49215 6.53183 9.49215 6.53183C9.49215 6.53183 9.44814 6.58272 9.43714 6.61711C9.42751 6.65149 9.38212 6.67488 9.34911 6.67488C9.31473 6.67488 9.33261 6.67213 9.28859 6.67488C9.24458 6.67763 9.23083 6.6845 9.20332 6.67488C9.17581 6.66525 9.15518 6.65425 9.16618 6.56622C9.17581 6.47819 8.82646 6.27326 8.82646 6.27326L8.25566 6.0697Z" fill="#CCA849"/>
<path d="M7.59863 6.93894C7.59863 6.93894 7.72379 7.10536 8.2382 7.10536C8.48302 7.10536 8.56829 7.08198 8.61918 7.06823C8.6742 7.05447 8.88051 6.97332 9.0882 6.7285C9.27525 6.50706 9.23399 6.41629 9.23399 6.41629L9.12533 6.39978L8.77185 6.44792L7.72517 6.89355L7.59863 6.93894Z" fill="#585136"/>
<path d="M7.98274 6.98024C7.98274 6.98024 7.53711 7.07927 7.53711 6.79732C7.53711 6.52223 7.81219 6.2334 7.88096 6.18251C7.95248 6.13162 8.12303 6.07385 8.12303 6.07385H8.53428L8.61268 6.28154L8.57829 6.72992L7.98274 6.98024Z" fill="#252211"/>
<path d="M8.39389 6.15769C8.39389 6.15769 8.30862 6.07929 8.11469 6.1852C7.92075 6.2911 7.76396 6.51117 7.75433 6.71198C7.7447 6.8894 7.90012 7.02144 8.14219 7.02832C8.32237 7.0352 8.43103 7.01457 8.48604 7.00081C8.47229 6.98431 8.40077 6.89491 8.40077 6.89491L8.39389 6.15769Z" fill="#C3B378"/>
<path d="M8.30969 6.20176C8.30969 6.20176 8.28906 6.18525 8.22854 6.21826C8.17765 6.24577 8.10338 6.31729 8.04561 6.36818C8.00848 6.39844 7.98509 6.41219 7.96446 6.43558C7.87919 6.53736 7.80767 6.70378 7.84893 6.7863C7.89019 6.86745 8.02636 6.96373 8.37296 6.89909L8.30969 6.20176Z" fill="#E6D89C"/>
<path d="M8.19742 6.37219C8.19742 6.37219 8.14241 6.45747 8.14241 6.59363C8.14241 6.73255 8.2208 6.95399 8.50964 6.97049C8.73108 6.98425 8.87962 6.6514 9.04055 6.52211C9.16296 6.42308 9.23723 6.42033 9.23723 6.42033C9.23723 6.42033 9.11207 6.28417 8.77784 6.10812C8.44775 5.93069 8.07776 5.90731 7.87695 6.17964C7.97186 6.17276 8.27857 6.09436 8.27857 6.09436L8.42849 6.1425L8.19742 6.37219Z" fill="#252211"/>
<path d="M8.62911 6.55249C8.61948 6.53186 8.61261 6.50435 8.65249 6.49747C8.69375 6.49059 8.71026 6.49472 8.72401 6.52498C8.73777 6.55524 8.75152 6.58 8.73089 6.59237C8.71026 6.60338 8.65662 6.59237 8.62911 6.55249ZM8.56447 6.35855C8.56447 6.35855 8.55071 6.36818 8.55759 6.34893C8.56034 6.32555 8.57822 6.28428 8.62223 6.29391C8.66625 6.30354 8.65662 6.35168 8.64974 6.36543C8.64286 6.37919 8.60573 6.40257 8.57822 6.39294C8.55071 6.38331 8.56447 6.35855 8.56447 6.35855Z" fill="#6F674D"/>
<path d="M4.84082 6.44658C4.84082 6.44658 4.94948 6.52772 5.07601 6.52497C5.20118 6.52222 5.3621 6.39293 5.43637 6.31041C5.48038 6.26227 5.51752 6.21138 5.55878 6.17149C5.59317 6.13711 5.61655 6.1206 5.63305 6.09722C5.65644 6.06971 5.68119 6.01882 5.69357 6.00232C5.66331 6.0257 5.6193 6.06696 5.57391 6.09447C5.5299 6.12198 5.43499 6.17287 5.39648 6.18662C5.35935 6.20038 4.97423 6.40394 4.97423 6.40394L4.84082 6.44658Z" fill="#AC924C"/>
<path d="M5.00781 5.43011C5.00781 5.43011 5.06833 5.38885 5.18524 5.36271C5.29802 5.33521 5.52496 5.31458 5.52496 5.31458L5.71202 5.39572L5.78629 5.67768L5.65013 5.97064L5.47683 6.0793L5.28014 5.76296L5.00781 5.43011Z" fill="#9F8E57"/>
<path d="M4.76289 5.68183L4.69824 5.72997C4.69824 5.72997 4.71475 5.69971 4.7285 5.60756C4.74225 5.5154 4.81378 5.29121 4.91831 5.16192C5.02284 5.03264 5.02009 5.03951 5.02009 5.03951C5.02009 5.03951 4.98983 5.03264 4.96507 5.05327C4.97882 5.02301 5.06685 4.91435 5.15488 4.85934C5.2429 4.80432 5.27729 4.78781 5.36944 4.83183C5.46159 4.87584 5.48497 4.89922 5.55237 4.89647C5.61976 4.89372 5.67753 4.8222 5.67753 4.8222C5.67753 4.8222 5.69128 4.86621 5.64039 4.96799C5.5895 5.06977 5.3887 5.27746 5.3887 5.27746L4.97057 5.56354L4.76289 5.68183Z" fill="#EAC970"/>
<path d="M5.07227 5.39577C5.07227 5.39577 5.37485 5.43703 5.46701 5.35176C5.46976 5.36138 5.48076 5.36138 5.48076 5.36826C5.48076 5.37514 5.47388 5.38201 5.47388 5.38201C5.47388 5.38201 5.49039 5.37926 5.50414 5.37926C5.5179 5.38201 5.52752 5.38614 5.54128 5.38614C5.55503 5.38614 5.57154 5.38339 5.57154 5.38339C5.57154 5.38339 5.56879 5.40677 5.55091 5.41777C5.56466 5.41777 5.57841 5.42053 5.57841 5.43153C5.57841 5.44253 5.58117 5.47554 5.56466 5.48242C5.54403 5.4893 5.5234 5.47967 5.5234 5.47967C5.5234 5.47967 5.5234 5.5168 5.54403 5.55394C5.57154 5.60483 5.6293 5.6626 5.7077 5.64609C5.7077 5.64609 5.74896 5.74512 5.57566 5.96519C5.55228 5.99544 5.52752 6.03671 5.49727 6.07109C5.47388 6.12611 5.46976 6.15224 5.46976 6.15224C5.46976 6.15224 5.76272 6.03946 5.84662 5.78226C5.93189 5.52368 5.9484 5.26923 5.93189 5.03129C5.92914 4.96389 5.91814 4.91575 5.90163 4.88137C5.86037 4.79609 5.74484 4.80985 5.69807 4.85799C5.63068 4.92538 5.5179 5.09318 5.3611 5.20871C5.20155 5.32425 5.19468 5.34488 5.07227 5.39577Z" fill="#D7BC6B"/>
<path d="M4.7098 5.76703C4.7098 5.76703 4.65204 5.80141 4.62178 5.9307C4.59152 6.06274 4.64929 6.22366 4.6823 6.27455C4.71668 6.32544 4.79095 6.46436 4.94775 6.47123C4.98213 6.47123 5.02202 6.46436 5.06053 6.44785C5.11555 6.42447 5.16919 6.38733 5.2132 6.35295C5.2806 6.30206 5.33561 6.25805 5.32874 6.25392C5.31223 6.24704 4.91336 5.91695 4.91336 5.91695L4.76344 5.74915L4.7098 5.76703Z" fill="#585136"/>
<path d="M5.08626 6.31454C5.08626 6.31454 5.16741 6.30766 5.21555 6.27741C5.26369 6.24715 4.93359 5.9198 4.93359 5.9198L4.95698 6.27328L5.08626 6.31454Z" fill="#453A25"/>
<path d="M4.735 5.74229C4.735 5.74229 4.69374 5.82069 4.69374 5.84132C4.68686 5.90871 4.7075 6.12052 4.724 6.18792C4.74051 6.25944 4.82991 6.3681 4.94544 6.3681C5.01696 6.3681 5.11599 6.32408 5.11599 6.31308C5.11599 6.29933 5.01421 6.28557 4.9867 6.23468C4.9702 6.20717 4.96332 6.13978 4.9592 6.07101C4.95644 6.027 4.95644 5.97886 4.97295 5.96235C5.01009 5.92109 5.01696 5.80281 5.01696 5.80281L5.149 5.55798H4.9757L4.76801 5.68727L4.735 5.74229Z" fill="#84754B"/>
<path d="M4.68457 5.81793C4.68457 5.81793 4.82074 5.63775 4.94315 5.59649C5.06556 5.55523 5.12057 5.57998 5.12057 5.57998L5.04905 5.76291L4.94727 5.87569L4.95415 5.93346C4.95415 5.93346 4.93764 6.08613 5.03942 6.19204C5.1412 6.29794 5.21685 6.29382 5.26086 6.29382C5.30488 6.29382 5.43142 6.25668 5.49606 6.10401C5.55383 5.96097 5.60197 5.77804 5.48643 5.59374C5.37365 5.41081 5.17421 5.40393 5.1357 5.40393C5.09719 5.40531 4.7946 5.41906 4.68457 5.81793Z" fill="#252211"/>
<path d="M8.17694 6.42997C8.12605 6.40659 8.17419 6.26355 8.22508 6.21953C8.27597 6.17552 8.34061 6.12463 8.45339 6.11775C8.49465 6.115 8.53454 6.14114 8.52766 6.16864C8.51804 6.21953 8.44652 6.29105 8.38187 6.34194C8.29247 6.41209 8.2347 6.4561 8.17694 6.42997Z" fill="#F7F7E7"/>
<path d="M5.42592 5.6502C5.46305 5.64745 5.51119 5.67771 5.52082 5.71759C5.53045 5.76161 5.49744 5.84963 5.42592 5.84963C5.36815 5.84963 5.33789 5.77811 5.33789 5.75748C5.33789 5.73685 5.34752 5.71622 5.35164 5.70934C5.3544 5.70521 5.36127 5.65708 5.42592 5.6502Z" fill="#F8F6DE"/>
<path d="M4.88918 5.68176C4.88918 5.68176 4.79428 5.72578 4.75027 5.81793C4.70626 5.91008 4.71588 6.00086 4.72276 6.03524C4.72964 6.06963 4.76402 6.1549 4.7874 6.18516C4.81079 6.21542 4.84242 6.23605 4.8658 6.2333C4.88918 6.23055 4.93732 6.16866 4.93732 6.13152C4.93732 6.09438 4.94007 5.93759 4.98546 5.85231C5.02535 5.76704 4.88918 5.68176 4.88918 5.68176Z" fill="#D4C38B"/>
<path d="M4.90345 5.67488C4.88695 5.68451 4.85944 5.69826 4.86632 5.71614C4.87319 5.73265 4.93096 5.74365 4.95159 5.78354C4.97497 5.8248 4.97497 5.86881 4.9681 5.88944C4.97497 5.88669 4.9956 5.87569 5.01624 5.85506C5.04649 5.82067 5.08363 5.77391 5.11526 5.77391C5.1359 5.77391 5.15653 5.78354 5.17578 5.78354C5.20604 5.78354 5.2363 5.77391 5.24043 5.74227C5.2473 5.70101 5.18266 5.66388 5.14552 5.67075C5.1524 5.64325 5.16203 5.60336 5.13177 5.57585C5.10151 5.54834 5.00661 5.59648 4.98598 5.61024C4.96397 5.62399 4.90345 5.67488 4.90345 5.67488Z" fill="#E2D59D"/>
<path d="M7.08897 8.56467L7.29253 8.50415L7.35029 8.54541C7.35029 8.54541 7.39156 8.63344 7.4562 8.64444C7.43557 8.68845 7.38193 8.72559 7.38468 8.75723C7.38743 8.78886 7.41494 8.81224 7.41494 8.81224C7.41494 8.81224 7.23201 9.11483 7.59237 9.42017C7.50709 9.45456 7.39843 9.50132 7.34067 9.52883C7.38193 9.53845 7.46995 9.55634 7.50709 9.58934C7.54423 9.62373 7.54423 9.63336 7.57861 9.65399C7.613 9.67462 7.63363 9.70213 7.62675 9.71451C7.60337 9.70075 7.52497 9.65949 7.51122 9.698C7.49746 9.73514 7.17149 9.72138 7.17149 9.72138L6.62133 9.82729C6.62133 9.82729 6.64196 9.77227 6.58419 9.72138C6.5168 9.66087 6.43428 9.72413 6.34625 9.65674C6.23072 9.56871 6.22659 9.46693 6.18945 9.42842C6.22659 9.40504 6.30224 9.37066 6.48241 9.34727C6.47554 9.33352 6.45216 9.29226 6.46591 9.25512C6.48241 9.20698 6.55118 9.17672 6.53055 9.11896C6.56081 9.11208 6.57457 9.11208 6.65021 9.01718C6.72173 8.92227 6.76575 8.90164 6.82076 8.89477C6.87578 8.88789 6.90879 8.89477 7.01057 8.79986C7.08209 8.73247 7.05871 8.6747 7.05871 8.6747C7.05871 8.6747 7.10547 8.65957 7.08897 8.56467Z" fill="#CBAC5A"/>
<path d="M6.48758 8.59489C6.49033 8.58114 6.50133 8.57426 6.5756 8.58114C6.64987 8.58802 7.12026 8.53713 7.24817 8.53025C7.37746 8.52062 7.83272 8.5275 8.05416 8.57426C8.2756 8.62103 8.49979 8.67604 8.60845 8.70355C8.71711 8.73381 8.75149 8.74481 8.74737 8.75857C8.74461 8.77232 8.71986 8.78608 8.7061 8.78195C8.69235 8.7792 8.33199 8.66917 8.22059 8.64578C8.10918 8.6224 7.72406 8.56051 7.51363 8.56464C7.31694 8.56739 7.23855 8.56188 7.07212 8.58114C6.9057 8.60177 6.63062 8.62928 6.54809 8.61828C6.46695 8.60865 6.48345 8.60865 6.48758 8.59489Z" fill="#D6BC6F"/>
<path d="M7.59552 9.67316C7.59552 9.67316 7.87747 9.82583 7.97925 10.0129C8.05352 10.1518 7.93524 10.2206 7.93524 10.2206C7.93524 10.2206 8.09479 10.2206 8.07416 10.3086C8.06453 10.3636 7.79908 10.5122 7.62165 10.5906C7.44147 10.669 7.44835 10.6648 7.36032 10.6786C7.27505 10.6923 7.04123 10.6511 6.99309 10.7198C6.94495 10.7872 6.96558 10.8588 6.97933 10.8698C6.99309 10.8794 7.1045 10.8931 7.1045 10.8931C7.1045 10.8931 7.08111 10.9578 6.85005 10.9647C6.61898 10.9715 6.56121 10.988 6.54746 11.0128C6.5337 11.0362 6.59147 11.0224 6.69738 11.0403C6.80328 11.0568 6.95183 11.0678 6.95183 11.0678C6.95183 11.0678 6.90369 11.1091 6.77853 11.1421C6.63548 11.1792 6.41129 11.2136 6.3439 11.2549C6.37828 11.2783 6.42917 11.3126 6.45255 11.3154C6.39479 11.3291 6.31364 11.3594 6.29988 11.3704C6.32052 11.3842 6.34802 11.4007 6.34802 11.4007C6.34802 11.4007 6.23249 11.5396 6.1651 11.574C6.0977 11.6084 5.70984 11.7885 5.57642 11.7541C5.24357 11.6661 5.20231 11.3016 5.12116 11.2741C4.99875 11.2329 4.94098 11.3154 4.83233 11.2576C4.88047 11.2232 4.9066 11.2026 4.95749 11.1792C4.90247 11.1517 4.61776 10.9715 4.61776 10.9715C4.61776 10.9715 4.58338 10.8931 4.51874 10.7817C4.46372 10.6868 4.38257 10.5603 4.32205 10.4489C4.19001 10.2041 4.18314 10.0913 4.06348 9.95237C4.08411 9.92486 4.15563 9.92899 4.15563 9.92899L5.1583 10.2591L6.9367 10.31L7.39883 9.64978L7.59552 9.67316Z" fill="#DFC677"/>
<path d="M4.96094 10.68C4.96094 10.68 4.97469 10.6965 4.99807 10.7103C5.03246 10.7337 5.08335 10.7612 5.11773 10.8024C5.13149 10.7818 5.16587 10.7447 5.22639 10.8024C5.28691 10.8602 5.36256 10.819 5.40932 10.8327C5.45746 10.8492 5.46021 10.8561 5.46021 10.8561C5.46021 10.8561 5.48772 10.8327 5.54824 10.8079C5.58537 10.7942 5.62938 10.7846 5.67752 10.7708C5.72154 10.7612 5.76968 10.7474 5.80268 10.7474C5.83294 10.7681 5.9416 10.8836 6.3776 10.713C6.78885 10.5535 6.88375 10.5356 6.95252 10.5604C6.9594 10.5439 6.96628 10.5122 7.07218 10.5164C7.07218 10.4723 6.98416 10.3224 6.98416 10.3224L6.49864 10.156H6.23319L5.43683 10.3018L4.99532 10.5535L4.96094 10.68Z" fill="#C4A859"/>
<path d="M4.69531 10.4008C4.69531 10.4008 4.70494 10.475 4.81497 10.5534C4.92363 10.6318 4.95801 10.6786 4.95801 10.6786C4.95801 10.6786 4.97865 10.6511 4.99515 10.6236C5.01166 10.5933 5.02541 10.5589 5.05292 10.5493C5.10793 10.5259 5.2331 10.5699 5.2606 10.5631C5.28399 10.5562 5.27711 10.5081 5.30187 10.5081C5.35963 10.5053 5.39677 10.5452 5.4174 10.5452C5.43803 10.5452 5.48892 10.5424 5.4958 10.5314C5.50268 10.5204 5.50543 10.4063 5.58382 10.3513C5.6691 10.2907 5.77363 10.3169 5.80114 10.3306C5.80114 10.3513 5.80389 10.4021 5.8589 10.4049C5.91392 10.4076 5.91942 10.398 5.96756 10.4145C6.0157 10.431 6.07347 10.4118 6.0996 10.4929C6.12298 10.486 6.178 10.4792 6.16424 10.4008C6.19175 10.3801 6.21513 10.3664 6.2729 10.2852C6.28666 10.2646 6.31004 10.2412 6.32792 10.211C6.37606 10.211 6.43382 10.2013 6.51085 10.2687C6.48746 10.2852 6.47371 10.2962 6.46683 10.3127C6.47371 10.3196 6.50122 10.3471 6.52185 10.3774C6.54248 10.4049 6.55624 10.4379 6.58237 10.4448C6.64013 10.4613 6.73504 10.4379 6.84094 10.4448C6.94272 10.4517 7.028 10.4888 7.06514 10.5122C7.07889 10.5053 7.07889 10.5025 7.11327 10.5094C7.14766 10.5163 7.17379 10.5191 7.13666 10.475C7.15729 10.4847 7.18067 10.5053 7.2013 10.4847C7.22193 10.464 7.23844 10.4338 7.2962 10.4269C7.35397 10.42 7.3746 10.4297 7.39798 10.3691C7.42824 10.2949 7.32371 10.2949 7.32371 10.2949C7.32371 10.2949 7.37185 10.2508 7.42549 10.1931C7.49014 10.1326 7.56441 10.0542 7.58229 9.95789C7.61255 9.78046 7.43925 9.75708 7.43925 9.75708L6.59887 10.0157L5.57145 9.96477L4.69531 10.4008Z" fill="#927D49"/>
<path d="M3.94043 7.97321C3.94043 7.97321 3.91292 8.0076 3.89641 8.08875C3.87991 8.1699 3.88678 8.16027 3.87303 8.21804C3.85928 8.2758 3.6901 8.85072 3.75337 9.04465C3.81664 9.23859 3.92667 9.31011 3.99544 9.4669C4.0092 9.50129 4.02295 9.52192 4.02983 9.55218C4.05321 9.65396 4.03258 9.73236 4.06009 9.83414C4.06971 9.86852 4.09447 9.90841 4.13161 9.94967C4.21276 10.0349 4.34617 10.1161 4.40394 10.1739C4.48509 10.2591 4.60062 10.4324 4.74779 10.4489C4.82619 10.4586 4.93759 10.4256 5.02975 10.3705C5.11089 10.3197 5.16178 10.2481 5.24706 10.2069C5.30758 10.1766 5.37222 10.1656 5.42999 10.1519C5.54965 10.1285 5.65831 10.1243 5.72295 10.1381C5.82198 10.1587 6.0558 10.2303 6.18509 10.2303C6.23598 10.2303 6.35564 10.2234 6.48492 10.189C6.68161 10.1312 6.91955 10.0322 7.07635 9.98818C7.1685 9.96067 7.24277 9.9538 7.31842 9.93729C7.44771 9.90703 7.55636 9.86577 7.61826 9.78737C7.577 9.73923 7.52611 9.66496 7.25102 9.66771C6.93881 9.67459 6.57845 9.84789 6.40102 9.8754C6.2236 9.90291 6.14657 9.92629 5.94852 9.85477C5.75458 9.78325 5.74771 9.73511 5.74771 9.73511C5.74771 9.73511 5.54415 9.59206 5.45887 9.22896C5.3736 8.86448 5.45887 8.6004 5.68031 8.3487C5.73808 8.28405 5.72433 8.22629 5.72433 8.22629C5.72433 8.22629 5.87012 8.02961 5.83023 7.8453C5.78622 7.66237 5.50426 7.69951 5.50426 7.69951L3.94043 7.97321Z" fill="#6E6342"/>
<path d="M4.17525 8.58533C4.17525 8.58533 4.15462 8.62246 4.15875 8.6596C4.1615 8.69673 4.1725 8.74487 4.28391 8.85353C4.37881 8.94843 4.35818 9.05434 4.35818 9.05434C4.35818 9.05434 4.40632 9.06397 4.53561 9.00345C4.63739 8.95531 4.67177 9.04059 4.67177 9.04059C4.67177 9.04059 4.71304 9.0172 4.76668 9.01033C4.82169 9.00345 4.85195 8.98282 4.85195 8.98282C4.85195 8.98282 4.97161 9.10523 5.07614 9.163C5.17105 9.21389 5.22606 9.24827 5.27283 9.21389C5.31684 9.18363 5.31684 9.12173 5.31409 9.09423C5.31409 9.09423 5.30033 9.05984 5.27283 9.02271C5.24257 8.97869 5.19443 8.9278 5.19168 8.88654C5.1848 8.79164 5.2632 8.67885 5.24669 8.65135C5.23019 8.62384 5.1683 8.61696 5.01563 8.67198C4.85745 8.72424 4.17525 8.58533 4.17525 8.58533Z" fill="#39331F"/>
<path d="M4.53623 9.20004C4.53623 9.20004 4.45784 9.12577 4.48534 8.76541C4.52661 8.76266 4.58437 8.77504 4.58437 8.77504C4.58437 8.77504 4.62701 9.05425 4.53623 9.20004Z" fill="#292311"/>
<path d="M3.97784 7.69811C3.97784 7.69811 3.9916 7.68848 4.0081 7.6706C3.98059 7.72149 3.85543 7.92505 3.95721 8.24552C4.05899 8.56462 4.31482 8.80256 4.62979 8.81356C4.94475 8.82457 5.1098 8.67052 5.29961 8.43945C5.37388 8.3473 5.45915 8.23177 5.5348 8.15337C5.64758 8.03096 5.73561 7.99657 5.73561 7.87829C5.73561 7.63622 5.48804 7.52756 5.12356 7.4189C4.75907 7.31025 4.43035 7.324 4.2598 7.39827C4.09338 7.47942 4.02186 7.5647 3.97784 7.69811Z" fill="#252211"/>
<path d="M5.14844 9.3088L5.17595 9.29504C5.17595 9.29504 5.18282 9.18639 5.22684 9.18914C5.27085 9.19602 5.29148 9.25378 5.28735 9.27441C5.2846 9.29504 5.2736 9.32943 5.22959 9.3253C5.17182 9.32668 5.14844 9.3088 5.14844 9.3088Z" fill="#3F3824"/>
<path d="M5.02539 8.84664C5.02539 8.84664 5.0529 8.83702 5.08591 8.87003C5.11342 8.87003 5.2317 8.85627 5.26884 8.87965C5.30597 8.90303 5.31698 8.92367 5.31698 8.92367C5.31698 8.92367 5.17806 8.95392 5.10241 8.92367C5.02539 8.89753 5.02539 8.84664 5.02539 8.84664Z" fill="#2D2815"/>
<path d="M5.63808 8.86727C5.63808 8.86039 5.56381 8.8095 5.48541 8.79299C5.47166 8.79024 5.46891 8.79987 5.4579 8.79987C5.45103 8.79712 5.44828 8.77649 5.44828 8.77649L5.40426 8.79987C5.40426 8.79987 5.39739 8.8095 5.42077 8.82738C5.4414 8.84388 5.47578 8.85764 5.48541 8.88515C5.49504 8.91265 5.49504 8.92228 5.49917 8.92641C5.50192 8.92916 5.55006 8.92641 5.57344 8.91265C5.59682 8.89753 5.64083 8.87689 5.63808 8.86727Z" fill="#82764F"/>
<path d="M4.94336 9.14639C4.94336 9.14639 4.95711 9.05149 5.04927 9.04736C5.14417 9.04049 5.16205 9.13264 5.16205 9.13264L5.10703 9.18766C5.10703 9.18628 5.06577 9.12851 4.94336 9.14639Z" fill="#2D2816"/>
<path d="M5.54183 8.73793C5.54183 8.73793 5.49094 8.79295 5.37816 8.80945C5.36853 8.7957 5.3479 8.76819 5.37816 8.72418C5.40842 8.68016 5.4428 8.66641 5.47719 8.68016C5.51157 8.68704 5.53495 8.71042 5.54183 8.73793Z" fill="#574F35"/>
<path d="M5.74897 8.80528C5.75172 8.79153 5.74209 8.78878 5.74897 8.7819C5.75585 8.77502 5.79298 8.76127 5.79986 8.76815C5.80261 8.7709 5.79986 8.7819 5.79986 8.79565C5.79986 8.80941 5.79986 8.82316 5.79298 8.83279C5.78335 8.84655 5.75585 8.85342 5.74209 8.8493C5.72834 8.84655 5.72559 8.82591 5.72559 8.82179C5.73246 8.81904 5.74897 8.81216 5.74897 8.80528ZM5.98416 8.65674C5.98416 8.64986 6.00754 8.63611 6.0213 8.63611C6.04193 8.63611 6.04193 8.65261 6.04468 8.65674C6.05156 8.65949 6.05156 8.65399 6.05843 8.66637C6.06531 8.68012 6.07494 8.70075 6.06806 8.71451C6.06119 8.72826 6.03368 8.73789 6.0268 8.73514C6.01717 8.72826 5.98691 8.66637 5.98416 8.65674Z" fill="#82764F"/>
<path d="M5.51172 8.83691C5.51172 8.83691 5.54203 8.8438 5.58335 8.87824C5.56958 8.88788 5.54891 8.89891 5.54891 8.89891C5.54891 8.89891 5.54616 8.86722 5.51172 8.83691Z" fill="#6E6342"/>
<path d="M5.44346 8.53441C5.43659 8.52753 5.4641 8.51103 5.4806 8.51378C5.49711 8.51653 5.50398 8.52753 5.52186 8.53028C5.53974 8.53303 5.54249 8.5234 5.54937 8.51653C5.55625 8.50965 5.57963 8.51378 5.58376 8.51653C5.58651 8.51928 5.59063 8.52615 5.59063 8.52615C5.59063 8.52615 5.59063 8.50965 5.60439 8.49865C5.61814 8.48902 5.6319 8.48902 5.64152 8.49177C5.64427 8.5014 5.65803 8.53578 5.65528 8.54266C5.65253 8.54954 5.61126 8.55916 5.60439 8.55229C5.61126 8.56879 5.64152 8.60318 5.64565 8.61005C5.6484 8.61693 5.61539 8.63344 5.60164 8.63069C5.58238 8.62931 5.4641 8.56054 5.44346 8.53441ZM5.62364 8.30609C5.62364 8.30609 5.62089 8.29646 5.60989 8.28959C5.60026 8.28683 5.56863 8.28959 5.56863 8.30609C5.56863 8.3226 5.59614 8.41475 5.62639 8.46289C5.66078 8.51103 5.68416 8.55091 5.70754 8.56192C5.73092 8.57154 5.74468 8.55504 5.7488 8.54816C5.75156 8.54128 5.75843 8.49039 5.75568 8.37073C5.75293 8.25107 5.7488 8.13554 5.74193 8.12866C5.73505 8.12179 5.70754 8.12179 5.69791 8.13554C5.68829 8.14929 5.62639 8.28546 5.62364 8.30609Z" fill="#585136"/>
<path d="M5.50143 9.01024C5.50143 9.01024 5.45329 8.97998 5.40653 9.00061C5.36252 9.02124 5.36527 9.10239 5.36527 9.10239C5.36527 9.10239 5.39553 9.11614 5.42579 9.09551C5.45604 9.07488 5.49456 9.0405 5.50143 9.01024Z" fill="#574F35"/>
<path d="M5.59196 9.11891C5.58921 9.0914 5.56445 9.0914 5.56445 9.07764C5.5672 9.06389 5.58096 9.05426 5.59471 9.05426C5.60847 9.05426 5.62222 9.07077 5.63872 9.08177C5.65523 9.0914 5.67999 9.10928 5.68274 9.12991C5.68549 9.15054 5.65523 9.20831 5.62222 9.20831C5.58921 9.20693 5.59884 9.14641 5.59196 9.11891ZM5.85741 9.08177C5.85741 9.08177 5.8024 9.09828 5.80652 9.08177C5.80928 9.06527 5.82303 9.06114 5.84091 9.06114C5.84779 9.05426 5.86154 9.04463 5.87529 9.04463C5.88905 9.04463 5.89593 9.05151 5.89593 9.05151C5.89593 9.05151 5.93306 9.03501 5.94406 9.04463C5.95369 9.05426 5.94682 9.05426 5.95369 9.06527C5.96057 9.07489 5.9702 9.09552 5.9702 9.10653C5.9702 9.11753 5.92894 9.14091 5.89593 9.13679C5.85741 9.12853 5.86429 9.08865 5.85741 9.08177ZM6.17788 9.01988C6.17788 9.01988 6.19439 9.02951 6.18063 9.04051C6.17101 9.05014 6.12287 9.06802 6.08161 9.07077C6.04034 9.07077 6.00321 9.07764 6.00321 9.06389C6.00321 9.05014 6.03759 9.02263 6.05822 9.01575C6.0651 9.00612 6.07885 8.99925 6.09261 8.99925C6.10911 8.99925 6.17376 8.99237 6.19164 8.98962C6.20814 8.98687 6.2219 8.9965 6.21227 9.01025C6.20814 9.01988 6.17788 9.01988 6.17788 9.01988ZM6.27279 8.59488C6.27279 8.59488 6.25216 8.63889 6.22877 8.63889C6.20539 8.63614 6.20539 8.62926 6.20539 8.62239C6.20539 8.61276 6.22877 8.588 6.22602 8.58112C6.21915 8.58112 6.20264 8.58112 6.20539 8.56462C6.20539 8.55086 6.22877 8.53436 6.2494 8.53711C6.25628 8.53023 6.27966 8.51648 6.30442 8.51648C6.3278 8.51648 6.34843 8.52336 6.34843 8.53711C6.34843 8.55086 6.32093 8.58112 6.3113 8.588C6.30029 8.599 6.28654 8.60588 6.27279 8.59488ZM5.95919 9.40774C5.95919 9.40774 5.93169 9.41049 5.93169 9.42425C5.93169 9.43112 5.93856 9.43112 5.94819 9.427C5.95507 9.427 5.9647 9.42425 5.9647 9.42425C5.96745 9.427 5.96745 9.44075 5.98808 9.44075C5.99771 9.44075 6.01834 9.43387 6.03622 9.42425C6.05272 9.41737 6.06648 9.41049 6.06648 9.39674C6.0596 9.37336 6.04584 9.36235 6.02521 9.36235C6.00458 9.36235 5.99495 9.36923 5.99495 9.36923C5.99495 9.36923 5.98808 9.35548 5.9647 9.36923C5.94131 9.38298 5.94406 9.38298 5.95094 9.38986C5.96332 9.40086 5.95919 9.40774 5.95919 9.40774ZM5.80377 9.55078C5.80377 9.54391 5.83816 9.53015 5.84779 9.53428C5.85741 9.53703 5.88492 9.58929 5.88492 9.5948C5.88492 9.60167 5.85054 9.61818 5.83678 9.61818C5.82303 9.61818 5.79965 9.5948 5.79965 9.59067C5.79965 9.58792 5.81615 9.58379 5.81615 9.58104C5.82028 9.57417 5.80377 9.55766 5.80377 9.55078ZM5.69512 9.34997C5.70199 9.34722 5.70199 9.34035 5.71162 9.33347C5.72125 9.32659 5.73225 9.33072 5.73225 9.33072C5.73225 9.33072 5.73913 9.31696 5.75563 9.31421C5.77214 9.31146 5.78589 9.31421 5.78314 9.32109C5.78314 9.34172 5.7969 9.35548 5.7969 9.37198C5.7969 9.38849 5.78727 9.40912 5.75288 9.42287C5.7185 9.4325 5.67173 9.4325 5.66486 9.42975C5.65798 9.427 5.6511 9.39949 5.65798 9.38574C5.66348 9.37061 5.68411 9.35685 5.69512 9.34997Z" fill="#82764F"/>
<path d="M5.74004 9.35962C5.74004 9.35962 5.71662 9.37339 5.71662 9.38028C5.71387 9.38717 5.71387 9.39681 5.71387 9.40095C5.71387 9.40508 5.74417 9.39819 5.74831 9.39406C5.74968 9.3913 5.74004 9.36651 5.74004 9.35962Z" fill="#6E6342"/>
<path d="M5.53463 9.29495C5.54838 9.2977 5.57176 9.29495 5.58964 9.30183C5.6034 9.30871 5.61303 9.32246 5.59927 9.33897C5.58552 9.35547 5.57176 9.38023 5.5415 9.3761C5.50712 9.37335 5.47411 9.35547 5.47411 9.34172C5.47136 9.32521 5.48099 9.30458 5.49061 9.29358C5.50437 9.28257 5.51125 9.28945 5.53463 9.29495Z" fill="#585136"/>
<path d="M5.51806 9.30872C5.51806 9.30872 5.47405 9.3431 5.46304 9.35961C5.44929 9.37611 5.38189 9.46139 5.36126 9.47927C5.36814 9.46551 5.38464 9.44488 5.38464 9.44488C5.38464 9.44488 5.34338 9.46826 5.32688 9.51915C5.31037 9.57004 5.41903 9.59755 5.49055 9.61818C5.56207 9.63881 5.58958 9.64569 5.58958 9.64569C5.58958 9.64569 5.54832 9.58517 5.52219 9.52053C5.49468 9.45588 5.48092 9.44901 5.4988 9.41875C5.51256 9.38849 5.53319 9.36786 5.53319 9.34448C5.52494 9.32247 5.51806 9.30872 5.51806 9.30872Z" fill="#574F35"/>
<path d="M3.9502 9.4174C3.9502 9.4174 3.95982 9.42015 3.98045 9.4174C4.00109 9.41465 4.21565 9.33625 4.43984 9.35001C4.53887 9.35688 4.71492 9.37064 4.93636 9.43116C5.21832 9.50543 5.56905 9.6526 5.79599 9.7365C5.85651 9.75988 5.91565 9.80114 5.95966 9.81764C6.13296 9.88504 6.13984 9.88504 6.24162 9.90292C6.36128 9.91942 6.48369 9.87954 6.6116 9.85203C6.7684 9.81764 7.0366 9.80114 7.2718 9.76675C7.39421 9.75025 7.49599 9.71586 7.49599 9.71586C7.49599 9.71586 7.30893 9.90292 6.86055 9.97031C6.63636 10.0047 6.45206 9.9937 6.31314 9.97719C6.1701 9.96344 6.0752 9.94281 6.00367 9.92218C5.92253 9.89879 5.7561 9.8369 5.55117 9.78601C5.40812 9.74887 5.24858 9.72137 5.06565 9.68698C4.61452 9.60446 4.12487 9.50955 3.9502 9.4174Z" fill="#252211"/>
<path d="M3.71603 7.59222C3.66789 7.54821 3.617 7.5042 3.57024 7.46019C3.5221 7.41617 3.47533 7.37216 3.4272 7.32815L3.28415 7.19198C3.26077 7.1686 3.23601 7.14797 3.21263 7.12459C3.18925 7.10396 3.16174 7.08057 3.13836 7.05994C2.94855 6.87977 2.75737 6.69959 2.57032 6.51941C2.76425 6.69684 2.95406 6.87289 3.14799 7.05307L3.21538 7.12046C3.23877 7.14384 3.26352 7.16447 3.2869 7.18786L3.42995 7.31989C3.47809 7.36391 3.52485 7.40792 3.57299 7.45606C3.62113 7.5042 3.66789 7.54821 3.71603 7.59222ZM1.19629 7.56472C1.19629 7.56472 1.88674 7.63624 2.22372 7.68438C2.53593 7.72839 3.51247 7.87831 3.51247 7.87831L1.19629 7.56472ZM1.19629 7.56472C1.39022 7.58122 1.58415 7.60185 1.77809 7.62248C1.87711 7.63211 1.97202 7.64312 2.06692 7.65274L2.21271 7.66925C2.26085 7.67612 2.30762 7.683 2.35576 7.68988L2.93343 7.78203L3.22226 7.83017C3.31716 7.84667 3.41207 7.86455 3.5111 7.88106C3.41619 7.87143 3.31716 7.85768 3.22226 7.84392L2.93343 7.80266L2.35576 7.71739C2.30762 7.71051 2.26085 7.70088 2.21271 7.69401L2.06692 7.6775C1.97202 7.66787 1.87299 7.65412 1.77809 7.64311C1.58415 7.61973 1.39022 7.59498 1.19629 7.56472ZM3.4437 8.05849C3.4437 8.05849 2.70648 8.24554 2.45754 8.31706C2.21271 8.38446 1.47137 8.61002 1.47137 8.61002" fill="#CFB66C"/>
<path d="M3.44437 8.05847C3.28069 8.10661 3.1184 8.15337 2.95197 8.19739L2.45958 8.32943C2.2959 8.37756 2.13361 8.42433 1.96993 8.47247L1.72511 8.53986C1.64396 8.56325 1.56144 8.58388 1.47754 8.60726C1.55869 8.57975 1.64121 8.55224 1.72236 8.52886L1.96718 8.45046C2.13086 8.39957 2.29315 8.35143 2.45683 8.30054C2.62325 8.25928 2.78692 8.21527 2.95335 8.17538C3.11152 8.13549 3.27794 8.09561 3.44437 8.05847ZM1.57519 9.06389C1.65634 9.03363 2.59162 8.59763 2.80893 8.49585C2.91759 8.44496 3.23393 8.33218 3.23393 8.33218" fill="#CFB66C"/>
<path d="M1.5752 9.06392C1.64672 9.03641 1.71411 9.0034 1.78288 8.97176L1.98644 8.87686L2.39494 8.68018C2.5311 8.61553 2.66314 8.54401 2.80343 8.4835C2.87495 8.45324 2.94647 8.42848 3.01799 8.4051L3.12665 8.37071C3.16379 8.36108 3.19817 8.35008 3.23531 8.34045C3.09914 8.4051 2.9561 8.46011 2.81994 8.52338C2.68377 8.59078 2.54486 8.64579 2.40456 8.70631L1.98919 8.88924C1.85028 8.94563 1.71411 9.00615 1.5752 9.06392ZM1.66597 9.4449C1.66597 9.4449 2.51322 8.94838 2.80481 8.78884C2.95748 8.70356 3.45125 8.45874 3.45125 8.45874" fill="#CFB66C"/>
<path d="M1.66504 9.44485C1.80808 9.35682 1.95387 9.26742 2.09967 9.17665L2.31698 9.04461C2.39125 9.00059 2.46277 8.95933 2.53842 8.91532C2.61269 8.87131 2.68421 8.82729 2.75986 8.78603C2.797 8.76265 2.83413 8.74477 2.87264 8.72826L2.98818 8.6705C3.14085 8.59622 3.29352 8.52058 3.45444 8.45593C3.30865 8.54808 3.15873 8.62648 3.00881 8.70763C2.93454 8.74889 2.85889 8.78603 2.78462 8.82729C2.71035 8.86855 2.63883 8.91257 2.56318 8.95245C2.48891 8.99647 2.41739 9.03773 2.34174 9.07762L2.11755 9.20003C1.96488 9.28255 1.81496 9.3637 1.66504 9.44485ZM3.44344 8.56734C3.44344 8.56734 2.91666 8.97171 2.74611 9.101C2.57556 9.23029 2.07353 9.59339 2.07353 9.59339" fill="#CFB66C"/>
<path d="M3.44434 8.56738C3.33568 8.65953 3.22015 8.74756 3.10737 8.83284L2.76764 9.09416C2.65211 9.17944 2.53933 9.26746 2.42379 9.35274C2.30826 9.43801 2.19272 9.51916 2.07031 9.59756C2.17897 9.50541 2.2945 9.42013 2.41004 9.33623C2.52557 9.25233 2.64523 9.16981 2.75664 9.08453L3.09636 8.82321C3.21327 8.73793 3.32606 8.64991 3.44434 8.56738ZM2.84329 9.53017C2.84329 9.53017 2.9657 9.42839 3.11837 9.28534C3.30818 9.10792 3.54062 8.88097 3.61489 8.83971" fill="#CFB66C"/>
<path d="M2.84277 9.53012C2.90329 9.4696 2.96794 9.41046 3.03258 9.35269L3.13161 9.26742C3.16187 9.23991 3.19625 9.20965 3.22651 9.17939C3.28703 9.11887 3.34617 9.05423 3.40669 8.99233C3.43695 8.96208 3.46721 8.93182 3.50159 8.90431C3.5181 8.89056 3.53598 8.8768 3.55661 8.86717C3.57311 8.85755 3.59099 8.83966 3.61438 8.83691C3.60062 8.85755 3.58412 8.86717 3.57036 8.88505C3.55386 8.89881 3.5401 8.91531 3.52635 8.92907C3.49609 8.95933 3.46171 8.98683 3.43145 9.01434C3.3668 9.06936 3.29941 9.123 3.23476 9.18077C3.17012 9.23853 3.1096 9.30043 3.04496 9.35819C2.97481 9.41734 2.91017 9.4751 2.84277 9.53012ZM3.66527 8.97996C3.66527 8.97996 3.21688 9.41871 3.12473 9.49023L3.66527 8.97996Z" fill="#CFB66C"/>
<path d="M3.66553 8.97998C3.62427 9.02812 3.58026 9.07213 3.53625 9.11202L3.40008 9.24131C3.35607 9.28532 3.31481 9.32933 3.26804 9.37335C3.2199 9.41461 3.17589 9.45449 3.125 9.49301L3.25704 9.36372C3.30105 9.3197 3.34919 9.28257 3.39595 9.23856L3.52799 9.10927C3.57338 9.06388 3.61739 9.01987 3.66553 8.97998ZM3.68617 9.21793C3.68617 9.21793 3.63528 9.36784 3.54037 9.5549C3.42484 9.78597 3.25154 10.0748 3.17589 10.222" fill="#CFB66C"/>
<path d="M3.68663 9.21802C3.68663 9.26891 3.67288 9.31292 3.65637 9.35693C3.63987 9.40095 3.62199 9.44496 3.60136 9.48622C3.58073 9.52748 3.55735 9.5715 3.53396 9.61138C3.51058 9.65265 3.48307 9.69253 3.46244 9.73379L3.32353 9.97862C3.27539 10.0598 3.22862 10.1423 3.17773 10.2207C3.21212 10.1327 3.25888 10.0501 3.3029 9.96899C3.35104 9.88784 3.39505 9.80531 3.43906 9.72142C3.45969 9.68015 3.48032 9.63614 3.49683 9.59213C3.51746 9.54811 3.53809 9.50685 3.5546 9.46697C3.57523 9.42295 3.59173 9.38169 3.61236 9.3418C3.63574 9.29917 3.655 9.2579 3.68663 9.21802Z" fill="#CFB66C"/>
<path d="M4.17612 10.3458C4.17612 10.3458 4.03996 10.526 4.05371 10.7543C4.09085 10.6347 4.13761 10.4517 4.17612 10.3458ZM4.30541 10.526C4.30541 10.526 4.25727 11.0156 4.21738 11.2563C4.27378 10.9785 4.28478 11.0019 4.30541 10.526ZM5.2063 11.2852C5.2063 11.2852 5.00274 11.8835 4.99861 12.05C5.04263 11.8794 5.1279 11.53 5.2063 11.2852Z" fill="#DEC270"/>
<path d="M5.68164 10.3086C5.68164 10.3086 6.01174 10.8533 6.25931 11.3181C6.19192 11.0843 6.03787 10.6552 5.68164 10.3086Z" fill="#CBAF59"/>
<path d="M6.56934 11.1105C6.56934 11.1105 6.82791 11.5561 7.05898 12.0994C7.03147 11.8656 6.9572 11.4653 6.56934 11.1105Z" fill="#E3C677"/>
<path d="M9.17664 11.9138C9.23165 11.8794 9.34031 11.6923 9.43521 11.6456C9.53012 11.5974 9.60164 11.5878 9.68691 11.4929C9.77219 11.3939 9.79557 11.3334 9.98262 11.255C10.244 11.1422 10.0638 10.9964 10.0638 10.9964C10.0638 10.9964 10.1078 10.9524 10.1559 10.918C10.2233 10.8671 10.3017 10.8052 10.2948 10.6965C10.2852 10.5136 10.2508 10.2482 10.1009 10.0941C10.2467 10.0639 10.5259 10.0432 10.6992 9.99922C10.9 9.94833 10.9922 9.87681 10.9922 9.87681C10.9922 9.87681 10.8766 9.68013 11.0637 9.48207C11.2507 9.28538 11.4034 9.16572 11.5162 8.94428C11.3869 8.92778 11.1902 8.85901 10.6868 9.05019C10.724 9.0667 10.7652 9.0942 10.7652 9.0942C10.7652 9.0942 10.4558 9.17948 10.343 9.27438C10.1463 9.44081 10.1215 9.57697 9.90835 9.67875C9.69379 9.78053 9.4806 9.75302 9.30317 9.83555C9.12575 9.91669 9.09961 9.98822 9.03497 10.0185C9.04872 10.035 9.03222 10.0625 9.05835 10.0859C9.04185 10.1093 8.94557 10.266 8.84791 10.266C8.85754 10.3032 8.94007 10.3307 8.94007 10.3307C8.94007 10.3307 8.87955 10.3747 8.7255 10.3857C8.8039 10.4669 8.87817 10.5563 9.08311 10.6855C9.0666 10.7199 8.99783 10.7708 9.02534 10.8355C9.0556 10.9001 9.134 10.9881 9.44759 11.0597C9.28804 11.0665 9.10099 11.1037 8.84929 11.0693C8.59759 11.039 8.55633 11.0211 8.40091 11.0597C8.41741 11.0762 8.46143 11.0762 8.49994 11.1202C8.45868 11.1229 8.2001 11.0899 8.11207 11.2054C8.01992 11.3251 7.98003 11.5218 7.98691 11.6538C7.93877 11.6772 7.89201 11.7185 7.91539 11.8038C7.93877 11.889 8.06118 11.9165 8.13958 11.9702C8.21798 12.0279 8.22486 12.0486 8.29913 12.0348C8.37753 12.0183 8.49306 11.9399 8.56046 11.9399C8.62785 11.9399 8.67599 11.9908 8.67599 11.9908C8.67599 11.9908 8.85892 11.9028 8.8768 11.9193C8.8933 11.9358 8.87955 12.0417 8.89743 12.0582C8.91531 12.0706 9.12162 11.9482 9.17664 11.9138Z" fill="#ECD592"/>
<path opacity="0.8" d="M13.1753 6.40935C12.3157 4.18944 10.1907 3.7782 10.1907 3.7782H4.12793L4.15131 6.03936H5.35892V11.0885H4.12793V13.3455H10.0229C11.4437 13.3455 12.5825 11.9178 12.5825 11.9178C14.4063 9.32933 13.1753 6.40935 13.1753 6.40935ZM10.0545 10.3966C10.0545 10.3966 9.59241 11.0637 9.08901 11.0637H8.08222L8.05884 6.04486H9.35034C9.35034 6.04486 9.94864 6.17003 10.3668 7.35425C10.3668 7.35425 10.9211 9.05012 10.0545 10.3966Z" fill="white"/>
</svg>
