<svg width="166" height="88" viewBox="0 0 166 88" fill="none" xmlns="http://www.w3.org/2000/svg">
<path fill-rule="evenodd" clip-rule="evenodd" d="M88.3856 25.1275L76.3301 36.8277L76.3301 56.3025L102.929 30.4866L82.1014 50.701L82.0539 50.747L99.6116 32.5461C99.8617 32.276 100.204 31.8524 100.508 31.3275C100.568 31.2293 100.621 31.128 100.672 31.0267C100.732 30.907 100.783 30.7904 100.824 30.6738L100.84 30.6308L100.84 30.6247C100.995 30.2011 101.077 29.7438 101.077 29.268C101.077 27.2914 99.6274 25.6432 97.7026 25.2657L97.6899 25.2626C97.0631 25.1367 96.6579 25.1552 95.9867 25.1275L88.3856 25.1275Z" fill="url(#paint0_linear)"/>
<path fill-rule="evenodd" clip-rule="evenodd" d="M83.8585 25.1273L95.9899 25.1273C96.6611 25.1549 97.0663 25.1365 97.6932 25.2624L97.7058 25.2654C99.6306 25.643 101.081 27.2912 101.081 29.2678C101.081 29.7436 100.998 30.2009 100.843 30.6245L100.843 30.6306L100.827 30.6736C100.786 30.7902 100.736 30.9099 100.675 31.0265C100.625 31.1309 100.571 31.2322 100.511 31.3273C100.207 31.8522 99.8649 32.2788 99.6148 32.5458L82.0571 50.7468L82.1046 50.7008L102.933 30.4863C103.642 29.6791 103.933 28.5066 103.936 27.3649C103.949 25.1365 102.366 23.6847 100.688 22.0734L83.8617 5.90118L83.8617 25.1273L83.8585 25.1273Z" fill="url(#paint1_linear)"/>
<path fill-rule="evenodd" clip-rule="evenodd" d="M64.8808 25.1275L76.9363 36.8277L76.9363 56.3025L50.337 30.4866L71.165 50.701L71.2125 50.747L53.6548 32.5461C53.4047 32.276 53.0628 31.8524 52.7588 31.3275C52.6987 31.2293 52.6449 31.128 52.5942 31.0267C52.5341 30.907 52.4834 30.7904 52.4423 30.6738L52.4264 30.6308L52.4264 30.6247C52.2713 30.2011 52.189 29.7438 52.189 29.268C52.189 27.2914 53.6389 25.6432 55.5638 25.2657L55.5764 25.2626C56.2033 25.1367 56.6085 25.1552 57.2796 25.1275L64.8808 25.1275Z" fill="url(#paint2_linear)"/>
<path fill-rule="evenodd" clip-rule="evenodd" d="M69.4079 25.1273L57.2764 25.1273C56.6053 25.1549 56.2 25.1365 55.5732 25.2624L55.5605 25.2654C53.6357 25.643 52.1858 27.2912 52.1858 29.2678C52.1858 29.7436 52.2681 30.2009 52.4232 30.6245L52.4232 30.6306L52.439 30.6736C52.4802 30.7902 52.5308 30.9099 52.591 31.0265C52.6416 31.1309 52.6955 31.2322 52.7556 31.3273C53.0595 31.8522 53.4014 32.2788 53.6516 32.5458L71.2092 50.7468L71.1617 50.7008L50.3338 30.4863C49.6246 29.6791 49.3334 28.5066 49.3302 27.3649C49.3175 25.1365 50.9004 23.6847 52.5783 22.0734L69.4047 5.90118L69.4047 25.1273L69.4079 25.1273Z" fill="url(#paint3_linear)"/>
<path fill-rule="evenodd" clip-rule="evenodd" d="M69.4079 25.1273L57.2764 25.1273C56.6053 25.1549 56.2 25.1365 55.5732 25.2624L55.5605 25.2654C53.6357 25.643 52.1858 27.2912 52.1858 29.2678C52.1858 29.7436 52.2681 30.2009 52.4232 30.6245L52.4232 30.6306L52.439 30.6736C52.4802 30.7902 52.5308 30.9099 52.591 31.0265C52.6416 31.1309 52.6955 31.2322 52.7556 31.3273C53.0595 31.8522 53.4014 32.2788 53.6516 32.5458L71.2092 50.7468L71.1617 50.7008L50.3338 30.4863C49.6246 29.6791 49.3334 28.5066 49.3302 27.3649C49.3175 25.1365 50.9004 23.6847 52.5783 22.0734L69.4047 5.90118L69.4047 25.1273L69.4079 25.1273Z" fill="url(#paint4_linear)"/>
<path d="M36.9949 9.24902C38.9283 9.24902 40.3783 10.099 41.3449 11.799L43.8949 14.299C44.8616 15.2657 45.3449 16.4157 45.3449 17.749V45.449C45.3449 46.7824 44.8783 47.9157 43.9449 48.849C43.0116 49.8157 41.8616 50.299 40.4949 50.299C39.1949 50.299 38.0616 49.8157 37.0949 48.849L34.5449 46.299C32.8449 45.4324 31.9949 43.9824 31.9949 41.949V36.849H15.8949V45.449C15.8949 46.7824 15.4283 47.9157 14.4949 48.849C13.5616 49.8157 12.4116 50.299 11.0449 50.299C9.74492 50.299 8.61159 49.8157 7.64492 48.849L5.09492 46.299C3.39492 45.4324 2.54492 43.9824 2.54492 41.949V14.249C2.54492 12.8824 3.02826 11.7157 3.99492 10.749C4.99492 9.74902 6.17826 9.24902 7.54492 9.24902C9.47826 9.24902 10.9283 10.099 11.8949 11.799L14.4449 14.299C15.4116 15.2657 15.8949 16.4157 15.8949 17.749V23.499H31.9949V14.249C31.9949 12.8824 32.4783 11.7157 33.4449 10.749C34.4449 9.74902 35.6283 9.24902 36.9949 9.24902ZM36.9949 45.949C38.1283 45.949 39.0783 45.5657 39.8449 44.799C40.6116 43.999 40.9949 43.049 40.9949 41.949V14.249C40.9949 13.149 40.6116 12.2157 39.8449 11.449C39.0783 10.649 38.1283 10.249 36.9949 10.249C35.8949 10.249 34.9449 10.649 34.1449 11.449C33.3783 12.2157 32.9949 13.149 32.9949 14.249V24.499H11.5449V14.249C11.5449 13.149 11.1616 12.2157 10.3949 11.449C9.62826 10.649 8.67826 10.249 7.54492 10.249C6.44492 10.249 5.49492 10.649 4.69492 11.449C3.92826 12.2157 3.54492 13.149 3.54492 14.249V41.949C3.54492 43.049 3.92826 43.999 4.69492 44.799C5.49492 45.5657 6.44492 45.949 7.54492 45.949C8.67826 45.949 9.62826 45.5657 10.3949 44.799C11.1616 43.999 11.5449 43.049 11.5449 41.949V32.499H32.9949V41.949C32.9949 43.049 33.3783 43.999 34.1449 44.799C34.9449 45.5657 35.8949 45.949 36.9949 45.949ZM120.387 17.749V45.449C120.387 46.7824 119.904 47.9157 118.937 48.849C118.004 49.8157 116.87 50.299 115.537 50.299C114.237 50.299 113.104 49.8157 112.137 48.849L109.587 46.299C107.887 45.4324 107.037 43.9824 107.037 41.949V14.249C107.037 12.8824 107.52 11.7157 108.487 10.749C109.487 9.74902 110.67 9.24902 112.037 9.24902C113.97 9.24902 115.42 10.1157 116.387 11.849L118.937 14.349C119.904 15.3157 120.387 16.449 120.387 17.749ZM108.037 41.949C108.037 43.049 108.42 43.999 109.187 44.799C109.987 45.5657 110.937 45.949 112.037 45.949C113.137 45.949 114.07 45.5657 114.837 44.799C115.637 43.999 116.037 43.049 116.037 41.949V14.249C116.037 13.149 115.637 12.2157 114.837 11.449C114.07 10.649 113.137 10.249 112.037 10.249C110.937 10.249 109.987 10.649 109.187 11.449C108.42 12.2157 108.037 13.149 108.037 14.249V41.949ZM151.477 22.649V22.599H130.527C129.194 22.599 128.044 22.1157 127.077 21.149L124.527 18.649C122.861 17.7157 122.027 16.249 122.027 14.249C122.027 12.8824 122.511 11.7157 123.477 10.749C124.477 9.74902 125.661 9.24902 127.027 9.24902H148.077C151.744 9.24902 154.894 10.5657 157.527 13.199C158.127 13.8657 158.561 14.3824 158.827 14.749L160.927 16.799C163.527 19.399 164.827 22.5157 164.827 26.149C164.827 29.8157 163.527 32.949 160.927 35.549C158.327 38.149 155.211 39.449 151.577 39.449H135.377V45.449C135.377 46.7824 134.894 47.9157 133.927 48.849C132.994 49.8157 131.861 50.299 130.527 50.299C129.227 50.299 128.094 49.8157 127.127 48.849L124.577 46.299C122.877 45.4324 122.027 43.9824 122.027 41.949V31.099C122.027 29.699 122.511 28.5157 123.477 27.549C124.444 26.5824 125.627 26.099 127.027 26.099H148.077C149.011 26.099 149.811 25.7657 150.477 25.099C151.144 24.399 151.477 23.5824 151.477 22.649ZM148.077 35.099C151.511 35.099 154.427 33.8824 156.827 31.449C159.261 29.0157 160.477 26.0824 160.477 22.649C160.477 19.249 159.261 16.3324 156.827 13.899C154.394 11.4657 151.477 10.249 148.077 10.249H127.027C125.927 10.249 124.977 10.649 124.177 11.449C123.411 12.2157 123.027 13.149 123.027 14.249C123.027 15.3824 123.411 16.3324 124.177 17.099C124.977 17.8657 125.927 18.249 127.027 18.249H148.077C149.277 18.249 150.311 18.6824 151.177 19.549C152.044 20.4157 152.477 21.449 152.477 22.649C152.477 23.8824 152.044 24.9324 151.177 25.799C150.311 26.6657 149.277 27.099 148.077 27.099H127.027C125.927 27.099 124.977 27.4824 124.177 28.249C123.411 29.0157 123.027 29.9657 123.027 31.099V41.949C123.027 43.049 123.411 43.999 124.177 44.799C124.977 45.5657 125.927 45.949 127.027 45.949C128.127 45.949 129.061 45.5657 129.827 44.799C130.627 43.999 131.027 43.049 131.027 41.949V35.099H148.077Z" fill="url(#paint5_linear)"/>
<path d="M41.3449 11.799L40.4756 12.2933L40.5449 12.4151L40.6449 12.5131L41.3449 11.799ZM43.8949 14.299L44.6021 13.5919L44.595 13.585L43.8949 14.299ZM43.9449 48.849L43.2378 48.1419L43.2316 48.1481L43.2255 48.1544L43.9449 48.849ZM37.0949 48.849L37.802 48.1419L37.0949 48.849ZM34.5449 46.299L35.252 45.5919L35.1401 45.48L34.9991 45.4081L34.5449 46.299ZM31.9949 36.849H32.9949V35.849H31.9949V36.849ZM15.8949 36.849V35.849H14.8949V36.849H15.8949ZM14.4949 48.849L13.7878 48.1419L13.7816 48.1481L13.7755 48.1544L14.4949 48.849ZM7.64492 48.849L8.35203 48.1419L7.64492 48.849ZM5.09492 46.299L5.80203 45.5919L5.69011 45.48L5.54911 45.4081L5.09492 46.299ZM3.99492 10.749L3.28782 10.0419V10.0419L3.99492 10.749ZM11.8949 11.799L11.0256 12.2933L11.0949 12.4151L11.1949 12.5131L11.8949 11.799ZM14.4449 14.299L15.1521 13.5919L15.145 13.585L14.4449 14.299ZM15.8949 23.499H14.8949V24.499H15.8949V23.499ZM31.9949 23.499V24.499H32.9949V23.499H31.9949ZM39.8449 44.799L40.552 45.5061L40.5596 45.4986L40.5669 45.4909L39.8449 44.799ZM39.8449 11.449L39.1229 12.1409L39.1303 12.1486L39.1378 12.1561L39.8449 11.449ZM32.9949 24.499V25.499H33.9949V24.499H32.9949ZM11.5449 24.499H10.5449V25.499H11.5449V24.499ZM10.3949 11.449L9.67293 12.1409L9.68029 12.1486L9.68782 12.1561L10.3949 11.449ZM4.69492 11.449L3.98782 10.7419H3.98782L4.69492 11.449ZM4.69492 44.799L3.97293 45.4909L3.98766 45.5063L4.00302 45.521L4.69492 44.799ZM10.3949 44.799L11.102 45.5061L11.1096 45.4986L11.1169 45.4909L10.3949 44.799ZM11.5449 32.499V31.499H10.5449V32.499H11.5449ZM32.9949 32.499H33.9949V31.499H32.9949V32.499ZM34.1449 44.799L33.4229 45.4909L33.4377 45.5063L33.453 45.521L34.1449 44.799ZM36.9949 10.249C38.5635 10.249 39.6842 10.9015 40.4756 12.2933L42.2142 11.3047C41.0723 9.2966 39.293 8.24902 36.9949 8.24902V10.249ZM40.6449 12.5131L43.1949 15.0131L44.595 13.585L42.045 11.0849L40.6449 12.5131ZM43.1878 15.0061C43.9723 15.7906 44.3449 16.6883 44.3449 17.749H46.3449C46.3449 16.1431 45.7509 14.7408 44.602 13.5919L43.1878 15.0061ZM44.3449 17.749V45.449H46.3449V17.749H44.3449ZM44.3449 45.449C44.3449 46.5202 43.9815 47.3982 43.2378 48.1419L44.652 49.5561C45.775 48.4331 46.3449 47.0445 46.3449 45.449H44.3449ZM43.2255 48.1544C42.4842 48.9222 41.5955 49.299 40.4949 49.299V51.299C42.1277 51.299 43.5389 50.7092 44.6643 49.5436L43.2255 48.1544ZM40.4949 49.299C39.475 49.299 38.5919 48.9318 37.802 48.1419L36.3878 49.5561C37.5313 50.6996 38.9149 51.299 40.4949 51.299V49.299ZM37.802 48.1419L35.252 45.5919L33.8378 47.0061L36.3878 49.5561L37.802 48.1419ZM34.9991 45.4081C34.2956 45.0495 33.8109 44.5945 33.4951 44.0558C33.1772 43.5134 32.9949 42.8252 32.9949 41.949H30.9949C30.9949 43.1062 31.2377 44.1596 31.7697 45.0672C32.3039 45.9785 33.0942 46.6819 34.0907 47.1899L34.9991 45.4081ZM32.9949 41.949V36.849H30.9949V41.949H32.9949ZM31.9949 35.849H15.8949V37.849H31.9949V35.849ZM14.8949 36.849V45.449H16.8949V36.849H14.8949ZM14.8949 45.449C14.8949 46.5202 14.5315 47.3982 13.7878 48.1419L15.202 49.5561C16.325 48.4331 16.8949 47.0445 16.8949 45.449H14.8949ZM13.7755 48.1544C13.0342 48.9222 12.1455 49.299 11.0449 49.299V51.299C12.6777 51.299 14.0889 50.7092 15.2143 49.5436L13.7755 48.1544ZM11.0449 49.299C10.025 49.299 9.14192 48.9318 8.35203 48.1419L6.93782 49.5561C8.08125 50.6996 9.46486 51.299 11.0449 51.299V49.299ZM8.35203 48.1419L5.80203 45.5919L4.38782 47.0061L6.93782 49.5561L8.35203 48.1419ZM5.54911 45.4081C4.84561 45.0495 4.36092 44.5945 4.04512 44.0558C3.72717 43.5134 3.54492 42.8252 3.54492 41.949H1.54492C1.54492 43.1062 1.78767 44.1596 2.31972 45.0672C2.85392 45.9785 3.64423 46.6819 4.64073 47.1899L5.54911 45.4081ZM3.54492 41.949V14.249H1.54492V41.949H3.54492ZM3.54492 14.249C3.54492 13.1477 3.92284 12.2353 4.70203 11.4561L3.28782 10.0419C2.13368 11.1961 1.54492 12.617 1.54492 14.249H3.54492ZM4.70203 11.4561C5.52178 10.6364 6.4536 10.249 7.54492 10.249V8.24902C5.90291 8.24902 4.46806 8.86167 3.28782 10.0419L4.70203 11.4561ZM7.54492 10.249C9.11351 10.249 10.2342 10.9014 11.0256 12.2933L12.7642 11.3047C11.6223 9.2966 9.843 8.24902 7.54492 8.24902V10.249ZM11.1949 12.5131L13.7449 15.0131L15.145 13.585L12.595 11.0849L11.1949 12.5131ZM13.7378 15.0061C14.5223 15.7906 14.8949 16.6883 14.8949 17.749H16.8949C16.8949 16.1431 16.3009 14.7408 15.152 13.5919L13.7378 15.0061ZM14.8949 17.749V23.499H16.8949V17.749H14.8949ZM15.8949 24.499H31.9949V22.499H15.8949V24.499ZM32.9949 23.499V14.249H30.9949V23.499H32.9949ZM32.9949 14.249C32.9949 13.1477 33.3728 12.2353 34.152 11.4561L32.7378 10.0419C31.5837 11.1961 30.9949 12.617 30.9949 14.249H32.9949ZM34.152 11.4561C34.9718 10.6364 35.9036 10.249 36.9949 10.249V8.24902C35.3529 8.24902 33.9181 8.86167 32.7378 10.0419L34.152 11.4561ZM36.9949 46.949C38.3801 46.949 39.5886 46.4696 40.552 45.5061L39.1378 44.0919C38.5679 44.6618 37.8764 44.949 36.9949 44.949V46.949ZM40.5669 45.4909C41.5105 44.5063 41.9949 43.309 41.9949 41.949H39.9949C39.9949 42.7891 39.7127 43.4918 39.1229 44.1071L40.5669 45.4909ZM41.9949 41.949V14.249H39.9949V41.949H41.9949ZM41.9949 14.249C41.9949 12.8881 41.5093 11.6992 40.552 10.7419L39.1378 12.1561C39.7139 12.7322 39.9949 13.4099 39.9949 14.249H41.9949ZM40.5669 10.7571C39.6068 9.7553 38.3938 9.24902 36.9949 9.24902V11.249C37.8627 11.249 38.5497 11.5427 39.1229 12.1409L40.5669 10.7571ZM36.9949 9.24902C35.6214 9.24902 34.4194 9.76036 33.4378 10.7419L34.852 12.1561C35.4705 11.5377 36.1685 11.249 36.9949 11.249V9.24902ZM33.4378 10.7419C32.4806 11.6992 31.9949 12.8881 31.9949 14.249H33.9949C33.9949 13.4099 34.2759 12.7322 34.852 12.1561L33.4378 10.7419ZM31.9949 14.249V24.499H33.9949V14.249H31.9949ZM32.9949 23.499H11.5449V25.499H32.9949V23.499ZM12.5449 24.499V14.249H10.5449V24.499H12.5449ZM12.5449 14.249C12.5449 12.8881 12.0593 11.6992 11.102 10.7419L9.68782 12.1561C10.2639 12.7322 10.5449 13.4099 10.5449 14.249H12.5449ZM11.1169 10.7571C10.1568 9.7553 8.94383 9.24902 7.54492 9.24902V11.249C8.41268 11.249 9.09968 11.5427 9.67293 12.1409L11.1169 10.7571ZM7.54492 9.24902C6.17136 9.24902 4.96937 9.76036 3.98782 10.7419L5.40203 12.1561C6.02048 11.5377 6.71848 11.249 7.54492 11.249V9.24902ZM3.98782 10.7419C3.03057 11.6992 2.54492 12.8881 2.54492 14.249H4.54492C4.54492 13.4099 4.82594 12.7322 5.40203 12.1561L3.98782 10.7419ZM2.54492 14.249V41.949H4.54492V14.249H2.54492ZM2.54492 41.949C2.54492 43.309 3.02932 44.5063 3.97293 45.4909L5.41691 44.1071C4.82719 43.4918 4.54492 42.7891 4.54492 41.949H2.54492ZM4.00302 45.521C4.98766 46.4646 6.18497 46.949 7.54492 46.949V44.949C6.70488 44.949 6.00218 44.6668 5.38683 44.077L4.00302 45.521ZM7.54492 46.949C8.93009 46.949 10.1386 46.4696 11.102 45.5061L9.68782 44.0919C9.11794 44.6618 8.42642 44.949 7.54492 44.949V46.949ZM11.1169 45.4909C12.0605 44.5063 12.5449 43.309 12.5449 41.949H10.5449C10.5449 42.7891 10.2627 43.4918 9.67293 44.1071L11.1169 45.4909ZM12.5449 41.949V32.499H10.5449V41.949H12.5449ZM11.5449 33.499H32.9949V31.499H11.5449V33.499ZM31.9949 32.499V41.949H33.9949V32.499H31.9949ZM31.9949 41.949C31.9949 43.309 32.4793 44.5063 33.4229 45.4909L34.8669 44.1071C34.2772 43.4918 33.9949 42.7891 33.9949 41.949H31.9949ZM33.453 45.521C34.4377 46.4646 35.635 46.949 36.9949 46.949V44.949C36.1549 44.949 35.4522 44.6668 34.8368 44.077L33.453 45.521ZM118.937 48.849L118.243 48.1296L118.23 48.1418L118.218 48.1544L118.937 48.849ZM112.137 48.849L112.844 48.1419L112.137 48.849ZM109.587 46.299L110.294 45.5919L110.182 45.48L110.041 45.4081L109.587 46.299ZM108.487 10.749L107.78 10.0419V10.0419L108.487 10.749ZM116.387 11.849L115.514 12.3361L115.584 12.4621L115.687 12.5631L116.387 11.849ZM118.937 14.349L119.644 13.6419L119.637 13.6349L118.937 14.349ZM109.187 44.799L108.465 45.4909L108.48 45.5063L108.495 45.521L109.187 44.799ZM114.837 44.799L115.544 45.5061L114.837 44.799ZM114.837 11.449L114.115 12.1409L114.13 12.1563L114.145 12.171L114.837 11.449ZM109.187 11.449L108.48 10.7419L109.187 11.449ZM119.387 17.749V45.449H121.387V17.749H119.387ZM119.387 45.449C119.387 46.5087 119.016 47.3831 118.243 48.1296L119.632 49.5684C120.792 48.4483 121.387 47.056 121.387 45.449H119.387ZM118.218 48.1544C117.471 48.9276 116.597 49.299 115.537 49.299V51.299C117.144 51.299 118.536 50.7037 119.657 49.5436L118.218 48.1544ZM115.537 49.299C114.517 49.299 113.634 48.9318 112.844 48.1419L111.43 49.5561C112.573 50.6996 113.957 51.299 115.537 51.299V49.299ZM112.844 48.1419L110.294 45.5919L108.88 47.0061L111.43 49.5561L112.844 48.1419ZM110.041 45.4081C109.338 45.0495 108.853 44.5945 108.537 44.0558C108.219 43.5134 108.037 42.8252 108.037 41.949H106.037C106.037 43.1062 106.28 44.1596 106.812 45.0672C107.346 45.9785 108.136 46.6819 109.133 47.1899L110.041 45.4081ZM108.037 41.949V14.249H106.037V41.949H108.037ZM108.037 14.249C108.037 13.1477 108.415 12.2353 109.194 11.4561L107.78 10.0419C106.626 11.1961 106.037 12.617 106.037 14.249H108.037ZM109.194 11.4561C110.014 10.6364 110.946 10.249 112.037 10.249V8.24902C110.395 8.24902 108.96 8.86167 107.78 10.0419L109.194 11.4561ZM112.037 10.249C112.85 10.249 113.513 10.4295 114.062 10.7574C114.611 11.0861 115.101 11.5957 115.514 12.3361L117.26 11.362C116.707 10.3691 115.988 9.57864 115.088 9.04066C114.186 8.50188 113.158 8.24902 112.037 8.24902V10.249ZM115.687 12.5631L118.237 15.0631L119.637 13.6349L117.087 11.1349L115.687 12.5631ZM118.23 15.0561C119.02 15.846 119.387 16.7291 119.387 17.749H121.387C121.387 16.169 120.788 14.7854 119.644 13.6419L118.23 15.0561ZM107.037 41.949C107.037 43.309 107.522 44.5063 108.465 45.4909L109.909 44.1071C109.319 43.4918 109.037 42.7891 109.037 41.949H107.037ZM108.495 45.521C109.48 46.4646 110.677 46.949 112.037 46.949V44.949C111.197 44.949 110.494 44.6668 109.879 44.077L108.495 45.521ZM112.037 46.949C113.398 46.949 114.587 46.4634 115.544 45.5061L114.13 44.0919C113.554 44.668 112.876 44.949 112.037 44.949V46.949ZM115.544 45.5061C116.526 44.5246 117.037 43.3226 117.037 41.949H115.037C115.037 42.7755 114.748 43.4735 114.13 44.0919L115.544 45.5061ZM117.037 41.949V14.249H115.037V41.949H117.037ZM117.037 14.249C117.037 12.8742 116.524 11.6807 115.529 10.727L114.145 12.171C114.75 12.7506 115.037 13.4239 115.037 14.249H117.037ZM115.559 10.7571C114.605 9.76194 113.412 9.24902 112.037 9.24902V11.249C112.862 11.249 113.535 11.5361 114.115 12.1409L115.559 10.7571ZM112.037 9.24902C110.664 9.24902 109.462 9.76036 108.48 10.7419L109.894 12.1561C110.513 11.5377 111.211 11.249 112.037 11.249V9.24902ZM108.48 10.7419C107.523 11.6992 107.037 12.8881 107.037 14.249H109.037C109.037 13.4099 109.318 12.7322 109.894 12.1561L108.48 10.7419ZM107.037 14.249V41.949H109.037V14.249H107.037ZM151.477 22.599H152.477V21.599H151.477V22.599ZM127.077 21.149L127.784 20.4419L127.777 20.435L127.077 21.149ZM124.527 18.649L125.227 17.9349L125.132 17.8416L125.016 17.7765L124.527 18.649ZM123.477 10.749L122.77 10.0419V10.0419L123.477 10.749ZM157.527 13.199L158.271 12.5301L158.253 12.5105L158.234 12.4919L157.527 13.199ZM158.827 14.749L158.019 15.3372L158.068 15.4056L158.129 15.4646L158.827 14.749ZM160.927 16.799L161.635 16.0919L161.626 16.0834L160.927 16.799ZM160.927 35.549L161.634 36.2561L160.927 35.549ZM135.377 39.449V38.449H134.377V39.449H135.377ZM133.927 48.849L133.233 48.1296L133.22 48.1418L133.208 48.1544L133.927 48.849ZM127.127 48.849L127.834 48.1419L127.127 48.849ZM124.577 46.299L125.284 45.5919L125.173 45.48L125.032 45.4081L124.577 46.299ZM123.477 27.549L124.184 28.2561L123.477 27.549ZM150.477 25.099L151.184 25.8061L151.193 25.7975L151.201 25.7887L150.477 25.099ZM156.827 31.449L156.12 30.7419L156.115 30.7468L156.827 31.449ZM156.827 13.899L156.12 14.6061L156.827 13.899ZM124.177 11.449L123.47 10.7419L124.177 11.449ZM124.177 17.099L123.47 17.8061L123.478 17.8137L123.485 17.821L124.177 17.099ZM151.177 19.549L150.47 20.2561L151.177 19.549ZM151.177 25.799L150.47 25.0919L150.47 25.0919L151.177 25.799ZM124.177 28.249L123.485 27.527L123.478 27.5344L123.47 27.5419L124.177 28.249ZM124.177 44.799L123.455 45.4909L123.47 45.5063L123.485 45.521L124.177 44.799ZM129.827 44.799L130.534 45.5061L129.827 44.799ZM131.027 35.099V34.099H130.027V35.099H131.027ZM152.477 22.649V22.599H150.477V22.649H152.477ZM151.477 21.599H130.527V23.599H151.477V21.599ZM130.527 21.599C129.467 21.599 128.569 21.2264 127.784 20.4419L126.37 21.8561C127.519 23.005 128.921 23.599 130.527 23.599V21.599ZM127.777 20.435L125.227 17.9349L123.827 19.3631L126.377 21.8631L127.777 20.435ZM125.016 17.7765C123.683 17.0301 123.027 15.9081 123.027 14.249H121.027C121.027 16.5899 122.038 18.4013 124.039 19.5215L125.016 17.7765ZM123.027 14.249C123.027 13.1477 123.405 12.2353 124.184 11.4561L122.77 10.0419C121.616 11.1961 121.027 12.617 121.027 14.249H123.027ZM124.184 11.4561C125.004 10.6364 125.936 10.249 127.027 10.249V8.24902C125.385 8.24902 123.95 8.86167 122.77 10.0419L124.184 11.4561ZM127.027 10.249H148.077V8.24902H127.027V10.249ZM148.077 10.249C151.474 10.249 154.371 11.457 156.82 13.9061L158.234 12.4919C155.417 9.67434 152.014 8.24902 148.077 8.24902V10.249ZM156.784 13.868C157.379 14.5286 157.784 15.014 158.019 15.3372L159.636 14.1609C159.338 13.7507 158.876 13.2027 158.271 12.5301L156.784 13.868ZM158.129 15.4646L160.229 17.5146L161.626 16.0834L159.526 14.0334L158.129 15.4646ZM160.22 17.5061C162.635 19.9211 163.827 22.7845 163.827 26.149H165.827C165.827 22.2469 164.419 18.8769 161.634 16.0919L160.22 17.5061ZM163.827 26.149C163.827 29.5496 162.633 32.4289 160.22 34.8419L161.634 36.2561C164.421 33.4692 165.827 30.0817 165.827 26.149H163.827ZM160.22 34.8419C157.805 37.2569 154.942 38.449 151.577 38.449V40.449C155.479 40.449 158.849 39.0411 161.634 36.2561L160.22 34.8419ZM151.577 38.449H135.377V40.449H151.577V38.449ZM134.377 39.449V45.449H136.377V39.449H134.377ZM134.377 45.449C134.377 46.5087 134.006 47.3831 133.233 48.1296L134.622 49.5684C135.782 48.4483 136.377 47.056 136.377 45.449H134.377ZM133.208 48.1544C132.461 48.9276 131.587 49.299 130.527 49.299V51.299C132.134 51.299 133.527 50.7037 134.647 49.5436L133.208 48.1544ZM130.527 49.299C129.507 49.299 128.624 48.9318 127.834 48.1419L126.42 49.5561C127.564 50.6996 128.947 51.299 130.527 51.299V49.299ZM127.834 48.1419L125.284 45.5919L123.87 47.0061L126.42 49.5561L127.834 48.1419ZM125.032 45.4081C124.328 45.0495 123.843 44.5945 123.528 44.0558C123.21 43.5134 123.027 42.8252 123.027 41.949H121.027C121.027 43.1062 121.27 44.1596 121.802 45.0672C122.336 45.9785 123.127 46.6819 124.123 47.1899L125.032 45.4081ZM123.027 41.949V31.099H121.027V41.949H123.027ZM123.027 31.099C123.027 29.9571 123.41 29.0303 124.184 28.2561L122.77 26.8419C121.611 28.0011 121.027 29.441 121.027 31.099H123.027ZM124.184 28.2561C124.959 27.482 125.885 27.099 127.027 27.099V25.099C125.369 25.099 123.929 25.6827 122.77 26.8419L124.184 28.2561ZM127.027 27.099H148.077V25.099H127.027V27.099ZM148.077 27.099C149.279 27.099 150.332 26.6582 151.184 25.8061L149.77 24.3919C149.289 24.8732 148.742 25.099 148.077 25.099V27.099ZM151.201 25.7887C152.038 24.9101 152.477 23.8491 152.477 22.649H150.477C150.477 23.3156 150.25 23.8879 149.753 24.4094L151.201 25.7887ZM148.077 36.099C151.777 36.099 154.95 34.7761 157.539 32.1512L156.115 30.7468C153.904 32.9886 151.244 34.099 148.077 34.099V36.099ZM157.534 32.1561C160.155 29.5357 161.477 26.3483 161.477 22.649H159.477C159.477 25.8165 158.367 28.4956 156.12 30.7419L157.534 32.1561ZM161.477 22.649C161.477 18.9802 160.153 15.8102 157.534 13.1919L156.12 14.6061C158.369 16.8545 159.477 19.5178 159.477 22.649H161.477ZM157.534 13.1919C154.916 10.5736 151.746 9.24902 148.077 9.24902V11.249C151.209 11.249 153.872 12.3578 156.12 14.6061L157.534 13.1919ZM148.077 9.24902H127.027V11.249H148.077V9.24902ZM127.027 9.24902C125.654 9.24902 124.452 9.76036 123.47 10.7419L124.884 12.1561C125.503 11.5377 126.201 11.249 127.027 11.249V9.24902ZM123.47 10.7419C122.513 11.6992 122.027 12.8881 122.027 14.249H124.027C124.027 13.4099 124.308 12.7322 124.884 12.1561L123.47 10.7419ZM122.027 14.249C122.027 15.6342 122.507 16.8427 123.47 17.8061L124.884 16.3919C124.315 15.822 124.027 15.1305 124.027 14.249H122.027ZM123.485 17.821C124.47 18.7646 125.667 19.249 127.027 19.249V17.249C126.187 17.249 125.485 16.9668 124.869 16.377L123.485 17.821ZM127.027 19.249H148.077V17.249H127.027V19.249ZM148.077 19.249C149.006 19.249 149.787 19.5725 150.47 20.2561L151.884 18.8419C150.835 17.7922 149.549 17.249 148.077 17.249V19.249ZM150.47 20.2561C151.154 20.9398 151.477 21.7205 151.477 22.649H153.477C153.477 21.1775 152.934 19.8916 151.884 18.8419L150.47 20.2561ZM151.477 22.649C151.477 23.619 151.148 24.4141 150.47 25.0919L151.884 26.5061C152.94 25.4506 153.477 24.1457 153.477 22.649H151.477ZM150.47 25.0919C149.787 25.7755 149.006 26.099 148.077 26.099V28.099C149.549 28.099 150.835 27.5558 151.884 26.5061L150.47 25.0919ZM148.077 26.099H127.027V28.099H148.077V26.099ZM127.027 26.099C125.667 26.099 124.47 26.5834 123.485 27.527L124.869 28.971C125.485 28.3813 126.187 28.099 127.027 28.099V26.099ZM123.47 27.5419C122.507 28.5054 122.027 29.7139 122.027 31.099H124.027C124.027 30.2175 124.315 29.526 124.884 28.9561L123.47 27.5419ZM122.027 31.099V41.949H124.027V31.099H122.027ZM122.027 41.949C122.027 43.309 122.512 44.5063 123.455 45.4909L124.899 44.1071C124.31 43.4918 124.027 42.7891 124.027 41.949H122.027ZM123.485 45.521C124.47 46.4646 125.667 46.949 127.027 46.949V44.949C126.187 44.949 125.485 44.6668 124.869 44.077L123.485 45.521ZM127.027 46.949C128.388 46.949 129.577 46.4634 130.534 45.5061L129.12 44.0919C128.544 44.668 127.866 44.949 127.027 44.949V46.949ZM130.534 45.5061C131.516 44.5246 132.027 43.3226 132.027 41.949H130.027C130.027 42.7755 129.739 43.4735 129.12 44.0919L130.534 45.5061ZM132.027 41.949V35.099H130.027V41.949H132.027ZM131.027 36.099H148.077V34.099H131.027V36.099Z" fill="#FA9D34" fill-opacity="0.04"/>
<path d="M38.3951 9.96402C39.5058 9.96402 40.4368 10.356 41.1881 11.14C41.9394 11.8914 42.3151 12.806 42.3151 13.884V41.03C42.3151 42.108 41.9394 43.039 41.1881 43.823C40.4368 44.5744 39.5058 44.95 38.3951 44.95C37.3171 44.95 36.3861 44.5744 35.6021 43.823C34.8508 43.039 34.4751 42.108 34.4751 41.03V31.769H13.4541V41.03C13.4541 42.108 13.0784 43.039 12.3271 43.823C11.5757 44.5744 10.6447 44.95 9.53408 44.95C8.45608 44.95 7.52508 44.5744 6.74108 43.823C5.98975 43.039 5.61408 42.108 5.61408 41.03V13.884C5.61408 12.806 5.98975 11.8914 6.74108 11.14C7.52508 10.356 8.45608 9.96402 9.53408 9.96402C10.6447 9.96402 11.5757 10.356 12.3271 11.14C13.0784 11.8914 13.4541 12.806 13.4541 13.884V23.929H34.4751V13.884C34.4751 12.806 34.8508 11.8914 35.6021 11.14C36.3861 10.356 37.3171 9.96402 38.3951 9.96402ZM114.68 43.823C113.929 44.5744 113.014 44.95 111.936 44.95C110.858 44.95 109.927 44.5744 109.143 43.823C108.392 43.039 108.016 42.108 108.016 41.03V13.884C108.016 12.806 108.392 11.8914 109.143 11.14C109.927 10.356 110.858 9.96402 111.936 9.96402C113.014 9.96402 113.929 10.356 114.68 11.14C115.464 11.8914 115.856 12.806 115.856 13.884V41.03C115.856 42.108 115.464 43.039 114.68 43.823ZM151.568 22.116C151.568 20.94 151.143 19.9274 150.294 19.078C149.445 18.2287 148.432 17.804 147.256 17.804H126.627C125.549 17.804 124.618 17.4284 123.834 16.677C123.083 15.9257 122.707 14.9947 122.707 13.884C122.707 12.806 123.083 11.8914 123.834 11.14C124.618 10.356 125.549 9.96402 126.627 9.96402H147.256C150.588 9.96402 153.446 11.1564 155.831 13.541C158.216 15.9257 159.408 18.784 159.408 22.116C159.408 25.4807 158.216 28.3554 155.831 30.74C153.479 33.1247 150.621 34.317 147.256 34.317H130.547V41.03C130.547 42.108 130.155 43.039 129.371 43.823C128.62 44.5744 127.705 44.95 126.627 44.95C125.549 44.95 124.618 44.5744 123.834 43.823C123.083 43.039 122.707 42.108 122.707 41.03V30.397C122.707 29.2864 123.083 28.3554 123.834 27.604C124.618 26.8527 125.549 26.477 126.627 26.477H147.256C148.432 26.477 149.445 26.0524 150.294 25.203C151.143 24.3537 151.568 23.3247 151.568 22.116Z" fill="url(#paint6_linear)"/>
<path d="M41.1881 11.14L40.4661 11.8319L40.4735 11.8396L40.481 11.8471L41.1881 11.14ZM41.1881 43.823L41.8952 44.5301L41.9027 44.5226L41.9101 44.5149L41.1881 43.823ZM35.6021 43.823L34.8801 44.5149L34.8948 44.5303L34.9102 44.545L35.6021 43.823ZM34.4751 31.769H35.4751V30.769H34.4751V31.769ZM13.4541 31.769V30.769H12.4541V31.769H13.4541ZM12.3271 43.823L13.0342 44.5301L13.0417 44.5226L13.0491 44.5149L12.3271 43.823ZM6.74108 43.823L6.01909 44.5149L6.03382 44.5303L6.04918 44.545L6.74108 43.823ZM6.74108 11.14L6.03398 10.4329L6.03398 10.4329L6.74108 11.14ZM12.3271 11.14L11.6051 11.8319L11.6125 11.8396L11.62 11.8471L12.3271 11.14ZM13.4541 23.929H12.4541V24.929H13.4541V23.929ZM34.4751 23.929V24.929H35.4751V23.929H34.4751ZM38.3951 10.964C39.2402 10.964 39.9082 11.2497 40.4661 11.8319L41.9101 10.4481C40.9653 9.4623 39.7713 8.96402 38.3951 8.96402V10.964ZM40.481 11.8471C41.0417 12.4079 41.3151 13.0669 41.3151 13.884H43.3151C43.3151 12.5451 42.8371 11.3748 41.8952 10.4329L40.481 11.8471ZM41.3151 13.884V41.03H43.3151V13.884H41.3151ZM41.3151 41.03C41.3151 41.8481 41.0405 42.5318 40.4661 43.1311L41.9101 44.5149C42.8384 43.5463 43.3151 42.368 43.3151 41.03H41.3151ZM40.481 43.1159C39.9264 43.6705 39.2539 43.95 38.3951 43.95V45.95C39.7576 45.95 40.9471 45.4783 41.8952 44.5301L40.481 43.1159ZM38.3951 43.95C37.577 43.95 36.8933 43.6754 36.294 43.101L34.9102 44.545C35.8788 45.4733 37.0571 45.95 38.3951 45.95V43.95ZM36.3241 43.1311C35.7497 42.5318 35.4751 41.8481 35.4751 41.03H33.4751C33.4751 42.368 33.9518 43.5463 34.8801 44.5149L36.3241 43.1311ZM35.4751 41.03V31.769H33.4751V41.03H35.4751ZM34.4751 30.769H13.4541V32.769H34.4751V30.769ZM12.4541 31.769V41.03H14.4541V31.769H12.4541ZM12.4541 41.03C12.4541 41.8481 12.1795 42.5318 11.6051 43.1311L13.0491 44.5149C13.9774 43.5463 14.4541 42.368 14.4541 41.03H12.4541ZM11.62 43.1159C11.0654 43.6705 10.3929 43.95 9.53408 43.95V45.95C10.8966 45.95 12.0861 45.4783 13.0342 44.5301L11.62 43.1159ZM9.53408 43.95C8.71604 43.95 8.03234 43.6754 7.43299 43.101L6.04918 44.545C7.01782 45.4733 8.19613 45.95 9.53408 45.95V43.95ZM7.46307 43.1311C6.88869 42.5318 6.61408 41.8481 6.61408 41.03H4.61408C4.61408 42.368 5.09081 43.5463 6.01909 44.5149L7.46307 43.1311ZM6.61408 41.03V13.884H4.61408V41.03H6.61408ZM6.61408 13.884C6.61408 13.0669 6.88743 12.4079 7.44819 11.8471L6.03398 10.4329C5.09206 11.3748 4.61408 12.5451 4.61408 13.884H6.61408ZM7.44819 11.8471C8.05064 11.2447 8.72964 10.964 9.53408 10.964V8.96402C8.18252 8.96402 6.99953 9.46736 6.03398 10.4329L7.44819 11.8471ZM9.53408 10.964C10.3792 10.964 11.0472 11.2497 11.6051 11.8319L13.0491 10.4481C12.1043 9.4623 10.9103 8.96402 9.53408 8.96402V10.964ZM11.62 11.8471C12.1807 12.4079 12.4541 13.0669 12.4541 13.884H14.4541C14.4541 12.5451 13.9761 11.3748 13.0342 10.4329L11.62 11.8471ZM12.4541 13.884V23.929H14.4541V13.884H12.4541ZM13.4541 24.929H34.4751V22.929H13.4541V24.929ZM35.4751 23.929V13.884H33.4751V23.929H35.4751ZM35.4751 13.884C35.4751 13.0669 35.7484 12.4079 36.3092 11.8471L34.895 10.4329C33.9531 11.3748 33.4751 12.5451 33.4751 13.884H35.4751ZM36.3092 11.8471C36.9116 11.2447 37.5906 10.964 38.3951 10.964V8.96402C37.0435 8.96402 35.8605 9.46736 34.895 10.4329L36.3092 11.8471ZM114.68 43.823L115.388 44.5301L114.68 43.823ZM109.143 43.823L108.421 44.5149L108.436 44.5303L108.452 44.545L109.143 43.823ZM109.143 11.14L108.436 10.4329V10.4329L109.143 11.14ZM114.68 11.14L113.958 11.8319L113.973 11.8473L113.989 11.862L114.68 11.14ZM113.973 43.1159C113.413 43.6767 112.754 43.95 111.936 43.95V45.95C113.275 45.95 114.446 45.472 115.388 44.5301L113.973 43.1159ZM111.936 43.95C111.118 43.95 110.435 43.6754 109.835 43.101L108.452 44.545C109.42 45.4733 110.598 45.95 111.936 45.95V43.95ZM109.865 43.1311C109.291 42.5318 109.016 41.8481 109.016 41.03H107.016C107.016 42.368 107.493 43.5463 108.421 44.5149L109.865 43.1311ZM109.016 41.03V13.884H107.016V41.03H109.016ZM109.016 13.884C109.016 13.0669 109.29 12.4079 109.851 11.8471L108.436 10.4329C107.494 11.3748 107.016 12.5451 107.016 13.884H109.016ZM109.851 11.8471C110.453 11.2447 111.132 10.964 111.936 10.964V8.96402C110.585 8.96402 109.402 9.46736 108.436 10.4329L109.851 11.8471ZM111.936 10.964C112.74 10.964 113.394 11.2431 113.958 11.8319L115.402 10.4481C114.464 9.46894 113.289 8.96402 111.936 8.96402V10.964ZM113.989 11.862C114.577 12.4263 114.856 13.0809 114.856 13.884H116.856C116.856 12.5312 116.352 11.3564 115.372 10.418L113.989 11.862ZM114.856 13.884V41.03H116.856V13.884H114.856ZM114.856 41.03C114.856 41.8345 114.576 42.5135 113.973 43.1159L115.388 44.5301C116.353 43.5646 116.856 42.3816 116.856 41.03H114.856ZM123.834 16.677L123.127 17.3841L123.134 17.3917L123.142 17.399L123.834 16.677ZM123.834 11.14L123.127 10.4329V10.4329L123.834 11.14ZM155.831 30.74L155.124 30.0329L155.119 30.0378L155.831 30.74ZM130.547 34.317V33.317H129.547V34.317H130.547ZM129.371 43.823L130.078 44.5301L129.371 43.823ZM123.834 43.823L123.112 44.5149L123.127 44.5303L123.142 44.545L123.834 43.823ZM123.834 27.604L123.142 26.882L123.134 26.8894L123.127 26.8969L123.834 27.604ZM150.294 25.203L149.587 24.4959V24.4959L150.294 25.203ZM152.568 22.116C152.568 20.6685 152.033 19.4033 151.001 18.3709L149.587 19.7851C150.253 20.4514 150.568 21.2115 150.568 22.116H152.568ZM151.001 18.3709C149.969 17.3385 148.703 16.804 147.256 16.804V18.804C148.16 18.804 148.92 19.1188 149.587 19.7851L151.001 18.3709ZM147.256 16.804H126.627V18.804H147.256V16.804ZM126.627 16.804C125.809 16.804 125.125 16.5294 124.526 15.955L123.142 17.399C124.111 18.3273 125.289 18.804 126.627 18.804V16.804ZM124.541 15.9699C123.986 15.4154 123.707 14.7429 123.707 13.884H121.707C121.707 15.2465 122.179 16.436 123.127 17.3841L124.541 15.9699ZM123.707 13.884C123.707 13.0669 123.98 12.4079 124.541 11.8471L123.127 10.4329C122.185 11.3748 121.707 12.5451 121.707 13.884H123.707ZM124.541 11.8471C125.143 11.2447 125.822 10.964 126.627 10.964V8.96402C125.275 8.96402 124.092 9.46736 123.127 10.4329L124.541 11.8471ZM126.627 10.964H147.256V8.96402H126.627V10.964ZM147.256 10.964C150.319 10.964 152.924 12.0484 155.124 14.2481L156.538 12.8339C153.968 10.2643 150.857 8.96402 147.256 8.96402V10.964ZM155.124 14.2481C157.323 16.4478 158.408 19.0528 158.408 22.116H160.408C160.408 18.5152 159.108 15.4036 156.538 12.8339L155.124 14.2481ZM158.408 22.116C158.408 25.2148 157.321 27.8353 155.124 30.0329L156.538 31.4471C159.11 28.8754 160.408 25.7466 160.408 22.116H158.408ZM155.119 30.0378C152.956 32.231 150.354 33.317 147.256 33.317V35.317C150.887 35.317 154.002 34.0184 156.543 31.4422L155.119 30.0378ZM147.256 33.317H130.547V35.317H147.256V33.317ZM129.547 34.317V41.03H131.547V34.317H129.547ZM129.547 41.03C129.547 41.8345 129.266 42.5135 128.664 43.1159L130.078 44.5301C131.044 43.5646 131.547 42.3816 131.547 41.03H129.547ZM128.664 43.1159C128.103 43.6767 127.444 43.95 126.627 43.95V45.95C127.966 45.95 129.136 45.472 130.078 44.5301L128.664 43.1159ZM126.627 43.95C125.809 43.95 125.125 43.6754 124.526 43.101L123.142 44.545C124.111 45.4733 125.289 45.95 126.627 45.95V43.95ZM124.556 43.1311C123.981 42.5318 123.707 41.8481 123.707 41.03H121.707C121.707 42.368 122.184 43.5463 123.112 44.5149L124.556 43.1311ZM123.707 41.03V30.397H121.707V41.03H123.707ZM123.707 30.397C123.707 29.5382 123.986 28.8657 124.541 28.3111L123.127 26.8969C122.179 27.845 121.707 29.0345 121.707 30.397H123.707ZM124.526 28.326C125.125 27.7516 125.809 27.477 126.627 27.477V25.477C125.289 25.477 124.111 25.9538 123.142 26.882L124.526 28.326ZM126.627 27.477H147.256V25.477H126.627V27.477ZM147.256 27.477C148.703 27.477 149.969 26.9425 151.001 25.9101L149.587 24.4959C148.92 25.1622 148.16 25.477 147.256 25.477V27.477ZM151.001 25.9101C152.039 24.8719 152.568 23.588 152.568 22.116H150.568C150.568 23.0613 150.247 23.8354 149.587 24.4959L151.001 25.9101Z" fill="#FA9D34" fill-opacity="0.04"/>
<path d="M38.3005 68.779V75.082C38.3005 76.886 37.7175 78.228 36.5515 79.108C35.3855 79.966 33.5815 80.395 31.1395 80.395C28.6975 80.395 26.8935 79.977 25.7275 79.141C24.5615 78.283 23.9785 76.963 23.9785 75.181C23.9785 71.749 26.2115 70.033 30.6775 70.033H34.0105V68.779C34.0105 68.031 33.7465 67.514 33.2185 67.228C32.6905 66.92 31.8105 66.766 30.5785 66.766C29.6545 66.766 28.6975 66.832 27.7075 66.964C26.9815 67.074 26.4865 67.03 26.2225 66.832C25.9805 66.612 25.8595 66.139 25.8595 65.413V65.281C25.8595 64.577 25.9695 64.093 26.1895 63.829C26.4315 63.565 26.9155 63.378 27.6415 63.268C28.6755 63.158 29.5665 63.103 30.3145 63.103C33.0205 63.103 35.0225 63.554 36.3205 64.456C37.6405 65.358 38.3005 66.799 38.3005 68.779ZM34.0105 74.851V73.267H30.6115C29.0495 73.267 28.2685 73.872 28.2685 75.082C28.3345 75.786 28.5765 76.259 28.9945 76.501C29.4125 76.721 30.1055 76.82 31.0735 76.798C32.0635 76.82 32.7785 76.699 33.2185 76.435C33.6805 76.149 33.9445 75.621 34.0105 74.851ZM40.8768 73.333V70.165C40.8768 67.965 41.5588 66.238 42.9228 64.984C44.3088 63.73 46.2558 63.103 48.7638 63.103C49.5998 63.103 50.3148 63.18 50.9088 63.334C51.6128 63.488 52.0748 63.708 52.2948 63.994C52.5368 64.28 52.6578 64.797 52.6578 65.545V65.908C52.6578 66.656 52.5368 67.129 52.2948 67.327C52.0528 67.525 51.5908 67.547 50.9088 67.393C50.3588 67.239 49.6658 67.162 48.8298 67.162C47.4878 67.162 46.5418 67.382 45.9918 67.822C45.4638 68.262 45.1998 69.065 45.1998 70.231V73.201C45.1998 74.367 45.4858 75.181 46.0578 75.643C46.6518 76.105 47.6748 76.336 49.1268 76.336C49.7648 76.336 50.4358 76.27 51.1398 76.138C51.8658 76.006 52.3498 76.039 52.5918 76.237C52.8338 76.435 52.9548 76.908 52.9548 77.656V77.986C52.9548 78.734 52.8338 79.251 52.5918 79.537C52.3498 79.801 51.8658 80.01 51.1398 80.164C50.5458 80.318 49.8088 80.395 48.9288 80.395C43.5608 80.395 40.8768 78.041 40.8768 73.333ZM53.877 65.908V65.776C53.877 65.116 53.987 64.654 54.207 64.39C54.427 64.126 54.856 63.928 55.494 63.796L56.847 63.499L57.243 60.892C57.331 60.21 57.507 59.759 57.771 59.539C58.035 59.319 58.519 59.209 59.223 59.209H59.421C60.125 59.209 60.587 59.319 60.807 59.539C61.027 59.759 61.137 60.221 61.137 60.925V63.499H64.899C65.647 63.499 66.142 63.62 66.384 63.862C66.626 64.104 66.747 64.599 66.747 65.347V65.71C66.747 66.458 66.626 66.953 66.384 67.195C66.142 67.437 65.647 67.558 64.899 67.558H61.137V74.092C61.137 75.566 61.83 76.303 63.216 76.303C64.096 76.303 64.866 76.237 65.526 76.105C66.274 75.973 66.758 75.995 66.978 76.171C67.22 76.325 67.341 76.754 67.341 77.458V77.821C67.341 78.569 67.209 79.108 66.945 79.438C66.703 79.768 66.23 80.01 65.526 80.164C64.976 80.296 64.206 80.362 63.216 80.362C58.97 80.362 56.847 78.261 56.847 74.059V67.558H55.527C54.867 67.558 54.427 67.448 54.207 67.228C53.987 67.008 53.877 66.568 53.877 65.908ZM69.7351 78.151V65.347C69.7351 64.599 69.8561 64.104 70.0981 63.862C70.3401 63.62 70.8351 63.499 71.5831 63.499H72.1771C72.9251 63.499 73.4201 63.62 73.6621 63.862C73.9041 64.104 74.0251 64.599 74.0251 65.347V78.151C74.0251 78.899 73.9041 79.394 73.6621 79.636C73.4201 79.878 72.9251 79.999 72.1771 79.999H71.5831C70.8351 79.999 70.3401 79.878 70.0981 79.636C69.8561 79.394 69.7351 78.899 69.7351 78.151ZM73.6951 60.364C73.1891 60.87 72.5841 61.123 71.8801 61.123C71.1761 61.123 70.5711 60.87 70.0651 60.364C69.5591 59.858 69.3061 59.253 69.3061 58.549C69.3061 57.845 69.5591 57.24 70.0651 56.734C70.5711 56.228 71.1761 55.975 71.8801 55.975C72.5841 55.975 73.1891 56.228 73.6951 56.734C74.2011 57.24 74.4541 57.845 74.4541 58.549C74.4541 59.253 74.2011 59.858 73.6951 60.364ZM81.7156 65.314L83.8936 75.28C84.0256 75.852 84.1796 76.226 84.3556 76.402C84.5536 76.578 84.8616 76.666 85.2796 76.666C85.6976 76.666 85.9946 76.578 86.1706 76.402C86.3686 76.226 86.5336 75.852 86.6656 75.28L88.8436 65.314C89.0196 64.588 89.2506 64.104 89.5366 63.862C89.8446 63.62 90.3616 63.499 91.0876 63.499H91.8136C92.5616 63.499 93.0236 63.62 93.1996 63.862C93.3976 64.104 93.4196 64.588 93.2656 65.314L90.8566 75.775C90.4826 77.359 89.9986 78.481 89.4046 79.141C88.7006 79.977 87.3256 80.395 85.2796 80.395C83.2336 80.395 81.8476 79.988 81.1216 79.174C80.5496 78.47 80.0766 77.337 79.7026 75.775L77.2936 65.314C77.1396 64.588 77.1506 64.104 77.3266 63.862C77.5246 63.62 77.9976 63.499 78.7456 63.499H79.4716C80.1976 63.499 80.7036 63.62 80.9896 63.862C81.2976 64.104 81.5396 64.588 81.7156 65.314ZM96.0642 78.151V65.347C96.0642 64.599 96.1852 64.104 96.4272 63.862C96.6692 63.62 97.1642 63.499 97.9122 63.499H98.5062C99.2542 63.499 99.7492 63.62 99.9912 63.862C100.233 64.104 100.354 64.599 100.354 65.347V78.151C100.354 78.899 100.233 79.394 99.9912 79.636C99.7492 79.878 99.2542 79.999 98.5062 79.999H97.9122C97.1642 79.999 96.6692 79.878 96.4272 79.636C96.1852 79.394 96.0642 78.899 96.0642 78.151ZM100.024 60.364C99.5182 60.87 98.9132 61.123 98.2092 61.123C97.5052 61.123 96.9002 60.87 96.3942 60.364C95.8882 59.858 95.6352 59.253 95.6352 58.549C95.6352 57.845 95.8882 57.24 96.3942 56.734C96.9002 56.228 97.5052 55.975 98.2092 55.975C98.9132 55.975 99.5182 56.228 100.024 56.734C100.53 57.24 100.783 57.845 100.783 58.549C100.783 59.253 100.53 59.858 100.024 60.364ZM102.765 65.908V65.776C102.765 65.116 102.875 64.654 103.095 64.39C103.315 64.126 103.744 63.928 104.382 63.796L105.735 63.499L106.131 60.892C106.219 60.21 106.395 59.759 106.659 59.539C106.923 59.319 107.407 59.209 108.111 59.209H108.309C109.013 59.209 109.475 59.319 109.695 59.539C109.915 59.759 110.025 60.221 110.025 60.925V63.499H113.787C114.535 63.499 115.03 63.62 115.272 63.862C115.514 64.104 115.635 64.599 115.635 65.347V65.71C115.635 66.458 115.514 66.953 115.272 67.195C115.03 67.437 114.535 67.558 113.787 67.558H110.025V74.092C110.025 75.566 110.718 76.303 112.104 76.303C112.984 76.303 113.754 76.237 114.414 76.105C115.162 75.973 115.646 75.995 115.866 76.171C116.108 76.325 116.229 76.754 116.229 77.458V77.821C116.229 78.569 116.097 79.108 115.833 79.438C115.591 79.768 115.118 80.01 114.414 80.164C113.864 80.296 113.094 80.362 112.104 80.362C107.858 80.362 105.735 78.261 105.735 74.059V67.558H104.415C103.755 67.558 103.315 67.448 103.095 67.228C102.875 67.008 102.765 66.568 102.765 65.908ZM122.418 65.314L124.596 75.28C124.728 75.852 124.893 76.226 125.091 76.402C125.311 76.578 125.663 76.666 126.147 76.666C126.477 76.666 126.73 76.567 126.906 76.369C127.082 76.171 127.236 75.808 127.368 75.28L129.546 65.314C129.722 64.588 129.953 64.104 130.239 63.862C130.547 63.62 131.064 63.499 131.79 63.499H132.516C133.264 63.499 133.726 63.62 133.902 63.862C134.1 64.104 134.122 64.588 133.968 65.314L130.602 79.999C130.096 82.309 129.249 84.058 128.061 85.246C126.895 86.434 125.366 87.171 123.474 87.457C122.682 87.567 122.154 87.534 121.89 87.358C121.626 87.182 121.417 86.709 121.263 85.939L121.23 85.774C121.054 85.07 121.043 84.586 121.197 84.322C121.373 84.058 121.802 83.849 122.484 83.695C124.442 83.255 125.641 82.111 126.081 80.263C125.883 80.351 125.432 80.395 124.728 80.395C123.452 80.395 122.506 80.065 121.89 79.405C121.296 78.723 120.801 77.513 120.405 75.775L117.996 65.314C117.842 64.588 117.853 64.104 118.029 63.862C118.227 63.62 118.7 63.499 119.448 63.499H120.174C120.9 63.499 121.406 63.62 121.692 63.862C122 64.104 122.242 64.588 122.418 65.314Z" fill="url(#paint7_linear)"/>
<defs>
<linearGradient id="paint0_linear" x1="89.7123" y1="140.92" x2="111.267" y2="-8.00097" gradientUnits="userSpaceOnUse">
<stop offset="0.169244" stop-color="white"/>
<stop offset="1" stop-color="#E8C96F"/>
</linearGradient>
<linearGradient id="paint1_linear" x1="92.9967" y1="-29.3347" x2="-23.3008" y2="262.662" gradientUnits="userSpaceOnUse">
<stop stop-color="#F2E090"/>
<stop offset="1" stop-color="white"/>
</linearGradient>
<linearGradient id="paint2_linear" x1="63.554" y1="140.92" x2="41.9998" y2="-8.00097" gradientUnits="userSpaceOnUse">
<stop offset="0.169244" stop-color="white"/>
<stop offset="1" stop-color="#E8C96F"/>
</linearGradient>
<linearGradient id="paint3_linear" x1="38.2665" y1="78.499" x2="112.56" y2="32.8101" gradientUnits="userSpaceOnUse">
<stop stop-color="#9AEF55"/>
<stop offset="1" stop-color="#62CE0A" stop-opacity="0.7"/>
</linearGradient>
<linearGradient id="paint4_linear" x1="60.2697" y1="-29.3347" x2="176.567" y2="262.662" gradientUnits="userSpaceOnUse">
<stop stop-color="#F2E090"/>
<stop offset="1" stop-color="white"/>
</linearGradient>
<linearGradient id="paint5_linear" x1="82.0029" y1="65.999" x2="75.0029" y2="-145.001" gradientUnits="userSpaceOnUse">
<stop stop-color="#F2E090"/>
<stop offset="1" stop-color="white"/>
</linearGradient>
<linearGradient id="paint6_linear" x1="82.0029" y1="99.999" x2="82.0029" y2="-9.50097" gradientUnits="userSpaceOnUse">
<stop stop-color="#F2E090"/>
<stop offset="1" stop-color="white"/>
</linearGradient>
<linearGradient id="paint7_linear" x1="79.0029" y1="106.999" x2="68.7658" y2="-103.736" gradientUnits="userSpaceOnUse">
<stop stop-color="#F2E090"/>
<stop offset="1" stop-color="white"/>
</linearGradient>
</defs>
</svg>
