<svg width="25" height="25" viewBox="0 0 25 25" fill="none" xmlns="http://www.w3.org/2000/svg">
<g clip-path="url(#clip0)">
<path d="M15.625 10.4167H13.5417V6.25C13.5417 5.14493 13.1027 4.08512 12.3213 3.30372C11.5399 2.52232 10.4801 2.08333 9.375 2.08333C8.26993 2.08333 7.21012 2.52232 6.42872 3.30372C5.64732 4.08512 5.20833 5.14493 5.20833 6.25V10.4167H3.125V6.25C3.125 4.5924 3.78348 3.00269 4.95558 1.83058C6.12769 0.65848 7.7174 0 9.375 0C11.0326 0 12.6223 0.65848 13.7944 1.83058C14.9665 3.00269 15.625 4.5924 15.625 6.25V10.4167Z" fill="url(#paint0_linear)"/>
<path d="M16.6667 9.375H2.08341C1.50812 9.375 1.04175 9.84137 1.04175 10.4167V21.875C1.04175 22.4503 1.50812 22.9167 2.08341 22.9167H16.6667C17.242 22.9167 17.7084 22.4503 17.7084 21.875V10.4167C17.7084 9.84137 17.242 9.375 16.6667 9.375Z" fill="url(#paint1_linear)"/>
<path d="M5.20841 20.8333C4.93215 20.8333 4.6672 20.7236 4.47184 20.5282C4.27649 20.3329 4.16675 20.0679 4.16675 19.7917V9.375H2.08341C1.80715 9.375 1.5422 9.48475 1.34685 9.6801C1.15149 9.87545 1.04175 10.1404 1.04175 10.4167V21.875C1.04175 22.1513 1.15149 22.4162 1.34685 22.6116C1.5422 22.8069 1.80715 22.9167 2.08341 22.9167H16.6667C16.943 22.9167 17.208 22.8069 17.4033 22.6116C17.5987 22.4162 17.7084 22.1513 17.7084 21.875V20.8333H5.20841Z" fill="#E2C35D"/>
<path d="M11.4584 14.5833C11.4587 14.2175 11.3628 13.8581 11.1801 13.5411C10.9975 13.2242 10.7346 12.961 10.418 12.7779C10.1013 12.5948 9.74203 12.4983 9.37625 12.498C9.01047 12.4978 8.65108 12.5939 8.33423 12.7767C8.01737 12.9594 7.75421 13.2224 7.57121 13.5391C7.38822 13.8558 7.29183 14.2151 7.29175 14.5809C7.29167 14.9467 7.38789 15.306 7.57074 15.6228C7.7536 15.9396 8.01664 16.2027 8.33341 16.3856V19.7916H10.4167V16.3856C10.7334 16.2031 10.9963 15.9405 11.1792 15.6241C11.362 15.3077 11.4583 14.9487 11.4584 14.5833Z" fill="white"/>
<path d="M8.33324 14.5833C8.33352 14.1217 8.48714 13.6733 8.76997 13.3086C9.0528 12.9438 9.44879 12.6834 9.89574 12.5682C9.40829 12.4417 8.8915 12.4962 8.4412 12.7217C7.99089 12.9472 7.63761 13.3283 7.44685 13.7943C7.25608 14.2604 7.24078 14.7798 7.40377 15.2563C7.56676 15.7328 7.89699 16.134 8.33324 16.3856V19.7916H9.37491V16.3856C9.0583 16.2031 8.79533 15.9405 8.61247 15.6241C8.42961 15.3077 8.3333 14.9487 8.33324 14.5833Z" fill="#E2C35D"/>
<path d="M18.75 25C22.2018 25 25 22.2018 25 18.75C25 15.2982 22.2018 12.5 18.75 12.5C15.2982 12.5 12.5 15.2982 12.5 18.75C12.5 22.2018 15.2982 25 18.75 25Z" fill="url(#paint2_linear)"/>
<path d="M18.75 20.8334C18.5884 20.8334 18.4291 20.7957 18.2847 20.7232L16.2014 19.6816L17.1332 17.8183L18.394 18.4486L19.9673 16.0889L21.7006 17.2445L19.6173 20.3695C19.5221 20.5122 19.3932 20.6293 19.2418 20.7102C19.0905 20.7912 18.9216 20.8335 18.75 20.8334Z" fill="white"/>
</g>
<defs>
<linearGradient id="paint0_linear" x1="2.96474" y1="5.31888" x2="15.7262" y2="5.31888" gradientUnits="userSpaceOnUse">
<stop stop-color="#E2C35D"/>
<stop offset="0.485719" stop-color="#F2E090"/>
<stop offset="1" stop-color="#E8C96F"/>
</linearGradient>
<linearGradient id="paint1_linear" x1="0.828073" y1="16.2895" x2="17.8434" y2="16.2895" gradientUnits="userSpaceOnUse">
<stop stop-color="#E2C35D"/>
<stop offset="0.485719" stop-color="#F2E090"/>
<stop offset="1" stop-color="#E8C96F"/>
</linearGradient>
<linearGradient id="paint2_linear" x1="53" y1="2" x2="25.1012" y2="18.8827" gradientUnits="userSpaceOnUse">
<stop stop-color="#E2C35D"/>
<stop offset="0.485719" stop-color="#F2E090"/>
<stop offset="1" stop-color="#E8C96F"/>
</linearGradient>
<clipPath id="clip0">
<rect width="25" height="25" fill="white"/>
</clipPath>
</defs>
</svg>
