<svg width="188" height="188" viewBox="0 0 188 188" fill="none" xmlns="http://www.w3.org/2000/svg">
<path fill-rule="evenodd" clip-rule="evenodd" d="M93.9021 187.374C98.4182 187.374 102.86 187.055 107.205 186.437H80.5992C84.9446 187.055 89.3861 187.374 93.9021 187.374ZM61.9299 181.777H125.874C128.73 180.74 131.521 179.569 134.24 178.27H53.5647C56.2833 179.569 59.0742 180.74 61.9299 181.777ZM45.985 174.21C43.8279 172.923 41.727 171.553 39.6866 170.103H148.118C146.077 171.553 143.976 172.923 141.819 174.21H45.985ZM29.719 161.935C31.4542 163.568 33.2517 165.135 35.1075 166.633H152.697C154.553 165.135 156.35 163.568 158.085 161.935H29.719ZM26.7884 159.055C25.1299 157.353 23.5357 155.588 22.0095 153.763H165.795C164.269 155.588 162.674 157.353 161.016 159.055H26.7884ZM15.8983 145.596C17.2446 147.615 18.6671 149.579 20.1619 151.483H167.642C169.137 149.579 170.56 147.615 171.906 145.596H15.8983ZM14.7975 143.906C13.4582 141.801 12.2007 139.639 11.0294 137.424H176.775C175.604 139.639 174.346 141.801 173.007 143.906H14.7975ZM7.2054 129.262C8.19509 131.671 9.28229 134.03 10.4621 136.334H177.342C178.522 134.03 179.609 131.671 180.599 129.262H7.2054ZM7.00171 128.762C2.62486 117.928 0.215088 106.089 0.215088 93.6871C0.215088 41.9451 42.1602 0 93.9021 0C145.644 0 187.589 41.9451 187.589 93.6871C187.589 106.089 185.179 117.928 180.803 128.762H7.00171Z" fill="url(#paint0_linear)"/>
<path d="M42.9047 77.8V89H37.3047V61H51.3047C53.118 61 54.6514 61.64 55.9047 62.92C57.1847 64.2 57.8247 65.7333 57.8247 67.52V71.28C57.8247 73.0667 57.1847 74.6 55.9047 75.88C54.6247 77.16 53.0914 77.8 51.3047 77.8H42.9047ZM42.9047 66.6V72.2H51.3047C51.5714 72.2 51.7847 72.1067 51.9447 71.92C52.1314 71.7333 52.2247 71.52 52.2247 71.28V67.52C52.2247 67.2533 52.1314 67.04 51.9447 66.88C51.7847 66.6933 51.5714 66.6 51.3047 66.6H42.9047ZM74.8203 89H67.3403C65.5536 89 64.0203 88.36 62.7403 87.08C61.4603 85.8 60.8203 84.2667 60.8203 82.48V67.52C60.8203 65.7333 61.4603 64.2 62.7403 62.92C64.0203 61.64 65.5536 61 67.3403 61H74.8203C76.6336 61 78.167 61.64 79.4203 62.92C80.7003 64.2 81.3403 65.7333 81.3403 67.52V82.48C81.3403 84.2667 80.7003 85.8 79.4203 87.08C78.167 88.36 76.6336 89 74.8203 89ZM74.8203 66.6H67.3403C67.1003 66.6 66.887 66.6933 66.7003 66.88C66.5136 67.0667 66.4203 67.28 66.4203 67.52V82.48C66.4203 82.72 66.5136 82.9333 66.7003 83.12C66.887 83.3067 67.1003 83.4 67.3403 83.4H74.8203C75.087 83.4 75.3003 83.3067 75.4603 83.12C75.647 82.9333 75.7403 82.72 75.7403 82.48V67.52C75.7403 67.28 75.647 67.0667 75.4603 66.88C75.3003 66.6933 75.087 66.6 74.8203 66.6ZM97.4716 80.52L90.9516 89H85.3516V61H90.9516V79.8L94.6716 74.96V72.16H100.272V74.96L103.992 79.8V61H109.592V89H103.992L97.4716 80.52ZM134.153 61V66.6H119.233V72.2H130.433V77.8H119.233V83.4H134.153V89H113.633V61H134.153ZM158.684 67.52V71.28C158.684 72.4533 158.391 73.5333 157.804 74.52C157.244 75.5067 156.484 76.2933 155.524 76.88L157.884 79.24C158.417 79.8267 158.684 80.4933 158.684 81.24V89H153.084V82.4L148.524 77.8H143.764V89H138.164V61H152.164C153.977 61 155.511 61.64 156.764 62.92C158.044 64.2 158.684 65.7333 158.684 67.52ZM153.084 71.28V67.52C153.084 67.28 152.991 67.0667 152.804 66.88C152.644 66.6933 152.431 66.6 152.164 66.6H143.764V72.2H152.164C152.431 72.2 152.644 72.1067 152.804 71.92C152.991 71.7333 153.084 71.52 153.084 71.28ZM49.7104 104.76V114L45.0904 114.033V90.933H56.6404C58.1364 90.933 59.4014 91.461 60.4354 92.517C61.4914 93.551 62.0194 94.816 62.0194 96.312V99.381C62.0194 100.855 61.4914 102.12 60.4354 103.176C59.4014 104.232 58.1364 104.76 56.6404 104.76H49.7104ZM49.7104 95.553V100.173L56.6404 100.14C56.8604 100.14 57.0364 100.074 57.1684 99.942C57.3224 99.788 57.3994 99.601 57.3994 99.381V96.312C57.3994 96.092 57.3224 95.916 57.1684 95.784C57.0364 95.63 56.8604 95.553 56.6404 95.553H49.7104ZM82.2577 96.279V99.381C82.2577 100.349 82.0157 101.24 81.5317 102.054C81.0697 102.868 80.4427 103.517 79.6507 104.001L81.5977 105.948C82.0377 106.432 82.2577 106.982 82.2577 107.598V114H77.6377V108.555L73.8757 104.76H69.9487V114H65.3287V90.9H76.8787C78.3747 90.9 79.6397 91.428 80.6737 92.484C81.7297 93.54 82.2577 94.805 82.2577 96.279ZM77.6377 99.381V96.279C77.6377 96.081 77.5607 95.905 77.4067 95.751C77.2747 95.597 77.0987 95.52 76.8787 95.52H69.9487V100.14H76.8787C77.0987 100.14 77.2747 100.063 77.4067 99.909C77.5607 99.755 77.6377 99.579 77.6377 99.381ZM97.117 114H90.946C89.472 114 88.207 113.472 87.151 112.416C86.095 111.36 85.567 110.095 85.567 108.621V96.279C85.567 94.805 86.095 93.54 87.151 92.484C88.207 91.428 89.472 90.9 90.946 90.9H97.117C98.613 90.9 99.878 91.428 100.912 92.484C101.968 93.54 102.496 94.805 102.496 96.279V108.621C102.496 110.095 101.968 111.36 100.912 112.416C99.878 113.472 98.613 114 97.117 114ZM97.117 95.52H90.946C90.748 95.52 90.572 95.597 90.418 95.751C90.264 95.905 90.187 96.081 90.187 96.279V108.621C90.187 108.819 90.264 108.995 90.418 109.149C90.572 109.303 90.748 109.38 90.946 109.38H97.117C97.337 109.38 97.513 109.303 97.645 109.149C97.799 108.995 97.876 108.819 97.876 108.621V96.279C97.876 96.081 97.799 95.905 97.645 95.751C97.513 95.597 97.337 95.52 97.117 95.52ZM122.734 90.9V95.52H110.425V100.14H119.665V104.76H110.425V114H105.805V90.9H122.734ZM130.664 114H126.044V90.9H130.664V114ZM150.9 90.9V95.52H144.762V114H140.142V95.52H133.971V90.9H150.9Z" fill="white"/>
<path d="M42.9047 77.8V73.8H38.9047V77.8H42.9047ZM42.9047 89V93H46.9047V89H42.9047ZM37.3047 89H33.3047V93H37.3047V89ZM37.3047 61V57H33.3047V61H37.3047ZM55.9047 62.92L53.0466 65.7185L53.0614 65.7335L53.0763 65.7484L55.9047 62.92ZM55.9047 75.88L58.7331 78.7084L58.7331 78.7084L55.9047 75.88ZM42.9047 66.6V62.6H38.9047V66.6H42.9047ZM42.9047 72.2H38.9047V76.2H42.9047V72.2ZM51.9447 71.92L49.1163 69.0916L49.0076 69.2002L48.9077 69.3168L51.9447 71.92ZM51.9447 66.88L48.9077 69.4832L49.1079 69.7168L49.3415 69.917L51.9447 66.88ZM38.9047 77.8V89H46.9047V77.8H38.9047ZM42.9047 85H37.3047V93H42.9047V85ZM41.3047 89V61H33.3047V89H41.3047ZM37.3047 65H51.3047V57H37.3047V65ZM51.3047 65C52.0574 65 52.556 65.2175 53.0466 65.7185L58.7627 60.1215C56.7467 58.0625 54.1787 57 51.3047 57V65ZM53.0763 65.7484C53.6172 66.2894 53.8247 66.8098 53.8247 67.52H61.8247C61.8247 64.6569 60.7522 62.1106 58.7331 60.0916L53.0763 65.7484ZM53.8247 67.52V71.28H61.8247V67.52H53.8247ZM53.8247 71.28C53.8247 71.9902 53.6172 72.5106 53.0763 73.0516L58.7331 78.7084C60.7522 76.6894 61.8247 74.1431 61.8247 71.28H53.8247ZM53.0763 73.0516C52.5353 73.5925 52.0149 73.8 51.3047 73.8V81.8C54.1678 81.8 56.7141 80.7275 58.7331 78.7084L53.0763 73.0516ZM51.3047 73.8H42.9047V81.8H51.3047V73.8ZM38.9047 66.6V72.2H46.9047V66.6H38.9047ZM42.9047 76.2H51.3047V68.2H42.9047V76.2ZM51.3047 76.2C52.6272 76.2 53.9919 75.678 54.9817 74.5232L48.9077 69.3168C49.1972 68.9791 49.5856 68.6735 50.0614 68.4654C50.5286 68.261 50.9659 68.2 51.3047 68.2V76.2ZM54.7731 74.7484C55.6276 73.894 56.2247 72.6919 56.2247 71.28H48.2247C48.2247 70.8655 48.3087 70.4313 48.4901 70.0167C48.6682 69.6095 48.9037 69.3041 49.1163 69.0916L54.7731 74.7484ZM56.2247 71.28V67.52H48.2247V71.28H56.2247ZM56.2247 67.52C56.2247 66.1975 55.7026 64.8328 54.5478 63.843L49.3415 69.917C49.0038 69.6275 48.6982 69.239 48.4901 68.7633C48.2857 68.2961 48.2247 67.8588 48.2247 67.52H56.2247ZM54.9817 64.2768C53.9919 63.122 52.6272 62.6 51.3047 62.6V70.6C50.9659 70.6 50.5286 70.539 50.0614 70.3346C49.5856 70.1265 49.1972 69.8209 48.9077 69.4832L54.9817 64.2768ZM51.3047 62.6H42.9047V70.6H51.3047V62.6ZM62.7403 87.08L59.9119 89.9084L59.9119 89.9084L62.7403 87.08ZM62.7403 62.92L65.5687 65.7484L65.5687 65.7484L62.7403 62.92ZM79.4203 62.92L76.5623 65.7185L76.577 65.7335L76.5919 65.7484L79.4203 62.92ZM79.4203 87.08L76.5919 84.2516L76.577 84.2665L76.5623 84.2815L79.4203 87.08ZM66.7003 66.88L63.8719 64.0516L63.8719 64.0516L66.7003 66.88ZM66.7003 83.12L63.8719 85.9484L63.8719 85.9484L66.7003 83.12ZM75.4603 83.12L72.6319 80.2916L72.5233 80.4002L72.4233 80.5168L75.4603 83.12ZM75.4603 66.88L72.4233 69.4832L72.5233 69.5998L72.6319 69.7084L75.4603 66.88ZM74.8203 85H67.3403V93H74.8203V85ZM67.3403 85C66.6301 85 66.1097 84.7925 65.5687 84.2516L59.9119 89.9084C61.9309 91.9275 64.4772 93 67.3403 93V85ZM65.5687 84.2516C65.0278 83.7106 64.8203 83.1902 64.8203 82.48H56.8203C56.8203 85.3431 57.8928 87.8894 59.9119 89.9084L65.5687 84.2516ZM64.8203 82.48V67.52H56.8203V82.48H64.8203ZM64.8203 67.52C64.8203 66.8098 65.0278 66.2894 65.5687 65.7484L59.9119 60.0916C57.8928 62.1106 56.8203 64.6569 56.8203 67.52H64.8203ZM65.5687 65.7484C66.1097 65.2075 66.6301 65 67.3403 65V57C64.4772 57 61.9309 58.0725 59.9119 60.0916L65.5687 65.7484ZM67.3403 65H74.8203V57H67.3403V65ZM74.8203 65C75.573 65 76.0717 65.2175 76.5623 65.7185L82.2784 60.1215C80.2623 58.0625 77.6943 57 74.8203 57V65ZM76.5919 65.7484C77.1328 66.2894 77.3403 66.8098 77.3403 67.52H85.3403C85.3403 64.6569 84.2678 62.1106 82.2487 60.0916L76.5919 65.7484ZM77.3403 67.52V82.48H85.3403V67.52H77.3403ZM77.3403 82.48C77.3403 83.1902 77.1328 83.7106 76.5919 84.2516L82.2487 89.9084C84.2678 87.8894 85.3403 85.3431 85.3403 82.48H77.3403ZM76.5623 84.2815C76.0717 84.7825 75.573 85 74.8203 85V93C77.6943 93 80.2623 91.9375 82.2784 89.8785L76.5623 84.2815ZM74.8203 62.6H67.3403V70.6H74.8203V62.6ZM67.3403 62.6C65.9284 62.6 64.7263 63.1971 63.8719 64.0516L69.5287 69.7084C69.3162 69.921 69.0108 70.1565 68.6036 70.3346C68.189 70.516 67.7548 70.6 67.3403 70.6V62.6ZM63.8719 64.0516C63.0174 64.906 62.4203 66.1081 62.4203 67.52H70.4203C70.4203 67.9345 70.3363 68.3687 70.1549 68.7833C69.9768 69.1905 69.7413 69.4959 69.5287 69.7084L63.8719 64.0516ZM62.4203 67.52V82.48H70.4203V67.52H62.4203ZM62.4203 82.48C62.4203 83.8919 63.0174 85.094 63.8719 85.9484L69.5287 80.2916C69.7413 80.5041 69.9768 80.8095 70.1549 81.2167C70.3363 81.6313 70.4203 82.0655 70.4203 82.48H62.4203ZM63.8719 85.9484C64.7263 86.8029 65.9284 87.4 67.3403 87.4V79.4C67.7548 79.4 68.189 79.484 68.6036 79.6654C69.0108 79.8435 69.3162 80.079 69.5287 80.2916L63.8719 85.9484ZM67.3403 87.4H74.8203V79.4H67.3403V87.4ZM74.8203 87.4C76.1428 87.4 77.5075 86.878 78.4973 85.7232L72.4233 80.5168C72.7128 80.1791 73.1013 79.8735 73.577 79.6654C74.0442 79.461 74.4816 79.4 74.8203 79.4V87.4ZM78.2887 85.9484C79.1432 85.094 79.7403 83.8919 79.7403 82.48H71.7403C71.7403 82.0655 71.8243 81.6313 72.0057 81.2167C72.1838 80.8095 72.4193 80.5041 72.6319 80.2916L78.2887 85.9484ZM79.7403 82.48V67.52H71.7403V82.48H79.7403ZM79.7403 67.52C79.7403 66.1081 79.1432 64.906 78.2887 64.0516L72.6319 69.7084C72.4193 69.4959 72.1838 69.1905 72.0057 68.7833C71.8243 68.3687 71.7403 67.9345 71.7403 67.52H79.7403ZM78.4973 64.2768C77.5075 63.122 76.1428 62.6 74.8203 62.6V70.6C74.4816 70.6 74.0442 70.539 73.577 70.3346C73.1013 70.1265 72.7128 69.8209 72.4233 69.4832L78.4973 64.2768ZM97.4716 80.52L100.643 78.0819L97.4716 73.9576L94.3005 78.0819L97.4716 80.52ZM90.9516 89V93H92.9217L94.1226 91.4381L90.9516 89ZM85.3516 89H81.3516V93H85.3516V89ZM85.3516 61V57H81.3516V61H85.3516ZM90.9516 61H94.9516V57H90.9516V61ZM90.9516 79.8H86.9516V91.5682L94.123 82.2376L90.9516 79.8ZM94.6716 74.96L97.843 77.3976L98.6716 76.3196V74.96H94.6716ZM94.6716 72.16V68.16H90.6716V72.16H94.6716ZM100.272 72.16H104.272V68.16H100.272V72.16ZM100.272 74.96H96.2716V76.3196L97.1001 77.3976L100.272 74.96ZM103.992 79.8L100.82 82.2376L107.992 91.5682V79.8H103.992ZM103.992 61V57H99.9916V61H103.992ZM109.592 61H113.592V57H109.592V61ZM109.592 89V93H113.592V89H109.592ZM103.992 89L100.821 91.4381L102.021 93H103.992V89ZM94.3005 78.0819L87.7805 86.5619L94.1226 91.4381L100.643 82.9581L94.3005 78.0819ZM90.9516 85H85.3516V93H90.9516V85ZM89.3516 89V61H81.3516V89H89.3516ZM85.3516 65H90.9516V57H85.3516V65ZM86.9516 61V79.8H94.9516V61H86.9516ZM94.123 82.2376L97.843 77.3976L91.5001 72.5224L87.7801 77.3624L94.123 82.2376ZM98.6716 74.96V72.16H90.6716V74.96H98.6716ZM94.6716 76.16H100.272V68.16H94.6716V76.16ZM96.2716 72.16V74.96H104.272V72.16H96.2716ZM97.1001 77.3976L100.82 82.2376L107.163 77.3624L103.443 72.5224L97.1001 77.3976ZM107.992 79.8V61H99.9916V79.8H107.992ZM103.992 65H109.592V57H103.992V65ZM105.592 61V89H113.592V61H105.592ZM109.592 85H103.992V93H109.592V85ZM107.163 86.5619L100.643 78.0819L94.3005 82.9581L100.821 91.4381L107.163 86.5619ZM134.153 61H138.153V57H134.153V61ZM134.153 66.6V70.6H138.153V66.6H134.153ZM119.233 66.6V62.6H115.233V66.6H119.233ZM119.233 72.2H115.233V76.2H119.233V72.2ZM130.433 72.2H134.433V68.2H130.433V72.2ZM130.433 77.8V81.8H134.433V77.8H130.433ZM119.233 77.8V73.8H115.233V77.8H119.233ZM119.233 83.4H115.233V87.4H119.233V83.4ZM134.153 83.4H138.153V79.4H134.153V83.4ZM134.153 89V93H138.153V89H134.153ZM113.633 89H109.633V93H113.633V89ZM113.633 61V57H109.633V61H113.633ZM130.153 61V66.6H138.153V61H130.153ZM134.153 62.6H119.233V70.6H134.153V62.6ZM115.233 66.6V72.2H123.233V66.6H115.233ZM119.233 76.2H130.433V68.2H119.233V76.2ZM126.433 72.2V77.8H134.433V72.2H126.433ZM130.433 73.8H119.233V81.8H130.433V73.8ZM115.233 77.8V83.4H123.233V77.8H115.233ZM119.233 87.4H134.153V79.4H119.233V87.4ZM130.153 83.4V89H138.153V83.4H130.153ZM134.153 85H113.633V93H134.153V85ZM117.633 89V61H109.633V89H117.633ZM113.633 65H134.153V57H113.633V65ZM157.804 74.52L154.366 72.4757L154.345 72.5104L154.325 72.5456L157.804 74.52ZM155.524 76.88L153.438 73.4669L149.103 76.116L152.696 79.7084L155.524 76.88ZM157.884 79.24L160.844 76.5493L160.78 76.4789L160.712 76.4116L157.884 79.24ZM158.684 89V93H162.684V89H158.684ZM153.084 89H149.084V93H153.084V89ZM153.084 82.4H157.084V80.7534L155.925 79.584L153.084 82.4ZM148.524 77.8L151.365 74.984L150.191 73.8H148.524V77.8ZM143.764 77.8V73.8H139.764V77.8H143.764ZM143.764 89V93H147.764V89H143.764ZM138.164 89H134.164V93H138.164V89ZM138.164 61V57H134.164V61H138.164ZM156.764 62.92L153.906 65.7185L153.921 65.7335L153.936 65.7484L156.764 62.92ZM152.804 66.88L149.767 69.4832L149.867 69.5998L149.976 69.7084L152.804 66.88ZM143.764 66.6V62.6H139.764V66.6H143.764ZM143.764 72.2H139.764V76.2H143.764V72.2ZM152.804 71.92L149.976 69.0916L149.867 69.2002L149.767 69.3168L152.804 71.92ZM154.684 67.52V71.28H162.684V67.52H154.684ZM154.684 71.28C154.684 71.7505 154.576 72.1218 154.366 72.4757L161.242 76.5643C162.205 74.9449 162.684 73.1562 162.684 71.28H154.684ZM154.325 72.5456C154.097 72.9475 153.814 73.237 153.438 73.4669L157.61 80.2931C159.154 79.3497 160.391 78.0658 161.283 76.4944L154.325 72.5456ZM152.696 79.7084L155.056 82.0684L160.712 76.4116L158.352 74.0516L152.696 79.7084ZM154.924 81.9307C154.903 81.9073 154.832 81.8196 154.77 81.6656C154.707 81.5076 154.684 81.3549 154.684 81.24H162.684C162.684 79.4329 162.001 77.8225 160.844 76.5493L154.924 81.9307ZM154.684 81.24V89H162.684V81.24H154.684ZM158.684 85H153.084V93H158.684V85ZM157.084 89V82.4H149.084V89H157.084ZM155.925 79.584L151.365 74.984L145.683 80.616L150.243 85.216L155.925 79.584ZM148.524 73.8H143.764V81.8H148.524V73.8ZM139.764 77.8V89H147.764V77.8H139.764ZM143.764 85H138.164V93H143.764V85ZM142.164 89V61H134.164V89H142.164ZM138.164 65H152.164V57H138.164V65ZM152.164 65C152.917 65 153.415 65.2175 153.906 65.7185L159.622 60.1215C157.606 58.0625 155.038 57 152.164 57V65ZM153.936 65.7484C154.477 66.2894 154.684 66.8098 154.684 67.52H162.684C162.684 64.6569 161.612 62.1106 159.592 60.0916L153.936 65.7484ZM157.084 71.28V67.52H149.084V71.28H157.084ZM157.084 67.52C157.084 66.1081 156.487 64.906 155.632 64.0516L149.976 69.7084C149.763 69.4959 149.528 69.1905 149.349 68.7833C149.168 68.3687 149.084 67.9345 149.084 67.52H157.084ZM155.841 64.2768C154.851 63.122 153.487 62.6 152.164 62.6V70.6C151.825 70.6 151.388 70.539 150.921 70.3346C150.445 70.1265 150.057 69.8209 149.767 69.4832L155.841 64.2768ZM152.164 62.6H143.764V70.6H152.164V62.6ZM139.764 66.6V72.2H147.764V66.6H139.764ZM143.764 76.2H152.164V68.2H143.764V76.2ZM152.164 76.2C153.487 76.2 154.851 75.678 155.841 74.5232L149.767 69.3168C150.057 68.9791 150.445 68.6735 150.921 68.4654C151.388 68.261 151.825 68.2 152.164 68.2V76.2ZM155.632 74.7484C156.487 73.894 157.084 72.6919 157.084 71.28H149.084C149.084 70.8655 149.168 70.4313 149.349 70.0167C149.528 69.6095 149.763 69.3041 149.976 69.0916L155.632 74.7484ZM49.7104 104.76V100.76H45.7104V104.76H49.7104ZM49.7104 114L49.739 118L53.7104 117.972V114H49.7104ZM45.0904 114.033H41.0904V118.062L45.119 118.033L45.0904 114.033ZM45.0904 90.933V86.933H41.0904V90.933H45.0904ZM60.4354 92.517L57.5774 95.3155L57.6068 95.3456L57.6369 95.375L60.4354 92.517ZM60.4354 103.176L57.607 100.348L57.5921 100.362L57.5774 100.378L60.4354 103.176ZM49.7104 95.553V91.553H45.7104V95.553H49.7104ZM49.7104 100.173H45.7104V104.192L49.7295 104.173L49.7104 100.173ZM56.6404 100.14V96.14H56.6309L56.6214 96.14L56.6404 100.14ZM57.1684 99.942L54.34 97.1136L54.34 97.1136L57.1684 99.942ZM57.1684 95.784L54.1314 98.3872L54.3316 98.6208L54.5653 98.821L57.1684 95.784ZM45.7104 104.76V114H53.7104V104.76H45.7104ZM49.6819 110L45.0619 110.033L45.119 118.033L49.739 118L49.6819 110ZM49.0904 114.033V90.933H41.0904V114.033H49.0904ZM45.0904 94.933H56.6404V86.933H45.0904V94.933ZM56.6404 94.933C57.0758 94.933 57.3061 95.0385 57.5774 95.3155L63.2935 89.7185C61.4967 87.8835 59.1971 86.933 56.6404 86.933V94.933ZM57.6369 95.375C57.914 95.6463 58.0194 95.8766 58.0194 96.312H66.0194C66.0194 93.7554 65.0689 91.4557 63.2339 89.659L57.6369 95.375ZM58.0194 96.312V99.381H66.0194V96.312H58.0194ZM58.0194 99.381C58.0194 99.7785 57.924 100.031 57.607 100.348L63.2639 106.004C65.0589 104.209 66.0194 101.931 66.0194 99.381H58.0194ZM57.5774 100.378C57.3061 100.655 57.0758 100.76 56.6404 100.76V108.76C59.1971 108.76 61.4967 107.809 63.2935 105.974L57.5774 100.378ZM56.6404 100.76H49.7104V108.76H56.6404V100.76ZM45.7104 95.553V100.173H53.7104V95.553H45.7104ZM49.7295 104.173L56.6595 104.14L56.6214 96.14L49.6914 96.173L49.7295 104.173ZM56.6404 104.14C57.7175 104.14 58.9819 103.785 59.9969 102.77L54.34 97.1136C54.6806 96.7729 55.0901 96.5112 55.5329 96.3452C55.9635 96.1837 56.351 96.14 56.6404 96.14V104.14ZM59.9969 102.77C60.9095 101.858 61.3994 100.65 61.3994 99.381H53.3994C53.3994 99.0147 53.4657 98.5938 53.643 98.1632C53.8206 97.7319 54.0726 97.381 54.34 97.1136L59.9969 102.77ZM61.3994 99.381V96.312H53.3994V99.381H61.3994ZM61.3994 96.312C61.3994 95.0361 60.8937 93.7088 59.7716 92.747L54.5653 98.821C54.2112 98.5175 53.8934 98.1127 53.677 97.6183C53.4645 97.1324 53.3994 96.6741 53.3994 96.312H61.3994ZM60.2055 93.1808C59.2436 92.0587 57.9163 91.553 56.6404 91.553V99.553C56.2783 99.553 55.82 99.4879 55.3342 99.2754C54.8397 99.0591 54.4349 98.7413 54.1314 98.3872L60.2055 93.1808ZM56.6404 91.553H49.7104V99.553H56.6404V91.553ZM81.5317 102.054L78.0936 100.01L78.0729 100.044L78.053 100.08L81.5317 102.054ZM79.6507 104.001L77.5649 100.588L73.2299 103.237L76.8223 106.829L79.6507 104.001ZM81.5977 105.948L84.5575 103.257L84.4934 103.187L84.4261 103.12L81.5977 105.948ZM82.2577 114V118H86.2577V114H82.2577ZM77.6377 114H73.6377V118H77.6377V114ZM77.6377 108.555H81.6377V106.908L80.4785 105.739L77.6377 108.555ZM73.8757 104.76L76.7165 101.944L75.5428 100.76H73.8757V104.76ZM69.9487 104.76V100.76H65.9487V104.76H69.9487ZM69.9487 114V118H73.9487V114H69.9487ZM65.3287 114H61.3287V118H65.3287V114ZM65.3287 90.9V86.9H61.3287V90.9H65.3287ZM80.6737 92.484L77.8157 95.2825L77.8304 95.2975L77.8453 95.3124L80.6737 92.484ZM77.4067 95.751L74.3697 98.3542L74.4697 98.4708L74.5783 98.5794L77.4067 95.751ZM69.9487 95.52V91.52H65.9487V95.52H69.9487ZM69.9487 100.14H65.9487V104.14H69.9487V100.14ZM77.4067 99.909L74.5783 97.0806L74.4697 97.1892L74.3697 97.3058L77.4067 99.909ZM78.2577 96.279V99.381H86.2577V96.279H78.2577ZM78.2577 99.381C78.2577 99.6462 78.2014 99.8284 78.0936 100.01L84.9699 104.098C85.8301 102.652 86.2577 101.052 86.2577 99.381H78.2577ZM78.053 100.08C77.9228 100.309 77.7731 100.461 77.5649 100.588L81.7365 107.414C83.1124 106.573 84.2166 105.427 85.0105 104.028L78.053 100.08ZM76.8223 106.829L78.7693 108.776L84.4261 103.12L82.4791 101.173L76.8223 106.829ZM78.638 108.639C78.57 108.564 78.4638 108.421 78.3788 108.209C78.2923 107.993 78.2577 107.778 78.2577 107.598H86.2577C86.2577 105.922 85.6215 104.428 84.5575 103.257L78.638 108.639ZM78.2577 107.598V114H86.2577V107.598H78.2577ZM82.2577 110H77.6377V118H82.2577V110ZM81.6377 114V108.555H73.6377V114H81.6377ZM80.4785 105.739L76.7165 101.944L71.035 107.576L74.797 111.371L80.4785 105.739ZM73.8757 100.76H69.9487V108.76H73.8757V100.76ZM65.9487 104.76V114H73.9487V104.76H65.9487ZM69.9487 110H65.3287V118H69.9487V110ZM69.3287 114V90.9H61.3287V114H69.3287ZM65.3287 94.9H76.8787V86.9H65.3287V94.9ZM76.8787 94.9C77.3141 94.9 77.5444 95.0055 77.8157 95.2825L83.5318 89.6855C81.735 87.8505 79.4354 86.9 76.8787 86.9V94.9ZM77.8453 95.3124C78.1622 95.6294 78.2577 95.8815 78.2577 96.279H86.2577C86.2577 93.7285 85.2972 91.4506 83.5021 89.6556L77.8453 95.3124ZM81.6377 99.381V96.279H73.6377V99.381H81.6377ZM81.6377 96.279C81.6377 94.9091 81.0569 93.7444 80.2351 92.9226L74.5783 98.5794C74.3494 98.3505 74.1017 98.0277 73.9153 97.6018C73.7258 97.1685 73.6377 96.7145 73.6377 96.279H81.6377ZM80.4437 93.1478C79.4819 92.0257 78.1546 91.52 76.8787 91.52V99.52C76.5166 99.52 76.0583 99.4549 75.5724 99.2424C75.078 99.0261 74.6732 98.7083 74.3697 98.3542L80.4437 93.1478ZM76.8787 91.52H69.9487V99.52H76.8787V91.52ZM65.9487 95.52V100.14H73.9487V95.52H65.9487ZM69.9487 104.14H76.8787V96.14H69.9487V104.14ZM76.8787 104.14C78.1546 104.14 79.4819 103.634 80.4437 102.512L74.3697 97.3058C74.6732 96.9517 75.078 96.6339 75.5724 96.4176C76.0583 96.2051 76.5166 96.14 76.8787 96.14V104.14ZM80.2351 102.737C81.0569 101.916 81.6377 100.751 81.6377 99.381H73.6377C73.6377 98.9455 73.7258 98.4914 73.9153 98.0582C74.1017 97.6323 74.3494 97.3095 74.5783 97.0806L80.2351 102.737ZM87.151 112.416L84.3226 115.244L84.3226 115.244L87.151 112.416ZM87.151 92.484L89.9794 95.3124L89.9794 95.3124L87.151 92.484ZM100.912 92.484L98.054 95.2825L98.0687 95.2975L98.0836 95.3124L100.912 92.484ZM100.912 112.416L98.0836 109.588L98.0687 109.602L98.054 109.618L100.912 112.416ZM90.418 95.751L87.5896 92.9226L87.5896 92.9226L90.418 95.751ZM90.418 109.149L87.5896 111.977L87.5896 111.977L90.418 109.149ZM97.645 109.149L94.8166 106.321L94.7079 106.429L94.608 106.546L97.645 109.149ZM97.645 95.751L94.608 98.3542L94.7079 98.4708L94.8166 98.5794L97.645 95.751ZM97.117 110H90.946V118H97.117V110ZM90.946 110C90.5484 110 90.2964 109.905 89.9794 109.588L84.3226 115.244C86.1176 117.039 88.3955 118 90.946 118V110ZM89.9794 109.588C89.6625 109.271 89.567 109.019 89.567 108.621H81.567C81.567 111.171 82.5275 113.449 84.3226 115.244L89.9794 109.588ZM89.567 108.621V96.279H81.567V108.621H89.567ZM89.567 96.279C89.567 95.8815 89.6625 95.6294 89.9794 95.3124L84.3226 89.6556C82.5275 91.4506 81.567 93.7285 81.567 96.279H89.567ZM89.9794 95.3124C90.2964 94.9955 90.5484 94.9 90.946 94.9V86.9C88.3955 86.9 86.1176 87.8605 84.3226 89.6556L89.9794 95.3124ZM90.946 94.9H97.117V86.9H90.946V94.9ZM97.117 94.9C97.5523 94.9 97.7827 95.0055 98.054 95.2825L103.77 89.6855C101.973 87.8505 99.6736 86.9 97.117 86.9V94.9ZM98.0836 95.3124C98.4005 95.6294 98.496 95.8815 98.496 96.279H106.496C106.496 93.7285 105.535 91.4506 103.74 89.6556L98.0836 95.3124ZM98.496 96.279V108.621H106.496V96.279H98.496ZM98.496 108.621C98.496 109.019 98.4005 109.271 98.0836 109.588L103.74 115.244C105.535 113.449 106.496 111.171 106.496 108.621H98.496ZM98.054 109.618C97.7827 109.895 97.5523 110 97.117 110V118C99.6736 118 101.973 117.049 103.77 115.214L98.054 109.618ZM97.117 91.52H90.946V99.52H97.117V91.52ZM90.946 91.52C89.5761 91.52 88.4113 92.1008 87.5896 92.9226L93.2464 98.5794C93.0175 98.8083 92.6946 99.0561 92.2688 99.2424C91.8355 99.4319 91.3815 99.52 90.946 99.52V91.52ZM87.5896 92.9226C86.7678 93.7444 86.187 94.9091 86.187 96.279H94.187C94.187 96.7145 94.0989 97.1685 93.9094 97.6018C93.723 98.0277 93.4753 98.3505 93.2464 98.5794L87.5896 92.9226ZM86.187 96.279V108.621H94.187V96.279H86.187ZM86.187 108.621C86.187 109.991 86.7678 111.156 87.5896 111.977L93.2464 106.321C93.4753 106.549 93.723 106.872 93.9094 107.298C94.0989 107.731 94.187 108.186 94.187 108.621H86.187ZM87.5896 111.977C88.4113 112.799 89.5761 113.38 90.946 113.38V105.38C91.3815 105.38 91.8355 105.468 92.2688 105.658C92.6947 105.844 93.0175 106.092 93.2464 106.321L87.5896 111.977ZM90.946 113.38H97.117V105.38H90.946V113.38ZM97.117 113.38C98.3928 113.38 99.7202 112.874 100.682 111.752L94.608 106.546C94.9115 106.192 95.3163 105.874 95.8107 105.658C96.2966 105.445 96.7549 105.38 97.117 105.38V113.38ZM100.473 111.977C101.295 111.156 101.876 109.991 101.876 108.621H93.876C93.876 108.186 93.9641 107.731 94.1536 107.298C94.3399 106.872 94.5877 106.549 94.8166 106.321L100.473 111.977ZM101.876 108.621V96.279H93.876V108.621H101.876ZM101.876 96.279C101.876 94.9091 101.295 93.7444 100.473 92.9226L94.8166 98.5794C94.5877 98.3505 94.3399 98.0277 94.1536 97.6018C93.9641 97.1685 93.876 96.7145 93.876 96.279H101.876ZM100.682 93.1478C99.7202 92.0257 98.3928 91.52 97.117 91.52V99.52C96.7549 99.52 96.2966 99.4549 95.8107 99.2424C95.3163 99.0261 94.9115 98.7083 94.608 98.3542L100.682 93.1478ZM122.734 90.9H126.734V86.9H122.734V90.9ZM122.734 95.52V99.52H126.734V95.52H122.734ZM110.425 95.52V91.52H106.425V95.52H110.425ZM110.425 100.14H106.425V104.14H110.425V100.14ZM119.665 100.14H123.665V96.14H119.665V100.14ZM119.665 104.76V108.76H123.665V104.76H119.665ZM110.425 104.76V100.76H106.425V104.76H110.425ZM110.425 114V118H114.425V114H110.425ZM105.805 114H101.805V118H105.805V114ZM105.805 90.9V86.9H101.805V90.9H105.805ZM118.734 90.9V95.52H126.734V90.9H118.734ZM122.734 91.52H110.425V99.52H122.734V91.52ZM106.425 95.52V100.14H114.425V95.52H106.425ZM110.425 104.14H119.665V96.14H110.425V104.14ZM115.665 100.14V104.76H123.665V100.14H115.665ZM119.665 100.76H110.425V108.76H119.665V100.76ZM106.425 104.76V114H114.425V104.76H106.425ZM110.425 110H105.805V118H110.425V110ZM109.805 114V90.9H101.805V114H109.805ZM105.805 94.9H122.734V86.9H105.805V94.9ZM130.664 114V118H134.664V114H130.664ZM126.044 114H122.044V118H126.044V114ZM126.044 90.9V86.9H122.044V90.9H126.044ZM130.664 90.9H134.664V86.9H130.664V90.9ZM130.664 110H126.044V118H130.664V110ZM130.044 114V90.9H122.044V114H130.044ZM126.044 94.9H130.664V86.9H126.044V94.9ZM126.664 90.9V114H134.664V90.9H126.664ZM150.9 90.9H154.9V86.9H150.9V90.9ZM150.9 95.52V99.52H154.9V95.52H150.9ZM144.762 95.52V91.52H140.762V95.52H144.762ZM144.762 114V118H148.762V114H144.762ZM140.142 114H136.142V118H140.142V114ZM140.142 95.52H144.142V91.52H140.142V95.52ZM133.971 95.52H129.971V99.52H133.971V95.52ZM133.971 90.9V86.9H129.971V90.9H133.971ZM146.9 90.9V95.52H154.9V90.9H146.9ZM150.9 91.52H144.762V99.52H150.9V91.52ZM140.762 95.52V114H148.762V95.52H140.762ZM144.762 110H140.142V118H144.762V110ZM144.142 114V95.52H136.142V114H144.142ZM140.142 91.52H133.971V99.52H140.142V91.52ZM137.971 95.52V90.9H129.971V95.52H137.971ZM133.971 94.9H150.9V86.9H133.971V94.9Z" fill="#4E312F"/>
<path d="M72.9403 125.352C72.9433 125.368 72.9464 125.385 72.9494 125.401C72.9658 125.398 72.9755 125.405 72.9785 125.421C73.0902 125.384 73.2019 125.346 73.3136 125.309C73.4254 125.271 73.5371 125.234 73.6488 125.196L73.6352 125.122C73.5071 125.163 73.3872 125.202 73.2755 125.24C73.1801 125.274 73.0684 125.312 72.9403 125.352ZM73.2561 124.582C73.2755 124.596 73.2882 124.619 73.2943 124.651C73.324 124.629 73.3553 124.615 73.3881 124.609C73.4373 124.6 73.4752 124.576 73.502 124.537L73.2561 124.582ZM74.5971 129.241L74.5926 129.217C74.5732 129.203 74.5635 129.197 74.5635 129.197C74.4651 129.215 74.3929 129.237 74.3467 129.262L74.3558 129.311C74.4183 129.283 74.4987 129.259 74.5971 129.241ZM77.2331 128.095C76.5433 128.307 75.8633 128.525 75.193 128.75C74.5197 128.959 73.8382 129.169 73.1484 129.381C73.2006 129.388 73.2528 129.396 73.305 129.403C73.3736 129.407 73.4392 129.395 73.5017 129.367L73.6246 129.344C73.7558 129.32 73.9986 129.258 74.3532 129.159C74.7241 129.057 75.11 128.944 75.5107 128.819C75.9084 128.678 76.2733 128.543 76.6055 128.414C76.9376 128.285 77.1468 128.179 77.2331 128.095ZM75.2644 124.721C75.242 124.691 75.2308 124.676 75.2308 124.676C75.0371 124.729 74.8434 124.781 74.6497 124.834C74.4531 124.87 74.2497 124.916 74.0396 124.972L74.0532 125.045C74.2633 124.99 74.4651 124.936 74.6588 124.883C74.8525 124.83 75.0543 124.776 75.2644 124.721ZM75.8549 128.756L75.5935 128.854C75.5965 128.871 75.5995 128.887 75.6026 128.904C75.619 128.901 75.6287 128.907 75.6317 128.924C75.6584 128.885 75.6964 128.861 75.7456 128.852C75.7917 128.826 75.8282 128.794 75.8549 128.756ZM73.0902 130.307L73.336 130.262C74.3359 130.077 75.3012 129.798 76.2321 129.423C77.1763 129.029 78.1363 128.674 79.112 128.359C79.0895 128.329 79.0738 128.29 79.0647 128.241C78.0623 128.595 77.068 128.947 76.082 129.298C75.0929 129.633 74.0956 129.969 73.0902 130.307ZM75.9041 128.746L76.1499 128.701L76.1454 128.677C76.0962 128.686 76.0486 128.703 76.0024 128.728C75.9696 128.734 75.9369 128.74 75.9041 128.746ZM77.2331 128.095C77.318 128.096 77.403 128.098 77.488 128.099C77.5863 128.081 77.6765 128.064 77.7584 128.049L77.7403 127.951C77.6614 127.982 77.5728 128.007 77.4744 128.025C77.3925 128.04 77.312 128.064 77.2331 128.095ZM78.5763 127.797L78.5627 127.723C78.5001 127.752 78.4115 127.776 78.2968 127.797L78.3058 127.847L78.5763 127.797ZM72.7757 118.799L72.7666 118.749C72.7041 118.778 72.6267 118.818 72.5343 118.868L72.5479 118.942C72.5777 118.92 72.6157 118.896 72.6618 118.87C72.708 118.845 72.7459 118.821 72.7757 118.799ZM72.315 118.782C72.9004 118.555 73.4708 118.34 74.0264 118.136C74.5789 117.916 75.133 117.703 75.6886 117.499L75.5411 117.527C75.3444 117.563 75.0866 117.636 74.7679 117.745C74.4461 117.838 74.1191 117.95 73.787 118.078C73.4713 118.204 73.1734 118.336 72.8935 118.472C72.6269 118.589 72.4341 118.692 72.315 118.782ZM72.4871 119.716C73.2928 119.398 74.0904 119.082 74.8798 118.767C75.6855 118.449 76.4913 118.131 77.297 117.813L77.1987 117.831C77.1003 117.85 76.9149 117.901 76.6423 117.985C76.386 118.066 76.0837 118.172 75.7351 118.304C75.3836 118.42 75.0172 118.547 74.6358 118.685C74.2545 118.823 73.9075 118.963 73.5948 119.105C73.279 119.231 73.014 119.356 72.7996 119.48C72.5986 119.585 72.4944 119.664 72.4871 119.716ZM73.0398 128.791C73.1278 128.809 73.2373 128.805 73.3685 128.781C73.4504 128.766 73.5324 128.751 73.6143 128.736C73.6933 128.705 73.7722 128.673 73.8511 128.642C74.1237 128.557 74.3882 128.475 74.6444 128.394C74.9006 128.313 75.165 128.23 75.4376 128.146C75.743 128.056 76.0417 127.975 76.3337 127.905C76.6227 127.818 76.9117 127.73 77.2007 127.643C77.3586 127.58 77.5195 127.534 77.6834 127.504C77.8473 127.473 78.0112 127.443 78.1752 127.413L78.839 127.291C79.0521 127.252 79.2365 127.379 79.3922 127.672C79.4176 127.718 79.4431 127.764 79.4685 127.81C79.4909 127.84 79.5134 127.87 79.5358 127.9C79.5582 127.929 79.5806 127.959 79.6031 127.989C79.6255 128.019 79.6479 128.049 79.6704 128.078C79.6466 128.134 79.605 128.184 79.5455 128.228C79.4829 128.257 79.5002 128.305 79.5972 128.371C79.5705 128.41 79.5519 128.448 79.5416 128.483C79.5312 128.519 79.5097 128.54 79.4769 128.546C79.4277 128.555 79.3718 128.574 79.3093 128.602C79.2601 128.611 79.2028 128.622 79.1372 128.634C79.0716 128.646 79.0143 128.657 78.9651 128.666C78.9129 128.658 78.854 128.661 78.7884 128.673C78.559 128.715 78.3386 128.807 78.1272 128.947C78.0081 129.037 77.8682 129.105 77.7073 129.152C77.5628 129.195 77.4116 129.248 77.2537 129.311C77.0794 129.377 76.9022 129.427 76.7219 129.46C76.561 129.507 76.3919 129.555 76.2146 129.604C76.1654 129.613 76.1111 129.64 76.0515 129.685C76.0084 129.727 75.9638 129.761 75.9176 129.786C75.8878 129.809 75.8581 129.831 75.8283 129.853C75.818 129.889 75.8046 129.909 75.7882 129.912C75.7524 129.901 75.7017 129.902 75.6362 129.914C75.5214 129.935 75.4194 129.98 75.3301 130.047C75.2602 130.128 75.1761 130.177 75.0778 130.195C74.9466 130.219 74.817 130.252 74.6889 130.292C74.5608 130.333 74.4327 130.373 74.3046 130.414C73.9992 130.504 73.7005 130.584 73.4085 130.655C73.1164 130.726 72.8162 130.798 72.5078 130.872C72.3469 130.918 72.1815 130.94 72.0116 130.938C71.858 130.932 71.6962 130.928 71.5263 130.925C71.2714 130.921 71.0891 130.76 70.9796 130.441C70.8761 130.155 70.8345 129.883 70.8548 129.625C70.8574 129.456 70.8496 129.321 70.8315 129.223C70.7651 128.862 70.7166 128.507 70.686 128.157C70.6524 127.79 70.6187 127.423 70.5851 127.057C70.5834 126.955 70.5735 126.856 70.5554 126.757C70.5342 126.643 70.5146 126.536 70.4965 126.438C70.3533 126.396 70.2228 126.378 70.1051 126.383C70.0007 126.368 69.8954 126.303 69.7893 126.187C69.6832 126.071 69.6196 125.955 69.5985 125.84C69.5774 125.726 69.5711 125.6 69.5797 125.463C69.5871 125.41 69.6123 125.363 69.6555 125.322C69.6986 125.28 69.7432 125.246 69.7894 125.221C69.8653 125.173 69.9376 125.151 70.0061 125.155C70.0717 125.143 70.1358 125.123 70.1983 125.094C70.3398 125.034 70.4239 124.985 70.4507 124.946C70.4774 124.907 70.4921 124.803 70.4947 124.633C70.4891 124.143 70.485 123.66 70.4824 123.186C70.4799 122.712 70.4922 122.227 70.5194 121.731C70.5397 121.473 70.4334 121.264 70.2005 121.103C70.1289 121.082 70.0885 121.047 70.0795 120.998C70.0359 120.854 69.9924 120.709 69.9488 120.565C69.9053 120.42 69.8699 120.274 69.8427 120.127C69.8276 120.045 69.8736 119.926 69.9806 119.771C70.0845 119.599 70.1745 119.489 70.2504 119.442C70.429 119.307 70.5441 119.15 70.5959 118.971C70.6447 118.776 70.6643 118.56 70.6548 118.325C70.6604 118.171 70.6579 118.019 70.6471 117.869C70.6497 117.699 70.6523 117.529 70.6549 117.359C70.6708 117.169 70.7213 117.075 70.8063 117.077C70.8882 117.062 70.9941 117.085 71.124 117.145C71.2702 117.203 71.403 117.28 71.5225 117.377C71.6584 117.471 71.7794 117.575 71.8855 117.691C71.9916 117.807 72.0619 117.913 72.0964 118.009C72.1309 118.104 72.1988 118.151 72.3002 118.149C72.3166 118.146 72.3709 118.119 72.4632 118.068C73.0468 117.74 73.6783 117.488 74.3577 117.312C75.0341 117.12 75.7 116.964 76.3557 116.843C76.4049 116.834 76.4786 116.82 76.577 116.802C76.6753 116.784 76.7834 116.773 76.9011 116.768C77.0189 116.763 77.1218 116.77 77.2097 116.787C77.3111 116.786 77.3745 116.808 77.4 116.854C77.4539 116.963 77.5145 117.062 77.5818 117.151C77.6654 117.237 77.7506 117.332 77.8373 117.434C77.7942 117.476 77.7325 117.555 77.6523 117.672L77.9143 117.852C77.819 117.887 77.7497 117.925 77.7066 117.967C77.5414 118.082 77.3552 118.175 77.1482 118.248C76.9545 118.3 76.7624 118.361 76.5717 118.43C76.2098 118.581 75.8561 118.731 75.5106 118.88C75.1784 119.009 74.8314 119.149 74.4695 119.3C74.2357 119.411 74.0019 119.522 73.7682 119.633C73.5477 119.724 73.3191 119.817 73.0823 119.911C73.0331 119.92 72.9937 119.936 72.9639 119.959C72.9311 119.965 72.8953 119.954 72.8565 119.928C72.8177 119.901 72.7804 119.882 72.7446 119.872C72.679 119.884 72.607 119.999 72.5285 120.217C72.4663 120.432 72.4413 120.572 72.4534 120.637C72.5021 121.086 72.5344 121.538 72.5504 121.992C72.5827 122.444 72.615 122.895 72.6473 123.347C72.6551 123.481 72.6613 123.607 72.6661 123.725C72.6678 123.826 72.671 123.936 72.6758 124.054C72.6762 124.24 72.7665 124.316 72.9468 124.283C73.078 124.259 73.2009 124.236 73.3156 124.215C73.4304 124.194 73.5436 124.165 73.6553 124.127C73.7834 124.087 73.9131 124.054 74.0442 124.03C74.1753 124.006 74.3064 123.982 74.4376 123.958C74.6179 123.925 74.8079 123.898 75.0076 123.878C75.2073 123.858 75.4033 123.865 75.5957 123.897C75.8209 123.923 75.991 124.019 76.1062 124.184C76.2377 124.347 76.2919 124.548 76.2686 124.79C76.0883 124.823 75.8983 124.85 75.6985 124.87C75.5152 124.886 75.3267 124.921 75.1331 124.974C74.8052 125.034 74.444 125.143 74.0493 125.3C73.9242 125.357 73.7894 125.408 73.6449 125.451C73.4974 125.478 73.3596 125.512 73.2315 125.553C72.9558 125.62 72.8355 125.795 72.8704 126.077C72.8799 126.312 72.8976 126.546 72.9234 126.779C72.9463 126.995 72.9624 127.221 72.9719 127.456C72.984 127.522 72.9827 127.607 72.968 127.711C72.9357 127.903 72.9361 128.09 72.9693 128.27C72.9995 128.434 73.023 128.608 73.0398 128.791ZM77.8257 128.138C77.7929 128.144 77.7699 128.157 77.7565 128.177C77.7893 128.171 77.8124 128.158 77.8257 128.138ZM86.7652 124.738C86.6854 125.041 86.6055 125.344 86.5257 125.647C86.4593 125.93 86.3862 126.223 86.3063 126.526C86.29 126.529 86.3206 126.557 86.3982 126.611C86.4586 126.294 86.5205 125.986 86.584 125.687C86.6444 125.37 86.7048 125.054 86.7652 124.738ZM86.1245 126.229C86.1914 126.132 86.2663 125.94 86.3491 125.654C86.4289 125.351 86.5072 125.04 86.584 124.721C86.6742 124.382 86.7428 124.064 86.7898 123.768C86.8368 123.471 86.8595 123.272 86.8578 123.17C86.7158 123.688 86.5903 124.203 86.4811 124.714C86.369 125.209 86.2501 125.714 86.1245 126.229ZM86.8118 124.577C86.8786 124.48 86.9112 124.381 86.9095 124.279C86.9241 124.175 86.9373 124.062 86.949 123.942L86.8707 123.931L86.8118 124.577ZM87.4548 127.102L87.4742 126.794L87.4004 126.807L87.4548 127.102ZM87.86 122.401C87.8423 122.489 87.8165 122.579 87.7824 122.67C87.7647 122.758 87.747 122.846 87.7293 122.934C87.6806 123.129 87.6482 123.321 87.6322 123.511C87.6132 123.684 87.5794 123.868 87.5306 124.063C87.3904 124.682 87.2502 125.301 87.11 125.92C86.9831 126.52 86.8578 127.128 86.7339 127.743C86.7236 127.779 86.7214 127.814 86.7275 127.846C86.7365 127.896 86.7389 127.954 86.7346 128.023C86.8446 127.884 86.9203 127.743 86.9617 127.6C87.0061 127.473 87.0409 127.34 87.0659 127.199C87.1897 126.583 87.3135 125.967 87.4374 125.352C87.5582 124.719 87.679 124.087 87.7998 123.455C87.8352 123.279 87.8542 123.106 87.8568 122.936C87.8594 122.766 87.8605 122.588 87.86 122.401ZM87.1127 122.208C87.0933 122.195 87.0754 122.19 87.059 122.193C87.059 122.193 87.0493 122.186 87.0299 122.173C87.0122 122.261 86.9946 122.349 86.9769 122.437C86.9562 122.508 86.937 122.588 86.9193 122.676C86.9357 122.673 86.9454 122.68 86.9484 122.696C86.9648 122.693 86.9812 122.69 86.9976 122.687C87.0152 122.599 87.0344 122.519 87.0552 122.448C87.0759 122.376 87.0951 122.296 87.1127 122.208ZM87.8756 122.347C87.9912 122.055 88.0203 121.753 87.963 121.442C87.8473 121.734 87.8182 122.036 87.8756 122.347ZM82.3936 119.773C82.3776 119.962 82.3617 120.151 82.3457 120.341C82.3461 120.527 82.2928 120.698 82.1859 120.853C82.1725 120.873 82.1718 120.915 82.1839 120.981C82.3228 121.091 82.3603 121.202 82.2965 121.316C82.246 121.41 82.1873 121.505 82.1205 121.602C82.2326 121.751 82.2367 121.912 82.1327 122.083C82.106 122.122 82.0905 122.176 82.0861 122.244C82.0982 122.31 82.1103 122.375 82.1224 122.441C82.1375 122.523 82.151 122.597 82.1631 122.662C82.1916 122.725 82.1694 122.788 82.0965 122.852C82.0801 122.856 82.0742 122.916 82.079 123.034C82.0837 123.151 82.09 123.277 82.0977 123.412C82.1055 123.546 82.1117 123.672 82.1165 123.789C82.1376 123.904 82.1512 123.978 82.1572 124.011C82.1602 124.027 82.1551 124.045 82.1417 124.064C82.1417 124.064 82.1432 124.073 82.1462 124.089C82.1583 124.154 82.1525 124.215 82.1287 124.27C82.1214 124.322 82.0977 124.377 82.0575 124.436C82.0338 124.491 82.0198 124.553 82.0155 124.621C82.0112 124.69 82.0329 124.762 82.0808 124.838C82.1317 124.93 82.1446 125.047 82.1196 125.187C82.108 125.308 82.0978 125.437 82.0892 125.574C82.0806 125.711 82.0801 125.847 82.0879 125.981C82.112 126.112 82.1198 126.246 82.1111 126.383C82.1025 126.52 82.079 126.669 82.0406 126.828C82.0156 126.969 82.0003 127.115 81.9946 127.269C81.964 127.563 81.9543 127.878 81.9655 128.215C81.99 128.532 82.0116 128.833 82.0301 129.118C82.0167 129.138 82.0161 129.18 82.0282 129.246C82.1282 129.329 82.1679 129.406 82.1472 129.478C82.1265 129.549 82.0976 129.623 82.0605 129.697C81.9596 129.885 81.8353 129.993 81.6878 130.02C81.5731 130.041 81.4687 130.026 81.3747 129.976C81.3164 129.936 81.2791 129.917 81.2627 129.92C81.0242 129.913 80.875 129.839 80.815 129.698C80.7551 129.556 80.7249 129.392 80.7245 129.206C80.7115 128.768 80.6837 128.341 80.6411 127.925C80.5984 127.509 80.5803 127.089 80.5868 126.664C80.589 125.664 80.6091 124.669 80.6471 123.679C80.6851 122.689 80.7313 121.697 80.7857 120.704C80.7913 120.551 80.8149 120.402 80.8563 120.259C80.8947 120.1 80.9182 119.951 80.9268 119.814C80.9445 119.726 80.9473 119.649 80.9353 119.584C80.9202 119.502 80.923 119.425 80.9437 119.353C81.0705 118.754 81.1728 118.159 81.2505 117.568C81.3251 116.961 81.4162 116.352 81.5236 115.739C81.5486 115.598 81.5915 115.463 81.6524 115.334C81.7266 115.184 81.8456 115.095 82.0095 115.064C82.0915 115.049 82.2302 115.066 82.4256 115.115C82.6343 115.144 82.7827 115.168 82.8707 115.185C82.9587 115.203 83.0333 115.24 83.0946 115.297C83.1692 115.334 83.2089 115.411 83.2136 115.529C83.2317 115.627 83.2699 115.697 83.3281 115.737C83.5222 115.87 83.6455 116.034 83.6982 116.228C83.7672 116.419 83.8213 116.62 83.8605 116.833C83.8756 116.915 83.884 117.007 83.8857 117.108C83.9039 117.207 83.9368 117.294 83.9847 117.37C84.0326 117.446 84.0859 117.597 84.1445 117.823C84.2032 118.05 84.2566 118.294 84.3049 118.556C84.3696 118.816 84.4246 119.068 84.4699 119.314C84.5315 119.557 84.5714 119.728 84.5895 119.826L84.9155 121.596C84.9578 121.826 85.0164 122.052 85.0915 122.276C85.1665 122.499 85.1924 122.731 85.1691 122.973C85.1544 123.077 85.174 123.184 85.228 123.293C85.2952 123.382 85.3461 123.474 85.3806 123.57C85.4212 123.698 85.4535 123.827 85.4777 123.958C85.5182 124.087 85.5423 124.218 85.5501 124.352C85.5518 124.453 85.5766 124.542 85.6245 124.618C85.6724 124.694 85.7397 124.783 85.8263 124.886C85.8842 124.739 85.9353 124.603 85.9797 124.476C86.0241 124.349 86.0686 124.222 86.113 124.096C86.1648 123.917 86.2017 123.749 86.2237 123.592C86.297 123.07 86.3898 122.562 86.502 122.067C86.6305 121.568 86.7054 121.055 86.7266 120.525C86.7482 120.183 86.781 119.855 86.825 119.541C86.866 119.212 86.8988 118.884 86.9234 118.557C86.938 118.453 86.9281 118.353 86.8936 118.258C86.8755 118.159 86.8738 118.058 86.8885 117.954C86.9101 117.611 86.925 117.277 86.9332 116.954C86.9384 116.614 86.9436 116.274 86.9487 115.934C86.9496 115.663 86.9423 115.393 86.9268 115.125C86.9277 114.854 86.9285 114.582 86.9294 114.311C86.929 114.125 86.9422 114.012 86.9689 113.973C86.9957 113.934 87.0798 113.885 87.2213 113.825C87.2437 113.855 87.2579 113.886 87.264 113.919C87.27 113.952 87.2857 113.991 87.3112 114.037C87.3707 113.992 87.4332 113.964 87.4988 113.952C87.5614 113.923 87.6306 113.885 87.7065 113.837C87.735 113.9 87.7537 113.956 87.7628 114.005C87.7882 114.051 87.8152 114.105 87.8437 114.168C87.9062 114.14 87.9657 114.095 88.0222 114.033C88.0283 114.066 88.0328 114.091 88.0358 114.107C88.0552 114.121 88.0664 114.135 88.0695 114.152C88.0716 114.44 88.0722 114.719 88.0714 114.99C88.0705 115.262 88.0793 115.54 88.0978 115.824C88.0983 116.011 88.1248 116.201 88.1774 116.394C88.23 116.588 88.2483 116.78 88.2324 116.969C88.206 117.194 88.2304 117.418 88.3054 117.642C88.3938 117.846 88.3809 118.052 88.2666 118.259C88.2532 118.278 88.251 118.313 88.2601 118.362C88.3442 118.635 88.3612 118.911 88.3112 119.191C88.2581 119.455 88.2393 119.722 88.2548 119.99L88.2639 120.039C88.2566 120.091 88.2589 120.15 88.271 120.216C88.2964 120.262 88.3219 120.308 88.3473 120.354C88.3728 120.4 88.3915 120.456 88.4036 120.522C88.4127 120.571 88.389 120.626 88.3324 120.687C88.2358 120.807 88.2063 120.922 88.2438 121.034C88.2947 121.126 88.3307 121.23 88.3518 121.345C88.3639 121.41 88.376 121.476 88.388 121.541C88.4001 121.607 88.3488 121.65 88.234 121.671C88.2224 121.792 88.2107 121.913 88.1991 122.034C88.2008 122.135 88.1958 122.246 88.1842 122.367L88.1408 122.96C88.1141 122.998 88.0955 123.036 88.0852 123.072C88.0718 123.091 88.0599 123.119 88.0496 123.154C87.943 123.496 87.8789 123.838 87.8573 124.181C87.8522 124.521 87.8224 124.865 87.768 125.214C87.7533 125.319 87.7305 125.425 87.6994 125.532C87.6817 125.62 87.6655 125.716 87.6509 125.821L87.6463 125.796C87.6256 125.868 87.6116 125.93 87.6043 125.982C87.5969 126.034 87.5844 126.104 87.5667 126.192L87.7052 126.116C87.7056 126.302 87.6866 126.475 87.6482 126.635C87.6262 126.791 87.5617 126.947 87.4548 127.102C87.4535 127.187 87.4588 127.263 87.4709 127.328C87.48 127.377 87.4757 127.446 87.458 127.534C87.4403 127.622 87.4062 127.713 87.3557 127.807C87.3216 127.898 87.2973 127.996 87.2826 128.1C87.2429 128.345 87.1092 128.539 86.8814 128.682C86.6537 128.826 86.425 128.919 86.1956 128.961C86.0972 128.979 85.9488 128.956 85.7504 128.891C85.555 128.842 85.3551 128.768 85.1507 128.671C84.9462 128.573 84.7633 128.454 84.602 128.314C84.4437 128.191 84.3443 128.065 84.3038 127.937C84.2227 127.681 84.1252 127.427 84.0114 127.177C83.9139 126.924 83.8246 126.669 83.7435 126.413C83.6474 126.075 83.5594 125.735 83.4796 125.394C83.3998 125.053 83.3201 124.712 83.2403 124.37C83.1152 123.783 83.0096 123.21 82.9233 122.649C82.8686 122.168 82.8071 121.696 82.739 121.234C82.6873 120.769 82.6356 120.304 82.5838 119.839L82.525 119.52C82.4387 119.603 82.3889 119.655 82.3755 119.674C82.3367 119.648 82.3091 119.636 82.2927 119.639C82.2452 119.749 82.2789 119.794 82.3936 119.773ZM81.8014 123.873C81.788 123.892 81.7813 123.902 81.7813 123.902C81.7947 123.883 81.8014 123.873 81.8014 123.873ZM92.8209 121.691C92.8239 121.707 92.8269 121.724 92.8299 121.74C92.8463 121.737 92.856 121.744 92.859 121.76C92.9708 121.723 93.0825 121.685 93.1942 121.648C93.3059 121.61 93.4176 121.573 93.5294 121.535L93.5158 121.461C93.3877 121.502 93.2677 121.541 93.156 121.578C93.0607 121.613 92.949 121.65 92.8209 121.691ZM93.1367 120.921C93.1561 120.934 93.1688 120.958 93.1748 120.99C93.2046 120.968 93.2359 120.954 93.2686 120.948C93.3178 120.939 93.3558 120.915 93.3825 120.876L93.1367 120.921ZM94.4776 125.58L94.4731 125.556C94.4537 125.542 94.444 125.536 94.444 125.536C94.3457 125.554 94.2734 125.576 94.2273 125.601L94.2363 125.65C94.2989 125.622 94.3793 125.598 94.4776 125.58ZM97.1136 124.434C96.4239 124.646 95.7439 124.864 95.0736 125.089C94.4002 125.298 93.7187 125.508 93.029 125.72C93.0812 125.727 93.1334 125.735 93.1856 125.742C93.2541 125.746 93.3197 125.734 93.3823 125.706L93.5052 125.683C93.6363 125.659 93.8792 125.597 94.2337 125.498C94.6047 125.396 94.9905 125.282 95.3912 125.158C95.7889 125.017 96.1539 124.882 96.486 124.753C96.8181 124.624 97.0273 124.518 97.1136 124.434ZM95.145 121.06C95.1225 121.03 95.1113 121.015 95.1113 121.015C94.9176 121.068 94.724 121.12 94.5303 121.173C94.3336 121.209 94.1302 121.255 93.9202 121.311L93.9337 121.384C94.1438 121.329 94.3457 121.275 94.5393 121.222C94.733 121.169 94.9349 121.115 95.145 121.06ZM95.7355 125.094L95.4741 125.193C95.4771 125.21 95.4801 125.226 95.4831 125.243C95.4995 125.24 95.5092 125.246 95.5122 125.263C95.539 125.224 95.5769 125.2 95.6261 125.191C95.6723 125.165 95.7087 125.133 95.7355 125.094ZM92.9707 126.646L93.2166 126.601C94.2164 126.416 95.1818 126.137 96.1126 125.762C97.0569 125.368 98.0168 125.013 98.9925 124.698C98.9701 124.668 98.9544 124.629 98.9453 124.58C97.9428 124.934 96.9486 125.286 95.9625 125.637C94.9735 125.972 93.9762 126.308 92.9707 126.646ZM95.7846 125.085L96.0305 125.04L96.026 125.016C95.9768 125.025 95.9291 125.042 95.883 125.067C95.8502 125.073 95.8174 125.079 95.7846 125.085ZM97.1136 124.434C97.1986 124.435 97.2836 124.437 97.3685 124.438C97.4669 124.42 97.557 124.403 97.639 124.388L97.6209 124.29C97.5419 124.321 97.4533 124.346 97.355 124.364C97.273 124.379 97.1926 124.402 97.1136 124.434ZM98.4568 124.136L98.4432 124.062C98.3807 124.09 98.2921 124.115 98.1773 124.136L98.1864 124.186L98.4568 124.136ZM92.6562 115.137L92.6472 115.088C92.5846 115.117 92.5072 115.156 92.4149 115.207L92.4285 115.281C92.4582 115.259 92.4962 115.235 92.5424 115.209C92.5885 115.184 92.6265 115.16 92.6562 115.137ZM92.1956 115.121C92.7809 114.894 93.3514 114.679 93.9069 114.475C94.4595 114.255 95.0136 114.042 95.5691 113.838L95.4216 113.866C95.2249 113.902 94.9672 113.975 94.6484 114.084C94.3266 114.177 93.9997 114.288 93.6676 114.417C93.3518 114.543 93.054 114.674 92.774 114.811C92.5074 114.928 92.3146 115.031 92.1956 115.121ZM92.3676 116.055C93.1734 115.737 93.9709 115.421 94.7603 115.106C95.5661 114.788 96.3718 114.47 97.1776 114.152L97.0792 114.17C96.9809 114.189 96.7954 114.24 96.5228 114.324C96.2666 114.405 95.9642 114.511 95.6157 114.643C95.2641 114.759 94.8977 114.886 94.5164 115.024C94.1351 115.162 93.7881 115.302 93.4753 115.444C93.1596 115.57 92.8945 115.695 92.6801 115.819C92.4791 115.924 92.375 116.003 92.3676 116.055ZM92.9203 125.13C93.0083 125.148 93.1179 125.144 93.249 125.12C93.331 125.105 93.4129 125.09 93.4949 125.075C93.5738 125.043 93.6527 125.012 93.7317 124.98C94.0043 124.896 94.2687 124.814 94.5249 124.733C94.7811 124.652 95.0456 124.569 95.3182 124.485C95.6236 124.395 95.9223 124.314 96.2143 124.244C96.5033 124.157 96.7923 124.069 97.0813 123.982C97.2392 123.919 97.4001 123.873 97.564 123.843C97.7279 123.812 97.8918 123.782 98.0557 123.752L98.7195 123.63C98.9326 123.591 99.117 123.718 99.2727 124.011C99.2982 124.057 99.3236 124.103 99.3491 124.149C99.3715 124.179 99.3939 124.209 99.4163 124.239C99.4388 124.268 99.4612 124.298 99.4836 124.328C99.506 124.358 99.5285 124.387 99.5509 124.417C99.5272 124.472 99.4856 124.522 99.426 124.567C99.3635 124.596 99.3807 124.643 99.4778 124.71C99.451 124.749 99.4325 124.786 99.4221 124.822C99.4118 124.858 99.3902 124.879 99.3574 124.885C99.3083 124.894 99.2524 124.913 99.1898 124.941C99.1407 124.95 99.0833 124.961 99.0177 124.973C98.9522 124.985 98.8948 124.996 98.8456 125.005C98.7934 124.997 98.7346 125 98.669 125.012C98.4395 125.054 98.2191 125.145 98.0077 125.286C97.8887 125.376 97.7487 125.444 97.5878 125.49C97.4433 125.534 97.2921 125.587 97.1343 125.65C96.96 125.716 96.7827 125.766 96.6024 125.799C96.4415 125.846 96.2724 125.894 96.0951 125.943C96.046 125.952 95.9916 125.979 95.9321 126.024C95.889 126.066 95.8443 126.1 95.7982 126.125C95.7684 126.148 95.7386 126.17 95.7089 126.192C95.6985 126.228 95.6851 126.248 95.6688 126.251C95.633 126.24 95.5823 126.241 95.5167 126.253C95.402 126.274 95.3 126.319 95.2107 126.386C95.1408 126.466 95.0567 126.516 94.9583 126.534C94.8272 126.558 94.6976 126.59 94.5695 126.631C94.4414 126.672 94.3132 126.712 94.1851 126.753C93.8797 126.843 93.581 126.923 93.289 126.994C92.997 127.065 92.6968 127.137 92.3884 127.211C92.2275 127.257 92.0621 127.279 91.8921 127.277C91.7386 127.271 91.5768 127.267 91.4069 127.264C91.1519 127.26 90.9697 127.099 90.8602 126.78C90.7567 126.494 90.715 126.222 90.7353 125.964C90.7379 125.794 90.7302 125.66 90.7121 125.562C90.6457 125.201 90.5971 124.846 90.5665 124.496C90.5329 124.129 90.4993 123.762 90.4657 123.396C90.4639 123.294 90.454 123.195 90.4359 123.096C90.4148 122.981 90.3952 122.875 90.3771 122.777C90.2339 122.735 90.1034 122.717 89.9856 122.722C89.8812 122.707 89.776 122.642 89.6699 122.525C89.5638 122.409 89.5002 122.294 89.479 122.179C89.4579 122.065 89.4517 121.939 89.4603 121.801C89.4676 121.749 89.4929 121.702 89.536 121.66C89.5791 121.619 89.6238 121.585 89.6699 121.559C89.7459 121.512 89.8181 121.49 89.8867 121.494C89.9523 121.482 90.0163 121.462 90.0789 121.433C90.2203 121.373 90.3045 121.324 90.3312 121.285C90.3579 121.246 90.3726 121.142 90.3752 120.972C90.3696 120.482 90.3656 119.999 90.363 119.525C90.3604 119.051 90.3728 118.566 90.4 118.07C90.4202 117.812 90.3139 117.602 90.081 117.442C90.0094 117.421 89.9691 117.386 89.96 117.337C89.9165 117.193 89.8729 117.048 89.8294 116.904C89.7858 116.759 89.7504 116.613 89.7233 116.466C89.7082 116.384 89.7541 116.265 89.8611 116.11C89.9651 115.938 90.055 115.828 90.1309 115.78C90.3095 115.646 90.4247 115.489 90.4765 115.31C90.5252 115.115 90.5448 114.899 90.5354 114.664C90.541 114.51 90.5384 114.358 90.5276 114.208C90.5302 114.038 90.5328 113.868 90.5354 113.698C90.5514 113.508 90.6019 113.414 90.6868 113.416C90.7688 113.401 90.8747 113.423 91.0045 113.484C91.1507 113.542 91.2836 113.619 91.4031 113.716C91.5389 113.81 91.6599 113.914 91.766 114.03C91.8721 114.146 91.9424 114.252 91.9769 114.347C92.0114 114.443 92.0794 114.49 92.1807 114.488C92.1971 114.485 92.2515 114.458 92.3438 114.407C92.9274 114.079 93.5589 113.827 94.2383 113.651C94.9146 113.459 95.5806 113.302 96.2362 113.182C96.2854 113.173 96.3592 113.159 96.4575 113.141C96.5559 113.123 96.6639 113.111 96.7817 113.107C96.8994 113.102 97.0023 113.108 97.0903 113.126C97.1917 113.124 97.2551 113.147 97.2805 113.193C97.3344 113.301 97.395 113.4 97.4623 113.49C97.546 113.576 97.6312 113.671 97.7179 113.773C97.6747 113.815 97.613 113.894 97.5328 114.011L97.7948 114.191C97.6995 114.226 97.6303 114.264 97.5871 114.306C97.4219 114.421 97.2358 114.514 97.0288 114.586C96.8351 114.639 96.6429 114.7 96.4523 114.769C96.0904 114.92 95.7366 115.07 95.3911 115.218C95.059 115.347 94.712 115.488 94.3501 115.639C94.1163 115.75 93.8825 115.861 93.6487 115.971C93.4283 116.063 93.1997 116.156 92.9629 116.25C92.9137 116.259 92.8742 116.275 92.8445 116.298C92.8117 116.304 92.7759 116.293 92.7371 116.266C92.6982 116.24 92.6609 116.221 92.6251 116.211C92.5596 116.223 92.4875 116.338 92.409 116.556C92.3469 116.77 92.3219 116.911 92.3339 116.976C92.3826 117.425 92.415 117.876 92.4309 118.331C92.4632 118.783 92.4956 119.234 92.5279 119.686C92.5356 119.82 92.5419 119.946 92.5466 120.064C92.5483 120.165 92.5516 120.275 92.5563 120.392C92.5567 120.579 92.6471 120.655 92.8274 120.622C92.9585 120.598 93.0815 120.575 93.1962 120.554C93.3109 120.533 93.4242 120.504 93.5359 120.466C93.664 120.426 93.7936 120.393 93.9247 120.369C94.0559 120.345 94.187 120.321 94.3181 120.297C94.4984 120.264 94.6884 120.237 94.8881 120.217C95.0879 120.197 95.2839 120.204 95.4763 120.236C95.7014 120.262 95.8716 120.358 95.9867 120.523C96.1183 120.686 96.1724 120.887 96.1491 121.129C95.9688 121.162 95.7788 121.189 95.5791 121.208C95.3958 121.225 95.2073 121.26 95.0136 121.313C94.6858 121.373 94.3245 121.482 93.9298 121.639C93.8048 121.696 93.67 121.746 93.5255 121.79C93.3779 121.817 93.2401 121.851 93.112 121.892C92.8364 121.959 92.716 122.134 92.751 122.416C92.7604 122.651 92.7781 122.885 92.804 123.118C92.8268 123.334 92.843 123.56 92.8525 123.795C92.8645 123.861 92.8632 123.946 92.8486 124.05C92.8162 124.242 92.8166 124.429 92.8498 124.609C92.88 124.773 92.9035 124.947 92.9203 125.13ZM97.7063 124.477C97.6735 124.483 97.6504 124.496 97.637 124.515C97.6698 124.509 97.6929 124.497 97.7063 124.477ZM105.658 120.268L105.595 120.203C105.535 120.248 105.486 120.299 105.446 120.358C105.402 120.399 105.39 120.469 105.408 120.568C105.521 120.445 105.604 120.345 105.658 120.268ZM100.343 115.425C100.323 115.412 100.314 115.405 100.314 115.405C100.311 115.389 100.3 115.374 100.28 115.36C100.227 115.438 100.178 115.498 100.135 115.54L100.193 115.58L100.343 115.425ZM100.78 114.76C100.75 114.782 100.728 114.803 100.715 114.823C100.702 114.842 100.68 114.863 100.65 114.885C100.656 114.918 100.676 114.932 100.708 114.926C100.719 114.89 100.731 114.862 100.744 114.843C100.757 114.823 100.769 114.796 100.78 114.76ZM100.824 114.726C100.949 114.669 101.027 114.587 101.059 114.48C100.969 114.547 100.891 114.629 100.824 114.726ZM101.142 114.795L101.084 114.755L101.024 114.842C101.04 114.839 101.05 114.846 101.053 114.862C101.053 114.862 101.061 114.861 101.077 114.858C101.094 114.855 101.115 114.834 101.142 114.795ZM102.033 115.495C102.033 115.495 102.011 115.465 101.966 115.406L101.685 115.813C101.705 115.827 101.716 115.842 101.719 115.858C101.719 115.858 101.729 115.865 101.748 115.878C101.802 115.8 101.848 115.732 101.889 115.674C101.945 115.613 101.993 115.553 102.033 115.495ZM103.538 113.311L103.451 113.251C103.308 113.396 103.163 113.533 103.018 113.661C102.888 113.787 102.762 113.929 102.639 114.087C102.239 114.585 101.829 115.075 101.41 115.559C101.004 116.024 100.601 116.505 100.201 117.002C100.204 117.018 100.215 117.033 100.235 117.046C100.767 116.44 101.309 115.84 101.861 115.247C102.409 114.638 102.951 114.038 103.487 113.448C103.503 113.445 103.52 113.399 103.538 113.311ZM102.344 113.455C102.344 113.455 102.325 113.442 102.286 113.415C102.256 113.437 102.198 113.49 102.112 113.574L102.116 113.599C102.122 113.631 102.12 113.666 102.11 113.702C102.226 113.595 102.304 113.513 102.344 113.455ZM101.094 114.397C101.34 114.165 101.575 113.927 101.801 113.682C102.027 113.437 102.262 113.191 102.504 112.943C102.547 112.901 102.592 112.867 102.638 112.842C102.697 112.797 102.749 112.753 102.792 112.712C103.09 112.487 103.368 112.25 103.627 111.999C103.882 111.731 104.158 111.477 104.452 111.237C104.598 111.108 104.745 110.988 104.894 110.876C105.056 110.744 105.22 110.621 105.385 110.506C105.336 110.515 105.294 110.514 105.258 110.504C105.241 110.507 105.151 110.566 104.985 110.681C104.837 110.793 104.665 110.918 104.47 111.055C104.291 111.19 104.121 111.323 103.959 111.455C103.813 111.583 103.718 111.668 103.675 111.71C102.747 112.559 101.887 113.455 101.094 114.397ZM103.116 112.677C103.173 112.616 103.222 112.565 103.266 112.523C103.322 112.462 103.372 112.41 103.415 112.368C103.458 112.326 103.503 112.293 103.549 112.267C103.608 112.222 103.646 112.148 103.66 112.043C103.55 112.182 103.457 112.276 103.381 112.323C103.365 112.327 103.329 112.359 103.272 112.42C103.229 112.462 103.171 112.515 103.098 112.579C103.041 112.64 102.985 112.702 102.928 112.763C102.872 112.824 102.844 112.855 102.844 112.855C102.863 112.868 102.874 112.883 102.877 112.899C102.92 112.857 102.965 112.824 103.011 112.798C103.054 112.757 103.089 112.716 103.116 112.677ZM104.448 111.491C104.442 111.459 104.43 111.436 104.41 111.422C104.351 111.467 104.293 111.52 104.236 111.581C104.177 111.626 104.117 111.671 104.058 111.716C104.061 111.732 104.064 111.749 104.067 111.765C104.083 111.762 104.093 111.769 104.096 111.785C104.155 111.74 104.215 111.696 104.274 111.651C104.331 111.589 104.389 111.536 104.448 111.491ZM105.977 111.235C105.806 111.318 105.623 111.428 105.428 111.565C105.233 111.703 105.048 111.847 104.872 111.998C104.71 112.13 104.564 112.258 104.435 112.384C104.322 112.506 104.248 112.613 104.214 112.704C104.244 112.682 104.275 112.667 104.308 112.661C104.341 112.655 104.372 112.641 104.402 112.619C104.656 112.436 104.899 112.239 105.132 112.027C105.38 111.811 105.63 111.604 105.881 111.406C105.911 111.383 105.925 111.364 105.922 111.347C105.932 111.311 105.95 111.274 105.977 111.235ZM105.034 118.4C105.098 118.473 105.155 118.504 105.204 118.495C105.253 118.486 105.305 118.443 105.358 118.365C106.121 117.259 106.798 116.151 107.39 115.042C107.999 113.93 108.41 112.711 108.623 111.384C108.648 111.243 108.663 111.097 108.669 110.943C108.688 110.77 108.664 110.596 108.598 110.422C108.178 110.533 107.792 110.689 107.439 110.89C107.086 111.09 106.738 111.316 106.394 111.565C106.123 111.751 105.857 111.961 105.595 112.195C105.346 112.411 105.088 112.619 104.82 112.821C104.704 112.927 104.681 113.033 104.752 113.139C104.867 113.304 104.931 113.47 104.945 113.637C104.975 113.801 104.991 113.976 104.991 114.162C105.004 114.414 105.008 114.668 105.004 114.923C105.013 115.158 105.023 115.394 105.032 115.629C105.024 115.766 105.015 115.903 105.006 116.041C105.014 116.175 104.932 116.283 104.761 116.365C104.954 116.398 105.05 116.507 105.05 116.693C105.069 116.978 105.071 117.266 105.057 117.557C105.056 117.828 105.048 118.109 105.034 118.4ZM106.002 111.231C106.248 111.186 106.434 111.049 106.562 110.823C106.456 110.893 106.359 110.962 106.27 111.029C106.177 111.08 106.088 111.147 106.002 111.231ZM102.341 115.235C102.231 115.374 102.13 115.511 102.036 115.647C101.956 115.764 101.859 115.883 101.746 116.006C101.69 116.067 101.633 116.128 101.577 116.189C101.52 116.251 101.457 116.321 101.387 116.402C101.381 116.369 101.375 116.337 101.369 116.304C101.379 116.268 101.381 116.234 101.375 116.201C101.253 116.274 101.187 116.329 101.177 116.365C101.163 116.384 101.159 116.453 101.164 116.57C101.166 116.672 101.075 116.824 100.892 117.027C100.726 117.227 100.606 117.359 100.533 117.424L100.587 117.719C100.571 117.722 100.555 117.725 100.538 117.728C100.519 117.714 100.501 117.709 100.484 117.712C100.414 117.607 100.317 117.54 100.193 117.512C100.086 117.481 100.004 117.403 99.9468 117.277L99.8931 117.262L99.8439 117.271C99.6904 117.265 99.5957 117.257 99.5599 117.247C99.5375 117.217 99.506 117.138 99.4654 117.01C99.4279 116.898 99.4001 116.793 99.382 116.695C99.3609 116.58 99.4083 116.47 99.5243 116.364C99.3993 116.421 99.3069 116.472 99.2474 116.517C99.1159 116.354 99.0456 116.249 99.0365 116.199C99.0244 116.134 99.0652 116.033 99.1588 115.897C99.9211 114.791 100.768 113.728 101.698 112.71C102.626 111.674 103.668 110.796 104.823 110.075C105.156 109.861 105.483 109.657 105.803 109.463C106.137 109.249 106.497 109.089 106.884 108.984C106.95 108.972 107.007 108.961 107.057 108.952C107.103 108.927 107.159 108.908 107.224 108.896C107.454 108.854 107.682 108.854 107.911 108.897C108.152 108.92 108.381 109.013 108.598 109.177C108.931 109.42 109.235 109.695 109.512 110C109.802 110.285 109.989 110.658 110.073 111.117C110.152 111.543 110.151 112 110.072 112.489C110.025 112.786 109.959 113.07 109.873 113.34C109.784 113.593 109.714 113.86 109.664 114.141C109.617 114.437 109.533 114.716 109.411 114.975C109.287 115.219 109.172 115.468 109.066 115.725C109.009 115.871 108.933 116.012 108.839 116.148C108.762 116.281 108.695 116.421 108.637 116.567C108.555 116.582 108.512 116.581 108.509 116.565C108.472 116.64 108.435 116.714 108.398 116.789C108.374 116.844 108.352 116.907 108.331 116.979C108.258 117.043 108.195 117.114 108.142 117.192C108.085 117.253 108.05 117.336 108.035 117.44C108.025 117.476 108.006 117.513 107.979 117.552C107.969 117.588 107.95 117.625 107.924 117.664C107.866 117.81 107.789 117.943 107.692 118.063C107.595 118.182 107.5 118.31 107.407 118.446L107.226 118.708C107.229 118.724 107.217 118.752 107.191 118.791C107.118 118.855 107.037 118.921 106.947 118.988C106.874 119.052 106.834 119.153 106.825 119.29C106.812 119.309 106.789 119.322 106.756 119.328C106.656 119.431 106.565 119.533 106.481 119.633C106.398 119.733 106.316 119.841 106.236 119.958C106.095 120.018 106.026 120.106 106.031 120.224C106.033 120.326 106.028 120.437 106.016 120.557C106.13 120.621 106.244 120.643 106.358 120.622C106.473 120.6 106.583 120.597 106.687 120.612C107.046 120.63 107.398 120.65 107.74 120.672C108.083 120.694 108.419 120.767 108.747 120.893C109.001 120.982 109.27 121.153 109.553 121.406C109.851 121.639 110.025 121.895 110.076 122.174C109.83 122.219 109.643 122.169 109.515 122.023C109.341 121.818 109.127 121.713 108.872 121.709C108.634 121.702 108.403 121.694 108.181 121.684C107.956 121.658 107.726 121.649 107.49 121.659C107.156 121.686 106.816 121.724 106.468 121.771C106.118 121.801 105.768 121.832 105.418 121.862L105.221 121.899C105.226 122.66 105.229 123.414 105.231 124.159C105.235 124.921 105.24 125.683 105.245 126.445C105.085 126.592 104.955 126.667 104.854 126.669C104.723 126.693 104.61 126.68 104.516 126.63C104.445 126.609 104.399 126.592 104.38 126.578C104.229 126.403 104.071 126.237 103.907 126.081C103.742 125.925 103.651 125.704 103.632 125.42C103.576 124.837 103.51 124.247 103.434 123.651C103.374 123.052 103.316 122.461 103.26 121.879C103.247 121.627 103.245 121.381 103.252 121.143C103.255 120.888 103.253 120.643 103.243 120.407C103.244 119.95 103.236 119.493 103.22 119.039C103.22 118.581 103.231 118.13 103.25 117.686C103.263 117.294 103.285 116.908 103.317 116.53C103.346 116.135 103.367 115.741 103.379 115.349C103.385 115.195 103.392 115.05 103.401 114.913C103.406 114.759 103.412 114.606 103.418 114.452C103.428 114.416 103.412 114.377 103.37 114.334C103.345 114.288 103.319 114.241 103.294 114.195C103.321 114.156 103.358 114.082 103.405 113.971C103.2 114.145 102.998 114.335 102.798 114.541C102.596 114.731 102.415 114.942 102.254 115.175C102.254 115.175 102.283 115.195 102.341 115.235ZM106.063 119.71C106.047 119.713 106.039 119.714 106.039 119.714C106.036 119.698 106.026 119.691 106.01 119.694C105.996 119.714 105.991 119.732 105.994 119.748L106.023 119.768C106.023 119.768 106.037 119.749 106.063 119.71ZM101.497 114.374C101.51 114.354 101.517 114.345 101.517 114.345C101.514 114.328 101.519 114.31 101.532 114.291L101.483 114.3C101.483 114.3 101.47 114.319 101.443 114.358C101.459 114.355 101.469 114.362 101.472 114.378C101.472 114.378 101.48 114.377 101.497 114.374ZM112.049 119.675C112.011 119.191 112 118.718 112.017 118.258C112.047 117.778 112.087 117.304 112.137 116.837C112.167 116.544 112.216 116.255 112.282 115.972C112.349 115.688 112.407 115.406 112.457 115.126C112.578 114.494 112.723 113.857 112.893 113.216C113.06 112.558 113.286 111.94 113.569 111.363C113.667 111.158 113.745 110.94 113.805 110.709C113.877 110.458 113.962 110.231 114.06 110.026C114.158 109.822 114.264 109.616 114.378 109.409C114.509 109.198 114.64 108.988 114.771 108.777C114.888 108.586 115.07 108.468 115.315 108.423C115.61 108.368 115.928 108.437 116.268 108.628C116.625 108.817 116.966 109.059 117.292 109.355C117.618 109.651 117.914 109.969 118.18 110.31C118.446 110.651 118.654 110.952 118.803 111.212C118.851 111.288 118.87 111.344 118.86 111.38C118.866 111.412 118.856 111.499 118.831 111.639C118.694 111.63 118.585 111.591 118.504 111.521C118.437 111.432 118.36 111.336 118.273 111.233L117.392 110.175C117.35 110.132 117.3 110.091 117.242 110.051C117.2 110.007 117.139 109.951 117.058 109.881C116.91 110.18 116.745 110.524 116.562 110.913C116.574 110.979 116.557 111.117 116.512 111.329C116.479 111.521 116.432 111.725 116.37 111.94C116.308 112.155 116.244 112.361 116.179 112.56C116.114 112.758 116.063 112.895 116.026 112.969C115.999 113.008 115.971 113.039 115.941 113.061C115.911 113.083 115.883 113.114 115.856 113.153C115.841 113.257 115.835 113.36 115.837 113.462C115.838 113.563 115.83 113.658 115.813 113.746C115.634 114.338 115.481 114.934 115.354 115.533C115.243 116.13 115.143 116.733 115.052 117.343C114.99 117.744 114.938 118.152 114.896 118.566C114.87 118.978 114.827 119.392 114.769 119.81C114.729 120.055 114.714 120.295 114.723 120.53C114.73 120.749 114.728 120.97 114.718 121.192C114.711 121.244 114.712 121.295 114.721 121.344C114.743 121.374 114.754 121.431 114.752 121.516C114.812 121.471 114.858 121.446 114.891 121.44C114.937 121.414 114.974 121.382 115 121.343C115.087 121.26 115.21 121.101 115.37 120.868C115.547 120.633 115.721 120.38 115.892 120.112C116.079 119.84 116.251 119.579 116.409 119.33C116.58 119.061 116.704 118.86 116.781 118.728C116.885 118.556 116.971 118.379 117.039 118.197C117.121 117.996 117.215 117.817 117.322 117.662C117.576 117.293 117.736 116.874 117.802 116.404C117.881 115.915 117.924 115.458 117.931 115.033C117.774 115.011 117.627 114.996 117.49 114.987C117.35 114.962 117.215 114.919 117.085 114.859C116.991 114.808 116.901 114.731 116.814 114.629C116.744 114.523 116.683 114.424 116.632 114.332C116.61 114.302 116.602 114.261 116.61 114.209C116.614 114.14 116.618 114.072 116.623 114.003C117.105 113.863 117.563 113.728 117.997 113.598C118.381 113.476 118.76 113.372 119.134 113.286C119.522 113.181 119.898 113.061 120.263 112.926C120.342 112.895 120.413 112.865 120.475 112.836C120.535 112.791 120.602 112.745 120.678 112.697C120.708 112.675 120.756 112.657 120.821 112.645C120.903 112.63 120.993 112.656 121.09 112.723C121.184 112.773 121.26 112.819 121.318 112.859C121.435 112.939 121.504 112.994 121.526 113.024C121.562 113.034 121.553 113.121 121.498 113.283C121.55 113.291 121.604 113.306 121.659 113.33C121.728 113.334 121.806 113.345 121.894 113.363C121.639 113.545 121.304 113.751 120.889 113.98C120.471 114.193 120.124 114.333 119.848 114.401C119.799 114.41 119.751 114.427 119.705 114.452C119.659 114.478 119.613 114.503 119.567 114.529C119.651 114.988 119.698 115.428 119.708 115.85C119.731 116.252 119.717 116.679 119.664 117.129C119.63 117.406 119.623 117.687 119.641 117.972C119.657 118.24 119.656 118.512 119.639 118.786C119.619 119.23 119.596 119.658 119.57 120.07C119.544 120.481 119.503 120.904 119.448 121.338C119.439 121.475 119.41 121.591 119.359 121.685C119.328 121.792 119.247 121.858 119.116 121.882C119.083 121.888 119.052 121.902 119.022 121.925C119.009 121.944 118.987 121.965 118.957 121.987L118.843 121.78C118.816 121.818 118.788 121.849 118.758 121.872C118.731 121.91 118.696 121.951 118.653 121.993C118.614 121.966 118.574 121.931 118.532 121.888C118.51 121.858 118.487 121.828 118.465 121.798C118.408 121.673 118.276 121.554 118.068 121.439C117.877 121.322 117.782 121.128 117.783 120.856C117.784 120.771 117.776 120.68 117.758 120.581C117.74 120.483 117.727 120.367 117.719 120.233C117.603 120.339 117.502 120.434 117.416 120.517C117.346 120.598 117.276 120.679 117.206 120.759C117.179 120.798 117.144 120.838 117.101 120.88C117.074 120.919 117.085 120.976 117.133 121.052C117.155 121.082 117.156 121.133 117.135 121.204C117.112 121.26 117.086 121.307 117.06 121.345C116.913 121.559 116.782 121.769 116.668 121.977C116.553 122.184 116.423 122.395 116.275 122.608C116.075 122.899 115.872 123.132 115.667 123.305C115.478 123.475 115.195 123.595 114.818 123.665C114.457 123.731 114.106 123.618 113.764 123.325C113.702 123.269 113.641 123.212 113.58 123.156C113.538 123.112 113.488 123.071 113.43 123.031C113.158 122.843 112.947 122.62 112.798 122.359C112.665 122.095 112.538 121.822 112.418 121.539C112.295 121.24 112.205 120.935 112.148 120.623C112.107 120.309 112.074 119.993 112.049 119.675ZM115.761 122.576C115.8 122.603 115.819 122.616 115.819 122.616C116.099 122.293 116.341 121.952 116.546 121.593C116.751 121.233 116.917 120.846 117.044 120.433L115.761 122.576ZM115.91 121.176C115.889 121.247 115.872 121.335 115.857 121.44L116.198 120.945C116.178 120.931 116.167 120.917 116.164 120.9L115.99 121.059C115.945 121 115.905 120.965 115.869 120.955C115.842 120.993 115.816 121.032 115.789 121.071C115.779 121.107 115.745 121.155 115.689 121.217L115.91 121.176ZM117.167 120.131C117.205 120.158 117.233 120.17 117.249 120.167C117.385 120.074 117.448 119.91 117.438 119.674C117.385 119.752 117.34 119.828 117.302 119.903C117.262 119.961 117.217 120.037 117.167 120.131ZM115.371 109.277C115.374 109.293 115.395 109.315 115.434 109.341L115.699 108.987C115.696 108.971 115.675 108.95 115.636 108.923C115.596 108.981 115.548 109.041 115.491 109.102C115.451 109.16 115.411 109.218 115.371 109.277ZM115.283 121.774C115.336 121.697 115.391 121.627 115.448 121.566C115.501 121.488 115.562 121.401 115.629 121.304C115.574 121.467 115.533 121.567 115.506 121.606C115.479 121.645 115.405 121.701 115.283 121.774ZM116.471 120.081C116.511 120.023 116.536 119.976 116.547 119.94C116.544 119.924 116.534 119.917 116.518 119.92C116.518 119.92 116.516 119.912 116.513 119.895L116.437 120.036C116.44 120.053 116.442 120.061 116.442 120.061C116.458 120.058 116.468 120.065 116.471 120.081ZM116.572 110.555C116.602 110.533 116.617 110.522 116.617 110.522L116.642 110.517C116.655 110.498 116.662 110.488 116.662 110.488C116.653 110.439 116.638 110.407 116.619 110.394C116.622 110.411 116.607 110.464 116.572 110.555ZM116.396 109.876C116.423 109.837 116.437 109.818 116.437 109.818C116.434 109.801 116.422 109.786 116.403 109.773L116.363 109.831C116.382 109.845 116.393 109.859 116.396 109.876ZM117.213 118.724C117.193 118.711 117.175 118.706 117.159 118.709C117.162 118.725 117.157 118.743 117.143 118.763C117.143 118.763 117.145 118.771 117.148 118.787C117.207 118.742 117.229 118.721 117.213 118.724ZM121.356 107.819C121.299 107.507 121.401 107.327 121.664 107.279C121.975 107.222 122.247 107.273 122.48 107.434C122.71 107.578 122.883 107.783 123 108.05C123.369 108.948 123.762 109.841 124.18 110.73C124.396 111.165 124.61 111.592 124.823 112.01C125.049 112.409 125.253 112.829 125.436 113.27C125.468 113.349 125.504 113.41 125.546 113.453C125.604 113.493 125.674 113.548 125.754 113.618C125.958 112.886 126.178 112.235 126.412 111.667C126.646 111.098 126.947 110.475 127.313 109.797C127.438 109.554 127.574 109.283 127.723 108.985C127.868 108.67 128.004 108.348 128.13 108.02C128.256 107.692 128.365 107.367 128.459 107.044C128.568 106.719 128.64 106.418 128.673 106.141C128.684 106.105 128.704 106.076 128.734 106.053C128.78 106.028 128.816 105.996 128.843 105.957C128.858 106.039 128.878 106.103 128.904 106.149C128.963 106.104 129.016 106.069 129.062 106.044C129.122 105.999 129.19 105.952 129.265 105.904C129.328 106.062 129.374 106.173 129.403 106.235C129.435 106.229 129.496 106.192 129.586 106.125C129.553 106.318 129.528 106.5 129.509 106.673C129.503 106.827 129.48 106.975 129.438 107.118C129.376 107.333 129.39 107.5 129.48 107.619C129.527 107.695 129.549 107.767 129.545 107.836C129.538 107.888 129.522 107.942 129.498 107.997C129.288 108.697 129.104 109.4 128.946 110.107C128.785 110.797 128.624 111.488 128.463 112.178C128.418 112.39 128.362 112.595 128.297 112.794C128.232 112.992 128.175 113.189 128.126 113.385C128.129 113.401 128.102 113.347 128.045 113.221C127.941 113.664 127.851 114.096 127.776 114.517C127.717 114.934 127.661 115.368 127.609 115.819L127.344 117.697C127.457 117.389 127.527 117.079 127.555 116.769C127.582 116.459 127.609 116.141 127.633 115.814C127.651 115.726 127.675 115.628 127.706 115.521C127.737 115.414 127.762 115.316 127.779 115.228C127.859 114.925 127.921 114.617 127.965 114.304C128.009 113.991 128.071 113.683 128.151 113.38C128.147 113.449 128.149 113.507 128.158 113.557C128.167 113.606 128.161 113.666 128.141 113.738C128.039 114.197 127.956 114.67 127.893 115.156C127.844 115.623 127.784 116.083 127.715 116.536C127.682 116.813 127.64 117.092 127.59 117.373C127.553 117.634 127.51 117.904 127.46 118.185C127.371 118.625 127.307 119.06 127.268 119.491C127.245 119.919 127.273 120.346 127.351 120.772C127.376 120.903 127.321 121.023 127.189 121.132C127.06 121.258 126.938 121.331 126.823 121.352C126.675 121.38 126.534 121.346 126.398 121.253C126.281 121.172 126.153 121.12 126.013 121.095C125.801 121.049 125.662 120.939 125.596 120.765C125.53 120.591 125.481 120.413 125.447 120.233C125.393 119.938 125.338 119.592 125.282 119.196C125.223 118.783 125.18 118.367 125.154 117.948C125.144 117.526 125.153 117.118 125.182 116.723C125.211 116.328 125.277 115.994 125.379 115.721C125.406 115.682 125.415 115.638 125.406 115.589C125.413 115.537 125.422 115.493 125.432 115.457C125.458 115.232 125.369 115.07 125.165 114.972C124.795 114.803 124.458 114.585 124.155 114.319C123.865 114.034 123.603 113.717 123.37 113.371C123.134 113.007 122.922 112.64 122.735 112.267C122.561 111.876 122.4 111.507 122.252 111.162C121.811 110.057 121.512 108.942 121.356 107.819ZM128.045 111.976C128.104 111.745 128.165 111.522 128.227 111.307C128.289 111.092 128.349 110.869 128.409 110.638C128.389 110.625 128.371 110.619 128.355 110.622C128.355 110.622 128.345 110.616 128.326 110.602L127.969 111.837C127.958 111.873 127.958 111.916 127.967 111.965C127.986 111.978 128.012 111.982 128.045 111.976ZM127.123 115.806C127.195 115.827 127.239 115.836 127.255 115.833C127.274 115.66 127.295 115.495 127.317 115.338C127.352 115.162 127.379 114.988 127.398 114.815C127.379 114.802 127.353 114.798 127.32 114.804C127.285 114.98 127.249 115.156 127.214 115.332C127.192 115.489 127.162 115.647 127.123 115.806ZM126.779 118.768C126.795 118.765 126.813 118.77 126.833 118.783C126.849 118.78 126.865 118.777 126.882 118.774L126.962 117.692C126.929 117.698 126.903 117.694 126.884 117.681L126.779 118.768ZM128.814 106.903C128.708 106.973 128.648 107.06 128.633 107.165C128.635 107.266 128.63 107.377 128.618 107.498C128.669 107.404 128.729 107.317 128.799 107.236C128.866 107.139 128.871 107.028 128.814 106.903ZM128.925 106.679C129.059 106.485 129.053 106.316 128.908 106.174L128.809 106.878C128.836 106.839 128.856 106.81 128.869 106.791C128.88 106.755 128.898 106.718 128.925 106.679ZM127.046 117.32C127.058 117.199 127.061 117.08 127.057 116.962C127.052 116.845 127.055 116.725 127.067 116.605C126.956 116.828 126.923 117.063 126.968 117.309C126.987 117.323 127.013 117.326 127.046 117.32ZM127.181 120.397C127.183 120.227 127.187 120.065 127.193 119.911C127.196 119.742 127.198 119.572 127.201 119.402C127.094 119.557 127.055 119.717 127.086 119.88C127.132 120.041 127.164 120.213 127.181 120.397ZM129.146 107.325C129.146 107.325 129.181 107.335 129.253 107.356C129.268 107.251 129.282 107.147 129.297 107.043C129.325 106.919 129.353 106.795 129.381 106.671C129.365 106.674 129.348 106.677 129.332 106.68C129.313 106.667 129.295 106.662 129.278 106.665L129.146 107.325ZM127.279 118.447C127.307 118.323 127.337 118.207 127.368 118.1C127.396 117.976 127.381 117.852 127.324 117.727C127.313 117.847 127.293 117.97 127.265 118.093C127.25 118.198 127.229 118.312 127.201 118.436C127.234 118.43 127.26 118.433 127.279 118.447ZM127.242 118.936L127.119 118.959L127.192 119.352C127.212 119.281 127.217 119.212 127.205 119.147C127.209 119.078 127.221 119.008 127.242 118.936ZM127.785 112.634L127.834 112.625L127.88 112.464C127.848 112.47 127.822 112.466 127.802 112.453C127.811 112.502 127.805 112.562 127.785 112.634ZM127.169 116.332C127.136 116.338 127.102 116.335 127.066 116.325C127.072 116.358 127.072 116.4 127.064 116.453C127.07 116.485 127.076 116.518 127.083 116.551C127.093 116.515 127.122 116.442 127.169 116.332Z" fill="url(#paint1_linear)"/>
<defs>
<linearGradient id="paint0_linear" x1="93.9022" y1="-30.8844" x2="93.9022" y2="223.329" gradientUnits="userSpaceOnUse">
<stop offset="0.01" stop-color="#FAF116"/>
<stop offset="0.16" stop-color="#F4AE38"/>
<stop offset="0.52" stop-color="#E4068D"/>
<stop offset="0.53" stop-color="#E30090"/>
<stop offset="0.57" stop-color="#C8078E"/>
<stop offset="0.66" stop-color="#901688"/>
<stop offset="0.75" stop-color="#632284"/>
<stop offset="0.82" stop-color="#432A81"/>
<stop offset="0.89" stop-color="#2F2F80"/>
<stop offset="0.93" stop-color="#28317F"/>
</linearGradient>
<linearGradient id="paint1_linear" x1="96.6109" y1="105.36" x2="101.682" y2="132.896" gradientUnits="userSpaceOnUse">
<stop stop-color="#F5BB31"/>
<stop offset="1" stop-color="#EE7554"/>
</linearGradient>
</defs>
</svg>
