<svg width="16" height="16" viewBox="0 0 16 16" fill="none" xmlns="http://www.w3.org/2000/svg">
<path d="M15.9999 7.99995C15.9999 12.4183 12.4183 16 8 16C3.5817 16 0 12.4183 0 7.99995C0 3.5817 3.5817 0 8 0C12.4182 0 15.9999 3.5817 15.9999 7.99995Z" fill="#BEBEBE"/>
<path d="M14.3013 8.00006C14.3013 11.4801 11.48 14.3015 7.99982 14.3015C4.51968 14.3015 1.69824 11.4801 1.69824 8.00006C1.69824 4.51978 4.51968 1.69849 7.99982 1.69849C11.4801 1.69849 14.3013 4.51973 14.3013 8.00006Z" fill="#BEBEBE"/>
<path d="M7.53253 10.1372L8.05215 8.18055L9.28236 7.7311L9.58836 6.58121L9.57791 6.55268L8.36694 6.99509L9.23945 3.70972H6.76498L5.62393 7.9972L4.67124 8.34524L4.35645 9.5307L5.30841 9.18295L4.63591 11.7098H11.2215L11.6437 10.1372H7.53253Z" fill="white"/>
</svg>
