<svg width="28" height="30" viewBox="0 0 28 30" fill="none" xmlns="http://www.w3.org/2000/svg">
<path d="M22.737 27.0826L21.9583 27.9168L18.1243 23.8089C17.1725 22.7892 16.5239 21.4904 16.2601 20.0763L15.6406 16.7561L18.7394 17.4197C18.8439 17.4421 18.9475 17.468 19.0506 17.4956L19.8694 22.2749C20.1332 23.689 20.7819 24.9878 21.7336 26.0075L22.737 27.0826ZM4.375 22.967V7.02954C4.375 3.79347 6.82341 1.17017 9.84375 1.17017L21.4348 1.12452L21.4375 1.11157L6.5625 1.17017C3.54216 1.17017 1.09375 3.79347 1.09375 7.02954V22.967C1.09375 26.2031 3.54216 28.8264 6.5625 28.8264L9.40942 28.808C6.5922 28.5708 4.375 26.0464 4.375 22.967Z" fill="#F2F2F2"/>
<path d="M16.9531 30H6.5625C2.94394 30 0 26.8458 0 22.9688V7.03125C0 3.15422 2.94394 0 6.5625 0H21.4375C25.0561 0 28 3.15422 28 7.03125V18.252C28 18.8992 27.5103 19.4238 26.9062 19.4238C26.3022 19.4238 25.8125 18.8992 25.8125 18.252V7.03125C25.8125 4.44656 23.8499 2.34375 21.4375 2.34375H6.5625C4.15013 2.34375 2.1875 4.44656 2.1875 7.03125V22.9688C2.1875 25.5534 4.15013 27.6562 6.5625 27.6562H16.9531C17.5572 27.6562 18.0469 28.1809 18.0469 28.8281C18.0469 29.4754 17.5572 30 16.9531 30ZM26.8307 28.7471C28.3872 27.0795 28.3872 24.3659 26.8307 22.6981L22.9966 18.5902C21.8885 17.4029 20.4905 16.6014 18.9538 16.2723L15.855 15.6087C15.4966 15.5317 15.1258 15.6521 14.8672 15.9292C14.6087 16.2063 14.4965 16.6034 14.5681 16.9876L15.1875 20.3077C15.4947 21.9542 16.2427 23.452 17.3508 24.6393L21.1849 28.7472C21.9389 29.555 22.9415 30 24.0078 30C25.0742 30 26.0767 29.555 26.8307 28.7471ZM18.5251 18.5706C19.6368 18.8087 20.6481 19.3884 21.4498 20.2474L25.2839 24.3553C25.9876 25.1092 25.9876 26.336 25.2839 27.0899C24.9431 27.4551 24.4898 27.6562 24.0078 27.6562C23.5258 27.6562 23.0725 27.4551 22.7317 27.0899L18.8976 22.982C18.096 22.123 17.5548 21.0394 17.3326 19.8483L17.0347 18.2515L18.5251 18.5706Z" fill="white"/>
<path d="M21.4375 8.55469H11.4297C10.8256 8.55469 10.3359 8.03004 10.3359 7.38281C10.3359 6.73559 10.8256 6.21094 11.4297 6.21094H21.4375C22.0416 6.21094 22.5312 6.73559 22.5312 7.38281C22.5312 8.03004 22.0416 8.55469 21.4375 8.55469ZM22.5312 12.0703C22.5312 11.4231 22.0416 10.8984 21.4375 10.8984H6.5625C5.95842 10.8984 5.46875 11.4231 5.46875 12.0703C5.46875 12.7175 5.95842 13.2422 6.5625 13.2422H21.4375C22.0416 13.2422 22.5312 12.7175 22.5312 12.0703ZM11.5938 16.7578C11.5938 16.1106 11.1041 15.5859 10.5 15.5859H6.5625C5.95842 15.5859 5.46875 16.1106 5.46875 16.7578C5.46875 17.405 5.95842 17.9297 6.5625 17.9297H10.5C11.1041 17.9297 11.5938 17.405 11.5938 16.7578ZM5.46875 7.26562C5.46875 8.07463 6.08087 8.73047 6.83594 8.73047C7.59101 8.73047 8.20312 8.07463 8.20312 7.26562C8.20312 6.45662 7.59101 5.80078 6.83594 5.80078C6.08087 5.80078 5.46875 6.45662 5.46875 7.26562Z" fill="white"/>
<path d="M21.4375 8.55469H11.4297C10.8256 8.55469 10.3359 8.03004 10.3359 7.38281C10.3359 6.73559 10.8256 6.21094 11.4297 6.21094H21.4375C22.0416 6.21094 22.5312 6.73559 22.5312 7.38281C22.5312 8.03004 22.0416 8.55469 21.4375 8.55469ZM22.5312 12.0703C22.5312 11.4231 22.0416 10.8984 21.4375 10.8984H6.5625C5.95842 10.8984 5.46875 11.4231 5.46875 12.0703C5.46875 12.7175 5.95842 13.2422 6.5625 13.2422H21.4375C22.0416 13.2422 22.5312 12.7175 22.5312 12.0703ZM11.5938 16.7578C11.5938 16.1106 11.1041 15.5859 10.5 15.5859H6.5625C5.95842 15.5859 5.46875 16.1106 5.46875 16.7578C5.46875 17.405 5.95842 17.9297 6.5625 17.9297H10.5C11.1041 17.9297 11.5938 17.405 11.5938 16.7578ZM5.46875 7.26562C5.46875 8.07463 6.08087 8.73047 6.83594 8.73047C7.59101 8.73047 8.20312 8.07463 8.20312 7.26562C8.20312 6.45662 7.59101 5.80078 6.83594 5.80078C6.08087 5.80078 5.46875 6.45662 5.46875 7.26562Z" fill="url(#paint0_linear)"/>
<defs>
<linearGradient id="paint0_linear" x1="5.25" y1="11.9939" x2="22.6694" y2="11.9939" gradientUnits="userSpaceOnUse">
<stop stop-color="#E2C35D"/>
<stop offset="0.485719" stop-color="#F2E090"/>
<stop offset="1" stop-color="#E8C96F"/>
</linearGradient>
</defs>
</svg>
