<svg width="30" height="30" viewBox="0 0 30 30" fill="none" xmlns="http://www.w3.org/2000/svg">
<path d="M15.1172 1.17188C11.9679 1.17188 9.35634 3.47256 8.87054 6.48481C8.66148 6.45885 8.44855 6.44531 8.23246 6.44531C5.40091 6.44531 3.1055 8.74072 3.1055 11.5723C3.1055 12.2283 3.2289 12.8555 3.45343 13.432C2.06324 14.1596 1.12521 15.6334 1.17367 17.3222C1.23584 19.4882 2.94877 21.2792 5.11017 21.4342C5.38919 21.4542 5.66277 21.4467 5.92878 21.4147C5.93295 21.2306 5.948 21.0466 5.9681 20.8613C5.97226 20.7703 5.98035 20.6793 5.99377 20.5881C5.16045 19.9004 4.62894 18.8602 4.62894 17.6953C4.62894 16.434 5.49666 15.8355 6.4515 15.1559C6.76228 14.9347 6.88955 14.5396 6.76334 14.1797C6.6281 13.7939 6.43175 12.6227 6.44611 12.1875C6.5047 10.4088 7.67582 9.43359 9.14066 9.59279C9.34597 9.61512 10.0789 9.85283 10.3295 9.89689C10.9217 10.001 11.4811 9.61254 11.6016 9.0235C12.1366 6.40635 14.4513 3.75006 17.2266 3.75006C18.6711 3.75006 19.9909 4.28361 21 5.16416C20.0706 2.82539 17.7871 1.17188 15.1172 1.17188Z" fill="#F2F2F2"/>
<path d="M5.44922 22.6172C2.44453 22.6172 0 20.1858 0 17.1973C0 15.5072 0.777891 13.9447 2.08008 12.9284C1.9827 12.4854 1.93359 12.0321 1.93359 11.5723C1.93359 8.19275 4.60857 5.42637 7.95258 5.27959C8.36766 3.94154 9.15545 2.73463 10.2312 1.81002C11.5892 0.642832 13.3244 0 15.1172 0C17.0735 0 18.925 0.748945 20.3308 2.10879C21.4642 3.20514 22.2107 4.60383 22.4917 6.12779C26.6955 6.50947 30 10.0538 30 14.3555C30 18.0691 27.5009 21.3463 23.9224 22.3251C23.2983 22.496 22.6537 22.1282 22.483 21.5039C22.3122 20.8796 22.6798 20.2351 23.3041 20.0644C25.8666 19.3635 27.6562 17.0159 27.6562 14.3555C27.6562 11.0923 25.0014 8.4375 21.7383 8.4375C21.6633 8.4375 21.5818 8.43937 21.489 8.44318C21.1778 8.45654 20.8733 8.34404 20.6445 8.13205C20.4156 7.92006 20.2807 7.62551 20.2697 7.31373C20.171 4.52684 17.9078 2.34375 15.1172 2.34375C12.5724 2.34375 10.4319 4.16379 10.0274 6.67137C9.92701 7.29393 9.35203 7.72529 8.72613 7.64771C8.56283 7.62744 8.39672 7.61719 8.23242 7.61719C6.05156 7.61719 4.27734 9.39141 4.27734 11.5723C4.27734 12.0674 4.36752 12.55 4.54541 13.0068C4.76203 13.5632 4.52578 14.1935 3.9968 14.4703C2.97721 15.004 2.34375 16.0489 2.34375 17.1973C2.34375 18.8935 3.73682 20.2734 5.44922 20.2734C6.09645 20.2734 6.62109 20.7981 6.62109 21.4453C6.62109 22.0925 6.09645 22.6172 5.44922 22.6172Z" fill="white"/>
<path d="M14.4727 26.8359C11.4033 26.8359 8.90625 24.3388 8.90625 21.2695C8.90625 18.2002 11.4033 15.7031 14.4727 15.7031C17.542 15.7031 20.0391 18.2002 20.0391 21.2695C20.0391 24.3388 17.542 26.8359 14.4727 26.8359ZM14.4727 18.0469C12.6957 18.0469 11.25 19.4926 11.25 21.2695C11.25 23.0465 12.6957 24.4922 14.4727 24.4922C16.2496 24.4922 17.6953 23.0465 17.6953 21.2695C17.6953 19.4926 16.2496 18.0469 14.4727 18.0469ZM22.8014 29.6568C23.259 29.1991 23.259 28.4571 22.8014 27.9995L21.1607 26.3589C20.7031 25.9012 19.961 25.9012 19.5034 26.3589C19.0458 26.8165 19.0458 27.5585 19.5034 28.0161L21.144 29.6568C21.3728 29.8856 21.6728 30 21.9727 30C22.2726 30 22.5725 29.8856 22.8014 29.6568Z" fill="white"/>
<path d="M14.4727 26.8359C11.4033 26.8359 8.90625 24.3388 8.90625 21.2695C8.90625 18.2002 11.4033 15.7031 14.4727 15.7031C17.542 15.7031 20.0391 18.2002 20.0391 21.2695C20.0391 24.3388 17.542 26.8359 14.4727 26.8359ZM14.4727 18.0469C12.6957 18.0469 11.25 19.4926 11.25 21.2695C11.25 23.0465 12.6957 24.4922 14.4727 24.4922C16.2496 24.4922 17.6953 23.0465 17.6953 21.2695C17.6953 19.4926 16.2496 18.0469 14.4727 18.0469ZM22.8014 29.6568C23.259 29.1991 23.259 28.4571 22.8014 27.9995L21.1607 26.3589C20.7031 25.9012 19.961 25.9012 19.5034 26.3589C19.0458 26.8165 19.0458 27.5585 19.5034 28.0161L21.144 29.6568C21.3728 29.8856 21.6728 30 21.9727 30C22.2726 30 22.5725 29.8856 22.8014 29.6568Z" fill="url(#paint0_linear)"/>
<defs>
<linearGradient id="paint0_linear" x1="8.72371" y1="23.0033" x2="23.2599" y2="23.0033" gradientUnits="userSpaceOnUse">
<stop stop-color="#E2C35D"/>
<stop offset="0.485719" stop-color="#F2E090"/>
<stop offset="1" stop-color="#E8C96F"/>
</linearGradient>
</defs>
</svg>
