<svg width="26" height="29" viewBox="0 0 26 29" fill="none" xmlns="http://www.w3.org/2000/svg">
<path d="M14.5367 23.9573H12.9492C11.4348 23.9573 10.207 22.5879 10.207 20.8987V8.04126C10.207 6.35207 11.4347 4.98267 12.9492 4.98267C13.5022 4.98267 14.0165 5.16584 14.4473 5.47991C13.6983 6.02593 13.2031 6.96883 13.2031 8.04126V20.8987C13.2031 22.0191 13.7438 22.9977 14.5496 23.5302C14.5455 23.6725 14.541 23.8149 14.5367 23.9573ZM4.01172 11.4397V4.1897C4.01172 3.11726 4.50694 2.17437 5.25586 1.62835C4.82513 1.31428 4.31082 1.1311 3.75781 1.1311C2.24336 1.1311 1.01562 2.5005 1.01562 4.1897V11.4397C1.01562 13.1289 2.24336 14.4983 3.75781 14.4983H6.70312L6.70307 14.4969C5.21214 14.4665 4.01172 13.1099 4.01172 11.4397Z" fill="#EFEFEF"/>
<path d="M13 25.0918C10.9279 25.0918 9.24219 23.2116 9.24219 20.9004V8.09961C9.24219 5.78845 10.9279 3.9082 13 3.9082C15.0721 3.9082 16.7578 5.78845 16.7578 8.09961V20.9004C16.7578 23.2116 15.0721 25.0918 13 25.0918ZM13 6.17383C12.048 6.17383 11.2734 7.03771 11.2734 8.09961V20.9004C11.2734 21.9623 12.048 22.8262 13 22.8262C13.952 22.8262 14.7266 21.9623 14.7266 20.9004V8.09961C14.7266 7.03771 13.952 6.17383 13 6.17383ZM26 24.8086V17.5586C26 15.2474 24.3143 13.3672 22.2422 13.3672H19.5508C18.9899 13.3672 18.5352 13.8743 18.5352 14.5C18.5352 15.1257 18.9899 15.6328 19.5508 15.6328H22.2422C23.1942 15.6328 23.9688 16.4967 23.9688 17.5586V24.8086C23.9688 25.8705 23.1942 26.7344 22.2422 26.7344C21.2901 26.7344 20.5156 25.8705 20.5156 24.8086V19.0312C20.5156 18.4056 20.0609 17.8984 19.5 17.8984C18.9391 17.8984 18.4844 18.4056 18.4844 19.0312V24.8086C18.4844 27.1198 20.1701 29 22.2422 29C24.3143 29 26 27.1198 26 24.8086ZM7.71875 14.5C7.71875 13.8743 7.26405 13.3672 6.70312 13.3672H3.75781C2.80577 13.3672 2.03125 12.5033 2.03125 11.4414V4.19141C2.03125 3.12951 2.80577 2.26562 3.75781 2.26562C4.70986 2.26562 5.48438 3.12951 5.48438 4.19141V10.0254C5.48438 10.651 5.93907 11.1582 6.5 11.1582C7.06093 11.1582 7.51562 10.651 7.51562 10.0254V4.19141C7.51562 1.88024 5.82989 0 3.75781 0C1.68573 0 0 1.88024 0 4.19141V11.4414C0 13.7526 1.68573 15.6328 3.75781 15.6328H6.70312C7.26405 15.6328 7.71875 15.1257 7.71875 14.5Z" fill="white"/>
<path d="M7.61719 26.1113C7.61719 26.737 7.16249 27.2441 6.60156 27.2441H1.01562C0.454695 27.2441 0 26.737 0 26.1113C0 25.4857 0.454695 24.9785 1.01562 24.9785H6.60156C7.16249 24.9785 7.61719 25.4857 7.61719 26.1113ZM24.9844 3.17188H23.1562V1.13281C23.1562 0.50716 22.7016 0 22.1406 0C21.5797 0 21.125 0.50716 21.125 1.13281V3.17188H19.3984C18.8375 3.17188 18.3828 3.67904 18.3828 4.30469C18.3828 4.93034 18.8375 5.4375 19.3984 5.4375H21.125V7.36328C21.125 7.98893 21.5797 8.49609 22.1406 8.49609C22.7016 8.49609 23.1562 7.98893 23.1562 7.36328V5.4375H24.9844C25.5453 5.4375 26 4.93034 26 4.30469C26 3.67904 25.5453 3.17188 24.9844 3.17188Z" fill="white"/>
<path d="M7.61719 26.1113C7.61719 26.737 7.16249 27.2441 6.60156 27.2441H1.01562C0.454695 27.2441 0 26.737 0 26.1113C0 25.4857 0.454695 24.9785 1.01562 24.9785H6.60156C7.16249 24.9785 7.61719 25.4857 7.61719 26.1113ZM24.9844 3.17188H23.1562V1.13281C23.1562 0.50716 22.7016 0 22.1406 0C21.5797 0 21.125 0.50716 21.125 1.13281V3.17188H19.3984C18.8375 3.17188 18.3828 3.67904 18.3828 4.30469C18.3828 4.93034 18.8375 5.4375 19.3984 5.4375H21.125V7.36328C21.125 7.98893 21.5797 8.49609 22.1406 8.49609C22.7016 8.49609 23.1562 7.98893 23.1562 7.36328V5.4375H24.9844C25.5453 5.4375 26 4.93034 26 4.30469C26 3.67904 25.5453 3.17188 24.9844 3.17188Z" fill="url(#paint0_linear)"/>
<defs>
<linearGradient id="paint0_linear" x1="-0.333333" y1="13.9112" x2="26.2105" y2="13.9112" gradientUnits="userSpaceOnUse">
<stop stop-color="#E2C35D"/>
<stop offset="0.485719" stop-color="#F2E090"/>
<stop offset="1" stop-color="#E8C96F"/>
</linearGradient>
</defs>
</svg>
