<svg width="27" height="27" viewBox="0 0 27 27" fill="none" xmlns="http://www.w3.org/2000/svg">
<path d="M5.90625 16.7959V15.7412C5.03286 15.7424 4.32422 15.0347 4.32422 14.1614V7.09056C4.32422 4.17936 6.67849 1.81934 9.58268 1.81934H6.38086C3.46839 1.81934 1.10742 4.18031 1.10742 7.09277V15.7412C1.108 16.3213 1.58309 16.7959 2.16316 16.7959H5.90625Z" fill="#F2F3F3"/>
<path d="M20.6719 22.0693H12.6562C12.0737 22.0693 11.6016 21.5972 11.6016 21.0146C11.6016 20.4321 12.0737 19.96 12.6562 19.96H20.6719C22.9981 19.96 24.8906 18.0674 24.8906 15.7412V7.09277C24.8906 4.76655 22.9981 2.87402 20.6719 2.87402H6.32812C4.00191 2.87402 2.10938 4.76655 2.10938 7.09277V15.2139C2.10938 15.5046 2.34594 15.7412 2.63672 15.7412H5.80078C6.38329 15.7412 6.85547 16.2134 6.85547 16.7959C6.85547 17.3784 6.38329 17.8506 5.80078 17.8506H2.63672C1.18283 17.8506 0 16.6678 0 15.2139V7.09277C0 3.60345 2.8388 0.764648 6.32812 0.764648H20.6719C24.1612 0.764648 27 3.60345 27 7.09277V15.7412C27 19.2305 24.1612 22.0693 20.6719 22.0693ZM9.49219 21.0135C9.49219 20.431 9.02 19.9589 8.4375 19.9589H1.05469C0.472184 19.9589 0 20.431 0 21.0135C0 21.596 0.472184 22.0682 1.05469 22.0682H8.4375C9.02 22.0682 9.49219 21.596 9.49219 21.0135ZM12.6562 25.1807C12.6562 24.5982 12.1841 24.126 11.6016 24.126H1.05469C0.472184 24.126 0 24.5982 0 25.1807C0 25.7632 0.472184 26.2354 1.05469 26.2354H11.6016C12.1841 26.2354 12.6562 25.7632 12.6562 25.1807Z" fill="white"/>
<path d="M13.5271 14.5774C12.173 14.5774 10.8188 14.1465 9.68878 13.2846C9.68704 13.2833 9.6853 13.282 9.68356 13.2806L4.73417 9.45677C4.27322 9.1006 4.18821 8.43831 4.54433 7.9773C4.90039 7.51635 5.56279 7.43134 6.02379 7.78746L10.9706 11.6093C12.4767 12.7564 14.5793 12.7556 16.0849 11.6074L21.1945 7.72929C21.6585 7.37708 22.3202 7.46784 22.6722 7.93174C23.0244 8.39575 22.9337 9.05736 22.4697 9.40946L17.3622 13.2861C16.2336 14.1469 14.8804 14.5774 13.5271 14.5774Z" fill="white"/>
<path d="M13.5271 14.5774C12.173 14.5774 10.8188 14.1465 9.68878 13.2846C9.68704 13.2833 9.6853 13.282 9.68356 13.2806L4.73417 9.45677C4.27322 9.1006 4.18821 8.43831 4.54433 7.9773C4.90039 7.51635 5.56279 7.43134 6.02379 7.78746L10.9706 11.6093C12.4767 12.7564 14.5793 12.7556 16.0849 11.6074L21.1945 7.72929C21.6585 7.37708 22.3202 7.46784 22.6722 7.93174C23.0244 8.39575 22.9337 9.05736 22.4697 9.40946L17.3622 13.2861C16.2336 14.1469 14.8804 14.5774 13.5271 14.5774Z" fill="url(#paint0_linear)"/>
<defs>
<linearGradient id="paint0_linear" x1="4.08624" y1="11.121" x2="23.0372" y2="11.121" gradientUnits="userSpaceOnUse">
<stop stop-color="#E2C35D"/>
<stop offset="0.485719" stop-color="#F2E090"/>
<stop offset="1" stop-color="#E8C96F"/>
</linearGradient>
</defs>
</svg>
