<svg width="29" height="29" viewBox="0 0 29 29" fill="none" xmlns="http://www.w3.org/2000/svg">
<path d="M10.062 3.61601L8.07551 3.33483C7.03012 3.18688 6.05584 3.89521 5.87341 4.93579L5.52677 6.91317C5.42248 7.50826 5.04957 8.02181 4.5162 8.30497L2.74396 9.2459C1.8113 9.74105 1.43919 10.8872 1.90285 11.8363L2.78393 13.6399C3.04909 14.1827 3.04909 14.8175 2.78393 15.3603L1.90285 17.1639C1.43919 18.113 1.81136 19.2592 2.74396 19.7543L4.5162 20.6952C5.04951 20.9784 5.42242 21.492 5.52677 22.087L5.87341 24.0644C6.05584 25.105 7.03012 25.8133 8.07551 25.6654L10.062 25.3842C10.1856 25.3667 10.3094 25.3619 10.4319 25.3679L10.5365 24.2696C9.81497 24.3717 9.14242 23.8828 9.0165 23.1645L8.30607 19.7371C8.23405 19.3264 7.97665 18.9718 7.6085 18.7764L6.3852 18.1269C5.74142 17.785 5.48453 16.9939 5.80461 16.3388L6.41278 15.0938C6.59578 14.7191 6.59578 14.2809 6.41278 13.9063L5.80461 12.6613C5.48453 12.0061 5.74142 11.215 6.3852 10.8732L7.6085 10.2237C7.97665 10.0282 8.23405 9.67373 8.30607 9.26294L8.9892 5.80962C9.11513 5.09133 9.78762 4.60241 10.5093 4.70455L10.6427 3.61046C10.4525 3.64081 10.257 3.64359 10.062 3.61601Z" fill="#ECEDED"/>
<path d="M14.5 29C13.7269 29 12.9538 28.7085 12.3514 28.1253L10.9094 26.7295C10.7253 26.5512 10.4745 26.4696 10.2206 26.5055L8.23417 26.7867C8.08525 26.8077 7.93725 26.818 7.79128 26.818C6.31024 26.818 5.02155 25.7635 4.75797 24.2599L4.41134 22.2826C4.36701 22.0297 4.21169 21.8157 3.98515 21.6954L2.21292 20.7545C0.732615 19.9686 0.149531 18.1731 0.885321 16.6668L1.7664 14.8632C1.87913 14.6325 1.87913 14.3677 1.7664 14.137L0.885321 12.3334C0.149531 10.8271 0.732671 9.03162 2.21292 8.24572L3.98521 7.30479C4.21169 7.18453 4.36706 6.97056 4.41134 6.71763L4.75797 4.74026C5.04753 3.08851 6.5746 1.97868 8.23417 2.21354L10.2207 2.49472C10.4743 2.53068 10.7253 2.44897 10.9094 2.27073L12.3514 0.874853C13.5562 -0.291483 15.4438 -0.291426 16.6486 0.874853L18.0905 2.27073C18.2746 2.44897 18.5256 2.53073 18.7793 2.49472L20.7657 2.21354C22.4255 1.97879 23.9523 3.08851 24.242 4.74026L24.5886 6.71763C24.6329 6.9705 24.7882 7.18453 25.0147 7.30479L26.787 8.24566C28.2673 9.03162 28.8504 10.8272 28.1146 12.3334L27.2335 14.137C27.1207 14.3677 27.1207 14.6325 27.2335 14.8632L28.1146 16.6668C28.8505 18.173 28.2673 19.9685 26.787 20.7545L25.0147 21.6954C24.7882 21.8157 24.6329 22.0296 24.5886 22.2826L24.242 24.2599C23.9524 25.9117 22.4253 27.0216 20.7657 26.7867L18.7793 26.5055C18.5257 26.4696 18.2746 26.5512 18.0905 26.7295L16.6486 28.1253C16.0462 28.7084 15.2731 29 14.5 29ZM10.3434 24.2318C11.1394 24.2318 11.9016 24.5377 12.4848 25.1022L13.9267 26.4981C14.2482 26.8093 14.7519 26.8093 15.0734 26.4981L16.5153 25.1022C17.2051 24.4344 18.146 24.1283 19.0967 24.263L21.0832 24.5442C21.5259 24.6066 21.9338 24.3103 22.0112 23.8689L22.3578 21.8915C22.5236 20.9457 23.1049 20.1452 23.9528 19.695L25.725 18.7541C26.1207 18.5441 26.2765 18.0639 26.0796 17.661L25.1986 15.8573C24.7772 14.9948 24.7772 14.0054 25.1986 13.1429L26.0796 11.3393C26.2765 10.9363 26.1206 10.4561 25.725 10.2461L23.9527 9.30521C23.1049 8.85507 22.5236 8.05445 22.3578 7.10871L22.0111 5.13134C21.9338 4.68998 21.5261 4.39328 21.0831 4.45607L19.0967 4.73725C18.146 4.87156 17.2051 4.56586 16.5152 3.89802L15.0733 2.50214C14.7518 2.19089 14.2481 2.19089 13.9266 2.50214L12.4847 3.89796C11.7947 4.56581 10.8538 4.87179 9.90324 4.7372L7.91675 4.45602C7.47363 4.39345 7.06613 4.68992 6.98879 5.13128L6.64215 7.10865C6.47637 8.05445 5.89504 8.85502 5.04725 9.30515L3.27496 10.2461C2.87929 10.4561 2.72347 10.9363 2.92028 11.3392L3.80136 13.1428C4.22274 14.0053 4.22274 14.9948 3.80136 15.8573L2.92028 17.6609C2.72347 18.0639 2.87923 18.544 3.27496 18.7541L5.04719 19.695C5.89504 20.1452 6.47637 20.9458 6.64215 21.8915L6.98879 23.8689C7.06613 24.3102 7.47363 24.6071 7.91675 24.5441L9.90324 24.2629C10.0505 24.2421 10.1975 24.2318 10.3434 24.2318Z" fill="white"/>
<path d="M14.5566 16.9348C13.9312 16.9348 13.4242 16.4278 13.4242 15.8024V8.89463C13.4242 8.26919 13.9312 7.76221 14.5566 7.76221C15.1821 7.76221 15.6891 8.26919 15.6891 8.89463V15.8024C15.6891 16.4278 15.1821 16.9348 14.5566 16.9348ZM14.5566 21.4079C15.3384 21.4079 15.9722 20.7741 15.9722 19.9924C15.9722 19.2106 15.3384 18.5768 14.5566 18.5768C13.7749 18.5768 13.1411 19.2106 13.1411 19.9924C13.1411 20.7741 13.7749 21.4079 14.5566 21.4079Z" fill="white"/>
<path d="M14.5566 16.9348C13.9312 16.9348 13.4242 16.4278 13.4242 15.8024V8.89463C13.4242 8.26919 13.9312 7.76221 14.5566 7.76221C15.1821 7.76221 15.6891 8.26919 15.6891 8.89463V15.8024C15.6891 16.4278 15.1821 16.9348 14.5566 16.9348ZM14.5566 21.4079C15.3384 21.4079 15.9722 20.7741 15.9722 19.9924C15.9722 19.2106 15.3384 18.5768 14.5566 18.5768C13.7749 18.5768 13.1411 19.2106 13.1411 19.9924C13.1411 20.7741 13.7749 21.4079 14.5566 21.4079Z" fill="url(#paint0_linear)"/>
<defs>
<linearGradient id="paint0_linear" x1="13.1048" y1="14.7299" x2="15.9951" y2="14.7299" gradientUnits="userSpaceOnUse">
<stop stop-color="#E2C35D"/>
<stop offset="0.485719" stop-color="#F2E090"/>
<stop offset="1" stop-color="#E8C96F"/>
</linearGradient>
</defs>
</svg>
