<svg width="60" height="24" viewBox="0 0 60 24" fill="none" xmlns="http://www.w3.org/2000/svg">
<g opacity="0.08">
<path d="M34.6814 20.4328L39.0957 21.4682C39.3002 21.5164 39.3787 21.5928 39.2952 21.6619C39.2117 21.7317 38.982 21.7807 38.7127 21.7872L32.8929 21.9225L30.6192 23.3784C30.5141 23.446 30.27 23.4892 29.9993 23.4892C29.7285 23.4892 29.4845 23.4453 29.3793 23.3784L27.1056 21.9225L21.2858 21.7872C21.0165 21.7807 20.7869 21.7317 20.7033 21.6619C20.6198 21.592 20.6983 21.5157 20.9028 21.4682L25.3171 20.4328L23.9937 18.8928C23.9325 18.8215 24.0348 18.7473 24.2537 18.7041C24.371 18.6811 24.51 18.6696 24.6489 18.6696C24.7692 18.6696 24.8894 18.6782 24.9967 18.6955L30 19.512L35.0018 18.6955C35.1091 18.6782 35.2293 18.6696 35.3496 18.6696C35.3503 18.6696 35.3503 18.6696 35.351 18.6696C35.7225 18.6696 36.0242 18.7509 36.0242 18.8517C36.0242 18.8704 36.0141 18.8884 35.9947 18.9057L34.6814 20.4328Z" fill="black"/>
<path d="M21.2161 20.6654L19.7603 20.3241C19.5825 20.2823 19.5047 20.2175 19.558 20.1556L20.3723 19.2081L17.2936 19.7107C17.0927 19.7438 16.8407 19.7438 16.6398 19.7107L13.5604 19.2081L14.3747 20.1556C14.428 20.2175 14.3502 20.2823 14.1724 20.3241L11.4551 20.9613L15.0378 21.0448C15.2718 21.0506 15.4756 21.0902 15.567 21.1492L16.9667 22.0456L18.3664 21.1492C18.5025 21.0621 18.874 21.0211 19.1965 21.0578C19.5184 21.0945 19.6696 21.1953 19.5335 21.2824L17.5506 22.5525C17.4513 22.6159 17.2216 22.6569 16.9674 22.6569C16.7133 22.6569 16.4829 22.6159 16.3842 22.5525L14.5497 21.3775L9.85454 21.268C9.6011 21.2623 9.3851 21.2155 9.30662 21.1499C9.22814 21.0844 9.30158 21.0124 9.49454 20.9671L13.0557 20.1319L11.9879 18.8899C11.9303 18.8229 12.0268 18.7531 12.2327 18.7127C12.3436 18.6911 12.4739 18.6796 12.6049 18.6796C12.718 18.6796 12.831 18.6875 12.9318 18.7041L16.9674 19.3629L21.003 18.7041C21.2212 18.6688 21.4962 18.6717 21.7021 18.712C21.9081 18.7523 22.0045 18.8222 21.9469 18.8891L20.8799 20.1311L22.047 20.4047C22.3113 20.4667 22.3401 20.5754 22.1111 20.6467C21.8807 20.7194 21.4804 20.7273 21.2161 20.6654Z" fill="black"/>
<path d="M46.9454 20.1325L50.5065 20.9677C50.6987 21.0131 50.7729 21.0844 50.6944 21.1506C50.6159 21.2161 50.3999 21.2622 50.1465 21.2687L45.4514 21.3781L43.6168 22.5532C43.5174 22.6165 43.2878 22.6576 43.0336 22.6576C42.7794 22.6576 42.549 22.6165 42.4504 22.5532L40.4675 21.2831C40.3314 21.196 40.4819 21.0952 40.8045 21.0584C41.127 21.0217 41.4986 21.0628 41.6346 21.1499L43.0343 22.0463L44.434 21.1499C44.5254 21.0916 44.7292 21.0512 44.9632 21.0455L48.5459 20.962L45.8286 20.3248C45.6508 20.283 45.573 20.2182 45.6263 20.1563L46.4406 19.2088L43.3612 19.7113C43.1603 19.7444 42.9083 19.7444 42.7074 19.7113L39.628 19.2088L40.4423 20.1563C40.4956 20.2182 40.4178 20.283 40.24 20.3248L38.7842 20.6653C38.5199 20.7272 38.1196 20.7193 37.8906 20.648C37.6617 20.5768 37.6905 20.468 37.9547 20.4061L39.1218 20.1325L38.0541 18.8905C37.9965 18.8236 38.093 18.7537 38.2989 18.7134C38.5048 18.6731 38.7805 18.6695 38.998 18.7055L43.0336 19.3643L47.0692 18.7055C47.17 18.6889 47.283 18.681 47.3961 18.681C47.5271 18.681 47.6574 18.6918 47.7683 18.7141C47.9742 18.7544 48.0707 18.8243 48.0131 18.8912L46.9454 20.1325Z" fill="black"/>
<path d="M9.51892 20.2132L8.3878 19.9483C8.22148 19.9094 8.14876 19.8489 8.19844 19.7906L8.71756 19.1865L6.75412 19.5069C6.56548 19.5379 6.32932 19.5379 6.14068 19.5069L4.17724 19.1865L4.69636 19.7906C4.74604 19.8489 4.67332 19.9094 4.507 19.9483L2.77396 20.3543L5.05852 20.4076C5.27812 20.4127 5.46892 20.4501 5.5546 20.5048L6.4474 21.0765L7.33948 20.5048C7.46692 20.4235 7.8154 20.3846 8.1178 20.4191C8.41948 20.4537 8.56132 20.548 8.43388 20.6294L6.9946 21.551C6.90172 21.6107 6.68644 21.6489 6.4474 21.6489C6.20908 21.6489 5.99308 21.61 5.9002 21.551L4.59988 20.7187L1.27276 20.6409C1.03516 20.6351 0.832837 20.5919 0.758677 20.5307C0.685237 20.4695 0.754357 20.4019 0.934357 20.3594L3.45796 19.7675L2.70196 18.887C2.64796 18.8243 2.73796 18.7581 2.93092 18.7207C3.12388 18.6825 3.38236 18.6796 3.58684 18.7127L6.44668 19.1793L9.30652 18.7127C9.40084 18.6976 9.5074 18.6897 9.61324 18.6897C9.73636 18.6897 9.85876 18.6998 9.96244 18.7207C10.1554 18.7588 10.2461 18.8243 10.1914 18.887L9.43468 19.7675L10.2951 19.9691C10.5428 20.0275 10.5694 20.129 10.3548 20.1959C10.1417 20.2636 9.76732 20.2708 9.51892 20.2132Z" fill="black"/>
<path d="M59.2399 20.5315C59.1664 20.5927 58.9641 20.6366 58.7258 20.6416L55.3987 20.7194L54.0984 21.5517C54.0055 21.6115 53.7902 21.6496 53.5512 21.6496C53.3121 21.6496 53.0968 21.6108 53.004 21.5517L51.5647 20.6301C51.4372 20.5488 51.5784 20.4544 51.8808 20.4199C52.1824 20.3853 52.5309 20.4235 52.6584 20.5056L53.5504 21.0772L54.4432 20.5056C54.5289 20.4508 54.7197 20.4134 54.9393 20.4084L57.2239 20.3551L55.4916 19.949C55.3252 19.9101 55.2518 19.8496 55.3022 19.7913L55.8213 19.1872L53.8579 19.5076C53.6692 19.5386 53.4331 19.5386 53.2444 19.5076L51.281 19.1872L51.8001 19.7913C51.8498 19.8496 51.7771 19.9101 51.6108 19.949L50.4796 20.214C50.232 20.2723 49.8568 20.2651 49.6423 20.1974C49.4277 20.1304 49.4544 20.0289 49.702 19.9706L50.5624 19.769L49.8057 18.8884C49.7517 18.8258 49.8417 18.7596 50.0347 18.7221C50.2276 18.684 50.4861 18.6811 50.6906 18.7142L53.5504 19.1808L56.4103 18.7142C56.5046 18.6991 56.6112 18.6912 56.717 18.6912C56.8401 18.6912 56.9625 18.7012 57.0662 18.7221C57.2592 18.7603 57.3492 18.8258 57.2952 18.8884L56.5384 19.769L59.0628 20.3608C59.2442 20.4026 59.314 20.4696 59.2399 20.5315Z" fill="black"/>
</g>
<path d="M47.0152 12.513L50.8007 9.29169C50.9761 9.14251 51.0434 8.90479 50.9718 8.6883C50.9001 8.4718 50.7032 8.31837 50.4722 8.29897L45.4815 7.87811L43.5316 3.34627C43.4415 3.13645 43.2322 3 43 3C42.7678 3 42.5585 3.13645 42.4684 3.34627L40.5185 7.87811L35.5278 8.29897C35.2968 8.31837 35.0999 8.4718 35.0282 8.6883C34.9566 8.90479 35.0239 9.14251 35.1993 9.29169L38.9848 12.513L37.8499 17.305C37.7975 17.527 37.8851 17.758 38.0728 17.8921C38.1735 17.9642 38.2926 18 38.4118 18C38.5149 18 38.618 17.9733 38.71 17.9187L42.9994 15.3778L47.2887 17.9187C47.3807 17.9733 47.4838 18 47.587 18C47.5876 18 47.5876 18 47.5882 18C47.9068 18 48.1655 17.7465 48.1655 17.433C48.1655 17.3748 48.1568 17.3184 48.1402 17.2656L47.0152 12.513Z" fill="url(#paint0_linear)"/>
<path d="M34.6814 11.5847L39.0958 7.76005C39.3002 7.58293 39.3787 7.30068 39.2952 7.04364C39.2117 6.7866 38.982 6.60444 38.7127 6.5814L32.893 6.08172L30.6192 0.701159C30.5141 0.452039 30.27 0.290039 29.9993 0.290039C29.7285 0.290039 29.4845 0.452039 29.3794 0.701159L27.1056 6.08172L21.2858 6.5814C21.0165 6.60444 20.7869 6.7866 20.7033 7.04364C20.6198 7.30068 20.6983 7.58293 20.9028 7.76005L25.3171 11.5847L23.9937 17.2741C23.9325 17.5377 24.0348 17.812 24.2537 17.9711C24.371 18.0568 24.51 18.0993 24.6489 18.0993C24.7692 18.0993 24.8894 18.0676 24.9967 18.0028L29.9986 14.986L35.0004 18.0028C35.1077 18.0676 35.2279 18.0993 35.3482 18.0993C35.3489 18.0993 35.3489 18.0993 35.3496 18.0993C35.7211 18.0993 36.0228 17.7983 36.0228 17.4261C36.0228 17.3569 36.0127 17.29 35.9933 17.2273L34.6814 11.5847Z" fill="url(#paint1_linear)"/>
<path d="M21.2161 10.7243L19.7603 11.9857C19.5825 12.1391 19.5047 12.3788 19.558 12.6078L20.3723 16.1098L17.2936 14.253C17.0927 14.1313 16.8407 14.1313 16.6398 14.253L13.5604 16.1098L14.3747 12.6078C14.428 12.3788 14.3502 12.1398 14.1724 11.9857L11.4551 9.63129L15.0378 9.32385C15.2718 9.30369 15.4756 9.15609 15.567 8.93937L16.9667 5.62738L18.3664 8.93937C18.5025 9.26121 18.874 9.41241 19.1965 9.27633C19.5184 9.14025 19.6696 8.76873 19.5335 8.44618L17.5506 3.75322C17.4513 3.5185 17.2216 3.36658 16.9674 3.36658C16.7133 3.36658 16.4829 3.51922 16.3842 3.75322L14.5497 8.09409L9.85454 8.49729C9.6011 8.51889 9.3851 8.69025 9.30662 8.93289C9.22814 9.17481 9.30158 9.44049 9.49454 9.60753L13.0557 12.6934L11.9879 17.2834C11.9303 17.5311 12.0268 17.7896 12.2327 17.9394C12.3436 18.02 12.4739 18.0603 12.6049 18.0603C12.718 18.0603 12.831 18.0301 12.9318 17.9696L16.9674 15.536L21.003 17.9696C21.2212 18.1014 21.4962 18.0891 21.7021 17.9394C21.9081 17.7896 22.0045 17.5318 21.9469 17.2834L20.8799 12.6934L22.047 11.6826C22.3113 11.4536 22.3401 11.0533 22.1111 10.7891C21.8807 10.5241 21.4804 10.4953 21.2161 10.7243Z" fill="url(#paint2_linear)"/>
<path d="M9.51893 12.3962L8.38781 13.3761C8.22149 13.5201 8.14877 13.7448 8.19845 13.9593L8.71757 16.192L6.75413 15.0084C6.56549 14.8946 6.32933 14.8946 6.14069 15.0084L4.17797 16.192L4.69709 13.9586C4.74677 13.744 4.67405 13.5194 4.50773 13.3754L2.77469 11.8742L5.05925 11.6784C5.27885 11.6596 5.46965 11.5207 5.55533 11.3176L6.44813 9.20587L7.34021 11.3176C7.46765 11.6193 7.81613 11.7612 8.11853 11.6337C8.42021 11.5063 8.56205 11.1578 8.43461 10.8561L6.99533 7.44979C6.90245 7.23019 6.68717 7.08691 6.44813 7.08691C6.20981 7.08691 5.99381 7.22947 5.90093 7.44979L4.60061 10.5264L1.27349 10.8122C1.03589 10.8324 0.833569 10.9936 0.759409 11.2204C0.685969 11.4472 0.755089 11.6964 0.935089 11.8526L3.45869 14.0392L2.70269 17.2922C2.64869 17.5248 2.73869 17.7667 2.93165 17.9071C3.12461 18.0475 3.38309 18.0583 3.58757 17.9352L6.44741 16.2108L9.30725 17.9352C9.40157 17.992 9.50813 18.0201 9.61397 18.0201C9.73709 18.0201 9.85949 17.982 9.96317 17.9064C10.1561 17.766 10.2468 17.524 10.1921 17.2915L9.43541 14.0385L10.2958 13.2933C10.5435 13.0788 10.5701 12.7036 10.3556 12.456C10.1417 12.2076 9.76733 12.1809 9.51893 12.3962Z" fill="url(#paint3_linear)"/>
<path d="M59.2399 11.2196C59.1665 10.9928 58.9641 10.8322 58.7258 10.8113L55.3987 10.5255L54.0984 7.44894C54.0055 7.22934 53.7902 7.08606 53.5512 7.08606C53.3121 7.08606 53.0969 7.22862 53.004 7.44894L51.5647 10.8553C51.4373 11.1569 51.5784 11.5054 51.8808 11.6329C52.1825 11.761 52.5309 11.6192 52.6584 11.3168L53.5505 9.20502L54.4433 11.3168C54.5289 11.5198 54.7197 11.6588 54.9393 11.6775L57.2239 11.8733L55.4916 13.3745C55.3253 13.5185 55.2518 13.7432 55.3022 13.9577L55.8213 16.1904L53.8579 15.0068C53.6693 14.893 53.4331 14.893 53.2445 15.0068L51.2817 16.1919L51.8009 13.9592C51.8505 13.7446 51.7778 13.52 51.6115 13.376L50.4804 12.3961C50.2327 12.1815 49.8576 12.2081 49.643 12.4558C49.4285 12.7035 49.4551 13.0786 49.7028 13.2932L50.5632 14.0384L49.8065 17.2913C49.7525 17.5239 49.8425 17.7658 50.0354 17.9062C50.2284 18.0466 50.4869 18.0574 50.6913 17.9343L53.5512 16.2099L56.411 17.9343C56.5053 17.9912 56.6119 18.0192 56.7177 18.0192C56.8409 18.0192 56.9633 17.9811 57.0669 17.9055C57.2599 17.7651 57.3499 17.5232 57.2959 17.2906L56.5392 14.0377L59.0635 11.851C59.2442 11.6955 59.3141 11.4464 59.2399 11.2196Z" fill="url(#paint4_linear)"/>
<defs>
<linearGradient id="paint0_linear" x1="34.7949" y1="10.6592" x2="51.1296" y2="10.6592" gradientUnits="userSpaceOnUse">
<stop stop-color="#E2C35D"/>
<stop offset="0.485719" stop-color="#F2E090"/>
<stop offset="1" stop-color="#E8C96F"/>
</linearGradient>
<linearGradient id="paint1_linear" x1="20.4312" y1="9.38364" x2="39.4792" y2="9.38364" gradientUnits="userSpaceOnUse">
<stop stop-color="#E2C35D"/>
<stop offset="0.485719" stop-color="#F2E090"/>
<stop offset="1" stop-color="#E8C96F"/>
</linearGradient>
<linearGradient id="paint2_linear" x1="9.1091" y1="10.8696" x2="22.3708" y2="10.8696" gradientUnits="userSpaceOnUse">
<stop stop-color="#E2C35D"/>
<stop offset="0.485719" stop-color="#F2E090"/>
<stop offset="1" stop-color="#E8C96F"/>
</linearGradient>
<linearGradient id="paint3_linear" x1="0.605211" y1="12.6697" x2="10.5796" y2="12.6697" gradientUnits="userSpaceOnUse">
<stop stop-color="#E2C35D"/>
<stop offset="0.485719" stop-color="#F2E090"/>
<stop offset="1" stop-color="#E8C96F"/>
</linearGradient>
<linearGradient id="paint4_linear" x1="49.3728" y1="12.6689" x2="59.3483" y2="12.6689" gradientUnits="userSpaceOnUse">
<stop stop-color="#E2C35D"/>
<stop offset="0.485719" stop-color="#F2E090"/>
<stop offset="1" stop-color="#E8C96F"/>
</linearGradient>
</defs>
</svg>
