<svg width="27" height="27" viewBox="0 0 27 27" fill="none" xmlns="http://www.w3.org/2000/svg">
<path d="M4.28538 11.1184C4.28538 6.07943 7.98851 1.90537 12.8218 1.16918C12.3236 1.09325 11.8132 1.05383 11.2937 1.05383C5.73521 1.05383 1.22913 5.55992 1.22913 11.1184C1.22913 16.6769 5.73521 21.183 11.2937 21.183C11.8132 21.183 12.3236 21.1436 12.8218 21.0676C7.98851 20.3314 4.28538 16.1574 4.28538 11.1184Z" fill="#EAEAEA"/>
<path d="M11.1288 22.2369C4.99809 22.2369 0.010376 17.2492 0.010376 11.1185C0.010376 4.98771 4.99809 0 11.1288 0C17.2596 0 22.2473 4.98771 22.2473 11.1185C22.2473 17.2492 17.2595 22.2369 11.1288 22.2369ZM11.1288 2.10777C6.16031 2.10777 2.11814 6.14993 2.11814 11.1185C2.11814 16.087 6.16031 20.1292 11.1288 20.1292C16.0974 20.1292 20.1395 16.087 20.1395 11.1185C20.1395 6.14993 16.0973 2.10777 11.1288 2.10777Z" fill="white"/>
<path d="M26.6811 26.6913C26.4753 26.8971 26.2056 27 25.9359 27C25.6661 27 25.3964 26.8971 25.1907 26.6913L20.4745 21.9752C20.0629 21.5636 20.0629 20.8963 20.4745 20.4847C20.8861 20.0732 21.5534 20.0732 21.9649 20.4847L26.6811 25.2009C27.0926 25.6125 27.0926 26.2797 26.6811 26.6913ZM16.15 9.29229L15.4479 9.71353C15.5855 10.1434 15.6605 10.6011 15.6605 11.076C15.6605 11.5509 15.5855 12.0086 15.4479 12.4385L16.15 12.8597C16.6491 13.1592 16.8109 13.8065 16.5115 14.3056C16.3139 14.6349 15.9648 14.8174 15.6067 14.8174C15.4222 14.8174 15.2353 14.7689 15.0655 14.667L14.3505 14.238C13.7773 14.8124 13.0492 15.2315 12.2353 15.4285V16.3454C12.2353 16.9274 11.7634 17.3992 11.1814 17.3992C10.5993 17.3992 10.1275 16.9274 10.1275 16.3454V15.4285C9.29504 15.2269 8.55295 14.7925 7.974 14.1978L7.19191 14.667C7.02218 14.7689 6.83522 14.8174 6.65069 14.8174C6.29263 14.8174 5.94359 14.6349 5.74598 14.3056C5.44652 13.8065 5.6084 13.1591 6.10747 12.8597L6.89804 12.3853C6.7711 11.9709 6.70233 11.5314 6.70233 11.076C6.70233 10.6206 6.7711 10.181 6.89804 9.76664L6.10741 9.29229C5.60829 8.99283 5.44647 8.34548 5.74593 7.84636C6.04544 7.34724 6.69274 7.18542 7.19186 7.48488L7.97395 7.95412C8.5529 7.35941 9.29499 6.925 10.1275 6.7234V5.80657C10.1275 5.22451 10.5993 4.75269 11.1813 4.75269C11.7634 4.75269 12.2352 5.22451 12.2352 5.80657V6.7234C13.0491 6.92047 13.7773 7.3395 14.3504 7.91392L15.0654 7.48488C15.5646 7.18542 16.2119 7.3473 16.5113 7.84636C16.811 8.34548 16.6491 8.99283 16.15 9.29229ZM13.5527 11.076C13.5527 9.76849 12.489 8.70475 11.1815 8.70475C9.87399 8.70475 8.81025 9.76849 8.81025 11.076C8.81025 12.3835 9.87399 13.4472 11.1815 13.4472C12.489 13.4472 13.5527 12.3835 13.5527 11.076Z" fill="white"/>
<path d="M26.6811 26.6913C26.4753 26.8971 26.2056 27 25.9359 27C25.6661 27 25.3964 26.8971 25.1907 26.6913L20.4745 21.9752C20.0629 21.5636 20.0629 20.8963 20.4745 20.4847C20.8861 20.0732 21.5534 20.0732 21.9649 20.4847L26.6811 25.2009C27.0926 25.6125 27.0926 26.2797 26.6811 26.6913ZM16.15 9.29229L15.4479 9.71353C15.5855 10.1434 15.6605 10.6011 15.6605 11.076C15.6605 11.5509 15.5855 12.0086 15.4479 12.4385L16.15 12.8597C16.6491 13.1592 16.8109 13.8065 16.5115 14.3056C16.3139 14.6349 15.9648 14.8174 15.6067 14.8174C15.4222 14.8174 15.2353 14.7689 15.0655 14.667L14.3505 14.238C13.7773 14.8124 13.0492 15.2315 12.2353 15.4285V16.3454C12.2353 16.9274 11.7634 17.3992 11.1814 17.3992C10.5993 17.3992 10.1275 16.9274 10.1275 16.3454V15.4285C9.29504 15.2269 8.55295 14.7925 7.974 14.1978L7.19191 14.667C7.02218 14.7689 6.83522 14.8174 6.65069 14.8174C6.29263 14.8174 5.94359 14.6349 5.74598 14.3056C5.44652 13.8065 5.6084 13.1591 6.10747 12.8597L6.89804 12.3853C6.7711 11.9709 6.70233 11.5314 6.70233 11.076C6.70233 10.6206 6.7711 10.181 6.89804 9.76664L6.10741 9.29229C5.60829 8.99283 5.44647 8.34548 5.74593 7.84636C6.04544 7.34724 6.69274 7.18542 7.19186 7.48488L7.97395 7.95412C8.5529 7.35941 9.29499 6.925 10.1275 6.7234V5.80657C10.1275 5.22451 10.5993 4.75269 11.1813 4.75269C11.7634 4.75269 12.2352 5.22451 12.2352 5.80657V6.7234C13.0491 6.92047 13.7773 7.3395 14.3504 7.91392L15.0654 7.48488C15.5646 7.18542 16.2119 7.3473 16.5113 7.84636C16.811 8.34548 16.6491 8.99283 16.15 9.29229ZM13.5527 11.076C13.5527 9.76849 12.489 8.70475 11.1815 8.70475C9.87399 8.70475 8.81025 9.76849 8.81025 11.076C8.81025 12.3835 9.87399 13.4472 11.1815 13.4472C12.489 13.4472 13.5527 12.3835 13.5527 11.076Z" fill="url(#paint0_linear)"/>
<defs>
<linearGradient id="paint0_linear" x1="5.3213" y1="16.1124" x2="27.1629" y2="16.1124" gradientUnits="userSpaceOnUse">
<stop stop-color="#E2C35D"/>
<stop offset="0.485719" stop-color="#F2E090"/>
<stop offset="1" stop-color="#E8C96F"/>
</linearGradient>
</defs>
</svg>
