<svg width="17" height="17" viewBox="0 0 17 17" fill="none" xmlns="http://www.w3.org/2000/svg">
<path d="M8.5 17C13.1944 17 17 13.1944 17 8.5C17 3.80558 13.1944 0 8.5 0C3.80558 0 0 3.80558 0 8.5C0 13.1944 3.80558 17 8.5 17Z" fill="black"/>
<path d="M14.8675 7.79291V7.82691C14.1306 8.28804 13.3885 8.74385 12.6484 9.20391C12.6344 9.21406 12.6234 9.22783 12.6166 9.24376C12.8142 9.29688 13.0187 9.33673 13.2062 9.42279C13.3794 9.49982 13.5569 9.60023 13.6546 9.76863C13.7481 9.9397 13.7715 10.1405 13.7194 10.328C13.6913 10.4683 13.6323 10.6 13.5792 10.7334C13.3571 11.2657 13.134 11.7964 12.9135 12.3309C12.9028 12.3573 12.8885 12.3821 12.871 12.4047C12.7982 12.4031 12.7286 12.3765 12.6575 12.3601C12.2983 12.2714 11.9371 12.1842 11.578 12.0944C11.4611 12.0615 11.341 12.0424 11.2257 12.0041C11.2289 11.9314 11.2704 11.8692 11.2948 11.8039L11.7878 10.6239C11.825 10.5421 11.8468 10.4401 11.7936 10.3604C11.7272 10.2468 11.5939 10.2037 11.476 10.1713C11.0425 10.0598 10.6058 9.9567 10.1712 9.84885C10.1091 9.83557 10.0485 9.80741 9.98315 9.81591C9.9449 9.88285 9.92258 9.95829 9.89177 10.0305C9.7069 10.464 9.52946 10.9002 9.34565 11.3337C9.31908 11.3943 9.30315 11.4612 9.26277 11.5143C9.19052 11.5143 9.12252 11.4862 9.05293 11.4697C8.68158 11.3783 8.31024 11.2848 7.9373 11.1945C7.83265 11.1664 7.72321 11.1488 7.61962 11.1132C7.62089 11.0838 7.62736 11.0549 7.63874 11.0277L9.51565 6.52801C9.52214 6.51293 9.53238 6.49976 9.5454 6.48976C9.61074 6.49401 9.6729 6.52057 9.73665 6.53545C10.0527 6.61088 10.3694 6.69216 10.686 6.7692C10.8501 6.8117 11.0186 6.84463 11.1816 6.89351C11.1901 6.92432 11.1753 6.95566 11.1636 6.98488C11.0361 7.27495 10.9192 7.56926 10.7954 7.85932L10.4124 8.77945C10.3694 8.88729 10.3131 8.99088 10.2833 9.10457C10.3386 9.08545 10.3858 9.05304 10.4342 9.0201L12.9342 7.45291C12.9799 7.42423 13.0214 7.38598 13.0734 7.3727C13.1499 7.36685 13.2222 7.39607 13.295 7.41254C13.55 7.46726 13.8007 7.54004 14.0536 7.59848C14.3277 7.65957 14.5965 7.73501 14.8675 7.79291ZM8.96846 6.89032C8.98174 7.15807 8.87974 7.41254 8.77508 7.65213C8.49246 8.33107 8.20665 9.00841 7.92561 9.68735C7.82361 9.92695 7.7349 10.1772 7.57818 10.3886C7.46662 10.5459 7.31149 10.667 7.13193 10.736C6.90558 10.8068 6.6659 10.8241 6.43174 10.7865C6.02799 10.736 5.63487 10.6271 5.23961 10.532C4.70305 10.3976 4.16277 10.2675 3.62621 10.1325C3.26974 10.047 2.91008 9.9551 2.57858 9.79254C2.43555 9.72319 2.314 9.61633 2.2269 9.48335C2.15962 9.3736 2.12997 9.24491 2.14243 9.11679C2.17058 8.88145 2.25771 8.65779 2.35227 8.4421L3.21821 6.36226C3.28727 6.20288 3.34783 6.0382 3.43655 5.88785C3.51245 5.7488 3.6133 5.6249 3.73405 5.52235C3.87643 5.41398 4.04377 5.34438 4.22068 5.31941C4.35083 5.30773 4.48099 5.3141 4.61115 5.31676C5.01365 5.37625 5.41226 5.45963 5.80487 5.56645C6.35524 5.69926 6.90402 5.83898 7.45387 5.97179C7.70674 6.03395 7.95855 6.0977 8.20558 6.18216C8.3708 6.24273 8.53974 6.30435 8.68477 6.40954C8.84946 6.51632 8.95465 6.69429 8.96846 6.89032ZM7.04533 7.36366C7.05596 7.28557 7.00018 7.21863 6.93483 7.18463C6.80202 7.11238 6.65061 7.08582 6.50611 7.04863C6.12255 6.95301 5.73899 6.85845 5.3533 6.76495C5.24401 6.73291 5.12894 6.72565 5.01649 6.7437C4.88633 6.78088 4.82099 6.91263 4.7769 7.02791C4.55908 7.54588 4.34658 8.06491 4.12771 8.58129C4.1038 8.64185 4.0799 8.70241 4.07458 8.76723C4.07458 8.8416 4.12612 8.90641 4.18933 8.93723C4.28443 8.9861 4.38802 9.0132 4.48843 9.03976L5.6864 9.33407C5.82558 9.36648 5.97168 9.40207 6.11405 9.37126C6.23358 9.33248 6.29468 9.20976 6.33877 9.10191L6.9258 7.69357C6.97202 7.58732 7.03099 7.48213 7.04586 7.3642L7.04533 7.36366Z" fill="white"/>
</svg>
