<svg width="17" height="8" viewBox="0 0 17 8" fill="none" xmlns="http://www.w3.org/2000/svg">
<path d="M16.0002 7.13034H15.6402C15.508 7.12463 15.3815 7.07542 15.2802 6.99034C15.2016 6.91536 15.1491 6.81726 15.1302 6.71034C15.1302 6.57034 15.1302 6.40034 15.1302 6.22034C15.1302 5.68034 15.1302 5.11034 15.0702 4.53034C15.0102 3.95034 15.0702 2.81034 15.0702 2.81034V1.69034C15.0625 1.48574 15.0793 1.28096 15.1202 1.08034C15.1455 0.94759 15.2207 0.829543 15.3302 0.750342C15.4973 0.67315 15.6767 0.625771 15.8602 0.610342H16.0902C16.1044 0.587915 16.112 0.561902 16.112 0.535342C16.112 0.508781 16.1044 0.482769 16.0902 0.460342C16.084 0.436599 16.0728 0.414473 16.0572 0.395485C16.0417 0.376497 16.0222 0.361097 16.0002 0.350342C15.8102 0.350342 15.6302 0.350342 15.4602 0.350342H14.6402C14.5002 0.350342 14.3502 0.350342 14.1502 0.350342C14.1165 0.657601 14.0356 0.95781 13.9102 1.24034L13.3002 2.52034L12.2402 4.64034L11.8202 5.51034C11.6861 5.79859 11.5359 6.07904 11.3702 6.35034C11.2302 6.09034 11.1102 5.85034 10.9802 5.59034L10.6002 4.78034L9.28018 2.18034C9.11018 1.82034 8.95018 1.46034 8.83018 1.18034C8.73637 0.913723 8.68902 0.632981 8.69018 0.350342C8.51018 0.350342 8.34018 0.350342 8.18018 0.350342H7.38018H6.94018C6.9197 0.363217 6.90264 0.380854 6.89045 0.40175C6.87826 0.422645 6.87131 0.446178 6.87018 0.470342C6.85789 0.491624 6.85143 0.515767 6.85143 0.540342C6.85143 0.564917 6.85789 0.589059 6.87018 0.610342H7.04018C7.19939 0.643879 7.35637 0.687296 7.51018 0.740342C7.5617 0.772295 7.60606 0.814549 7.64047 0.864452C7.67489 0.914356 7.69862 0.970833 7.71018 1.03034C7.73801 1.20256 7.73801 1.37813 7.71018 1.55034C7.71018 1.85034 7.71018 2.21034 7.71018 2.62034C7.71018 3.03034 7.71018 3.47034 7.64018 3.91034C7.57018 4.35034 7.64018 4.56034 7.58018 4.82034C7.52018 5.08034 7.58018 5.33034 7.52018 5.55034C7.46018 5.77034 7.52018 6.01034 7.52018 6.24034C7.50661 6.42429 7.46965 6.60575 7.41018 6.78034C7.3957 6.83097 7.37028 6.87781 7.33572 6.91755C7.30117 6.95729 7.25831 6.98897 7.21018 7.01034C7.09981 7.06271 6.98156 7.0965 6.86018 7.11034H6.63018C6.63018 7.11034 6.57018 7.18034 6.63018 7.25034C6.63076 7.27496 6.63638 7.2992 6.6467 7.32156C6.65702 7.34393 6.67182 7.36393 6.69018 7.38034H7.24018H8.34018L8.95018 7.43034C8.97434 7.41008 8.99197 7.38314 9.00086 7.3529C9.00976 7.32265 9.00952 7.29045 9.00018 7.26034C9.01165 7.237 9.01762 7.21135 9.01762 7.18534C9.01762 7.15934 9.01165 7.13368 9.00018 7.11034H8.57018C8.456 7.10924 8.34468 7.07445 8.25018 7.01034C8.16475 6.9293 8.11449 6.81801 8.11018 6.70034C8.07583 6.48839 8.07583 6.27229 8.11018 6.06034C8.11018 5.58034 8.11018 5.11034 8.11018 4.64034C8.11018 4.17034 8.11018 3.75034 8.11018 3.40034C8.11018 3.05034 8.16018 2.74034 8.17018 2.40034C8.18018 2.06034 8.17018 1.73034 8.22018 1.40034L8.57018 2.32034L8.93018 3.12034L9.93018 5.27034C10.0202 5.45034 10.1202 5.67034 10.2402 5.94034C10.3602 6.21034 10.5102 6.50034 10.6302 6.77034C10.7366 7.00386 10.8268 7.24443 10.9002 7.49034H10.9502C10.9759 7.50038 11.0045 7.50038 11.0302 7.49034C11.1102 7.31034 11.2002 7.09034 11.3302 6.82034C11.4602 6.55034 11.5902 6.24034 11.7402 5.93034C11.8902 5.62034 12.0702 5.28034 12.2502 4.93034L13.2502 2.99034C13.3202 2.83034 13.4002 2.65034 13.5002 2.45034L13.8002 1.88034C13.8802 1.70034 13.9702 2.38034 13.9702 2.38034H14.0002V6.18034C14.0984 6.3494 14.1339 6.54772 14.1002 6.74034C14.0991 6.79417 14.0849 6.84691 14.0587 6.89397C14.0326 6.94104 13.9953 6.98099 13.9502 7.01034C13.8902 7.08034 13.7702 7.11034 13.5702 7.13034H13.2402C13.2402 7.13034 13.2402 7.20034 13.2402 7.28034C13.2425 7.32984 13.264 7.37649 13.3002 7.41034C13.5302 7.41034 13.7702 7.41034 13.9902 7.35034H15.2902C15.5102 7.35034 15.7402 7.40034 15.9602 7.41034C15.9818 7.39693 15.999 7.37746 16.0097 7.35435C16.0204 7.33124 16.024 7.30551 16.0202 7.28034C16.0295 7.25563 16.0325 7.229 16.029 7.20283C16.0255 7.17665 16.0156 7.15175 16.0002 7.13034Z" fill="#E12626"/>
<path d="M5.4 0.440379C5.11236 0.278781 4.80231 0.160826 4.48 0.0903782C4.08328 0.0263292 3.68183 -0.0037795 3.28 0.000378474C2.83 0.000378474 2.43 0.000378474 2.07 0.000378474C1.71 0.000378474 1.39 0.000378419 1.07 0.0603784C1.04577 0.0766227 1.02643 0.0991842 1.01409 0.125623C1.00176 0.152061 0.996883 0.18137 1 0.210379C0.996747 0.241892 1.00511 0.273508 1.02353 0.299287C1.04194 0.325067 1.06914 0.343235 1.1 0.350378H1.48C1.61185 0.348304 1.7399 0.394544 1.84 0.480378C1.89718 0.5268 1.94179 0.586832 1.96974 0.654971C1.9977 0.723109 2.0081 0.797175 2 0.870378C2.01348 1.10685 2.01348 1.3439 2 1.58038V3.82038C2.33303 3.84038 2.66697 3.84038 3 3.82038V0.690379C2.97304 0.595592 2.97304 0.495165 3 0.400379C3.01545 0.372201 3.03689 0.34775 3.0628 0.328746C3.08872 0.309742 3.11848 0.296645 3.15 0.290378H3.6C3.8536 0.272658 4.10818 0.30601 4.34866 0.38846C4.58914 0.470909 4.81062 0.600779 5 0.770378C5.3182 1.13437 5.48307 1.60746 5.46 2.09038C5.48573 2.54203 5.35115 2.98826 5.08 3.35038C4.82502 3.66264 4.47308 3.88085 4.08 3.97038C3.44389 4.08842 2.7962 4.13205 2.15 4.10038C1.47 4.08038 0.76 4.04038 0 3.97038C0.590915 4.10703 1.18834 4.21384 1.79 4.29038C2.4901 4.38582 3.1999 4.38582 3.9 4.29038C4.21716 4.24128 4.52868 4.16089 4.83 4.05038C5.11881 3.91843 5.39355 3.75761 5.65 3.57038C5.83841 3.42066 5.9891 3.22886 6.09 3.01038C6.20748 2.73881 6.26871 2.44626 6.27 2.15038C6.26938 1.79912 6.17625 1.45422 6 1.15038C5.86444 0.866014 5.65778 0.621457 5.4 0.440379Z" fill="#E12626"/>
<path d="M3.81975 7.07033C3.62808 7.07707 3.43812 7.03217 3.26975 6.94033C3.20424 6.8939 3.14908 6.83438 3.10777 6.76552C3.06646 6.69667 3.03989 6.61999 3.02975 6.54033C3.00081 6.24771 3.00081 5.95295 3.02975 5.66033V4.59033C2.69716 4.62173 2.36235 4.62173 2.02975 4.59033V5.70033C2.03398 5.99448 2.01728 6.28856 1.97975 6.58033C1.98369 6.65581 1.96719 6.73095 1.93199 6.79782C1.89679 6.8647 1.8442 6.92085 1.77975 6.96033C1.63564 7.06703 1.4588 7.12008 1.27975 7.11033H1.02975C1.00609 7.12636 0.988366 7.14974 0.979327 7.17686C0.970289 7.20397 0.970439 7.23331 0.979753 7.26033C0.977402 7.28785 0.982693 7.31548 0.995044 7.34019C1.0074 7.36489 1.02633 7.3857 1.04975 7.40033L1.76975 7.35033H3.22975L4.12975 7.40033C4.12975 7.40033 4.12975 7.32033 4.19975 7.26033C4.20993 7.23664 4.21518 7.21112 4.21518 7.18533C4.21518 7.15954 4.20993 7.13403 4.19975 7.11033L3.81975 7.07033Z" fill="#E12626"/>
</svg>
