<svg width="19" height="20" viewBox="0 0 19 20" fill="none" xmlns="http://www.w3.org/2000/svg">
<g clip-path="url(#clip0)">
<path d="M19.0003 13.8588H18.5728C18.4159 13.8521 18.2656 13.7942 18.1453 13.6941C18.0521 13.6059 17.9897 13.4905 17.9672 13.3647C17.9672 13.2 17.9672 13 17.9672 12.7882C17.9672 12.1529 17.9672 11.4823 17.896 10.8C17.8247 10.1176 17.896 8.77644 17.896 8.77644V7.45879C17.8868 7.21809 17.9068 6.97717 17.9553 6.74115C17.9855 6.58497 18.0747 6.44609 18.2047 6.35291C18.4032 6.2621 18.6162 6.20636 18.8341 6.18821H19.1072C19.1241 6.16182 19.1331 6.13122 19.1331 6.09997C19.1331 6.06872 19.1241 6.03812 19.1072 6.01174C19.0999 5.9838 19.0865 5.95777 19.0681 5.93543C19.0496 5.9131 19.0265 5.89498 19.0003 5.88232C18.7747 5.88232 18.561 5.88232 18.3591 5.88232H17.3853C17.2191 5.88232 17.041 5.88232 16.8035 5.88232C16.7635 6.24381 16.6673 6.59699 16.5185 6.92938L15.7941 8.43527L14.5353 10.9294L14.0366 11.9529C13.8774 12.292 13.699 12.622 13.5022 12.9411C13.336 12.6353 13.1935 12.3529 13.0391 12.047L12.5878 11.0941L11.0203 8.03527C10.8185 7.61174 10.6285 7.18821 10.486 6.85879C10.3746 6.54513 10.3183 6.21484 10.3197 5.88232C10.106 5.88232 9.90409 5.88232 9.71409 5.88232H8.76409H8.24159C8.21727 5.89747 8.19701 5.91822 8.18253 5.9428C8.16806 5.96739 8.1598 5.99507 8.15846 6.0235C8.14387 6.04854 8.13619 6.07694 8.13619 6.10585C8.13619 6.13477 8.14387 6.16317 8.15846 6.18821H8.36034C8.5494 6.22766 8.73581 6.27874 8.91846 6.34115C8.97964 6.37874 9.03231 6.42845 9.07318 6.48716C9.11405 6.54587 9.14223 6.61231 9.15596 6.68232C9.18901 6.88493 9.18901 7.09148 9.15596 7.29409C9.15596 7.64703 9.15596 8.07056 9.15596 8.55291C9.15596 9.03527 9.15596 9.55291 9.07284 10.0706C8.98971 10.5882 9.07284 10.8353 9.00159 11.1411C8.93034 11.447 9.00159 11.7411 8.93034 12C8.85909 12.2588 8.93034 12.5411 8.93034 12.8117C8.91423 13.0281 8.87033 13.2416 8.79971 13.447C8.78251 13.5066 8.75233 13.5617 8.71129 13.6085C8.67026 13.6552 8.61937 13.6925 8.56221 13.7176C8.43115 13.7792 8.29072 13.819 8.14659 13.8353H7.87346C7.87346 13.8353 7.80221 13.9176 7.87346 14C7.87415 14.0289 7.88082 14.0575 7.89308 14.0838C7.90533 14.1101 7.92291 14.1336 7.94471 14.1529H8.59784H9.90409L10.6285 14.2117C10.6571 14.1879 10.6781 14.1562 10.6886 14.1206C10.6992 14.085 10.6989 14.0472 10.6878 14.0117C10.7015 13.9843 10.7085 13.9541 10.7085 13.9235C10.7085 13.8929 10.7015 13.8627 10.6878 13.8353H10.1772C10.0416 13.834 9.90943 13.793 9.79721 13.7176C9.69577 13.6223 9.63608 13.4913 9.63096 13.3529C9.59017 13.1036 9.59017 12.8493 9.63096 12.6C9.63096 12.0353 9.63096 11.4823 9.63096 10.9294C9.63096 10.3764 9.63096 9.88232 9.63096 9.47056C9.63096 9.05879 9.69034 8.69409 9.70221 8.29409C9.71409 7.89409 9.70221 7.50585 9.76159 7.11762L10.1772 8.19997L10.6047 9.14115L11.7922 11.6706C11.8991 11.8823 12.0178 12.1411 12.1603 12.4588C12.3028 12.7764 12.481 13.1176 12.6235 13.4353C12.7498 13.71 12.857 13.993 12.9441 14.2823H13.0035C13.034 14.2941 13.0679 14.2941 13.0985 14.2823C13.1935 14.0706 13.3003 13.8117 13.4547 13.4941C13.6091 13.1764 13.7635 12.8117 13.9416 12.447C14.1197 12.0823 14.3335 11.6823 14.5472 11.2706L15.7347 8.98821C15.8178 8.79997 15.9128 8.58821 16.0316 8.35291L16.3878 7.68232C16.4828 7.47056 16.5897 8.27056 16.5897 8.27056H16.6253V12.7411C16.742 12.94 16.7841 13.1734 16.7441 13.4C16.7428 13.4633 16.7259 13.5253 16.6949 13.5807C16.6638 13.6361 16.6196 13.6831 16.566 13.7176C16.4947 13.8 16.3522 13.8353 16.1147 13.8588H15.7228C15.7228 13.8588 15.7228 13.9411 15.7228 14.0353C15.7255 14.0935 15.7511 14.1484 15.7941 14.1882C16.0672 14.1882 16.3522 14.1882 16.6135 14.1176H18.1572C18.4185 14.1176 18.6916 14.1764 18.9528 14.1882C18.9785 14.1724 18.999 14.1495 19.0116 14.1223C19.0243 14.0951 19.0286 14.0649 19.0241 14.0353C19.0351 14.0062 19.0387 13.9749 19.0346 13.9441C19.0305 13.9133 19.0187 13.884 19.0003 13.8588Z" fill="#DD2626"/>
<path d="M6.4125 5.98819C6.07093 5.79807 5.70274 5.6593 5.32 5.57642C4.8489 5.50107 4.37217 5.46565 3.895 5.47054C3.36063 5.47054 2.88562 5.47054 2.45812 5.47054C2.03062 5.47054 1.65063 5.47054 1.27063 5.54113C1.24185 5.56024 1.21889 5.58678 1.20424 5.61788C1.18959 5.64899 1.1838 5.68347 1.1875 5.7176C1.18364 5.75467 1.19357 5.79187 1.21544 5.8222C1.23731 5.85252 1.2696 5.8739 1.30625 5.8823H1.7575C1.91407 5.87986 2.06613 5.93426 2.185 6.03524C2.2529 6.08986 2.30588 6.16048 2.33907 6.24065C2.37227 6.32081 2.38462 6.40795 2.375 6.49407C2.391 6.77227 2.391 7.05116 2.375 7.32936V9.96466C2.77048 9.98819 3.16702 9.98819 3.5625 9.96466V6.2823C3.53048 6.17079 3.53048 6.05264 3.5625 5.94113C3.58085 5.90798 3.6063 5.87921 3.63708 5.85685C3.66785 5.83449 3.7032 5.81909 3.74063 5.81171H4.275C4.57615 5.79087 4.87846 5.8301 5.16403 5.9271C5.4496 6.0241 5.71261 6.17689 5.9375 6.37642C6.31537 6.80465 6.51114 7.36122 6.48375 7.92936C6.5143 8.46072 6.35449 8.98569 6.0325 9.41171C5.72971 9.77909 5.31178 10.0358 4.845 10.1411C4.08962 10.28 3.32049 10.3313 2.55313 10.2941C1.74563 10.2705 0.9025 10.2235 0 10.1411C0.701711 10.3019 1.41115 10.4275 2.12562 10.5176C2.95699 10.6299 3.79989 10.6299 4.63125 10.5176C5.00788 10.4598 5.37781 10.3653 5.73562 10.2352C6.07859 10.08 6.40484 9.89081 6.70937 9.67054C6.93311 9.49439 7.11206 9.26875 7.23188 9.01171C7.37138 8.69223 7.4441 8.34805 7.44562 7.99995C7.44488 7.5867 7.3343 7.18094 7.125 6.82348C6.96403 6.48893 6.71861 6.20122 6.4125 5.98819Z" fill="#DD2626"/>
<path d="M4.5362 13.7883C4.30859 13.7962 4.08301 13.7434 3.88308 13.6353C3.80528 13.5807 3.73978 13.5107 3.69072 13.4297C3.64166 13.3486 3.61011 13.2584 3.59808 13.1647C3.5637 12.8205 3.5637 12.4737 3.59808 12.1294V10.8706C3.20312 10.9075 2.80553 10.9075 2.41058 10.8706V12.1765C2.4156 12.5225 2.39576 12.8685 2.3512 13.2118C2.35588 13.3006 2.33628 13.389 2.29448 13.4677C2.25268 13.5463 2.19023 13.6124 2.1137 13.6588C1.94256 13.7844 1.73257 13.8468 1.51995 13.8353H1.22308C1.19497 13.8542 1.17393 13.8817 1.1632 13.9136C1.15246 13.9455 1.15264 13.98 1.1637 14.0118C1.16091 14.0442 1.16719 14.0767 1.18186 14.1057C1.19653 14.1348 1.21901 14.1593 1.24683 14.1765L2.10183 14.1177H3.83558L4.90433 14.1765C4.90433 14.1765 4.90433 14.0824 4.98745 14.0118C4.99954 13.9839 5.00577 13.9539 5.00577 13.9235C5.00577 13.8932 4.99954 13.8632 4.98745 13.8353L4.5362 13.7883Z" fill="#DD2626"/>
</g>
<defs>
<clipPath id="clip0">
<rect width="19" height="20" fill="white"/>
</clipPath>
</defs>
</svg>
