<?xml version="1.0" encoding="utf-8"?><svg xmlns="http://www.w3.org/2000/svg" xmlns:xlink="http://www.w3.org/1999/xlink"><symbol viewBox="0 0 6.8 3.1" id="arrow" xmlns="http://www.w3.org/2000/svg"><path d="M5.917.258L5.745.086a.284.284 0 0 0-.202-.084.284.284 0 0 0-.202.084L3.387 2.039 1.432.083A.284.284 0 0 0 1.229 0a.284.284 0 0 0-.202.083L.856.255a.286.286 0 0 0 0 .404l2.328 2.337a.292.292 0 0 0 .203.092h.001a.292.292 0 0 0 .202-.092L5.917.666a.289.289 0 0 0 0-.408z"/></symbol><symbol viewBox="0 0 6 5" id="arrow-2" xmlns="http://www.w3.org/2000/svg"><path d="M2.567.75a.5.5 0 0 1 .866 0l1.732 3a.5.5 0 0 1-.433.75H1.268a.5.5 0 0 1-.433-.75l1.732-3z"/></symbol><symbol viewBox="0 0 788 788" id="bch" xmlns="http://www.w3.org/2000/svg"><title>12-bitcoin-cash-square-crop</title><circle class="accls-1" cx="394" cy="394" r="394"/><path class="accls-2" fill="#fff" d="M551.124 407.914l-.187-.346-.031-.058c-.113-.348-.2-.713-.326-1.089l-.016-.03-.016-.029-.016-.029-.016-.029-.016-.029-.016-.029-.032-.058a68.435 68.435 0 0 0-22.372-33.478l-.015-.029c-.315-.24-.646-.51-.962-.747l-.435-.324-.315-.239-.135-.114-.3-.211-.135-.113-.3-.211-.135-.113-.315-.239-.165-.1-.315-.239-.165-.1-.34-.224-.165-.1-.2-.3-.18-.127-.34-.224-.179-.127-.341-.225-.179-.126-.34-.225-.18-.127-.36-.255-.179-.127-.388-.238-.18-.126-.387-.239-.18-.126-.388-.239-.179-.126-.388-.239-.209-.11-.388-.238-.208-.111-.418-.222-.208-.11-.433-.251-.208-.11-.433-.25-.209-.111-.433-.25-.224-.139-.433-.251-.225-.139-.461-.236-.224-.139-.462-.236-.312-.17-.016-.029c-.224-.139-.461-.236-.686-.376a95.508 95.508 0 0 0-30.588-9.665 85.552 85.552 0 0 0 8.195-10.293l.393-.584.029-.016.182-.284.238-.388.127-.18.238-.387.126-.18.239-.388.126-.179.239-.388.126-.18.238-.388.126-.179.209-.374.127-.179.208-.374.1-.165.208-.373.1-.165.208-.373.1-.165.18-.358.1-.165.179-.357.1-.165.179-.357.1-.165.195-.329.1-.165.2-.328.1-.165.171-.312.1-.165.17-.313.069-.148.171-.313.068-.149.171-.312.068-.149.171-.312.069-.149.137-.3.069-.149.138-.3.069-.149.138-.3.069-.148.151-.341.207-.445c.151-.341.273-.668.425-1.01l.029-.016a60.785 60.785 0 0 0 3.088-35.684l-.016-.029-.032-.058-.016-.029-.015-.029-.016-.029-.016-.029-.017-.029-.015-.028a11.288 11.288 0 0 0-.235-.992v-.073l-.016-.029-.016-.029-.016-.028.016.028-.14-.259c-.1-.466-.2-.936-.35-1.411-.1-.466-.248-.946-.379-1.4l-.171-.317-.031-.058c-.1-.319-.195-.64-.293-.959l-.017-.029-.016-.029-.016-.029-.015-.029-.016-.028-.017-.029-.015-.029a60.8 60.8 0 0 0-19.9-29.784l-.017-.03c-.27-.227-.57-.438-.841-.663l-.374-.283-.3-.22-.135-.113-.256-.2-.135-.114-.255-.2-.135-.113-.284-.182-.136-.113-.3-.211-.135-.113-.3-.211-.136-.113-.3-.211-.165-.1-.3-.211-.165-.1-.3-.211-.165-.1-.328-.195-.165-.1-.328-.195-.165-.1-.329-.195-.165-.1-.328-.2-.165-.1-.34-.225-.165-.1-.345-.224-.165-.1-.373-.209-.165-.1-.373-.209-.18-.127-.373-.208-.179-.127-.373-.208-.18-.127-.387-.238-.209-.111-.388-.238-.208-.11-.418-.223-.208-.11-.418-.222-.3-.138-.016-.029-.626-.332c-18.294-9.508-41.536-12.371-64.92-6.372l-6.083 1.562-15.415-59.862-35.652 9.14 15.3 59.681-28.521 7.316-15.348-59.486L280.027 210l15.335 59.676-73.529 18.924 9.783 38.025 29.627-7.609a18.335 18.335 0 0 1 22.332 13.178l.008.034 41.128 160.01a12.249 12.249 0 0 1-8.8 14.9l-25.96 6.678 1.525 45.223 73.435-18.874 15.537 59.568 35.636-9.169-15.35-59.706 28.521-7.316 15.35 59.7 35.636-9.169-15.4-59.938a6704.9 6704.9 0 0 1 14.827-3.85c26.353-6.779 47.663-22.232 60.558-41.494l.436-.643.029-.016.211-.3.28-.448.139-.225.28-.448.14-.225.25-.433.139-.224.25-.433.111-.209.25-.433.111-.208.25-.433.11-.209.222-.417.111-.209.222-.417.11-.209.239-.388.11-.208.238-.388.111-.208.208-.374.111-.208.208-.373.111-.208.208-.373.085-.193.209-.373.085-.193.179-.357.1-.165.18-.357.1-.165.179-.358.1-.165.179-.357.1-.165.18-.357.1-.165.18-.358.1-.165.151-.34.1-.165.151-.34.069-.149.165-.386.221-.491c.165-.386.344-.744.479-1.114l.014-.045a68.5 68.5 0 0 0 3.482-40.138l-.016-.029-.016-.029-.016-.029-.016-.029-.016-.029-.016-.029-.016-.029-.016-.029-.255-1.092v-.073l-.015-.029-.016-.029-.017-.029-.016-.029-.015-.029-.016-.029-.016-.029-.016-.029-.016-.028-.016-.029-.016-.029-.015-.029-.016-.029-.063-.115c-.132-.523-.237-1.062-.4-1.572-.025-.318-.101-.874-.133-1.489zM341.641 300.876c6.083-1.561 31.233-7.878 39.526-10.037 13.185-3.375 26.172-2.065 36.323 2.82l.341.151.148.069.209.11.1.056.208.11.1.056.208.11.1.056.209.11.1.055.209.111.1.055.209.111.1.055.208.111.1.055.208.111.1.055.208.111.1.055.18.127.1.055.179.127.1.055.179.127.1.055.165.1.1.055.165.1.1.055.165.1.1.055.165.1.1.055.165.1.076.072.165.1.06.041.165.1.059.042.165.1.06.041.165.1.059.042.136.113.059.042.165.1.225.14c.165.1.315.241.48.34a30.749 30.749 0 0 1 10.9 15.612l.046.085c.048.16.113.348.161.51l.016.03.094.17c.066.262.146.48.214.741a4.436 4.436 0 0 1 .142.817l.093.17.016.029a2.557 2.557 0 0 0 .133.523l.046.085a30.857 30.857 0 0 1-2.029 18.931l-.234.535-.124.255-.1.165-.027.089-.069.149-.027.089-.1.165-.027.086-.1.165-.027.089-.1.165-.027.085-.1.165-.027.089-.1.165-.028.09-.1.165-.056.1-.1.165-.056.1-.1.165-.055.1-.1.165-.055.1-.127.179-.055.1-.127.18-.055.1-.127.179-.055.1-.127.179-.055.1-.127.18-.055.1-.127.18-.055.1-.127.179-.055.1-.127.179-.055.1-.156.195-.055.1-.156.195-.055.1-.156.195-.055.1-.156.195-.113.135-.211.3c-6.557 9.188-17.3 16.609-30.485 19.983-8.309 2.127-33.393 8.706-39.471 10.268zM481 423.55l.094.17.016.029c.035.2.085.364.12.568l.016.03.016.029.017.029.016.029a31.694 31.694 0 0 1-2.867 20.675l-.319.581-.153.269-.111.208-.055.1-.1.165-.055.1-.1.165-.055.1-.127.179-.055.1-.127.179-.055.1-.127.18-.055.1-.127.179-.055.1-.127.179-.055.1-.127.18-.055.1-.127.18-.055.1-.127.179-.055.1-.127.179-.055.1-.156.195-.055.1-.156.195-.055.1-.14.225-.055.1-.141.224-.055.1-.139.225-.086.12-.139.224-.085.12-.17.239-.085.12-.17.239-.086.12-.17.239-.085.12-.17.239-.085.12-.17.239-.142.152-.269.33c-7.964 10.169-20.807 18.533-36.409 22.537-9.836 2.54-39.562 10.314-46.794 12.16l-20.237-78.739c7.217-1.872 37.025-9.357 46.861-11.9 15.6-4 30.914-2.869 42.754 2.186l.386.165.193.085.283.108.132.039.256.124.132.039.256.125.132.039.255.124.1.055.255.124.1.056.255.124.1.055.255.124.1.056.209.11.1.056.209.11.1.056.208.11.1.055.208.111.1.055.208.111.1.055.209.111.1.055.209.111.1.055.208.111.1.055.208.11.1.056.179.126.1.056.18.127.1.055.18.127.1.055.179.127.1.055.18.127.1.055.165.1.1.055.18.127.239.17c.179.127.388.238.569.364a31.789 31.789 0 0 1 12.547 16.799l.062.115c.064.188.113.349.177.537l.016.028.093.171c.067.262.133.523.216.815.147.063.17.385.125.782z"/></symbol><symbol id="bch-logo" viewBox="0 0 55.2 70.3" xmlns="http://www.w3.org/2000/svg"><style>.adst0{fill:#363635}</style><title>Artboard 51</title><path class="adst0" d="M54.9 30.5c1.7-7.3-3.6-11.7-11.1-14.9L47 5.8l-5.9-2-3.1 9.6c-1.6-.5-3.2-1-4.7-1.6l3.2-9.5-6-2-3.2 9.8c-1.3-.4-2.6-.8-3.8-1.3l-8.2-2.7-2.1 6.3s4.4 1.4 4.3 1.4c2.4.8 2.7 2.5 2.6 3.7l-3.7 11.1c.2.1.4.1.6.2l-.7-.2L11 44.4c-.5 1.1-1.8 1.6-2.9 1.2.1.1-4.3-1.4-4.3-1.4L.2 50.9 8 53.4l4.3 1.4L9 64.7l6 2 3.2-9.8c1.6.5 3.2 1.1 4.7 1.6l-3.2 9.7 6 2 3.3-9.9c10.2 2.9 18 2.7 22-6.4 3.2-7.4.8-11.9-4.5-15.2 3.9-.5 7.1-2.9 8.4-8.2zM39.6 48.9c-2.4 7.4-14.8 2.3-18.9 1L25 36.7c4.1 1.4 17.1 4.5 14.6 12.2zm3.3-19.4c-2.2 6.7-12.5 2.4-15.9 1.3l4-11.9c3.4 1.1 14.3 3.6 11.9 10.6z"/></symbol><symbol viewBox="0 0 2500.01 2500" id="bnb-logo" xmlns="http://www.w3.org/2000/svg"><defs><style>.aecls-1{fill:#f3ba2f}</style></defs><title>bi</title><g id="aeLayer_2" data-name="Layer 2"><g id="aeLayer_1-2" data-name="Layer 1"><path class="aecls-1" d="M764.48 1050.52L1250 565l485.75 485.73 282.5-282.5L1250 0 482 768l282.49 282.5M0 1250l282.51-282.55L565 1249.94l-282.51 282.51zm764.48 199.51L1250 1935l485.74-485.72 282.65 282.35-.14.15L1250 2500l-768-768-.4-.4 282.91-282.12M1935 1250.12l282.51-282.51L2500 1250.1l-282.5 282.51z"/><path class="aecls-1" d="M1536.52 1249.85h.12L1250 963.19 1038.13 1175l-24.34 24.35-50.2 50.21-.4.39.4.41L1250 1536.81l286.66-286.66.14-.16-.26-.14"/></g></g></symbol><symbol viewBox="0 0 258 258" id="btc" xmlns="http://www.w3.org/2000/svg"><path d="M118.667 133.206l23.426 6.277c10.933 2.929 15.486 11.96 12.437 22.303-2.023 7.548-7.22 13.409-14.165 14.338-2.621.413-6.075-.234-8.938-1l-22.385-5.999 9.625-35.92zm41.846-39.562c3.987 3.858 4.935 9.692 3.331 15.678-2.51 9.37-9.72 14.413-19.09 11.903l-21.345-5.72 8.44-31.495 18.74 5.022c4.165 1.116 7.67 2.613 9.924 4.612zm-31.816 99.998l-4.882 18.22-12.234-3.278 4.882-18.22-12.754-3.418-4.882 18.221-12.234-3.278 4.883-18.221-24.468-6.556 4.463-16.658 7.549 2.023c3.904 1.046 7.604-1.31 8.58-4.955l19.738-73.662c1.047-3.905-1.31-7.604-4.953-8.58-5.033-1.35-7.55-2.023-7.55-2.023s1.489-5.553 4.464-16.66l24.468 6.557 4.882-18.22 12.234 3.277L136 66.431l12.754 3.418 4.882-18.22 12.234 3.278-4.952 18.48c6.177 1.935 10.913 4.04 15.301 7.448 9.817 7.094 14.645 19.268 11.019 32.803-3.07 11.454-10.786 19.429-21.742 21.793 12.349 8.052 15.198 21.37 11.78 34.124-4.654 16.328-18.795 25.372-32.925 26.05-5.624.166-10.449-.569-15.655-1.963zM5.362 95.87c-18.274 68.196 22.312 138.494 90.51 156.768 68.195 18.273 138.494-22.314 156.767-90.51 18.273-68.197-22.314-138.494-90.51-156.768C93.932-12.912 23.635 27.675 5.362 95.871z" fill-rule="evenodd"/></symbol><symbol id="btc-logo" viewBox="0 0 49.14 68.03" xmlns="http://www.w3.org/2000/svg"><defs><style>.agcls-1{fill:#363635}</style></defs><path class="agcls-1" d="M45.49 21c-.7-7.42-7.1-9.93-15.19-10.66V.04h-6.25v10h-5V0h-6.27v10.3H.14L.1 17s4.63-.08 4.55 0c2.54 0 3.37 1.48 3.6 2.75v11.74a5.92 5.92 0 0 1 .67 0h-.69L8.18 48a2.21 2.21 0 0 1-2.36 2c.08.07-4.56 0-4.56 0L0 57.5h12.64v10.42h6.27v-10.3c1.72 0 3.38.06 5 .06v10.26h6.27v-10.4C40.72 57.06 48.1 54.42 49 44.53c.76-8-3-11.54-9-13 3.64-1.85 5.92-5.1 5.4-10.54zm-8.83 22.25c0 7.79-13.34 6.87-17.59 6.86v-13.8c4.25 0 17.58-1.17 17.56 6.94zm-2.87-19.47c0 7.08-11.13 6.22-14.67 6.22V17.48c3.57.01 14.69-1.09 14.67 6.3z"/></symbol><symbol viewBox="0 0 11 15" id="cab-menu-1" xmlns="http://www.w3.org/2000/svg"><path d="M9.805 0H.774A.772.772 0 0 0 0 .774v10.169c0 .351.171.678.459.88l4.305 3.012a.92.92 0 0 0 1.051 0l4.305-3.012c.288-.202.459-.529.459-.88V.773A.772.772 0 0 0 9.805 0zM8.536 5.806l-1.47 1.25.458 1.881a.405.405 0 0 1-.605.443L5.29 8.356 3.657 9.377a.405.405 0 0 1-.606-.443l.459-1.88-1.47-1.25c-.276-.236-.132-.692.232-.716l1.917-.141.724-1.795a.404.404 0 0 1 .75 0l.724 1.795 1.917.14a.41.41 0 0 1 .232.72z"/></symbol><symbol viewBox="0 0 16 14" id="cab-menu-2" xmlns="http://www.w3.org/2000/svg"><path d="M1.132 11.018a.567.567 0 0 0-.568.567v1.824c0 .314.254.568.568.568h6.53v-2.96h-6.53zm14.301 0H8.914v2.959h6.519a.567.567 0 0 0 .567-.568v-1.824a.567.567 0 0 0-.567-.567zm0-4.211H8.914v2.96h6.519A.567.567 0 0 0 16 9.198V7.375a.567.567 0 0 0-.567-.568zm-14.301 0a.567.567 0 0 0-.568.568v1.824c0 .313.254.567.568.567h6.53V6.807h-6.53zM15.432 0h-14.3a.567.567 0 0 0-.568.567v4.314c0 .313.254.567.568.567h14.3a.567.567 0 0 0 .567-.567V.567A.567.567 0 0 0 15.432 0z"/></symbol><symbol viewBox="0 0 15 15" id="cab-menu-3" xmlns="http://www.w3.org/2000/svg"><path d="M14.177 5.871l-1.175-.15a5.907 5.907 0 0 0-.356-.858l.726-.934a.929.929 0 0 0-.076-1.237l-.985-.985a.932.932 0 0 0-1.24-.079l-.934.726a5.885 5.885 0 0 0-.859-.356L9.128.825A.936.936 0 0 0 8.2 0H6.8a.936.936 0 0 0-.929.823l-.15 1.175a5.816 5.816 0 0 0-.859.356l-.933-.726a.93.93 0 0 0-1.237.076l-.985.984a.932.932 0 0 0-.079 1.241l.726.934a5.81 5.81 0 0 0-.356.859l-1.173.15A.936.936 0 0 0 0 6.8v1.4c0 .473.354.873.823.929l1.175.15c.097.297.216.585.356.858l-.726.934a.929.929 0 0 0 .076 1.237l.985.985a.932.932 0 0 0 1.24.078l.934-.725c.273.14.56.259.859.355l.15 1.173A.936.936 0 0 0 6.8 15h1.4a.936.936 0 0 0 .929-.823l.15-1.175a5.89 5.89 0 0 0 .858-.356l.934.726a.929.929 0 0 0 1.237-.076l.985-.985a.931.931 0 0 0 .079-1.24l-.726-.934c.14-.273.26-.56.356-.859l1.172-.15A.936.936 0 0 0 15 8.2V6.8a.935.935 0 0 0-.822-.929zM7.5 10.625A3.129 3.129 0 0 1 4.375 7.5 3.129 3.129 0 0 1 7.5 4.375 3.129 3.129 0 0 1 10.625 7.5 3.129 3.129 0 0 1 7.5 10.625z"/></symbol><symbol viewBox="0 0 417.065 417.065" id="check" xmlns="http://www.w3.org/2000/svg"><path d="M401.56 47.087c-17.452-14.176-42.561-12.128-56.095 4.536L167.042 271.598 73.913 150.58c-13.892-18.037-39.781-21.411-57.819-7.535-18.054 13.884-21.427 39.781-7.535 57.843L133.56 363.321c13.892 18.037 39.789 21.419 57.835 7.535 5.145-3.959 8.95-8.958 11.648-14.42l205.645-253.514c13.527-16.688 10.332-41.675-7.128-55.835z"/></symbol><symbol viewBox="0 0 41.301 41.301" id="clock" xmlns="http://www.w3.org/2000/svg"><path d="M20.642 0c5.698 0 10.857 2.317 14.602 6.047 3.73 3.746 6.047 8.905 6.047 14.603s-2.317 10.857-6.047 14.603c-3.746 3.73-8.904 6.047-14.602 6.047S9.786 38.983 6.056 35.253A20.572 20.572 0 0 1 .008 20.65 20.573 20.573 0 0 1 6.055 6.047 20.576 20.576 0 0 1 20.642 0zm10.524 19.523c.619 0 1.111.508 1.111 1.127s-.492 1.127-1.111 1.127H20.642c-.413 0-.778-.238-.968-.571l-.016-.016-.016-.032v-.016l-.016-.032-.016-.032v-.016l-.016-.032-.016-.016v-.032l-.016-.032v-.016l-.016-.032v-.064l-.016-.016V7.206c0-.619.492-1.111 1.111-1.111s1.127.492 1.127 1.111v12.317h9.398zm2.491-11.888c-3.333-3.333-7.936-5.381-13.015-5.381S10.96 4.301 7.627 7.635A18.408 18.408 0 0 0 2.246 20.65c0 5.079 2.063 9.682 5.381 13.016 3.333 3.333 7.936 5.381 13.015 5.381s9.682-2.048 13.015-5.381a18.355 18.355 0 0 0 5.397-13.016 18.35 18.35 0 0 0-5.397-13.015z"/></symbol><symbol viewBox="0 0 25 25" id="close" xmlns="http://www.w3.org/2000/svg"><path d="M12.5 0C5.608 0 0 5.608 0 12.5S5.608 25 12.5 25 25 19.392 25 12.5 19.392 0 12.5 0zm0 23.913c-6.293 0-11.413-5.12-11.413-11.413S6.207 1.087 12.5 1.087 23.913 6.207 23.913 12.5 18.793 23.913 12.5 23.913z"/><path d="M17.774 17.008L7.992 7.225a.544.544 0 0 0-.769.768l9.783 9.783a.546.546 0 0 0 .768 0 .544.544 0 0 0 0-.768z"/><path d="M17.774 7.225a.544.544 0 0 0-.768 0l-9.783 9.782a.544.544 0 0 0 .769.769l9.782-9.783a.544.544 0 0 0 0-.768z"/></symbol><symbol viewBox="0 0 13 14" id="copy" xmlns="http://www.w3.org/2000/svg"><path d="M5.038 11.229A2.45 2.45 0 0 1 2.591 8.78v-5.9H1.584C.71 2.88 0 3.59 0 4.463v7.773c0 .874.71 1.584 1.584 1.584H8.78c.874 0 1.584-.71 1.584-1.584v-1.008H5.038z"/><path d="M12.668 1.584C12.668.709 11.959 0 11.085 0H5.038c-.874 0-1.583.709-1.583 1.584V8.78c0 .875.709 1.584 1.583 1.584h6.046c.875 0 1.584-.71 1.584-1.584V1.584z"/></symbol><symbol viewBox="0 0 256 256" id="dash" xmlns="http://www.w3.org/2000/svg"><path d="M128 256c70.692 0 128-57.308 128-128C256 57.308 198.692 0 128 0 57.308 0 0 57.308 0 128c0 70.692 57.308 128 128 128zM71.519 103.269c.12-.432.217-.86.355-1.273 2.469-7.398 4.942-14.794 7.416-22.19.43-1.288.433-1.291 1.816-1.291l73.246-.001c13.361 0 26.722.011 40.083-.007 3.812-.006 7.342.988 10.646 2.822 1.776.985 3.177 2.383 4.25 4.121 1.79 2.898 2.648 6.058 3.033 9.427.388 3.411-.23 6.586-1.363 9.786-1.548 4.37-2.85 8.827-4.257 13.247-3.595 11.294-7.17 22.595-10.8 33.878-.76 2.36-2.012 4.515-3.188 6.695-2.382 4.414-5.868 7.847-9.642 11.047-2.749 2.331-5.876 4.063-8.97 5.866-2.835 1.652-5.938 2.332-9.125 2.719-1.566.19-3.158.222-4.738.223-37.19.011-74.382.01-111.573.007-.541 0-1.082-.035-1.775-.058.098-.475.134-.838.247-1.175a16777.6 16777.6 0 0 1 7.59-22.684c.345-1.031.359-1.031 1.576-1.031 14.98-.002 29.96-.001 44.94-.001h56.509c1.132-.007 1.138-.005 1.5-1.112 2.603-7.97 5.2-15.941 7.805-23.91 2.54-7.774 5.086-15.546 7.625-23.32.136-.415.235-.843.388-1.399-.54-.031-.97-.079-1.402-.079-7.06-.004-14.12-.003-21.179-.003-26.378 0-52.756 0-79.134-.005-.604 0-1.239.115-1.88-.3m-28.282 36.294c.15-.537.24-.96.386-1.363 2.311-6.417 4.63-12.831 6.947-19.246.21-.58.42-1.16.626-1.742.144-.404.415-.608.856-.587.274.013.549-.002.824-.002 19.402 0 38.804 0 58.207.003.47 0 .94.039 1.558.066-.126.505-.196.897-.32 1.271-2.265 6.8-4.536 13.596-6.808 20.393-.436 1.303-.442 1.305-1.803 1.305H47.46c-1.03 0-2.06.007-3.09-.004-.33-.004-.661-.053-1.133-.094" fill-rule="evenodd"/></symbol><symbol id="dash-logo" viewBox="0 0 72.2 42.52" xmlns="http://www.w3.org/2000/svg"><defs><style>.apcls-1{fill:#363635}</style></defs><path class="apcls-1" d="M72.1 6.74a7.76 7.76 0 0 0-1.1-3.5A5 5 0 0 0 68.36.83 7.93 7.93 0 0 0 64.59 0h-49l-3.47 10.52h44.36l-7 21.48H5.13L1.62 42.52h49.19a13.34 13.34 0 0 0 4.29-.83A28.68 28.68 0 0 0 59.39 39a20.45 20.45 0 0 0 3.51-3.5 22.8 22.8 0 0 0 2.16-4.05L71.56 11a7.57 7.57 0 0 0 .54-4.28z"/><path class="apcls-1" d="M29.61 16.39H3.51L0 26.1h26.37z"/></symbol><symbol viewBox="0 0 2000 2000" id="doge" xmlns="http://www.w3.org/2000/svg"><path d="M1024 659H881.12v281.69h224.79v117.94H881.12v281.67H1031c38.51 0 316.16 4.35 315.73-327.72S1077.44 659 1024 659z"/><path d="M1000 0C447.71 0 0 447.71 0 1000s447.71 1000 1000 1000 1000-447.71 1000-1000S1552.29 0 1000 0zm39.29 1540.1H677.14v-481.46H549.48V940.7h127.65V459.21h310.82c73.53 0 560.56-15.27 560.56 549.48 0 574.09-509.21 531.41-509.21 531.41z"/></symbol><symbol id="doge-logo" viewBox="0 0 44.51 48.19" xmlns="http://www.w3.org/2000/svg"><defs><style>.arcls-1{fill:#363635}</style></defs><path class="arcls-1" d="M21.82 48.16s22.69 1.9 22.69-23.68C44.51-.68 22.81 0 19.53 0H5.69v21.45H0v5.26h5.69v21.45zm-7-21.45h10v-5.26h-10V8.9h6.36c2.38 0 14.36 1 14.38 15.76s-12.35 14.6-14.07 14.6h-6.71z"/></symbol><symbol viewBox="0 0 226.777 226.777" id="eth" xmlns="http://www.w3.org/2000/svg"><path d="M113.313 0C50.732 0 0 50.732 0 113.313s50.732 113.313 113.313 113.313 113.313-50.732 113.313-113.313S175.894 0 113.313 0zm-1.469 188.386l-44.78-63.344 44.78 26.218v37.126zm0-46.41l-45.083-26.408 45.083-19.748v46.156zm0-49.329l-43.631 19.11 43.631-73.306v54.196zm2.906-54.218l44.244 73.6-44.244-19.382V38.429zm0 149.957V151.26l44.78-26.218-44.78 63.344zm0-46.409V95.821l45.116 19.762-45.116 26.394z"/></symbol><symbol id="eth-logo" viewBox="0 0 42.32 68.03" xmlns="http://www.w3.org/2000/svg"><defs><style>.atcls-1{fill:#363635}</style></defs><path class="atcls-1" d="M21.65 47.38l20.67-12.22-20.67-9.4v21.62zm0-22.69l20.49 9.32L21.65 0v24.69zM.67 39.85l20 28.18V51.67l-20-11.82zm40.99 0L21.65 51.67v16.36l20.01-28.18zm-20.99 7.53V25.76L0 35.16l20.67 12.22zm0-47.38L.18 34.01l20.49-9.32V0z"/></symbol><symbol viewBox="0 0 12 12" id="like" xmlns="http://www.w3.org/2000/svg"><path d="M2.154 4.282H.507A.507.507 0 0 0 0 4.79v5.752a.507.507 0 0 0 .507.509h1.647a.507.507 0 0 0 .507-.509V4.79a.507.507 0 0 0-.507-.508zm-.61 5.726a.416.416 0 1 1 0-.831.416.416 0 0 1 0 .832zm9.518-3.893a.966.966 0 0 0-.429-1.833H6.64c.165-.38.455-1.16.419-1.823 0-.056-.013-1.388-.872-2.154A1.251 1.251 0 0 0 5.35 0h-.356a.166.166 0 0 0-.166.166v1.231a3.833 3.833 0 0 1-.371 1.636l-.948 1.993h-.525v5.385h.853a.206.206 0 0 1 .184.11l.078.145a.72.72 0 0 0 .638.385H9.64a.969.969 0 0 0 .7-1.632.966.966 0 0 0 .452-1.655.968.968 0 0 0 .332-1.588c-.023-.022-.04-.043-.063-.061z"/></symbol><symbol viewBox="0 0 226.777 226.777" id="ltc" xmlns="http://www.w3.org/2000/svg"><path d="M113.441 0C50.789 0 0 50.79 0 113.443c0 62.654 50.789 113.441 113.441 113.441 62.654 0 113.443-50.787 113.443-113.441C226.885 50.79 176.096 0 113.441 0zm44.036 168.762H68.839l7.45-35.566-14.486 9.933 3.519-19.463 15.151-10.43 14.862-70.939h27.671l-10.232 48.71L148.8 66.213l-4.222 20.167-36.02 24.693-7.126 33.93H162.4l-4.923 23.759z"/></symbol><symbol id="ltc-logo" viewBox="0 0 46.48 51.02" xmlns="http://www.w3.org/2000/svg"><defs><style>.awcls-1{fill:#363635}</style></defs><path class="awcls-1" d="M20.26 41l3.31-12.48 7.85-2.86 1.95-7.34-.07-.18L25.58 21l5.56-21H15.36L8.08 27.35 2 29.57l-2 7.56 6.07-2.22L1.78 51h42l2.7-10z"/></symbol><symbol viewBox="0 0 12 9" id="mail" xmlns="http://www.w3.org/2000/svg"><path d="M.25.73c1.649 1.395 4.538 3.85 5.388 4.614A.538.538 0 0 0 6 5.5a.537.537 0 0 0 .363-.155c.85-.766 3.74-3.22 5.387-4.615a.25.25 0 0 0 .035-.345A.993.993 0 0 0 11 0H1a.993.993 0 0 0-.785.385.25.25 0 0 0 .036.345z"/><path d="M11.855 1.486a.249.249 0 0 0-.267.036c-1.826 1.549-4.157 3.533-4.89 4.194a1.012 1.012 0 0 1-1.396 0c-.782-.705-3.4-2.93-4.89-4.194a.25.25 0 0 0-.412.19V8a1 1 0 0 0 1 1h10a1 1 0 0 0 1-1V1.713a.25.25 0 0 0-.145-.227z"/></symbol><symbol viewBox="0 0 512 512" id="monero" xmlns="http://www.w3.org/2000/svg"><circle fill="#fff" cx="256" cy="256" r="256"/><path d="M364.2 393.163h107.979c-45.411 71.439-125.262 118.836-216.178 118.836S85.235 464.603 39.824 393.163h107.969V257.328l108.209 108.146L364.2 257.328v135.835z"/><path d="M512 256.001c0 28.599-4.692 56.1-13.343 81.784H421.21V122.537L256.002 286.062 90.794 122.537v215.248H13.346C4.694 312.102.003 284.6.003 256.001.003 114.617 114.617.003 256.001.003S512 114.616 512 256.001z"/></symbol><symbol id="monero-logo" viewBox="0 0 90.97 45.35" xmlns="http://www.w3.org/2000/svg"><defs><style>.azcls-1{fill:#363635}</style></defs><path class="azcls-1" d="M90.97 45.35v-8.84H73.65V0l-28.2 28.21L17.24 0v36.51H0v8.84h26.65V22.38l18.8 18.8 18.79-18.8v22.97h26.73z"/></symbol><symbol viewBox="0 0 9 12" id="pass" xmlns="http://www.w3.org/2000/svg"><path d="M.545 12h7.273a.545.545 0 0 0 .546-.546V5.273a.545.545 0 0 0-.546-.546h-.545V3.091A3.094 3.094 0 0 0 4.182 0 3.094 3.094 0 0 0 1.09 3.09v1.637H.545A.545.545 0 0 0 0 5.273v6.181c0 .302.244.546.545.546zm1.637-8.91c0-1.102.897-2 2-2s2 .898 2 2v1.637h-4V3.091z"/></symbol><symbol viewBox="0 0 75 75" id="payeer" xmlns="http://www.w3.org/2000/svg"><circle class="bbst0" cx="37.5" cy="37.5" r="37.5"/><path class="bbst1" fill="#FFF" d="M24.4 18.3c3.1-.5 7.5-.9 13.6-.9 6.3 0 10.6 1.2 13.6 3.5 2.8 2.3 4.7 5.9 4.7 10.3s-1.4 8-4.2 10.6c-3.5 3.3-8.5 4.7-14.5 4.7-1.4 0-2.4 0-3.5-.2v15.9h-9.9v-44l.2.1zm10 20.2c.9.2 1.9.3 3.3.3 5.4 0 8.7-2.8 8.7-7.3 0-4.2-2.8-6.6-7.8-6.6-2.1 0-3.5.2-4.2.3v13.3z"/></symbol><symbol id="payeer-logo" viewBox="0 0 75 75" xmlns="http://www.w3.org/2000/svg"><style>.st0{fill:#3499dc}.bcst1{fill:#fff}</style><path class="bcst1" d="M24.4 18.3c3.1-.5 7.5-.9 13.6-.9 6.3 0 10.6 1.2 13.6 3.5 2.8 2.3 4.7 5.9 4.7 10.3s-1.4 8-4.2 10.6c-3.5 3.3-8.5 4.7-14.5 4.7-1.4 0-2.4 0-3.5-.2v15.9h-9.9v-44l.2.1zm10 20.2c.9.2 1.9.3 3.3.3 5.4 0 8.7-2.8 8.7-7.3 0-4.2-2.8-6.6-7.8-6.6-2.1 0-3.5.2-4.2.3v13.3z"/></symbol><symbol viewBox="0 0 46 46" id="pm" xmlns="http://www.w3.org/2000/svg"><path d="M23 0C10.324 0 0 10.324 0 23s10.324 23 23 23 23-10.324 23-23S35.676 0 23 0zm-8.791 30.871H9.098c-.307 0-.41-.102-.41-.409 0-.306 0-.51.41-.51 1.329 0 1.43-.205 1.43-1.534v-3.271c0-.307.103-.41.41-.307h1.329c.306 0 .409.102.409.409v3.68c0 .92.204 1.022 1.022 1.124h.409c.409 0 .51.103.51.511 0 .205 0 .307-.408.307zm.715-6.849c-2.453.205-4.906.205-7.36-.409-.102 0-.306-.102-.408-.102-.205-.102-.307-.102-.512-.204.41.102.512.102 1.023.102.92.102 1.84.204 2.862.204 1.431.103 2.862 0 4.191-.306 2.147-.511 3.271-2.25 2.964-4.396 0-.102 0-.204-.102-.409v-.511c0-.102 0-.102-.102-.204v-.103l-.307-.613c-1.022-1.533-2.657-1.635-4.293-1.533-.307 0-.307.204-.307.409v6.337c0 .41-.102.512-.51.512h-1.227c-.205 0-.307-.103-.307-.307v-6.235c0-.41-.205-.614-.613-.614h-.818c-.307 0-.41 0-.41-.409 0-.307.205-.307.41-.307h6.542c1.431 0 2.658.614 3.578 1.84 0 0 .102.205.204.307 0 .102.102.102.102.205 0 .102.103.102.103.204l.306.92c0 .102.103.613.103.716v.51c0 .103 0 .512-.103.614-.306 1.636-1.329 2.658-2.862 3.271-.715.409-1.431.511-2.147.511zm23.614 6.85H33.12c-.307 0-.307-.205-.307-.41 0-.204-.102-.51.307-.51h.818c.613 0 .818-.205.818-.92.102-1.943.102-3.885.102-5.828v-4.497h-.102c-.41.715-.716 1.43-1.125 2.146 0 0 0 .103-.102.103 0 0 0 .102-.102.102-.103.102-.103.306-.205.409 0 0 0 .102-.102.102 0 .102 0 .102-.102.204 0 0 0 .103-.102.103-.614 1.533-1.432 2.964-2.147 4.395-.716 1.329-1.329 2.76-2.045 4.089-.102.102-.102.409-.306.409-.205 0-.205-.205-.307-.409C26.17 26.68 24.33 23 22.49 19.32c0-.102-.102-.204-.102-.307-.103-.204-.307-.51-.41-.817-.101.204-.101.408-.101.51v10.12c.204.818.306.92 1.124.92h.613c.41-.102.614.103.511.512 0 .306-.102.409-.408.409h-5.214c-.409 0-.306-.307-.409-.511 0-.307.103-.41.41-.41h.817c.818 0 1.124-.306 1.227-1.124.102-.715.102-1.43.204-2.146.102-1.023.102-2.147.102-3.17v-6.95c0-.512-.204-.614-.613-.716h-.409c-.409 0-.613-.204-.409-.613 0-.103.102-.103.205-.103h2.964c.102 0 .205.103.307.205.51 1.227 1.226 2.351 1.635 3.578 1.534 2.862 2.76 5.826 4.294 8.79 1.124-2.248 2.146-4.497 3.27-6.644 0-.102.103-.102.103-.204 0 0 0-.102.102-.102.818-1.738 1.636-3.476 2.454-5.316.102-.102.204-.204.306-.204h3.271c.307 0 .307.204.307.409 0 .204 0 .408-.307.408h-.409c-.817 0-.92.205-.92.92 0 2.556 0 5.01-.102 7.565v.92c0 .92.102 1.942 0 2.862 0 .409 0 .818.102 1.227 0 .204.307.51.614.51h.92c.306 0 .306.205.306.41 0 .306.103.613-.306.613z"/></symbol><symbol viewBox="0 0 17 8" id="pm-logo" xmlns="http://www.w3.org/2000/svg"><path d="M16 7.13h-.36a.6.6 0 0 1-.36-.14.51.51 0 0 1-.15-.28v-.49c0-.54 0-1.11-.06-1.69-.06-.58 0-1.72 0-1.72V1.69a2.57 2.57 0 0 1 .05-.61.53.53 0 0 1 .21-.33 1.58 1.58 0 0 1 .53-.14h.23a.14.14 0 0 0 0-.15.17.17 0 0 0-.09-.11h-1.85a2.997 2.997 0 0 1-.24.89l-.61 1.28-1.06 2.12-.42.87a8.427 8.427 0 0 1-.45.84c-.14-.26-.26-.5-.39-.76l-.38-.81-1.32-2.6c-.17-.36-.33-.72-.45-1a2.47 2.47 0 0 1-.14-.83H6.94a.15.15 0 0 0-.07.12.14.14 0 0 0 0 .14h.17c.16.034.317.077.47.13a.44.44 0 0 1 .2.29 1.63 1.63 0 0 1 0 .52v1.07c0 .41 0 .85-.07 1.29-.07.44 0 .65-.06.91s0 .51-.06.73c-.06.22 0 .46 0 .69a2.17 2.17 0 0 1-.11.54.36.36 0 0 1-.2.23 1.11 1.11 0 0 1-.35.1h-.23s-.06.07 0 .14a.18.18 0 0 0 .06.13h1.65l.61.05A.16.16 0 0 0 9 7.26a.17.17 0 0 0 0-.15h-.43a.58.58 0 0 1-.32-.1.45.45 0 0 1-.14-.31 2 2 0 0 1 0-.64V3.4c0-.35.05-.66.06-1 .01-.34 0-.67.05-1l.35.92.36.8 1 2.15c.09.18.19.4.31.67s.27.56.39.83c.107.234.197.474.27.72h.05a.11.11 0 0 0 .08 0c.08-.18.17-.4.3-.67.13-.27.26-.58.41-.89.15-.31.33-.65.51-1l1-1.94c.07-.16.15-.34.25-.54l.3-.57c.08-.18.17.5.17.5H14v3.8a.83.83 0 0 1 .1.56.33.33 0 0 1-.15.27c-.06.07-.18.1-.38.12h-.33v.15a.19.19 0 0 0 .06.13c.23 0 .47 0 .69-.06h1.3c.22 0 .45.05.67.06a.13.13 0 0 0 .06-.13.16.16 0 0 0-.02-.15zM5.4.44a3.33 3.33 0 0 0-.92-.35A7.07 7.07 0 0 0 3.28 0H2.07c-.36 0-.68 0-1 .06A.16.16 0 0 0 1 .21a.13.13 0 0 0 .1.14h.38a.54.54 0 0 1 .36.13.44.44 0 0 1 .16.39c.014.237.014.474 0 .71v2.24c.334.02.667.02 1 0V.69A.53.53 0 0 1 3 .4a.22.22 0 0 1 .15-.11h.45A1.9 1.9 0 0 1 5 .77c.319.364.484.837.46 1.32a1.92 1.92 0 0 1-.38 1.26 1.81 1.81 0 0 1-1 .62 8.34 8.34 0 0 1-1.93.13C1.47 4.08.76 4.04 0 3.97c.591.137 1.189.244 1.79.32.7.096 1.41.096 2.11 0 .318-.049.63-.13.93-.24a4.71 4.71 0 0 0 .82-.48c.189-.15.34-.341.44-.56a2.19 2.19 0 0 0 .18-.86 2 2 0 0 0-.27-1 1.83 1.83 0 0 0-.6-.71zM3.82 7.07a1.07 1.07 0 0 1-.55-.13.58.58 0 0 1-.24-.4 4.47 4.47 0 0 1 0-.88V4.59a5.32 5.32 0 0 1-1 0V5.7a6.2 6.2 0 0 1-.05.88.42.42 0 0 1-.2.38.77.77 0 0 1-.5.15h-.25a.13.13 0 0 0-.05.15.15.15 0 0 0 .07.14l.72-.05h1.46l.9.05s0-.08.07-.14a.19.19 0 0 0 0-.15l-.38-.04z"/></symbol><symbol viewBox="0 0 31.357 31.357" id="quest" xmlns="http://www.w3.org/2000/svg"><path d="M15.255 0c5.424 0 10.764 2.498 10.764 8.473 0 5.51-6.314 7.629-7.67 9.62-1.018 1.481-.678 3.562-3.475 3.562-1.822 0-2.712-1.482-2.712-2.838 0-5.046 7.414-6.188 7.414-10.343 0-2.287-1.522-3.643-4.066-3.643-5.424 0-3.306 5.592-7.414 5.592-1.483 0-2.756-.89-2.756-2.584C5.339 3.683 10.084 0 15.255 0zm-.211 24.406a3.492 3.492 0 0 1 3.475 3.476 3.49 3.49 0 0 1-3.475 3.476 3.49 3.49 0 0 1-3.476-3.476 3.491 3.491 0 0 1 3.476-3.476z"/></symbol><symbol id="ripple-logo" viewBox="0 0 52.44 56.69" xmlns="http://www.w3.org/2000/svg"><defs><style>.bgcls-1{fill:#363635}</style></defs><path class="bgcls-1" d="M34.67 1.53a12 12 0 0 0-5.93 10.3 13.42 13.42 0 0 0 2 6.36C31.59 20 32 23 29 24.56a4.71 4.71 0 0 1-6.4-1.76 19.78 19.78 0 0 0-4.83-4.8 11.49 11.49 0 0 0-11.84 0 11.94 11.94 0 0 0 0 20.63 11.51 11.51 0 0 0 11.85 0 12.06 12.06 0 0 0 4.6-4.82A4.51 4.51 0 0 1 28.73 32a4.91 4.91 0 0 1 1.76 6.36 13.24 13.24 0 0 0-1.76 6.36 11.92 11.92 0 0 0 5.94 10.31 11.49 11.49 0 0 0 11.84 0 11.93 11.93 0 0 0 0-20.62 13.24 13.24 0 0 0-6.58-1.54 4.6 4.6 0 1 1 0-9.2 13.81 13.81 0 0 0 6.58-1.54 11.92 11.92 0 0 0 0-20.61A11.37 11.37 0 0 0 40.59 0a11.31 11.31 0 0 0-5.92 1.53z"/></symbol><symbol viewBox="0 0 64 64" id="trx-logo" xmlns="http://www.w3.org/2000/svg"><path class="bhcls-1" d="M61.55 19.28c-3-2.77-7.15-7-10.53-10l-.2-.14a3.82 3.82 0 0 0-1.11-.62C41.56 7 3.63-.09 2.89 0a1.4 1.4 0 0 0-.58.22l-.19.15a2.23 2.23 0 0 0-.52.84l-.05.13v.82C5.82 14.05 22.68 53 26 62.14c.2.62.58 1.8 1.29 1.86h.16c.38 0 2-2.14 2-2.14S58.41 26.74 61.34 23a9.46 9.46 0 0 0 1-1.48 2.41 2.41 0 0 0-.79-2.24zm-24.67 4.09l12.36-10.25 7.25 6.68zm-4.8-.67L10.8 5.26l34.43 6.35zM34 27.27l21.78-3.51-24.9 30zM7.91 7L30.3 26l-3.24 27.78z"/></symbol><symbol viewBox="0 0 226.777 226.777" id="usdt-logo" xmlns="http://www.w3.org/2000/svg"><path d="M226.883 107.66c0-14.245-38.761-26.13-90.27-28.872l-.004-22.697h64.315V8.855H25.06v47.236h64.31v22.808C38.799 81.829.97 93.59.97 107.66c0 14.072 37.829 25.834 88.4 28.759v81.504h47.239V136.53c51.513-2.736 90.274-14.625 90.274-28.87zm-112.957 14.033c-55.288 0-100.109-8.557-100.109-19.119 0-8.943 32.139-16.451 75.553-18.54v5.383h.005v22.059c7.827.439 16.053.669 24.551.669 7.825 0 15.424-.199 22.688-.563v-27.63c44.355 1.961 77.423 9.548 77.423 18.622-.001 10.562-44.823 19.119-100.111 19.119z"/></symbol><symbol viewBox="0 0 12 13" id="user" xmlns="http://www.w3.org/2000/svg"><path d="M11.355 10.516l-2.989-1.58-.138-.432c-.041-.144-.107-.289-.241-.327-.043-.012-.097-.09-.104-.144l-.08-.839a.261.261 0 0 1 .063-.181c.229-.275.353-.592.406-.956.027-.182.122-.35.17-.53l.192-1.003c.02-.132.016-.234-.13-.285-.041-.014-.077-.081-.077-.182l.002-1.892c-.031-.458-.273-.812-.617-1.058C7.155.636 5.978.854 6.362.087 6.385.04 6.378-.038 6.22.02c-.589.217-2.157.79-2.551 1.087-.353.266-.587.6-.618 1.058l.002 1.892c0 .083-.035.168-.076.182-.147.051-.151.153-.131.285l.192 1.002c.048.18.143.349.17.531.053.364.178.681.406.956.038.045.067.11.063.181l-.08.839c-.007.054-.061.132-.104.144-.134.038-.2.183-.241.327l-.138.431-2.989 1.58a.235.235 0 0 0-.125.209v1.107c0 .13.105.235.235.235h11.01c.13 0 .235-.105.235-.235v-1.107a.236.236 0 0 0-.125-.208z"/></symbol><symbol viewBox="0 0 24 24" stroke-linecap="round" stroke-linejoin="round" class="bkfeather bkfeather-clock" id="wait" xmlns="http://www.w3.org/2000/svg"><circle cx="12" cy="12" r="10"/><path d="M12 6v6l4 2"/></symbol><symbol viewBox="0 0 24 22" id="warning" xmlns="http://www.w3.org/2000/svg"><path d="M23.76 18.847L13.347.806a1.57 1.57 0 0 0-2.719 0L.212 18.847c-.603 1.046.152 2.356 1.36 2.356h20.83c1.207 0 1.962-1.31 1.359-2.356zM12.002 6.361a1.19 1.19 0 0 1 1.188 1.222l-.196 6.852a.998.998 0 0 1-1.993 0l-.191-6.852a1.194 1.194 0 0 1 1.192-1.222zm-.014 12.393a1.238 1.238 0 0 1 0-2.474 1.238 1.238 0 0 1 0 2.474z" fill="#FFF"/></symbol><symbol viewBox="0 0 226.777 226.777" id="xrp" xmlns="http://www.w3.org/2000/svg"><path d="M113.48.183C50.908.183.183 50.908.183 113.48c0 62.572 50.725 113.297 113.297 113.297 62.572 0 113.297-50.726 113.297-113.297C226.777 50.908 176.052.183 113.48.183zm47.419 163.777c-7.365 12.656-23.905 17.119-36.941 9.97-13.037-7.149-17.635-23.205-10.268-35.862 3.068-5.272 1.153-11.96-4.28-14.941-5.356-2.937-12.132-1.166-15.261 3.941h-.002v-.021c-.044.078-.083.155-.128.232-7.365 12.656-23.904 17.12-36.94 9.97-13.038-7.149-17.636-23.207-10.271-35.86 7.367-12.657 23.905-17.12 36.944-9.969 4.357 2.39 7.765 5.779 10.107 9.7v-.014l.002-.002c3.248 5.032 10.055 6.654 15.341 3.603 5.362-3.095 7.125-9.824 3.936-15.03-7.651-12.494-3.42-28.645 9.451-36.072 12.869-7.428 29.506-3.321 37.159 9.172 7.651 12.495 3.422 28.645-9.451 36.073a27.612 27.612 0 0 1-13.697 3.694l.012.005v.002c-6.175.207-11.081 5.161-11.007 11.191.073 6.11 5.239 11.008 11.533 10.936l-.039.021a27.627 27.627 0 0 1 13.533 3.401c13.034 7.151 17.632 23.206 10.267 35.86z"/></symbol><symbol id="xrp-logo" viewBox="0 0 52.44 56.69" xmlns="http://www.w3.org/2000/svg"><defs><style>.bncls-1{fill:#363635}</style></defs><title>Artboard 53</title><path class="bncls-1" d="M34.67 1.53a12 12 0 0 0-5.93 10.3 13.42 13.42 0 0 0 2 6.36C31.59 20 32 23 29 24.56a4.71 4.71 0 0 1-6.4-1.76 19.78 19.78 0 0 0-4.83-4.8 11.49 11.49 0 0 0-11.84 0 11.94 11.94 0 0 0 0 20.63 11.51 11.51 0 0 0 11.85 0 12.06 12.06 0 0 0 4.6-4.82A4.51 4.51 0 0 1 28.73 32a4.91 4.91 0 0 1 1.76 6.36 13.24 13.24 0 0 0-1.76 6.36 11.92 11.92 0 0 0 5.94 10.31 11.49 11.49 0 0 0 11.84 0 11.93 11.93 0 0 0 0-20.62 13.24 13.24 0 0 0-6.58-1.54 4.6 4.6 0 1 1 0-9.2 13.81 13.81 0 0 0 6.58-1.54 11.92 11.92 0 0 0 0-20.61A11.37 11.37 0 0 0 40.59 0a11.31 11.31 0 0 0-5.92 1.53z"/></symbol><symbol viewBox="0 0 15 15" id="zoom" xmlns="http://www.w3.org/2000/svg"><path d="M14.735 13.915l-3.638-3.637a6.244 6.244 0 0 0 1.45-4.005A6.28 6.28 0 0 0 6.272 0 6.28 6.28 0 0 0 0 6.273a6.28 6.28 0 0 0 6.273 6.273 6.244 6.244 0 0 0 4.005-1.449l3.637 3.638a.578.578 0 0 0 .82 0 .58.58 0 0 0 0-.82zM1.159 6.273A5.12 5.12 0 0 1 6.273 1.16a5.12 5.12 0 0 1 5.114 5.114 5.12 5.12 0 0 1-5.114 5.114A5.12 5.12 0 0 1 1.16 6.273z"/></symbol></svg>