<svg width="23" height="9" viewBox="0 0 23 9" fill="none" xmlns="http://www.w3.org/2000/svg">
<path d="M4.02447 1.46353C4.17415 1.00287 4.82585 1.00287 4.97553 1.46353L5.39806 2.76393C5.46499 2.96994 5.65697 3.10942 5.87358 3.10942H7.24091C7.72527 3.10942 7.92666 3.72923 7.5348 4.01393L6.42861 4.81763C6.25337 4.94495 6.18004 5.17063 6.24698 5.37664L6.66951 6.67705C6.81918 7.13771 6.29194 7.52077 5.90008 7.23607L4.79389 6.43237C4.61865 6.30505 4.38135 6.30505 4.20611 6.43237L3.09992 7.23607C2.70806 7.52077 2.18082 7.13771 2.33049 6.67705L2.75302 5.37664C2.81996 5.17063 2.74663 4.94495 2.57139 4.81763L1.4652 4.01393C1.07334 3.72923 1.27473 3.10942 1.75909 3.10942H3.12642C3.34303 3.10942 3.53501 2.96994 3.60194 2.76393L4.02447 1.46353Z" fill="#FFC530"/>
<path d="M11.0245 1.46353C11.1741 1.00287 11.8259 1.00287 11.9755 1.46353L12.3981 2.76393C12.465 2.96994 12.657 3.10942 12.8736 3.10942H14.2409C14.7253 3.10942 14.9267 3.72923 14.5348 4.01393L13.4286 4.81763C13.2534 4.94495 13.18 5.17063 13.247 5.37664L13.6695 6.67705C13.8192 7.13771 13.2919 7.52077 12.9001 7.23607L11.7939 6.43237C11.6186 6.30505 11.3814 6.30505 11.2061 6.43237L10.0999 7.23607C9.70806 7.52077 9.18082 7.13771 9.33049 6.67705L9.75302 5.37664C9.81996 5.17063 9.74663 4.94495 9.57139 4.81763L8.4652 4.01393C8.07334 3.72923 8.27473 3.10942 8.75909 3.10942H10.1264C10.343 3.10942 10.535 2.96994 10.6019 2.76393L11.0245 1.46353Z" fill="#FFC530"/>
<path d="M18.0245 1.46353C18.1741 1.00287 18.8259 1.00287 18.9755 1.46353L19.3981 2.76393C19.465 2.96994 19.657 3.10942 19.8736 3.10942H21.2409C21.7253 3.10942 21.9267 3.72923 21.5348 4.01393L20.4286 4.81763C20.2534 4.94495 20.18 5.17063 20.247 5.37664L20.6695 6.67705C20.8192 7.13771 20.2919 7.52077 19.9001 7.23607L18.7939 6.43237C18.6186 6.30505 18.3814 6.30505 18.2061 6.43237L17.0999 7.23607C16.7081 7.52077 16.1808 7.13771 16.3305 6.67705L16.753 5.37664C16.82 5.17063 16.7466 4.94495 16.5714 4.81763L15.4652 4.01393C15.0733 3.72923 15.2747 3.10942 15.7591 3.10942H17.1264C17.343 3.10942 17.535 2.96994 17.6019 2.76393L18.0245 1.46353Z" fill="#FFC530"/>
</svg>
