<svg width="9" height="7" viewBox="0 0 9 7" fill="none" xmlns="http://www.w3.org/2000/svg">
<path d="M2.83041 7C6.22679 7 8.08416 4.30717 8.08416 1.97204C8.08416 1.89557 8.08253 1.81944 8.07893 1.74363C8.44033 1.49337 8.75223 1.1835 9 0.828555C8.66914 0.969325 8.31311 1.06407 7.93961 1.10679C8.32085 0.88802 8.61351 0.541923 8.7516 0.129377C8.38913 0.335159 7.99259 0.480224 7.57908 0.55832C7.24213 0.21483 6.76242 0 6.23124 0C5.21153 0 4.38463 0.791385 4.38463 1.76689C4.38463 1.90557 4.40085 2.04043 4.43254 2.16983C2.89787 2.09592 1.53704 1.39274 0.626305 0.323505C0.462272 0.593187 0.375994 0.899685 0.37628 1.2117C0.37628 1.8248 0.702256 2.36602 1.19799 2.68266C0.904756 2.67409 0.617962 2.59829 0.361719 2.46164C0.361445 2.46906 0.361445 2.47628 0.361445 2.48421C0.361445 3.34001 0.997921 4.05456 1.84282 4.21647C1.68414 4.25783 1.52039 4.27874 1.35593 4.27865C1.23715 4.27865 1.1214 4.26746 1.0089 4.2468C1.24398 4.94893 1.92563 5.45988 2.73382 5.47416C2.10183 5.94822 1.30571 6.23058 0.440451 6.23058C0.293259 6.2307 0.146187 6.22252 0 6.2061C0.817207 6.70738 1.78756 6.99988 2.8305 6.99988" fill="#2CC4E6"/>
</svg>
