<svg width="14" height="11" viewBox="0 0 14 11" fill="none" xmlns="http://www.w3.org/2000/svg">
<path d="M7.91724 3.6913V2.22825H11.5662V0H1.6434V2.22825H5.28125V3.68926C2.3113 3.81374 0.0849609 4.35243 0.0849609 4.99724C0.0849609 5.64204 2.3113 6.18074 5.28125 6.30521V10.9984H7.91946V6.30521C10.8783 6.18074 13.1046 5.64204 13.1046 4.99724C13.1046 4.35243 10.8783 3.81578 7.91724 3.6913ZM7.91724 5.90935C7.84154 5.90935 7.45861 5.93384 6.60815 5.93384C5.92688 5.93384 5.44822 5.91547 5.27234 5.90731C2.65193 5.80324 0.697205 5.38494 0.697205 4.88705C0.697205 4.38916 2.65193 3.96882 5.27234 3.86679V5.49921C5.44377 5.49921 5.94024 5.53594 6.60815 5.53594C7.42076 5.53594 7.83041 5.50533 7.9061 5.49921V3.86679C10.5198 3.9729 12.4723 4.3912 12.4723 4.88705C12.4723 5.3829 10.5332 5.8012 7.91946 5.91751L7.91724 5.90935Z" fill="#51BD36"/>
</svg>
