<svg width="13" height="13" viewBox="0 0 13 13" fill="none" xmlns="http://www.w3.org/2000/svg">
<path fill-rule="evenodd" clip-rule="evenodd" d="M6.47554 0C7.49217 0 8.45499 0.236791 9.31311 0.656556C9.44716 0.721135 9.58219 0.791585 9.71624 0.867906L9.12035 1.40215L8.22505 0.476517L6.71331 1.82485L5.81507 0.844423L2.99902 3.38258L4.80528 5.37182L4.09589 5.99609L5.87378 7.98924L5.1683 8.61155L7.70939 11.4393L9.21722 10.0509L10.5215 11.5391C10.2622 11.7407 9.97945 11.9305 9.6683 12.1057C8.72505 12.6438 7.63503 12.9511 6.47554 12.9511C2.909 12.9511 0 10.0421 0 6.47554C0 2.909 2.909 0 6.47554 0Z" fill="#0761AF"/>
<path fill-rule="evenodd" clip-rule="evenodd" d="M5.2959 6.06655L6.83602 4.67908L8.22251 6.21919L6.6824 7.60667L5.2959 6.06655Z" fill="#0761AF"/>
<path fill-rule="evenodd" clip-rule="evenodd" d="M6.39062 8.72695L7.93074 7.34045L9.31724 8.88057L7.77712 10.2671L6.39062 8.72695Z" fill="#0761AF"/>
<path fill-rule="evenodd" clip-rule="evenodd" d="M4.19336 3.43642L5.73348 2.04993L7.119 3.59004L5.57986 4.97654L4.19336 3.43642Z" fill="#0761AF"/>
<path fill-rule="evenodd" clip-rule="evenodd" d="M7.01953 2.69075L8.17413 1.65063L9.21425 2.80523L8.05965 3.84535L7.01953 2.69075Z" fill="#0761AF"/>
<path fill-rule="evenodd" clip-rule="evenodd" d="M9.07129 7.45308L10.2269 6.41394L11.266 7.56854L10.1114 8.60866L9.07129 7.45308Z" fill="#0761AF"/>
<path fill-rule="evenodd" clip-rule="evenodd" d="M10.0869 9.78572L11.2425 8.74658L12.2816 9.90118L11.127 10.9413L10.0869 9.78572Z" fill="#0761AF"/>
<path fill-rule="evenodd" clip-rule="evenodd" d="M10.5527 4.43934L11.3228 3.74658L12.0156 4.51664L11.2465 5.2094L10.5527 4.43934Z" fill="#0761AF"/>
<path fill-rule="evenodd" clip-rule="evenodd" d="M9.56836 2.15162L10.3384 1.45886L11.0322 2.22892L10.2621 2.92168L9.56836 2.15162Z" fill="#0761AF"/>
<path fill-rule="evenodd" clip-rule="evenodd" d="M11.5371 6.72706L12.3072 6.03333L12.9999 6.80338L12.2299 7.49712L11.5371 6.72706Z" fill="#0761AF"/>
<path fill-rule="evenodd" clip-rule="evenodd" d="M8.08398 5.01277L9.23858 3.97266L10.2787 5.12823L9.1241 6.16737L8.08398 5.01277Z" fill="#0761AF"/>
</svg>
