<svg width="15" height="16" viewBox="0 0 15 16" fill="none" xmlns="http://www.w3.org/2000/svg">
<path d="M9.26931 0.407838C8.27328 0.992983 7.68351 2.04965 7.68351 3.16393C7.68351 3.74907 7.91848 4.33877 8.21264 4.86487C8.44761 5.3348 8.56282 6.15499 7.74271 6.5658C7.15749 6.91598 6.39187 6.68253 6.04169 6.09587C5.69144 5.62593 5.28063 5.156 4.7515 4.80575C3.75546 4.2206 2.58047 4.2206 1.58436 4.80575C0.588252 5.39089 0 6.45021 0 7.56479C0 8.67937 0.58522 9.73566 1.58413 10.3224C2.58017 10.9075 3.75516 10.9075 4.75127 10.3224C5.2804 10.0283 5.69114 9.56141 5.98235 9.03228C6.21731 8.62146 6.86317 8.09241 7.68336 8.56234C8.26858 8.91252 8.44442 9.67813 8.15329 10.2633C7.8592 10.7923 7.68336 11.3791 7.68336 11.9642C7.68336 13.08 8.26858 14.1351 9.26916 14.7203C10.2652 15.3055 11.4402 15.3055 12.4363 14.7203C13.4324 14.1352 14.0222 13.0785 14.0222 11.9642C14.0222 10.8499 13.4355 9.79335 12.4364 9.20661C11.9073 8.91252 11.3206 8.79579 10.6762 8.79579C10.1471 8.79579 9.44516 8.44562 9.44516 7.56479C9.44516 6.85989 9.97429 6.33379 10.6762 6.33379C11.2615 6.33379 11.9073 6.21707 12.4364 5.92298C13.4325 5.33783 14.0222 4.28116 14.0222 3.16696C14.0222 2.05276 13.4355 0.99609 12.4364 0.41087C11.9665 0.116782 11.3812 5.60542e-05 10.8523 5.60542e-05C10.3262 -0.00297578 9.73644 0.116782 9.26954 0.407838" fill="url(#paint0_linear)"/>
<defs>
<linearGradient id="paint0_linear" x1="0" y1="-2.0059e-05" x2="14.0222" y2="-2.0059e-05" gradientUnits="userSpaceOnUse">
<stop stop-color="#11AAE2"/>
<stop offset="0.59" stop-color="#0880B7"/>
<stop offset="1" stop-color="#016197"/>
</linearGradient>
</defs>
</svg>
