<svg width="16" height="11" viewBox="0 0 16 11" fill="none" xmlns="http://www.w3.org/2000/svg">
<path d="M10.0467 0C7.0875 0 4.74316 2.3298 4.74316 5.18571C4.74316 8.04159 7.12592 10.3714 10.0467 10.3714C12.9676 10.3714 15.3503 8.04159 15.3503 5.18571C15.3887 2.3298 12.9676 0 10.0467 0ZM10.0467 7.10215C8.97065 7.10215 8.0483 6.23786 8.0483 5.18571C8.0483 4.13353 8.93221 3.26924 10.0467 3.26924C11.1613 3.26924 12.0452 4.13353 12.0452 5.18571C12.0068 6.23786 11.1613 7.10215 10.0467 7.10215Z" fill="#8B3FFD"/>
<path d="M4.74284 1.54065V9.09373H2.85967L0.438477 1.54065H4.74284Z" fill="#8B3FFD"/>
</svg>
