<svg width="51" height="51" viewBox="0 0 51 51" fill="none" xmlns="http://www.w3.org/2000/svg">
<circle cx="25.5" cy="25.5" r="23.5" fill="#EDF1F6"/>
<circle cx="25.5" cy="25.5" r="23" stroke="#454B51" stroke-opacity="0.13"/>
<g filter="url(#filter0_di)">
<circle cx="25.5" cy="25.5" r="17.5" fill="url(#paint0_linear)"/>
</g>
<g clip-path="url(#clip0)">
<path d="M30.0655 30.1865C29.7648 30.3228 29.4338 30.3985 29.086 30.3985C27.7107 30.3985 26.5958 29.218 26.5958 27.7618C26.5958 26.3056 27.7107 25.1251 29.086 25.1251C29.4338 25.1251 29.7648 25.2008 30.0655 25.3371C29.1772 25.74 28.5548 26.6738 28.5548 27.7618C28.5548 28.8497 29.1772 29.7836 30.0655 30.1865ZM19.6563 28.7653V23.7028C19.6563 21.7611 21.1638 20.1871 22.9976 20.1871H21.0718C19.238 20.1871 17.7515 21.7611 17.7515 23.7028V28.7653C17.7515 30.7069 19.238 32.2809 21.0718 32.2809H22.9976C21.1638 32.2809 19.6563 30.7069 19.6563 28.7653Z" fill="url(#paint1_linear)"/>
<path d="M21.582 24.4219C21.582 24.0335 21.2847 23.7188 20.918 23.7188C20.5512 23.7188 20.2539 24.0335 20.2539 24.4219C20.2539 26.5349 21.7685 28.2539 23.9727 28.2539C24.3394 28.2539 24.6367 27.9391 24.6367 27.5508C24.6367 27.1624 24.3394 26.8477 23.9727 26.8477C22.6011 26.8477 21.582 25.7595 21.582 24.4219Z" fill="white"/>
<path d="M29.0859 24.4219C27.3467 24.4219 25.9316 25.9201 25.9316 27.7617C25.9316 29.6033 27.3467 31.1016 29.0859 31.1016C30.8252 31.1016 32.2402 29.6033 32.2402 27.7617C32.2402 25.9201 30.8252 24.4219 29.0859 24.4219ZM29.0859 29.6953C28.079 29.6953 27.2598 28.8279 27.2598 27.7617C27.2598 26.6955 28.079 25.8281 29.0859 25.8281C30.0929 25.8281 30.9121 26.6955 30.9121 27.7617C30.9121 28.8279 30.0929 29.6953 29.0859 29.6953Z" fill="white"/>
<path d="M30.0156 19.5H20.9844C18.7874 19.5 17 21.3925 17 23.7188V28.7812C17 31.1075 18.7874 33 20.9844 33H26.3633C26.73 33 27.0273 32.6852 27.0273 32.2969C27.0273 31.9085 26.73 31.5938 26.3633 31.5938H20.9844C19.5197 31.5938 18.3281 30.3321 18.3281 28.7812V23.7188C18.3281 22.1679 19.5197 20.9062 20.9844 20.9062H30.0156C31.4803 20.9062 32.6719 22.1679 32.6719 23.7188V24.668C32.6719 25.0563 32.9692 25.3711 33.3359 25.3711C33.7027 25.3711 34 25.0563 34 24.668V23.7188C34 21.3925 32.2126 19.5 30.0156 19.5Z" fill="white"/>
<path d="M33.3359 33C33.166 33 32.996 32.9314 32.8664 32.7941L31.9367 31.8097C31.6773 31.5351 31.6773 31.0899 31.9367 30.8153C32.196 30.5408 32.6165 30.5407 32.8758 30.8153L33.8055 31.7997C34.0648 32.0743 34.0648 32.5195 33.8055 32.7941C33.6758 32.9314 33.5059 33 33.3359 33ZM28.6543 17.4258C28.6543 16.0882 27.6266 15 26.3633 15H24.6367C23.3734 15 22.3457 16.0882 22.3457 17.4258C22.3457 17.8141 22.643 18.1289 23.0098 18.1289C23.3765 18.1289 23.6738 17.8141 23.6738 17.4258C23.6738 16.8636 24.1058 16.4062 24.6367 16.4062H26.3633C26.8942 16.4062 27.3262 16.8636 27.3262 17.4258C27.3262 17.8141 27.6235 18.1289 27.9902 18.1289C28.357 18.1289 28.6543 17.8141 28.6543 17.4258ZM25.5111 23.2266C25.0526 23.2266 24.681 23.6201 24.681 24.1055C24.681 24.5909 25.0526 24.9844 25.5111 24.9844C25.9695 24.9844 26.3411 24.5909 26.3411 24.1055C26.3411 23.6201 25.9695 23.2266 25.5111 23.2266Z" fill="url(#paint2_linear)"/>
</g>
<defs>
<filter id="filter0_di" x="0" y="0" width="51" height="51" filterUnits="userSpaceOnUse" color-interpolation-filters="sRGB">
<feFlood flood-opacity="0" result="BackgroundImageFix"/>
<feColorMatrix in="SourceAlpha" type="matrix" values="0 0 0 0 0 0 0 0 0 0 0 0 0 0 0 0 0 0 127 0" result="hardAlpha"/>
<feOffset/>
<feGaussianBlur stdDeviation="4"/>
<feComposite in2="hardAlpha" operator="out"/>
<feColorMatrix type="matrix" values="0 0 0 0 0.313726 0 0 0 0 0.701961 0 0 0 0 0 0 0 0 0.79 0"/>
<feBlend mode="normal" in2="BackgroundImageFix" result="effect1_dropShadow"/>
<feBlend mode="normal" in="SourceGraphic" in2="effect1_dropShadow" result="shape"/>
<feColorMatrix in="SourceAlpha" type="matrix" values="0 0 0 0 0 0 0 0 0 0 0 0 0 0 0 0 0 0 127 0" result="hardAlpha"/>
<feOffset dy="2"/>
<feComposite in2="hardAlpha" operator="arithmetic" k2="-1" k3="1"/>
<feColorMatrix type="matrix" values="0 0 0 0 0 0 0 0 0 0 0 0 0 0 0 0 0 0 0.12 0"/>
<feBlend mode="normal" in2="shape" result="effect2_innerShadow"/>
</filter>
<linearGradient id="paint0_linear" x1="-45.75" y1="8" x2="43" y2="83" gradientUnits="userSpaceOnUse">
<stop stop-color="#50B300"/>
<stop offset="1" stop-color="#62CE0A" stop-opacity="0.7"/>
</linearGradient>
<linearGradient id="paint1_linear" x1="17.5936" y1="26.3624" x2="30.1652" y2="26.3624" gradientUnits="userSpaceOnUse">
<stop stop-color="#E2C35D"/>
<stop offset="0.485719" stop-color="#F2E090"/>
<stop offset="1" stop-color="#E8C96F"/>
</linearGradient>
<linearGradient id="paint2_linear" x1="22.1963" y1="24.191" x2="34.0944" y2="24.191" gradientUnits="userSpaceOnUse">
<stop stop-color="#E2C35D"/>
<stop offset="0.485719" stop-color="#F2E090"/>
<stop offset="1" stop-color="#E8C96F"/>
</linearGradient>
<clipPath id="clip0">
<rect width="17" height="18" fill="white" transform="translate(17 15)"/>
</clipPath>
</defs>
</svg>
