<svg width="51" height="50" viewBox="0 0 51 50" fill="none" xmlns="http://www.w3.org/2000/svg">
<circle cx="25.5" cy="24.5" r="23.5" fill="#EDF1F6"/>
<circle cx="25.5" cy="24.5" r="23" stroke="#454B51" stroke-opacity="0.13"/>
<g filter="url(#filter0_di)">
<ellipse cx="25.5" cy="25" rx="17.5" ry="17" fill="url(#paint0_linear)"/>
</g>
<g clip-path="url(#clip0)">
<path d="M30.291 20.8483C29.9652 20.9308 29.6094 20.9766 29.2363 20.9766C27.683 20.9766 26.4238 20.1896 26.4238 19.2188C26.4238 18.2479 27.683 17.4609 29.2363 17.4609C29.6094 17.4609 29.9652 17.5067 30.291 17.5892C29.2604 17.85 28.5332 18.4811 28.5332 19.2188C28.5332 19.9564 29.2604 20.5875 30.291 20.8483ZM20.0957 24.9141C20.0957 24.1764 20.823 23.5453 21.8535 23.2845C21.5277 23.2021 21.1719 23.1562 20.7988 23.1562C19.2455 23.1562 17.9863 23.9433 17.9863 24.9141C17.9863 25.8849 19.2455 26.6719 20.7988 26.6719C21.1719 26.6719 21.5277 26.6261 21.8535 26.5436C20.8229 26.2828 20.0957 25.6517 20.0957 24.9141Z" fill="#F2F2F2"/>
<path d="M29.2364 21.6797C27.265 21.6797 25.7208 20.5987 25.7208 19.2188C25.7208 17.8388 27.265 16.7578 29.2364 16.7578C31.2078 16.7578 32.752 17.8388 32.752 19.2188C32.752 20.5987 31.2078 21.6797 29.2364 21.6797ZM29.2364 18.1641C28.6242 18.1641 28.0352 18.3127 27.6203 18.572C27.3068 18.7679 27.127 19.0037 27.127 19.2188C27.127 19.4338 27.3068 19.6695 27.6203 19.8655C28.0352 20.1248 28.6242 20.2734 29.2364 20.2734C29.8486 20.2734 30.4377 20.1248 30.8525 19.8655C31.166 19.6696 31.3458 19.4338 31.3458 19.2188C31.3458 19.0037 31.166 18.768 30.8525 18.572C30.4377 18.3127 29.8486 18.1641 29.2364 18.1641ZM32.4262 32.0226C32.7407 31.7948 32.811 31.3552 32.5832 31.0407C32.3554 30.7262 31.9158 30.6559 31.6013 30.8837C30.3003 31.826 28.1022 31.826 26.8012 30.8837C26.4867 30.6559 26.0471 30.7262 25.8193 31.0407C25.5915 31.3552 25.6618 31.7948 25.9763 32.0226C26.8466 32.6529 27.9918 33 29.2013 33C30.4107 33 31.5559 32.6529 32.4262 32.0226ZM32.4262 29.2101C32.7407 28.9823 32.811 28.5427 32.5832 28.2282C32.3555 27.9137 31.9158 27.8434 31.6013 28.0712C30.3003 29.0135 28.1022 29.0135 26.8012 28.0712C26.4867 27.8434 26.0471 27.9137 25.8193 28.2282C25.5915 28.5427 25.6618 28.9823 25.9763 29.2101C26.8466 29.8404 27.9918 30.1875 29.2013 30.1875C30.4107 30.1875 31.5559 29.8404 32.4262 29.2101ZM32.4262 26.3624C32.7407 26.1347 32.811 25.6951 32.5832 25.3806C32.3555 25.066 31.9158 24.9957 31.6013 25.2235C30.3003 26.1658 28.1022 26.1658 26.8012 25.2235C26.4867 24.9957 26.0471 25.066 25.8193 25.3806C25.5915 25.6951 25.6618 26.1347 25.9763 26.3624C26.8466 26.9927 27.9918 27.3398 29.2013 27.3398C30.4107 27.3398 31.5559 26.9927 32.4262 26.3624ZM32.4262 23.5148C32.7407 23.287 32.811 22.8474 32.5832 22.5329C32.3555 22.2184 31.9158 22.1481 31.6013 22.3759C30.3003 23.3181 28.1022 23.3181 26.8012 22.3759C26.4867 22.1481 26.0471 22.2184 25.8193 22.5329C25.5915 22.8474 25.6618 23.287 25.9763 23.5148C26.8466 24.1451 27.9918 24.4922 29.2013 24.4922C30.4107 24.4922 31.5559 24.1451 32.4262 23.5148ZM20.7989 27.375C18.8275 27.375 17.2833 26.294 17.2833 24.9141C17.2833 23.5341 18.8275 22.4531 20.7989 22.4531C22.7703 22.4531 24.3145 23.5341 24.3145 24.9141C24.3145 26.294 22.7703 27.375 20.7989 27.375ZM20.7989 23.8594C20.1867 23.8594 19.5977 24.0081 19.1828 24.2673C18.8693 24.4633 18.6895 24.699 18.6895 24.9141C18.6895 25.1291 18.8693 25.3648 19.1828 25.5608C19.5977 25.8201 20.1867 25.9688 20.7989 25.9688C21.4111 25.9688 22.0002 25.8201 22.415 25.5608C22.7285 25.3649 22.9083 25.1291 22.9083 24.9141C22.9083 24.699 22.7285 24.4633 22.415 24.2673C22.0002 24.0081 21.4111 23.8594 20.7989 23.8594ZM23.9887 32.0226C24.3032 31.7948 24.3735 31.3552 24.1457 31.0407C23.9179 30.7262 23.4783 30.6559 23.1638 30.8837C21.8628 31.826 19.6647 31.826 18.3637 30.8837C18.0492 30.6559 17.6096 30.7262 17.3818 31.0407C17.154 31.3552 17.2243 31.7948 17.5388 32.0226C18.4091 32.6529 19.5543 33 20.7638 33C21.9732 33 23.1184 32.6529 23.9887 32.0226ZM23.9887 29.2101C24.3032 28.9823 24.3735 28.5427 24.1457 28.2282C23.918 27.9137 23.4783 27.8434 23.1638 28.0712C21.8628 29.0135 19.6647 29.0135 18.3637 28.0712C18.0492 27.8434 17.6096 27.9137 17.3818 28.2282C17.154 28.5427 17.2243 28.9823 17.5388 29.2101C18.4091 29.8404 19.5543 30.1875 20.7638 30.1875C21.9732 30.1875 23.1184 29.8404 23.9887 29.2101Z" fill="white"/>
<path d="M18.4785 18.2344C18.3009 18.2344 18.1233 18.1676 17.9865 18.0336C17.7091 17.7618 17.7045 17.3167 17.9762 17.0392L19.3635 15.6228C19.3649 15.6214 19.3664 15.6199 19.3679 15.6184C19.7654 15.2197 20.2942 15 20.8568 15C21.4193 15 21.948 15.2197 22.3456 15.6184L23.7577 17.0348C24.0319 17.3099 24.0312 17.7551 23.7562 18.0292C23.4812 18.3033 23.036 18.3027 22.7618 18.0277L21.3497 16.6113C21.2179 16.4791 21.0428 16.4062 20.8568 16.4062C20.6715 16.4062 20.4971 16.4784 20.3655 16.6095L18.9808 18.0233C18.8431 18.1639 18.6608 18.2344 18.4785 18.2344ZM21.502 20.6953V18.4805C21.502 18.0921 21.1872 17.7773 20.7988 17.7773C20.4105 17.7773 20.0957 18.0921 20.0957 18.4805V20.6953C20.0957 21.0836 20.4105 21.3984 20.7988 21.3984C21.1872 21.3984 21.502 21.0836 21.502 20.6953Z" fill="url(#paint1_linear)"/>
</g>
<defs>
<filter id="filter0_di" x="0" y="0" width="51" height="50" filterUnits="userSpaceOnUse" color-interpolation-filters="sRGB">
<feFlood flood-opacity="0" result="BackgroundImageFix"/>
<feColorMatrix in="SourceAlpha" type="matrix" values="0 0 0 0 0 0 0 0 0 0 0 0 0 0 0 0 0 0 127 0" result="hardAlpha"/>
<feOffset/>
<feGaussianBlur stdDeviation="4"/>
<feComposite in2="hardAlpha" operator="out"/>
<feColorMatrix type="matrix" values="0 0 0 0 0.313726 0 0 0 0 0.701961 0 0 0 0 0 0 0 0 0.79 0"/>
<feBlend mode="normal" in2="BackgroundImageFix" result="effect1_dropShadow"/>
<feBlend mode="normal" in="SourceGraphic" in2="effect1_dropShadow" result="shape"/>
<feColorMatrix in="SourceAlpha" type="matrix" values="0 0 0 0 0 0 0 0 0 0 0 0 0 0 0 0 0 0 127 0" result="hardAlpha"/>
<feOffset dy="2"/>
<feComposite in2="hardAlpha" operator="arithmetic" k2="-1" k3="1"/>
<feColorMatrix type="matrix" values="0 0 0 0 0 0 0 0 0 0 0 0 0 0 0 0 0 0 0.12 0"/>
<feBlend mode="normal" in2="shape" result="effect2_innerShadow"/>
</filter>
<linearGradient id="paint0_linear" x1="-45.75" y1="8" x2="40.8466" y2="83.3326" gradientUnits="userSpaceOnUse">
<stop stop-color="#50B300"/>
<stop offset="1" stop-color="#62CE0A" stop-opacity="0.7"/>
</linearGradient>
<linearGradient id="paint1_linear" x1="17.6961" y1="18.2671" x2="24.013" y2="18.2671" gradientUnits="userSpaceOnUse">
<stop stop-color="#E2C35D"/>
<stop offset="0.485719" stop-color="#F2E090"/>
<stop offset="1" stop-color="#E8C96F"/>
</linearGradient>
<clipPath id="clip0">
<rect width="18" height="18" fill="white" transform="translate(16 15)"/>
</clipPath>
</defs>
</svg>
