<svg width="13" height="14" viewBox="0 0 13 14" fill="none" xmlns="http://www.w3.org/2000/svg">
<g clip-path="url(#clip0)">
<path d="M3.96069 6.50122C3.96069 6.78169 4.18804 7.00903 4.46851 7.00903H5.99194V8.53247C5.99194 8.81294 6.21929 9.04028 6.49976 9.04028C6.78022 9.04028 7.00757 8.81294 7.00757 8.53247V7.00903H8.53101C8.81147 7.00903 9.03882 6.78169 9.03882 6.50122C9.03882 6.22076 8.81147 5.99341 8.53101 5.99341H7.00757V4.46997C7.00757 4.18951 6.78022 3.96216 6.49976 3.96216C6.21929 3.96216 5.99194 4.18951 5.99194 4.46997V5.99341H4.46851C4.18804 5.99341 3.96069 6.22076 3.96069 6.50122Z" fill="white"/>
<path d="M4.07267 1.5704L4.7295 1.29831C4.98858 1.19096 5.11165 0.893915 5.0043 0.634804C4.89695 0.375693 4.59993 0.252574 4.34079 0.360001L3.68396 0.632087C3.42488 0.739439 3.30181 1.03648 3.40916 1.2956C3.51616 1.55384 3.81272 1.678 4.07267 1.5704Z" fill="white"/>
<path d="M6.49976 0.0012207C6.21929 0.0012207 5.99194 0.228568 5.99194 0.509033C5.99194 0.789498 6.21929 1.01685 6.49976 1.01685C9.53084 1.01685 11.9841 3.46978 11.9841 6.50122C11.9841 9.5323 9.53119 11.9856 6.49976 11.9856C3.46867 11.9856 1.01538 9.53266 1.01538 6.50122C1.01538 6.22076 0.788033 5.99341 0.507568 5.99341C0.227104 5.99341 -0.000244141 6.22076 -0.000244141 6.50122C-0.000244141 10.0936 2.90691 13.0012 6.49976 13.0012C10.0921 13.0012 12.9998 10.0941 12.9998 6.50122C12.9998 2.90888 10.0926 0.0012207 6.49976 0.0012207Z" fill="white"/>
<path d="M2.37034 2.8745L2.87305 2.37179C3.07137 2.17346 3.07137 1.85192 2.87305 1.65362C2.67472 1.45532 2.35317 1.45529 2.15487 1.65362L1.65216 2.15633C1.45384 2.35465 1.45384 2.6762 1.65216 2.8745C1.85044 3.07277 2.17201 3.07282 2.37034 2.8745Z" fill="white"/>
<path d="M0.633182 5.00566C0.892852 5.11322 1.18959 4.98936 1.29669 4.73086L1.56878 4.074C1.67613 3.81489 1.55306 3.51784 1.29397 3.41049C1.03481 3.30317 0.737816 3.42621 0.630465 3.6853L0.358379 4.34213C0.251027 4.60127 0.374096 4.89831 0.633182 5.00566Z" fill="white"/>
</g>
<defs>
<clipPath id="clip0">
<rect width="13" height="13" fill="white" transform="translate(-0.000244141 0.0012207)"/>
</clipPath>
</defs>
</svg>
