<svg width="11" height="9" viewBox="0 0 11 9" fill="none" xmlns="http://www.w3.org/2000/svg">
<path d="M5.43887 0.14062L5.14694 0.430529C5.05578 0.521769 5.00555 0.643157 5.00555 0.772893C5.00555 0.902556 5.05578 1.02409 5.14694 1.11533L8.45416 4.4224L5.14327 7.73329C5.05211 7.82439 5.00195 7.94592 5.00195 8.07558C5.00195 8.20525 5.05211 8.32685 5.14327 8.41802L5.4334 8.708C5.62207 8.89681 5.92939 8.89681 6.11805 8.708L10.0742 4.76599C10.1653 4.6749 10.2295 4.55351 10.2295 4.42269L10.2295 4.42118C10.2295 4.29144 10.1653 4.17006 10.0742 4.07896L6.12878 0.14062C6.03768 0.0493802 5.91262 -0.000701002 5.78296 -0.000844999C5.65322 -0.000844992 5.52989 0.0493803 5.43887 0.14062Z" fill="white"/>
<g opacity="0.3">
<path d="M3.2414 2.07667L3.08141 2.23555C3.03145 2.28555 3.00392 2.35208 3.00392 2.42318C3.00392 2.49424 3.03145 2.56085 3.08141 2.61085L4.89393 4.42329L3.0794 6.23781C3.02944 6.28774 3.00195 6.35434 3.00195 6.42541C3.00195 6.49647 3.02944 6.56311 3.0794 6.61308L3.23841 6.772C3.3418 6.87548 3.51023 6.87548 3.61363 6.772L5.78181 4.61159C5.83173 4.56167 5.86691 4.49514 5.86691 4.42345L5.86691 4.42262C5.86691 4.35152 5.83169 4.28499 5.78181 4.23506L3.61951 2.07667C3.56958 2.02666 3.50104 1.99922 3.42998 1.99914C3.35888 1.99914 3.29129 2.02666 3.2414 2.07667Z" fill="white"/>
</g>
<g opacity="0.3">
<path d="M0.241403 2.07667L0.0814147 2.23555C0.0314505 2.28555 0.00392477 2.35208 0.00392477 2.42318C0.00392478 2.49424 0.0314505 2.56085 0.0814147 2.61085L1.89393 4.42329L0.0794036 6.23781C0.0294394 6.28774 0.00195311 6.35434 0.00195311 6.42541C0.00195311 6.49647 0.0294394 6.56311 0.0794036 6.61308L0.238406 6.772C0.341805 6.87548 0.510232 6.87548 0.61363 6.772L2.78181 4.61159C2.83173 4.56167 2.86691 4.49514 2.86691 4.42345L2.86691 4.42262C2.86691 4.35152 2.83169 4.28499 2.78181 4.23506L0.619506 2.07667C0.569581 2.02666 0.501043 1.99922 0.429981 1.99914C0.35888 1.99914 0.291288 2.02666 0.241403 2.07667Z" fill="white"/>
</g>
</svg>
