<?xml version="1.0" encoding="utf-8"?>
<!-- Generator: Adobe Illustrator 23.0.2, SVG Export Plug-In . SVG Version: 6.00 Build 0)  -->
<svg version="1.1" id="Layer_1" xmlns="http://www.w3.org/2000/svg" xmlns:xlink="http://www.w3.org/1999/xlink" x="0px" y="0px"
	 viewBox="0 0 1453.3 272.1" style="enable-background:new 0 0 1453.3 272.1;" xml:space="preserve">
<style type="text/css">
	.st0{fill:#4D4D4D;}
	.st1{fill:#F7941D;}
	.st2{fill:#FFFFFF;}
</style>
<title>3-bitcoin-cash-logo-ot</title>
<path class="st0" d="M541.5,204.2c-7.4,0-14.8-0.2-22.1-0.7c-7.7-0.5-15.4-1.6-22.9-3.2V69.4c6.8-1.2,13.6-2.1,20.5-2.6
	c7.4-0.6,14.3-0.9,20.7-0.9c7.9-0.1,15.9,0.6,23.7,1.9c6.5,1,12.8,3.1,18.6,6.3c5,2.8,9.2,6.9,12.2,11.8c2.9,4.9,4.4,10.9,4.4,18
	c0,10.8-5.2,19.3-15.6,25.5c8.6,3.2,14.4,7.7,17.5,13.2c3.2,5.8,4.8,12.3,4.7,18.9c0,14.2-5.2,24.8-15.5,31.9
	C577.2,200.7,561.9,204.2,541.5,204.2z M526.1,120.5h14.8c9.4,0,16-1.2,20.1-3.6c4-2.4,6-6.3,6-11.6c0-5.5-2.1-9.3-6.2-11.5
	c-4.2-2.2-10.3-3.3-18.3-3.3c-2.6,0-5.4,0-8.4,0.1s-5.6,0.2-8,0.5V120.5z M526.1,143.7v34.9c2.2,0.3,4.6,0.5,7.2,0.6
	c2.6,0.1,5.5,0.2,8.6,0.2c9.1,0,16.4-1.3,22-3.9s8.4-7.4,8.4-14.4c0-6.2-2.3-10.7-7-13.3c-4.7-2.7-11.4-4-20.1-4L526.1,143.7z"/>
<path class="st0" d="M646.5,70.4c0,5.3-1.7,9.5-5.2,12.6c-7,6.1-17.4,6.1-24.4,0c-3.4-3.1-5.2-7.2-5.2-12.6c0-5.3,1.7-9.5,5.2-12.6
	c3.3-3,7.7-4.6,12.2-4.6c4.5-0.1,8.9,1.6,12.2,4.6C644.8,60.9,646.5,65.1,646.5,70.4z M643.7,202.5h-29V100h29V202.5z"/>
<path class="st0" d="M659.3,74.5l29-4.7V100h34.9v24.2h-34.9v36c0,6.1,1.1,11,3.2,14.6s6.5,5.5,13,5.5c3.2,0,6.4-0.3,9.6-0.9
	c3.1-0.6,6.1-1.4,9.1-2.4l4.1,22.6c-3.8,1.5-7.7,2.8-11.7,3.7c-5.2,1.1-10.5,1.7-15.8,1.6c-7.9,0-14.5-1.1-19.7-3.2
	c-4.9-1.9-9.2-5-12.5-9c-3.2-4.1-5.5-8.8-6.5-13.9c-1.3-5.9-1.9-12-1.9-18.1L659.3,74.5L659.3,74.5z"/>
<path class="st0" d="M727.3,151.3c-0.1-7.1,1.2-14.2,3.6-20.9c4.6-12.9,14.4-23.3,27-28.7c7-3,14.6-4.5,22.2-4.3
	c5,0,10.1,0.5,15,1.5c4.5,1,8.9,2.4,13.2,4.2l-6,23.2c-2.9-1.1-6-2-9-2.7c-3.6-0.8-7.2-1.2-10.9-1.2c-8.6,0-15,2.7-19.2,8
	c-4.2,5.3-6.3,12.3-6.3,21c0,9.2,2,16.4,5.9,21.4c4,5.1,10.9,7.6,20.7,7.6c3.8,0,7.6-0.3,11.3-1c3.8-0.6,7.5-1.6,11.1-3.1l4.1,23.8
	c-4.1,1.6-8.4,2.9-12.7,3.7c-5.5,1.1-11.2,1.6-16.8,1.6c-9.4,0-17.4-1.4-24.2-4.2c-6.3-2.5-12.1-6.4-16.7-11.4
	c-4.4-4.9-7.7-10.7-9.5-17C728.2,165.8,727.3,158.6,727.3,151.3z"/>
<path class="st0" d="M909.9,151.1c0.1,7.5-1.1,15-3.5,22.1c-2.1,6.4-5.6,12.2-10.1,17.1c-4.5,4.8-9.9,8.5-15.9,11
	c-13.3,5.2-28,5.2-41.3,0c-6-2.5-11.4-6.2-15.9-11c-4.6-4.9-8.1-10.8-10.3-17.1c-2.5-7.1-3.8-14.6-3.7-22.1c-0.1-7.5,1.2-15,3.8-22
	c2.3-6.3,5.9-12.1,10.5-16.9c4.5-4.7,10-8.4,16-10.9c6.4-2.6,13.3-4,20.2-3.9c7-0.1,13.9,1.2,20.4,3.9c6,2.5,11.4,6.2,15.9,10.9
	c4.5,4.9,8.1,10.6,10.3,16.9C908.7,136.2,909.9,143.6,909.9,151.1z M880.3,151.1c0-9-1.8-16-5.4-21.1c-3.6-5.1-8.7-7.7-15.3-7.7
	s-11.8,2.6-15.4,7.7c-3.6,5.1-5.5,12.2-5.5,21.1c0,9,1.8,16.1,5.5,21.3c3.6,5.3,8.8,7.9,15.4,7.9c6.6,0,11.7-2.6,15.3-7.9
	S880.3,160,880.3,151.1z"/>
<path class="st0" d="M953.3,70.4c0,5.3-1.7,9.5-5.2,12.6c-7,6.1-17.4,6.1-24.4,0c-3.4-3.1-5.2-7.2-5.2-12.6c0-5.3,1.7-9.5,5.2-12.6
	c3.3-3,7.7-4.6,12.2-4.6c4.5-0.1,8.9,1.6,12.2,4.6C951.6,60.9,953.3,65.1,953.3,70.4z M950.6,202.5h-29V100h29V202.5z"/>
<path class="st0" d="M967.1,103.5c6.3-1.7,12.7-3.1,19.1-4c8.1-1.3,16.3-1.9,24.5-1.9c8.7,0,15.9,1.1,21.7,3.4
	c5.3,2,10,5.3,13.7,9.6c3.5,4.3,5.9,9.4,7.2,14.8c1.5,6.3,2.2,12.7,2.1,19.1v57.9h-29V148c0-9.4-1.2-16-3.7-19.9
	c-2.5-3.9-7.1-5.8-13.8-5.8c-2.1,0-4.3,0.1-6.6,0.3c-2.3,0.2-4.4,0.4-6.2,0.7v79.1h-29V103.5L967.1,103.5z"/>
<path class="st1" d="M1134.7,205.2c-22,0-38.7-6.1-50.2-18.3c-11.5-12.2-17.2-29.5-17.2-52c-0.2-10.2,1.6-20.4,5.3-29.9
	c3.2-8.3,8.1-15.9,14.4-22.2c6.2-6.1,13.6-10.7,21.8-13.7c8.8-3.2,18.1-4.8,27.5-4.7c5.2-0.1,10.5,0.4,15.6,1.3
	c4.2,0.7,8.3,1.7,12.3,2.9c3,0.9,6,2,8.8,3.4c2.3,1.2,4,2.1,5.1,2.7l-8.8,24.5c-4.6-2.4-9.5-4.3-14.5-5.6
	c-6.1-1.6-12.5-2.4-18.8-2.3c-4.7,0-9.3,0.8-13.7,2.3c-4.5,1.6-8.5,4.2-11.9,7.5c-3.7,3.8-6.5,8.3-8.3,13.3
	c-2.1,5.5-3.1,12.1-3.1,19.9c0,5.9,0.6,11.7,2,17.4c1.2,5,3.5,9.8,6.6,13.9c3.2,4,7.3,7.2,12,9.3c4.9,2.3,10.9,3.4,17.9,3.4
	c4,0,8-0.3,11.9-0.8c3.2-0.4,6.3-1.1,9.4-1.9c2.5-0.6,4.9-1.4,7.2-2.4c2.1-0.9,4-1.8,5.6-2.5l8.4,24.4c-4.3,2.6-10.3,4.9-18.1,7
	C1153,204.3,1143.8,205.4,1134.7,205.2z"/>
<path class="st1" d="M1225.5,97.3c8.6,0,15.7,1,21.4,2.9c5.2,1.6,9.9,4.5,13.7,8.4c3.5,3.7,6,8.3,7.3,13.2
	c1.5,5.6,2.2,11.5,2.1,17.3v60.4c-4.2,0.9-9.9,2-17.3,3.2c-8.9,1.3-17.9,2-26.9,1.9c-6,0.1-12.1-0.5-18-1.8c-4.9-1-9.7-3-13.9-5.7
	c-3.9-2.6-7-6.2-9-10.4c-2.1-4.3-3.1-9.5-3.1-15.8c-0.2-5.3,1.1-10.5,3.6-15.2c2.3-4.1,5.6-7.5,9.6-9.9c4.2-2.6,8.9-4.4,13.8-5.4
	c5.3-1.1,10.8-1.7,16.2-1.7c3.3,0,6.7,0.2,10,0.5c2.4,0.2,4.8,0.6,7.1,1.3v-2.7c0-4.9-1.5-8.9-4.5-11.9c-3-3-8.2-4.5-15.6-4.5
	c-4.9,0-9.8,0.4-14.6,1.1c-4.3,0.6-8.4,1.6-12.5,3l-3.7-23.4c1.7-0.5,3.8-1.1,6.3-1.7s5.3-1.1,8.3-1.6s6.1-0.8,9.4-1.2
	C1218.7,97.5,1222.1,97.3,1225.5,97.3z M1227.8,182.2c2.9,0,5.6-0.1,8.2-0.2c2.1,0,4.2-0.2,6.2-0.6v-22c-1.8-0.4-3.5-0.6-5.3-0.8
	c-2.1-0.3-4.3-0.4-6.4-0.4c-2.6,0-5.1,0.2-7.7,0.5c-2.2,0.2-4.3,0.9-6.3,1.9c-1.7,0.8-3.2,2.1-4.3,3.7c-1.1,1.7-1.6,3.8-1.6,5.8
	c0,4.5,1.5,7.7,4.6,9.4C1218.3,181.4,1222.5,182.2,1227.8,182.2L1227.8,182.2z"/>
<path class="st1" d="M1315.1,181.7c5.3,0,9.1-0.5,11.3-1.6c2.2-1,3.3-3.1,3.3-6c0-2.3-1.4-4.4-4.3-6.1c-4.2-2.4-8.6-4.3-13.1-5.9
	c-4.2-1.5-8.4-3.3-12.4-5.3c-3.5-1.6-6.6-3.8-9.4-6.5c-2.6-2.6-4.7-5.7-6-9.1c-1.5-4.1-2.2-8.4-2.1-12.7c0-9.6,3.6-17.2,10.7-22.8
	c7.1-5.6,16.9-8.4,29.4-8.4c6,0,12,0.6,17.9,1.7c4.6,0.8,9.2,2,13.6,3.6l-5.1,22.6c-3.6-1.2-7.3-2.3-11-3.1c-4.4-1-8.8-1.4-13.3-1.4
	c-9.1,0-13.6,2.5-13.6,7.6c0,1.1,0.2,2.1,0.6,3.1c0.5,1,1.3,1.9,2.3,2.6c1.5,1,3.1,1.9,4.8,2.7c2.5,1.2,5.1,2.3,7.7,3.2
	c5.4,2,10.7,4.3,15.8,7c3.6,1.9,7,4.4,9.8,7.4c2.3,2.5,4.1,5.5,5.1,8.8c1.1,3.7,1.6,7.5,1.5,11.3c0,10.1-3.8,17.8-11.4,22.9
	c-7.6,5.2-18.3,7.8-32.2,7.8c-7.6,0.1-15.3-0.6-22.7-2.3c-4.3-1.1-8.5-2.4-12.6-3.9l4.9-23.6c4.9,1.9,10,3.5,15.2,4.6
	C1304.8,181.1,1309.9,181.7,1315.1,181.7z"/>
<path class="st1" d="M1369.4,202.5V56l29-4.7v49.1c2.5-0.8,5-1.4,7.5-1.9c2.9-0.6,5.9-0.9,8.9-0.9c8.3,0,15.2,1.1,20.7,3.4
	c5.1,2,9.7,5.3,13.2,9.6c3.4,4.4,5.8,9.4,7,14.8c1.4,6.3,2.1,12.7,2,19.1v57.9h-29V148c0-9.4-1.2-16-3.6-19.9
	c-2.4-3.9-6.9-5.8-13.3-5.8c-2.5,0-4.9,0.2-7.3,0.7c-2.1,0.4-4.1,0.9-6.1,1.5v77.9h-29L1369.4,202.5L1369.4,202.5z"/>
<path class="st1" d="M315.6,272.1c42.8-30,70.8-79.8,70.8-136S358.4,30,315.6,0h124.9v272.1H315.6z"/>
<path class="st1" d="M54.2,136c0,56.3,28,106,70.8,136H0V0h125C82.2,30,54.2,79.8,54.2,136z"/>
<circle class="st1" cx="220.2" cy="136" r="135.9"/>
<path class="st2" d="M284,141.6l-0.1-0.1l0,0c0-0.1-0.1-0.3-0.1-0.4l0,0l0,0l0,0l0,0l0,0l0,0l0,0c-1.6-5.3-4.8-10.1-9.1-13.6l0,0
	c-0.1-0.1-0.3-0.2-0.4-0.3l-0.2-0.1l-0.1-0.1l-0.1,0l-0.1-0.1l-0.1,0l-0.1-0.1l-0.1,0l-0.1-0.1l-0.1,0l-0.1-0.1l-0.1,0l-0.1-0.1
	l-0.1,0l-0.1-0.1l-0.1-0.1l-0.1-0.1l-0.1-0.1l-0.1-0.1l-0.1-0.1l-0.1-0.1l-0.1-0.1l-0.1-0.1l-0.1-0.1l-0.2-0.1l-0.1-0.1l-0.2-0.1
	l-0.1-0.1l-0.2-0.1l-0.1-0.1l-0.2-0.1l-0.1,0l-0.2-0.1l-0.1,0l-0.2-0.1l-0.1,0l-0.2-0.1l-0.1,0l-0.2-0.1l-0.1,0l-0.2-0.1l-0.1-0.1
	l-0.2-0.1l-0.1-0.1l-0.2-0.1l-0.1-0.1l-0.2-0.1l-0.1-0.1l0,0c-0.1-0.1-0.2-0.1-0.3-0.2c-3.9-2-8.1-3.3-12.4-3.9
	c1.2-1.3,2.3-2.7,3.3-4.2l0.2-0.2l0,0l0.1-0.1l0.1-0.2l0.1-0.1l0.1-0.2l0.1-0.1l0.1-0.2l0.1-0.1l0.1-0.2l0.1-0.1l0.1-0.2l0.1-0.1
	l0.1-0.2l0.1-0.1l0.1-0.2l0-0.1l0.1-0.2l0-0.1l0.1-0.2l0-0.1l0.1-0.1l0-0.1l0.1-0.1l0-0.1l0.1-0.1l0-0.1l0.1-0.1l0-0.1l0.1-0.1
	l0-0.1l0.1-0.1l0-0.1l0.1-0.1l0-0.1l0.1-0.1l0-0.1l0.1-0.1l0-0.1l0.1-0.1l0-0.1l0.1-0.1l0-0.1l0.1-0.1l0-0.1l0.1-0.1l0-0.1l0.1-0.1
	l0.1-0.2c0.1-0.1,0.1-0.3,0.2-0.4l0,0c1.9-4.6,2.3-9.6,1.3-14.5l0,0l0,0l0,0l0,0l0,0l0,0l0,0l0,0c0-0.1-0.1-0.3-0.1-0.4v0l0,0l0,0
	l0,0l0,0l-0.1-0.1c0-0.2-0.1-0.4-0.1-0.6c0-0.2-0.1-0.4-0.2-0.6l-0.1-0.1l0,0c0-0.1-0.1-0.3-0.1-0.4l0,0l0,0l0,0l0,0l0,0l0,0l0,0
	c-1.4-4.7-4.2-9-8.1-12.1l0,0c-0.1-0.1-0.2-0.2-0.3-0.3l-0.2-0.1l-0.1-0.1l-0.1,0l-0.1-0.1l-0.1,0l-0.1-0.1l-0.1,0l-0.1-0.1l-0.1,0
	l-0.1-0.1l-0.1,0l-0.1-0.1l-0.1,0l-0.1-0.1l-0.1,0l-0.1-0.1l-0.1,0l-0.1-0.1l-0.1,0l-0.1-0.1l-0.1,0l-0.1-0.1l-0.1,0l-0.1-0.1
	l-0.1,0l-0.1-0.1l-0.1,0l-0.1-0.1l-0.1,0l-0.1-0.1l-0.1,0l-0.2-0.1l-0.1,0l-0.2-0.1l-0.1-0.1l-0.2-0.1l-0.1-0.1l-0.2-0.1l-0.1-0.1
	l-0.2-0.1l-0.1,0l-0.2-0.1l-0.1,0l-0.2-0.1l-0.1,0l-0.2-0.1l-0.1-0.1l0,0l-0.3-0.1c-7.4-3.9-16.9-5-26.3-2.6l-2.5,0.6l-6.2-24.3
	L200,54.5l6.2,24.2l-11.6,3l-6.2-24.1L174,61.3l6.2,24.2l-29.8,7.7l4,15.4l12-3.1c4-1,8,1.4,9.1,5.3l0,0l0,0l16.7,64.9
	c0.7,2.7-0.9,5.4-3.6,6l-10.5,2.7l0.6,18.4l29.8-7.7l6.3,24.2l14.5-3.7l-6.2-24.2l11.6-3l6.2,24.2l14.5-3.7l-6.3-24.3
	c2.5-0.6,4.6-1.2,6-1.6c10.7-2.8,19.3-9,24.6-16.8l0.2-0.3l0,0l0.1-0.1l0.1-0.2l0.1-0.1l0.1-0.2l0.1-0.1l0.1-0.2l0.1-0.1l0.1-0.2
	l0-0.1l0.1-0.2l0-0.1l0.1-0.2l0-0.1l0.1-0.2l0-0.1l0.1-0.2l0-0.1l0.1-0.2l0-0.1l0.1-0.2l0-0.1l0.1-0.2l0-0.1l0.1-0.2l0-0.1l0.1-0.2
	l0-0.1l0.1-0.2l0-0.1l0.1-0.1l0-0.1l0.1-0.1l0-0.1l0.1-0.1l0-0.1l0.1-0.1l0-0.1l0.1-0.1l0-0.1l0.1-0.1l0-0.1l0.1-0.1l0-0.1l0.1-0.1
	l0-0.1l0.1-0.2l0.1-0.2c0.1-0.2,0.1-0.3,0.2-0.5l0,0c2.1-5.2,2.6-10.8,1.4-16.3l0,0l0,0l0,0l0,0l0,0l0,0l0,0l0,0
	c0-0.1-0.1-0.3-0.1-0.4v0l0,0l0,0l0,0l0,0l0,0l0,0l0,0l0,0l0,0l0,0l0,0l0,0l0,0l0,0c-0.1-0.2-0.1-0.4-0.2-0.6
	C284,142,284,141.8,284,141.6z M199,98.2c2.5-0.6,12.7-3.2,16-4.1c5.4-1.4,10.6-0.8,14.7,1.1l0.1,0.1l0,0l0.1,0l0.1,0l0,0l0.1,0l0,0
	l0.1,0l0,0l0.1,0l0,0l0.1,0l0,0l0.1,0l0,0l0.1,0l0,0l0.1,0l0,0l0.1,0l0,0l0.1,0.1l0,0l0.1,0.1l0,0l0.1,0.1l0,0l0.1,0l0,0l0.1,0l0,0
	l0.1,0l0,0l0.1,0l0,0l0.1,0l0,0l0.1,0l0,0l0.1,0l0,0l0.1,0l0,0l0.1,0l0,0l0.1,0l0,0l0.1,0l0.1,0.1c0.1,0,0.1,0.1,0.2,0.1l0,0
	c2.1,1.6,3.7,3.8,4.4,6.3l0,0l0,0c0,0.1,0,0.1,0.1,0.2l0,0l0,0.1c0,0.1,0.1,0.2,0.1,0.3c0,0.1,0,0.2,0.1,0.3l0,0.1l0,0
	c0,0.1,0,0.1,0.1,0.2l0,0l0,0c0.5,2.6,0.3,5.3-0.8,7.7l0,0l-0.1,0.2l-0.1,0.1l0,0.1l0,0l0,0.1l0,0l0,0.1l0,0l0,0.1l0,0l0,0.1l0,0
	l0,0.1l0,0l0,0.1l0,0l0,0.1l0,0l0,0.1l0,0l0,0.1l0,0l0,0.1l0,0l-0.1,0.1l0,0l-0.1,0.1l0,0l-0.1,0.1l0,0l-0.1,0.1l0,0l-0.1,0.1l0,0
	l-0.1,0.1l0,0l-0.1,0.1l0,0l-0.1,0.1l0,0l-0.1,0.1l0,0l-0.1,0.1l0,0l-0.1,0.1l0,0l-0.1,0.1l0,0.1l0,0l-0.1,0.1
	c-2.7,3.7-7,6.7-12.4,8.1c-3.4,0.9-13.6,3.5-16,4.2L199,98.2z M255.6,148L255.6,148L255.6,148c0.1,0.2,0.1,0.2,0.1,0.3l0,0l0,0l0,0
	l0,0l0,0l0,0l0,0c0.6,2.8,0.2,5.8-1.2,8.4l0,0l-0.1,0.2l-0.1,0.1l0,0.1l0,0l0,0.1l0,0l0,0.1l0,0l-0.1,0.1l0,0l-0.1,0.1l0,0l-0.1,0.1
	l0,0l-0.1,0.1l0,0l-0.1,0.1l0,0l-0.1,0.1l0,0l-0.1,0.1l0,0l-0.1,0.1l0,0l-0.1,0.1l0,0l-0.1,0.1l0,0l-0.1,0.1l0,0l-0.1,0.1l0,0
	l-0.1,0.1l0,0l-0.1,0.1l0,0l-0.1,0.1l0,0l-0.1,0.1l0,0l-0.1,0.1l0,0l-0.1,0.1l0,0l-0.1,0.1l0,0l-0.1,0.1l-0.1,0.1l0,0l-0.1,0.1
	c-3.2,4.1-8.4,7.5-14.8,9.1c-4,1-16.1,4.2-19,4.9l-8.2-32c2.9-0.8,15-3.8,19-4.8c6.3-1.6,12.5-1.2,17.3,0.9l0.2,0.1l0,0l0.1,0l0.1,0
	l0.1,0l0.1,0.1l0.1,0l0.1,0.1l0.1,0l0.1,0.1l0,0l0.1,0.1l0,0l0.1,0.1l0,0l0.1,0.1l0,0l0.1,0l0,0l0.1,0l0,0l0.1,0l0,0l0.1,0l0,0
	l0.1,0l0,0l0.1,0l0,0l0.1,0l0,0l0.1,0l0,0l0.1,0l0,0l0.1,0.1l0,0l0.1,0.1l0,0l0.1,0.1l0,0l0.1,0.1l0,0l0.1,0.1l0,0l0.1,0l0,0
	l0.1,0.1l0.1,0.1c0.1,0.1,0.2,0.1,0.2,0.1l0,0c2.4,1.6,4.2,4,5.1,6.8l0,0l0,0c0,0.1,0,0.1,0.1,0.2l0,0l0,0.1c0,0.1,0.1,0.2,0.1,0.3
	C255.6,147.7,255.6,147.8,255.6,148L255.6,148z"/>
</svg>
