<svg width="8" height="10" viewBox="0 0 8 10" fill="none" xmlns="http://www.w3.org/2000/svg">
<path d="M6.23514 2.94528C5.92454 2.05891 5.07605 1.95285 4.08363 2.11194L3.77302 0.85437L3.01545 1.04376L3.31848 2.27103C3.12151 2.32406 2.91696 2.3771 2.71999 2.43013L2.41696 1.19528L1.65939 1.38467L1.96999 2.64225C1.8109 2.6877 1.64423 2.73316 1.49272 2.77104V2.76346L0.447266 3.02861L0.65181 3.84679C0.65181 3.84679 1.20484 3.69528 1.19727 3.71043C1.5003 3.63467 1.64423 3.78618 1.71242 3.9377L2.06848 5.37709C2.09878 5.36952 2.12151 5.36195 2.15181 5.36195L2.06848 5.38467L2.5609 7.39982C2.56848 7.49831 2.55333 7.67255 2.34121 7.72558C2.35636 7.73315 1.78817 7.86195 1.78817 7.86195L1.86393 8.81649L2.84878 8.56649C3.0306 8.52104 3.21242 8.47558 3.38666 8.4377L3.69727 9.71043L4.45484 9.52103L4.14423 8.25588C4.35636 8.21043 4.55333 8.1574 4.7503 8.11194L5.0609 9.36952L5.81848 9.18012L5.50787 7.9074C6.75787 7.51346 7.56848 6.96043 7.37908 5.718C7.22757 4.718 6.66696 4.39982 5.90181 4.4074C6.28818 4.06649 6.46242 3.59679 6.23514 2.94528ZM5.84878 5.9377C6.08363 6.89225 4.44727 7.1877 3.93969 7.31649L3.52302 5.6271C4.03818 5.50589 5.60636 4.95285 5.84878 5.9377ZM4.91696 3.64982C5.12908 4.51346 3.76545 4.75588 3.3412 4.86194L2.96242 3.33164C3.38666 3.218 4.68969 2.74073 4.91696 3.64982Z" fill="#86B94D"/>
</svg>
