<svg width="6" height="8" viewBox="0 0 6 8" fill="none" xmlns="http://www.w3.org/2000/svg">
<path d="M5.15072 2.37778C5.07146 1.53763 4.3468 1.25343 3.43079 1.17077V0.0045291H2.72312V1.1368C2.53629 1.1368 2.34494 1.1368 2.15698 1.1368V0H1.44705V1.16624C1.29419 1.16624 1.14246 1.16624 0.994137 1.16624H0.0158518L0.0113227 1.92487C0.0113227 1.92487 0.535566 1.91581 0.526508 1.92487C0.814105 1.92487 0.908084 2.09244 0.934126 2.23624V3.56553C0.959394 3.5641 0.984722 3.5641 1.00999 3.56553H0.931862L0.9262 5.43492C0.920149 5.50012 0.888777 5.56036 0.83882 5.60269C0.788862 5.64503 0.724298 5.6661 0.658984 5.66137C0.668042 5.6693 0.142667 5.66137 0.142667 5.66137L0 6.51058H0.923936H1.43119V7.69041H2.14113V6.52417C2.33588 6.52417 2.52384 6.53096 2.70727 6.53096V7.69267H3.4172V6.51511C4.61062 6.46076 5.44624 6.16184 5.54814 5.04202C5.6342 4.1362 5.20846 3.73537 4.5291 3.57006C4.94125 3.36059 5.1994 2.9926 5.14053 2.37664L5.15072 2.37778ZM4.15092 4.89709C4.15092 5.77913 2.64046 5.67496 2.15925 5.67383V4.11129C2.64046 4.11129 4.14979 3.97881 4.14752 4.89709H4.15092ZM3.82596 2.69255C3.82596 3.4942 2.56573 3.39682 2.16491 3.39682V1.97922C2.56913 1.98035 3.82822 1.8558 3.82596 2.69255Z" fill="#F7941D"/>
</svg>
