<svg width="32" height="28" viewBox="0 0 32 28" fill="none" xmlns="http://www.w3.org/2000/svg">
<path d="M21.9606 1.13693H8.64091C7.80017 1.13693 7.11865 1.81845 7.11865 2.65919V25.3408C7.11865 26.1816 7.80017 26.8631 8.64091 26.8631H12.1489H21.9606C22.8014 26.8631 23.4829 26.1816 23.4829 25.3408V2.65919C23.4829 1.81845 22.8014 1.13693 21.9606 1.13693Z" fill="#76B6DA"/>
<path d="M21.9616 27.1092H12.1498C12.0139 27.1092 11.9037 26.999 11.9037 26.8631C11.9037 26.7272 12.0139 26.617 12.1498 26.617H21.9616C22.6653 26.617 23.2378 26.0445 23.2378 25.3408V2.65919C23.2378 1.95552 22.6653 1.38303 21.9616 1.38303H8.64188C7.93822 1.38303 7.36572 1.95552 7.36572 2.65919V25.3408C7.36572 26.0445 7.93822 26.617 8.64188 26.617C8.77781 26.617 8.88797 26.7272 8.88797 26.8631C8.88797 26.999 8.77781 27.1092 8.64188 27.1092C7.66678 27.1092 6.87354 26.3159 6.87354 25.3408V2.65919C6.87354 1.68408 7.66678 0.890839 8.64188 0.890839H21.9617C22.9368 0.890839 23.73 1.68408 23.73 2.65919V25.3408C23.73 26.3159 22.9367 27.1092 21.9616 27.1092Z" fill="#6AA7C9"/>
<path d="M7.11865 3.6958H23.4829V22.5394H7.11865V3.6958Z" fill="white"/>
<path d="M23.483 22.7855H7.11865C6.98273 22.7855 6.87256 22.6754 6.87256 22.5394V3.6958C6.87256 3.55987 6.98273 3.44971 7.11865 3.44971H23.4829C23.6188 3.44971 23.729 3.55987 23.729 3.6958V22.5394C23.7291 22.6754 23.6189 22.7855 23.483 22.7855ZM7.36475 22.2933H23.2368V3.94189H7.36475V22.2933Z" fill="#6AA7C9"/>
<path d="M15.3008 25.8712C15.9469 25.8712 16.4707 25.3474 16.4707 24.7012C16.4707 24.0551 15.9469 23.5313 15.3008 23.5313C14.6547 23.5313 14.1309 24.0551 14.1309 24.7012C14.1309 25.3474 14.6547 25.8712 15.3008 25.8712Z" fill="white"/>
<path d="M15.3008 26.1173C14.5199 26.1173 13.8848 25.4821 13.8848 24.7013C13.8848 23.9205 14.52 23.2852 15.3008 23.2852C16.0816 23.2852 16.7169 23.9205 16.7169 24.7013C16.7169 25.4822 16.0816 26.1173 15.3008 26.1173ZM15.3008 23.7774C14.7914 23.7774 14.377 24.1918 14.377 24.7013C14.377 25.2107 14.7914 25.6252 15.3008 25.6252C15.8102 25.6252 16.2247 25.2107 16.2247 24.7013C16.2246 24.1918 15.8102 23.7774 15.3008 23.7774Z" fill="#6AA7C9"/>
<path d="M17.106 2.71924H13.4954C13.3594 2.71924 13.2493 2.60907 13.2493 2.47314C13.2493 2.33722 13.3594 2.22705 13.4954 2.22705H17.106C17.242 2.22705 17.3521 2.33722 17.3521 2.47314C17.3521 2.60907 17.2421 2.71924 17.106 2.71924Z" fill="#6AA7C9"/>
<path d="M24.9255 15.8049H18.0017C17.8658 15.8049 17.7556 15.6948 17.7556 15.5588C17.7556 15.4229 17.8658 15.3127 18.0017 15.3127H24.9255C25.237 15.3127 25.4905 15.0594 25.4905 14.7478C25.4905 14.4362 25.237 14.1828 24.9255 14.1828H23.9087C23.7728 14.1828 23.6626 14.0726 23.6626 13.9367C23.6626 13.8008 23.7728 13.6906 23.9087 13.6906H24.9255C25.5084 13.6906 25.9827 14.1648 25.9827 14.7478C25.9826 15.3307 25.5084 15.8049 24.9255 15.8049Z" fill="#6AA7C9"/>
<path d="M16.8794 10.7094C16.7795 10.7094 16.6856 10.6481 16.6487 10.549L15.9994 8.80325H13.4954C13.3594 8.80325 13.2493 8.69309 13.2493 8.55716C13.2493 8.42123 13.3594 8.31107 13.4954 8.31107H16.1705C16.2733 8.31107 16.3653 8.37497 16.4012 8.47135L17.1101 10.3774C17.1575 10.5048 17.0926 10.6465 16.9652 10.6939C16.9369 10.7044 16.9079 10.7094 16.8794 10.7094Z" fill="#6AA7C9"/>
<path d="M18.4778 13.9368H23.9089C24.0971 13.9368 24.2645 13.8174 24.3259 13.6396L25.4261 10.4535C25.5251 10.1669 25.3123 9.86826 25.0091 9.86826H17.2929C16.9854 9.86826 16.7722 10.175 16.8794 10.4632L18.0642 13.6493C18.1286 13.8221 18.2935 13.9368 18.4778 13.9368Z" fill="#76B6DA"/>
<path d="M23.9089 14.1829H18.4779C18.1921 14.1829 17.9332 14.003 17.8337 13.7351L16.6488 10.549C16.5704 10.3381 16.6002 10.102 16.7286 9.91723C16.8571 9.73249 17.0681 9.62216 17.293 9.62216H25.0091C25.2308 9.62216 25.4401 9.72995 25.5688 9.91058C25.6974 10.0911 25.7311 10.3242 25.6588 10.5338L24.5586 13.7199C24.4629 13.9968 24.2018 14.1829 23.9089 14.1829ZM17.293 10.1144C17.2282 10.1144 17.1698 10.1449 17.1328 10.1981C17.0958 10.2513 17.0875 10.3167 17.1102 10.3774L18.295 13.5635C18.3233 13.6396 18.3967 13.6906 18.4779 13.6906H23.9089C23.9921 13.6906 24.0662 13.6378 24.0933 13.5592L25.1935 10.3731C25.2144 10.3127 25.2051 10.2482 25.1679 10.1961C25.1309 10.1441 25.073 10.1143 25.009 10.1143H17.293V10.1144Z" fill="#6AA7C9"/>
<path d="M23.5029 18.1655C24.006 18.1655 24.4138 17.7577 24.4138 17.2546C24.4138 16.7515 24.006 16.3437 23.5029 16.3437C22.9999 16.3437 22.592 16.7515 22.592 17.2546C22.592 17.7577 22.9999 18.1655 23.5029 18.1655Z" fill="white"/>
<path d="M23.5029 18.4116C22.865 18.4116 22.3459 17.8925 22.3459 17.2546C22.3459 16.6166 22.865 16.0976 23.5029 16.0976C24.1409 16.0976 24.6599 16.6166 24.6599 17.2546C24.6599 17.8925 24.1409 18.4116 23.5029 18.4116ZM23.5029 16.5897C23.1363 16.5897 22.8381 16.888 22.8381 17.2545C22.8381 17.621 23.1364 17.9193 23.5029 17.9193C23.8694 17.9193 24.1677 17.621 24.1677 17.2545C24.1677 16.888 23.8695 16.5897 23.5029 16.5897Z" fill="#6AA7C9"/>
<path d="M19.2981 18.1655C19.8011 18.1655 20.209 17.7577 20.209 17.2546C20.209 16.7515 19.8011 16.3437 19.2981 16.3437C18.795 16.3437 18.3872 16.7515 18.3872 17.2546C18.3872 17.7577 18.795 18.1655 19.2981 18.1655Z" fill="white"/>
<path d="M19.2981 18.4116C18.6601 18.4116 18.1411 17.8925 18.1411 17.2546C18.1411 16.6166 18.6601 16.0976 19.2981 16.0976C19.936 16.0976 20.455 16.6166 20.455 17.2546C20.455 17.8925 19.936 18.4116 19.2981 18.4116ZM19.2981 16.5897C18.9315 16.5897 18.6333 16.888 18.6333 17.2545C18.6333 17.621 18.9316 17.9193 19.2981 17.9193C19.6646 17.9193 19.9629 17.621 19.9629 17.2545C19.9629 16.888 19.6647 16.5897 19.2981 16.5897Z" fill="#6AA7C9"/>
<path d="M12.6035 10.2078H9.75977C9.62384 10.2078 9.51367 10.0976 9.51367 9.9617C9.51367 9.82577 9.62384 9.71561 9.75977 9.71561H12.6035C12.7395 9.71561 12.8496 9.82577 12.8496 9.9617C12.8496 10.0976 12.7395 10.2078 12.6035 10.2078Z" fill="#6AA7C9"/>
<path d="M15.6387 14.5024H12.7949C12.659 14.5024 12.5488 14.3922 12.5488 14.2563C12.5488 14.1204 12.659 14.0102 12.7949 14.0102H15.6387C15.7746 14.0102 15.8848 14.1204 15.8848 14.2563C15.8848 14.3922 15.7746 14.5024 15.6387 14.5024Z" fill="#6AA7C9"/>
<path d="M14.1308 10.2078H13.6057C13.4698 10.2078 13.3596 10.0976 13.3596 9.9617C13.3596 9.82577 13.4698 9.71561 13.6057 9.71561H14.1308C14.2667 9.71561 14.3769 9.82577 14.3769 9.9617C14.3769 10.0976 14.2667 10.2078 14.1308 10.2078Z" fill="#6AA7C9"/>
<path d="M28.81 27.1092H25.1992C25.0633 27.1092 24.9531 26.999 24.9531 26.8631C24.9531 26.7272 25.0633 26.617 25.1992 26.617H28.81C28.9459 26.617 29.0561 26.7272 29.0561 26.8631C29.0561 26.999 28.9459 27.1092 28.81 27.1092Z" fill="#6AA7C9"/>
<path d="M4.51914 2.71924H0.908447C0.772522 2.71924 0.662354 2.60907 0.662354 2.47314C0.662354 2.33722 0.772522 2.22705 0.908447 2.22705H4.51914C4.65506 2.22705 4.76523 2.33722 4.76523 2.47314C4.76523 2.60907 4.65506 2.71924 4.51914 2.71924Z" fill="#6AA7C9"/>
<path d="M31.0916 27.1092H30.1279C29.992 27.1092 29.8818 26.999 29.8818 26.8631C29.8818 26.7272 29.992 26.617 30.1279 26.617H31.0916C31.2276 26.617 31.3377 26.7272 31.3377 26.8631C31.3377 26.999 31.2276 27.1092 31.0916 27.1092Z" fill="#6AA7C9"/>
</svg>
