<svg width="16" height="16" viewBox="0 0 16 16" fill="none" xmlns="http://www.w3.org/2000/svg">
<path d="M8 16C12.4183 16 16 12.4183 16 8C16 3.58172 12.4183 0 8 0C3.58172 0 0 3.58172 0 8C0 12.4183 3.58172 16 8 16Z" fill="#008DE4"/>
<path d="M9.70988 3.51929H5.6912L5.35829 5.38086L8.98632 5.38595C10.7732 5.38595 11.3014 6.03479 11.2861 7.10995C11.2776 7.66196 11.0398 8.59445 10.9362 8.89678C10.6611 9.70188 10.0954 10.6225 7.9757 10.6191L4.44789 10.6174L4.11328 12.4806H8.12347C9.53833 12.4806 10.1396 12.3159 10.7766 12.022C12.1897 11.3698 13.0305 9.97534 13.3668 8.15623C13.8695 5.4471 13.2445 3.51929 9.70988 3.51929Z" fill="white"/>
<path d="M3.9555 7.06409C2.90242 7.06409 2.75125 7.75029 2.65274 8.16472C2.52196 8.70825 2.47949 8.92736 2.47949 8.92736H6.59499C7.64807 8.92736 7.79924 8.24116 7.89775 7.82672C8.02854 7.2832 8.071 7.06409 8.071 7.06409H3.9555Z" fill="white"/>
</svg>
