<svg width="7" height="7" viewBox="0 0 7 7" fill="none" xmlns="http://www.w3.org/2000/svg">
<path d="M0.451877 6.462L0 5.84673L3.19536 3.49994L0 1.15326L0.451863 0.537964L4.06613 3.19229C4.16405 3.26421 4.22188 3.37845 4.22188 3.49994C4.22188 3.62143 4.16405 3.73568 4.06613 3.80758L0.451877 6.462Z" fill="black"/>
<path d="M0.451877 6.462L0 5.84673L3.19536 3.49994L0 1.15326L0.451863 0.537964L4.06613 3.19229C4.16405 3.26421 4.22188 3.37845 4.22188 3.49994C4.22188 3.62143 4.16405 3.73568 4.06613 3.80758L0.451877 6.462Z" fill="url(#paint0_linear)"/>
<path d="M3.22995 6.462L2.77808 5.84673L5.97341 3.49994L2.77808 1.15326L3.22994 0.537964L6.84417 3.19229C6.9421 3.2642 6.99993 3.37843 6.99993 3.49993C6.99993 3.6214 6.9421 3.73568 6.84417 3.80757L3.22995 6.462Z" fill="black"/>
<path d="M3.22995 6.462L2.77808 5.84673L5.97341 3.49994L2.77808 1.15326L3.22994 0.537964L6.84417 3.19229C6.9421 3.2642 6.99993 3.37843 6.99993 3.49993C6.99993 3.6214 6.9421 3.73568 6.84417 3.80757L3.22995 6.462Z" fill="url(#paint1_linear)"/>
<defs>
<linearGradient id="paint0_linear" x1="-6.48361" y1="0.537963" x2="6.98274" y2="8.64815" gradientUnits="userSpaceOnUse">
<stop stop-color="#50B300"/>
<stop offset="1" stop-color="#62CE0A" stop-opacity="0.7"/>
</linearGradient>
<linearGradient id="paint1_linear" x1="-3.70549" y1="0.537963" x2="9.76081" y2="8.64807" gradientUnits="userSpaceOnUse">
<stop stop-color="#50B300"/>
<stop offset="1" stop-color="#62CE0A" stop-opacity="0.7"/>
</linearGradient>
</defs>
</svg>
