<?xml version="1.0" encoding="utf-8"?>
<!-- Generator: Adobe Illustrator 23.0.2, SVG Export Plug-In . SVG Version: 6.00 Build 0)  -->
<svg version="1.1" id="Layer_1" xmlns="http://www.w3.org/2000/svg" xmlns:xlink="http://www.w3.org/1999/xlink" x="0px" y="0px"
	 viewBox="0 0 3342.1 1062.2" style="enable-background:new 0 0 3342.1 1062.2;" xml:space="preserve">
<style type="text/css">
	.st0{fill:#3C3C3B;}
	.st1{opacity:0.6;}
	.st2{clip-path:url(#SVGID_2_);fill:#010101;}
	.st3{opacity:0.45;}
	.st4{clip-path:url(#SVGID_4_);fill:#010101;}
	.st5{opacity:0.8;}
	.st6{clip-path:url(#SVGID_6_);fill:#010101;}
	.st7{clip-path:url(#SVGID_8_);fill:#010101;}
	.st8{clip-path:url(#SVGID_10_);fill:#010101;}
</style>
<path class="st0" d="M1068.2,576c0,5.5-4.6,10-10.1,10H863c4.9,48.2,41.1,92.2,92.2,92.2c34.9,0,60.8-13.3,80.2-41.1
	c2.8-3.8,7.1-6.3,12.4-4c2.9,1.3,5,4,5.5,7c0.5,3.2-0.4,5-1.3,6.8c-19.6,34.2-58.7,51-97,51c-65.6,0-112.4-58.7-112.4-121.5
	S889.4,454.9,955,454.9C1020.7,454.8,1068.1,513.4,1068.2,576 M1047.3,566.6c-4.2-48.2-41.1-92.2-92.2-92.2c-51,0-87.3,44-92.2,92.2
	H1047.3z M1304.9,459.7c5.6,0,9.7,4.9,9.7,9.7c0,5.6-4.2,9.7-9.7,9.7h-52.3v205.2c0,4.9-4.2,9.7-9.7,9.7c-5.6,0-9.7-4.9-9.7-9.7
	V479.1h-50.3c-5.6,0-9.7-4.2-9.7-9.7c0-4.9,4.2-9.7,9.7-9.7h50.3v-75.1c0-4.7,3.2-9.1,7.8-9.9c6.5-1,11.7,3.5,11.7,9.6v75.4
	L1304.9,459.7L1304.9,459.7z M1624,558.9v124.3c0,5.6-4.9,9.7-9.7,9.7c-5.6,0-9.7-4.2-9.7-9.7V558.9c0-41.9-23.7-83.8-70.5-83.8
	c-60,0-85.9,52.4-82.4,106.1c0,1.4,0.6,7.7,0.6,8.3v93.3c0,4.7-3.2,9.1-7.8,9.9c-6.5,1-11.7-3.5-11.7-9.6V274.7
	c0-4.9,4.2-9.7,9.7-9.7c5.6,0,9.7,4.9,9.7,9.7v231.1c16.8-30,46.8-50.3,81.7-50.3C1591.2,455.5,1624,505.8,1624,558.9 M1973.8,576
	c0,5.5-4.6,10-10.1,10h-195.2c4.9,48.2,41.1,92.2,92.2,92.2c34.9,0,60.8-13.3,80.2-41.1c2.8-3.8,7.1-6.3,12.4-4c2.9,1.3,5,4,5.5,7
	c0.5,3.2-0.4,5-1.3,6.8c-19.6,34.2-58.7,51-97,51c-65.6,0-112.4-58.7-112.4-121.5s46.8-121.5,112.4-121.5
	C1926.2,454.8,1973.7,513.4,1973.8,576 M1952.8,566.6c-4.2-48.2-41.1-92.2-92.2-92.2c-51,0-87.3,44-92.2,92.2H1952.8z M2213.2,468.8
	c0,6.3-3.5,9.7-9.1,10.5c-57.3,8.3-83.1,55.1-83.1,109.6v93.3c0,4.7-3.2,9.1-7.8,9.9c-6.5,1-11.7-3.5-11.7-9.6V469.8
	c0-4.7,3.2-9.1,7.8-9.9c6.5-1,11.7,3.5,11.7,9.6v43.3c16-27.2,48.2-53.1,81.6-53.1C2207.6,459.7,2213.2,463.2,2213.2,468.8
	 M2533.6,576c0,5.5-4.6,10-10.1,10h-195.1c4.9,48.2,41.1,92.2,92.2,92.2c34.9,0,60.8-13.3,80.2-41.1c2.8-3.8,7.1-6.3,12.4-4
	c2.9,1.3,5,4,5.5,7c0.5,3.2-0.4,5-1.3,6.8c-19.6,34.2-58.7,51-97,51c-65.6,0-112.4-58.7-112.4-121.5s46.8-121.5,112.4-121.5
	C2486.1,454.8,2533.5,513.4,2533.6,576 M2512.8,566.6c-4.2-48.2-41.1-92.2-92.2-92.2c-51,0-87.3,44-92.2,92.2H2512.8z M2848.6,471.2
	v213.2c0,5.6-4.9,9.7-9.7,9.7c-5.6,0-9.7-4.2-9.7-9.7v-40.5c-16,32.2-44.7,55.1-81,55.1c-57.9,0-90.1-50.3-90.1-103.3v-125
	c0-4.9,4.2-9.7,9.7-9.7c5.6,0,9.7,4.9,9.7,9.7v125c0,41.9,23.7,83.8,70.5,83.8c65.6,0,81-61.4,81-129.2v-79.6
	c0-5.6,5.6-11.4,12.6-9.4C2845.8,462.7,2848.6,466.8,2848.6,471.2 M3342.1,558.1v125c0,5.6-4.9,9.7-9.7,9.7c-5.6,0-9.7-4.2-9.7-9.7
	v-125c0-41.9-23.7-83.1-70.5-83.1c-58.7,0-81,62.8-81,111.6v96.4c0,5.6-4.9,9.7-9.7,9.7c-5.6,0-9.7-4.2-9.7-9.7v-125
	c0-41.9-23.7-83.1-70.5-83.1c-59.4,0-83.8,46.8-81.6,109c0,1.4,0.6,4.2,0,4.9v94c0,4.7-3.2,9.1-7.9,9.9c-6.5,1-11.7-3.5-11.7-9.6
	V469.8c0-4.7,3.2-9.1,7.8-9.9c6.5-1,11.7,3.5,11.7,9.6v35.6c16.8-30,46.8-49.6,81.6-49.6c39.7,0,70.5,25.1,83.1,62.2
	c16-36.3,47.4-62.2,87.9-62.2C3309.3,455.5,3342.1,505,3342.1,558.1"/>
<g>
	<g class="st1">
		<g>
			<g>
				<defs>
					<rect id="SVGID_1_" x="9.9" y="392.7" width="652" height="341"/>
				</defs>
				<clipPath id="SVGID_2_">
					<use xlink:href="#SVGID_1_"  style="overflow:visible;"/>
				</clipPath>
				<path class="st2" d="M336,392.7L9.9,541L336,733.7l326-192.7L336,392.7z"/>
			</g>
		</g>
	</g>
	<g class="st3">
		<g>
			<g>
				<defs>
					<rect id="SVGID_3_" x="9.9" width="326.1" height="733.7"/>
				</defs>
				<clipPath id="SVGID_4_">
					<use xlink:href="#SVGID_3_"  style="overflow:visible;"/>
				</clipPath>
				<path class="st4" d="M9.9,541L336,733.7V0L9.9,541z"/>
			</g>
		</g>
	</g>
	<g class="st5">
		<g>
			<g>
				<defs>
					<rect id="SVGID_5_" x="336" width="326.1" height="733.7"/>
				</defs>
				<clipPath id="SVGID_6_">
					<use xlink:href="#SVGID_5_"  style="overflow:visible;"/>
				</clipPath>
				<path class="st6" d="M336,0v733.7l326-192.7L336,0z"/>
			</g>
		</g>
	</g>
	<g class="st3">
		<g>
			<g>
				<defs>
					<rect id="SVGID_7_" x="9.9" y="602.8" width="326.1" height="459.4"/>
				</defs>
				<clipPath id="SVGID_8_">
					<use xlink:href="#SVGID_7_"  style="overflow:visible;"/>
				</clipPath>
				<path class="st7" d="M9.9,602.8L336,1062.2V795.5L9.9,602.8z"/>
			</g>
		</g>
	</g>
	<g class="st5">
		<g>
			<g>
				<defs>
					<rect id="SVGID_9_" x="336" y="602.8" width="326.2" height="459.4"/>
				</defs>
				<clipPath id="SVGID_10_">
					<use xlink:href="#SVGID_9_"  style="overflow:visible;"/>
				</clipPath>
				<path class="st8" d="M336,795.5v266.7l326.2-459.4L336,795.5z"/>
			</g>
		</g>
	</g>
</g>
</svg>
