<svg width="33" height="33" viewBox="0 0 33 33" fill="none" xmlns="http://www.w3.org/2000/svg">
<g filter="url(#filter0_i)">
<rect x="0.141602" width="32.55" height="32.55" rx="16.275" fill="url(#paint0_linear)"/>
</g>
<rect x="0.641602" y="0.5" width="31.55" height="31.55" rx="15.775" stroke="white" stroke-opacity="0.12"/>
<path d="M14.172 16.12V12.2H16.132V22H14.172V18.08H10.91V22H8.95V12.2H10.91V16.12H14.172ZM24.7599 15.182L19.9019 20.04H25.0539V22H17.8579V19.718C17.8579 19.4473 17.9559 19.214 18.1519 19.018L23.0099 14.16H17.5359V12.2H25.0539V14.482C25.0539 14.7527 24.9559 14.986 24.7599 15.182Z" fill="white"/>
<defs>
<filter id="filter0_i" x="0.141602" y="0" width="32.55" height="34.55" filterUnits="userSpaceOnUse" color-interpolation-filters="sRGB">
<feFlood flood-opacity="0" result="BackgroundImageFix"/>
<feBlend mode="normal" in="SourceGraphic" in2="BackgroundImageFix" result="shape"/>
<feColorMatrix in="SourceAlpha" type="matrix" values="0 0 0 0 0 0 0 0 0 0 0 0 0 0 0 0 0 0 127 0" result="hardAlpha"/>
<feOffset dy="2"/>
<feGaussianBlur stdDeviation="1"/>
<feComposite in2="hardAlpha" operator="arithmetic" k2="-1" k3="1"/>
<feColorMatrix type="matrix" values="0 0 0 0 1 0 0 0 0 1 0 0 0 0 1 0 0 0 0.98 0"/>
<feBlend mode="normal" in2="shape" result="effect1_innerShadow"/>
</filter>
<linearGradient id="paint0_linear" x1="-49.8459" y1="-2.13068e-06" x2="32.6916" y2="69.75" gradientUnits="userSpaceOnUse">
<stop stop-color="#50B300"/>
<stop offset="1" stop-color="#62CE0A" stop-opacity="0.7"/>
</linearGradient>
</defs>
</svg>
