<svg width="22" height="18" viewBox="0 0 22 18" fill="none" xmlns="http://www.w3.org/2000/svg">
<g clip-path="url(#clip0)">
<path d="M13.2917 11.75C14.5548 11.75 15.5833 10.7215 15.5833 9.45835V3.04165C15.5833 1.7785 14.5548 0.75 13.2917 0.75H2.29165C1.0285 0.75 0 1.7785 0 3.04165V9.4583C0 10.7215 1.0285 11.75 2.29165 11.75H2.75L1.925 12.85C1.80125 13.0141 1.8031 13.2405 1.92775 13.4037C2.01665 13.5201 2.15235 13.5833 2.29165 13.5833C2.3485 13.5833 2.40625 13.5723 2.46215 13.5503L6.9639 11.75H13.2917Z" fill="url(#paint0_linear)"/>
<path d="M19.7084 4.41675H16.9584C16.7054 4.41675 16.5001 4.6221 16.5001 4.8751V9.45844C16.5001 11.2276 15.0609 12.6668 13.2917 12.6668H7.22799C7.17024 12.6668 7.11249 12.6778 7.05749 12.6998L6.71833 12.8354C6.53224 12.9097 6.41674 13.0958 6.43143 13.2947C6.51943 14.4845 7.51953 15.4168 8.70753 15.4168H15.0362L19.5379 17.2171C19.5938 17.2391 19.6507 17.2501 19.7084 17.2501H19.7185C19.9779 17.2254 20.1851 17.0475 20.1851 16.7918C20.1851 16.6469 20.1173 16.5177 20.0128 16.4334L19.2501 15.4167H19.7084C20.9716 15.4167 22.0001 14.3882 22.0001 13.1251V6.70844C22.0001 5.44525 20.9716 4.41675 19.7084 4.41675Z" fill="url(#paint1_linear)"/>
</g>
<g clip-path="url(#clip1)">
<path d="M5.67905 7.39218L5.56326 9.02085C5.72893 9.02085 5.80068 8.94969 5.88672 8.86423L6.66343 8.12194L8.27284 9.30056C8.56801 9.46506 8.77597 9.37844 8.85559 9.02902L9.91201 4.07885L9.9123 4.07856C10.0059 3.64223 9.75451 3.4716 9.46693 3.57864L3.25734 5.95602C2.83355 6.12052 2.83997 6.35677 3.1853 6.46381L4.77284 6.9576L8.46038 4.65023C8.63392 4.53531 8.79172 4.59889 8.66192 4.71381L5.67905 7.39218Z" fill="white"/>
</g>
<defs>
<linearGradient id="paint0_linear" x1="-0.199786" y1="7.30284" x2="15.7095" y2="7.30284" gradientUnits="userSpaceOnUse">
<stop stop-color="#E2C35D"/>
<stop offset="0.485719" stop-color="#F2E090"/>
<stop offset="1" stop-color="#E8C96F"/>
</linearGradient>
<linearGradient id="paint1_linear" x1="-17.9999" y1="-35.5" x2="87.0001" y2="53" gradientUnits="userSpaceOnUse">
<stop stop-color="#E2C35D"/>
<stop offset="1" stop-color="white"/>
</linearGradient>
<clipPath id="clip0">
<rect width="22" height="18" fill="white"/>
</clipPath>
<clipPath id="clip1">
<rect width="7" height="5.72727" fill="white" transform="translate(3 4.09082)"/>
</clipPath>
</defs>
</svg>
