<svg width="33" height="33" viewBox="0 0 33 33" fill="none" xmlns="http://www.w3.org/2000/svg">
<g filter="url(#filter0_i)">
<rect width="32.55" height="32.55" rx="16.275" fill="url(#paint0_linear)"/>
</g>
<rect x="0.5" y="0.5" width="31.55" height="31.55" rx="15.775" stroke="white" stroke-opacity="0.12"/>
<g filter="url(#filter1_d)">
<path d="M19.1312 17.5664C19.0703 17.3865 18.9964 17.2299 18.9096 17.0969C18.8229 16.9638 18.6987 16.834 18.5368 16.707C18.375 16.5801 18.2295 16.4779 18.1005 16.4002C17.9716 16.3224 17.7944 16.2354 17.5692 16.1392C17.3442 16.043 17.1659 15.9714 17.0347 15.9243C16.9033 15.8773 16.7132 15.8128 16.4646 15.731C16.2441 15.6573 16.08 15.601 15.972 15.5622C15.8641 15.5233 15.7223 15.4681 15.5463 15.3964C15.3705 15.3249 15.2391 15.2614 15.1523 15.2062C15.0656 15.1509 14.973 15.0834 14.8744 15.0036C14.7759 14.9238 14.7067 14.8389 14.6668 14.7489C14.627 14.6588 14.6071 14.5606 14.6071 14.4542C14.6071 14.176 14.7477 13.9487 15.0292 13.7728C15.3106 13.5969 15.6742 13.5089 16.1199 13.5089C16.3168 13.5089 16.5176 13.5324 16.7215 13.5795C16.9254 13.6266 17.1001 13.6797 17.2456 13.7391C17.3911 13.7984 17.5283 13.8639 17.6573 13.9355C17.7863 14.0072 17.8778 14.0613 17.9318 14.0982C17.9857 14.135 18.0199 14.1596 18.0338 14.1719C18.0949 14.2128 18.158 14.2271 18.2237 14.2148C18.2941 14.2108 18.3481 14.178 18.3857 14.1166L18.9557 13.2204C19.012 13.1386 19.0003 13.0608 18.9205 12.9871C18.8923 12.9625 18.8573 12.9339 18.8148 12.9011C18.7727 12.8684 18.6812 12.809 18.5403 12.7231C18.3996 12.6371 18.2507 12.5604 18.0937 12.4929C17.9365 12.4254 17.7324 12.3568 17.4814 12.2873C17.2305 12.2176 16.9713 12.1706 16.7038 12.1461V11.0656C16.7038 11.0083 16.6828 10.9612 16.6407 10.9244C16.5985 10.8876 16.5445 10.8691 16.4787 10.8691H15.5288C15.4678 10.8691 15.415 10.8886 15.3705 10.9275C15.3259 10.9663 15.3036 11.0124 15.3036 11.0656V12.1706C14.5672 12.2933 13.9691 12.5675 13.5094 12.9931C13.0497 13.4188 12.8198 13.9139 12.8198 14.4787C12.8198 14.6465 12.8398 14.8061 12.8797 14.9575C12.9195 15.109 12.9688 15.245 13.0275 15.3657C13.0861 15.4865 13.1694 15.6052 13.2772 15.7219C13.3851 15.8385 13.4872 15.9388 13.5833 16.0226C13.6795 16.1065 13.805 16.1935 13.9597 16.2835C14.1146 16.3736 14.2471 16.4463 14.3574 16.5015C14.4676 16.5565 14.6142 16.6202 14.7971 16.6916C14.98 16.7633 15.1243 16.8174 15.2299 16.8544C15.3354 16.8911 15.4797 16.9424 15.6627 17.0077C15.9159 17.0936 16.1036 17.1602 16.2256 17.2073C16.3476 17.2543 16.5024 17.3198 16.6901 17.4037C16.8777 17.4875 17.0148 17.5643 17.1017 17.6339C17.1884 17.7035 17.267 17.7894 17.3374 17.8917C17.4078 17.994 17.4431 18.1025 17.4431 18.2171C17.4431 18.5404 17.2988 18.79 17.0103 18.9659C16.7218 19.1419 16.3875 19.2299 16.0076 19.2299C15.8342 19.2299 15.6605 19.2136 15.487 19.1809C14.8772 19.0743 14.3072 18.8186 13.7772 18.4134L13.7631 18.4011C13.7209 18.3562 13.6646 18.3378 13.5943 18.346C13.5192 18.3542 13.4652 18.3788 13.4324 18.4198L12.7077 19.2485C12.6373 19.3303 12.642 19.4142 12.7218 19.5001C12.7453 19.5247 12.7863 19.5616 12.8449 19.6106C12.9036 19.6599 13.0127 19.7365 13.1721 19.841C13.3316 19.9454 13.5052 20.0435 13.6928 20.1357C13.8805 20.2278 14.1185 20.3188 14.407 20.4089C14.6956 20.4988 14.9945 20.5622 15.3042 20.599V21.6733C15.3042 21.7266 15.3265 21.7726 15.371 21.8115C15.4156 21.8504 15.4683 21.8698 15.5293 21.8698H16.4793C16.545 21.8698 16.599 21.8514 16.6412 21.8146C16.6833 21.7778 16.7043 21.7307 16.7043 21.6733V20.599C17.4503 20.4926 18.0566 20.2133 18.5233 19.7611C18.99 19.3088 19.2234 18.7696 19.2234 18.1435C19.2232 17.9389 19.1928 17.7466 19.1312 17.5664Z" fill="white"/>
</g>
<defs>
<filter id="filter0_i" x="0" y="0" width="32.55" height="34.55" filterUnits="userSpaceOnUse" color-interpolation-filters="sRGB">
<feFlood flood-opacity="0" result="BackgroundImageFix"/>
<feBlend mode="normal" in="SourceGraphic" in2="BackgroundImageFix" result="shape"/>
<feColorMatrix in="SourceAlpha" type="matrix" values="0 0 0 0 0 0 0 0 0 0 0 0 0 0 0 0 0 0 127 0" result="hardAlpha"/>
<feOffset dy="2"/>
<feGaussianBlur stdDeviation="1"/>
<feComposite in2="hardAlpha" operator="arithmetic" k2="-1" k3="1"/>
<feColorMatrix type="matrix" values="0 0 0 0 1 0 0 0 0 1 0 0 0 0 1 0 0 0 0.98 0"/>
<feBlend mode="normal" in2="shape" result="effect1_innerShadow"/>
</filter>
<filter id="filter1_d" x="11.6582" y="10.8691" width="8.56519" height="14.0007" filterUnits="userSpaceOnUse" color-interpolation-filters="sRGB">
<feFlood flood-opacity="0" result="BackgroundImageFix"/>
<feColorMatrix in="SourceAlpha" type="matrix" values="0 0 0 0 0 0 0 0 0 0 0 0 0 0 0 0 0 0 127 0" result="hardAlpha"/>
<feOffset dy="2"/>
<feGaussianBlur stdDeviation="0.5"/>
<feColorMatrix type="matrix" values="0 0 0 0 0 0 0 0 0 0 0 0 0 0 0 0 0 0 0.22 0"/>
<feBlend mode="normal" in2="BackgroundImageFix" result="effect1_dropShadow"/>
<feBlend mode="normal" in="SourceGraphic" in2="effect1_dropShadow" result="shape"/>
</filter>
<linearGradient id="paint0_linear" x1="-49.9875" y1="-2.13068e-06" x2="32.55" y2="69.75" gradientUnits="userSpaceOnUse">
<stop stop-color="#50B300"/>
<stop offset="1" stop-color="#62CE0A" stop-opacity="0.7"/>
</linearGradient>
</defs>
</svg>
