<svg width="166" height="88" viewBox="0 0 166 88" fill="none" xmlns="http://www.w3.org/2000/svg">
<path fill-rule="evenodd" clip-rule="evenodd" d="M88.3827 25.1285L76.3273 36.8287L76.3273 56.3035L102.927 30.4875L82.0986 50.702L82.0511 50.748L99.6088 32.547C99.8589 32.2769 100.201 31.8534 100.505 31.3285C100.565 31.2303 100.619 31.129 100.669 31.0277C100.729 30.908 100.78 30.7914 100.821 30.6748L100.837 30.6318L100.837 30.6256C100.992 30.2021 101.075 29.7448 101.075 29.269C101.075 27.2924 99.6246 25.6442 97.6998 25.2666L97.6871 25.2636C97.0603 25.1377 96.6551 25.1561 95.9839 25.1285L88.3827 25.1285Z" fill="url(#paint0_linear)"/>
<path fill-rule="evenodd" clip-rule="evenodd" d="M83.8556 25.1283L95.987 25.1283C96.6582 25.1559 97.0634 25.1375 97.6902 25.2633L97.7029 25.2664C99.6277 25.6439 101.078 27.2922 101.078 29.2688C101.078 29.7445 100.995 30.2019 100.84 30.6254L100.84 30.6316L100.824 30.6745C100.783 30.7912 100.733 30.9109 100.672 31.0275C100.622 31.1319 100.568 31.2332 100.508 31.3283C100.204 31.8532 99.862 32.2798 99.6119 32.5468L82.0542 50.7478L82.1017 50.7018L102.93 30.4873C103.639 29.6801 103.93 28.5076 103.933 27.3658C103.946 25.1375 102.363 23.6857 100.685 22.0743L83.8587 5.90216L83.8587 25.1283L83.8556 25.1283Z" fill="#50B300"/>
<path fill-rule="evenodd" clip-rule="evenodd" d="M64.8779 25.1285L76.9333 36.8287L76.9333 56.3035L50.3341 30.4875L71.162 50.702L71.2095 50.748L53.6518 32.547C53.4017 32.2769 53.0598 31.8534 52.7559 31.3285C52.6958 31.2303 52.6419 31.129 52.5913 31.0277C52.5311 30.908 52.4805 30.7914 52.4393 30.6748L52.4235 30.6318L52.4235 30.6256C52.2684 30.2021 52.1861 29.7448 52.1861 29.269C52.1861 27.2924 53.636 25.6442 55.5608 25.2666L55.5735 25.2636C56.2003 25.1377 56.6056 25.1561 57.2767 25.1285L64.8779 25.1285Z" fill="url(#paint1_linear)"/>
<path fill-rule="evenodd" clip-rule="evenodd" d="M69.4051 25.1283L57.2736 25.1283C56.6025 25.1559 56.1972 25.1375 55.5704 25.2633L55.5577 25.2664C53.6329 25.6439 52.183 27.2922 52.183 29.2688C52.183 29.7445 52.2653 30.2019 52.4204 30.6254L52.4204 30.6316L52.4362 30.6745C52.4774 30.7912 52.528 30.9109 52.5882 31.0275C52.6388 31.1319 52.6927 31.2332 52.7528 31.3283C53.0567 31.8532 53.3986 32.2798 53.6487 32.5468L71.2064 50.7478L71.1589 50.7018L50.331 30.4873C49.6218 29.6801 49.3306 28.5076 49.3274 27.3658C49.3147 25.1375 50.8976 23.6857 52.5755 22.0743L69.4019 5.90216L69.4019 25.1283L69.4051 25.1283Z" fill="#50B300"/>
<path d="M36.992 9.25C38.9253 9.25 40.3753 10.1 41.342 11.8L43.892 14.3C44.8587 15.2667 45.342 16.4167 45.342 17.75V45.45C45.342 46.7833 44.8753 47.9167 43.942 48.85C43.0087 49.8167 41.8587 50.3 40.492 50.3C39.192 50.3 38.0587 49.8167 37.092 48.85L34.542 46.3C32.842 45.4333 31.992 43.9833 31.992 41.95V36.85H15.892V45.45C15.892 46.7833 15.4253 47.9167 14.492 48.85C13.5587 49.8167 12.4087 50.3 11.042 50.3C9.74199 50.3 8.60866 49.8167 7.64199 48.85L5.09199 46.3C3.39199 45.4333 2.54199 43.9833 2.54199 41.95V14.25C2.54199 12.8833 3.02533 11.7167 3.99199 10.75C4.99199 9.75 6.17533 9.25 7.54199 9.25C9.47533 9.25 10.9253 10.1 11.892 11.8L14.442 14.3C15.4087 15.2667 15.892 16.4167 15.892 17.75V23.5H31.992V14.25C31.992 12.8833 32.4753 11.7167 33.442 10.75C34.442 9.75 35.6253 9.25 36.992 9.25ZM36.992 45.95C38.1253 45.95 39.0753 45.5667 39.842 44.8C40.6087 44 40.992 43.05 40.992 41.95V14.25C40.992 13.15 40.6087 12.2167 39.842 11.45C39.0753 10.65 38.1253 10.25 36.992 10.25C35.892 10.25 34.942 10.65 34.142 11.45C33.3753 12.2167 32.992 13.15 32.992 14.25V24.5H11.542V14.25C11.542 13.15 11.1587 12.2167 10.392 11.45C9.62533 10.65 8.67533 10.25 7.54199 10.25C6.44199 10.25 5.49199 10.65 4.69199 11.45C3.92533 12.2167 3.54199 13.15 3.54199 14.25V41.95C3.54199 43.05 3.92533 44 4.69199 44.8C5.49199 45.5667 6.44199 45.95 7.54199 45.95C8.67533 45.95 9.62533 45.5667 10.392 44.8C11.1587 44 11.542 43.05 11.542 41.95V32.5H32.992V41.95C32.992 43.05 33.3753 44 34.142 44.8C34.942 45.5667 35.892 45.95 36.992 45.95ZM120.384 17.75V45.45C120.384 46.7833 119.901 47.9167 118.934 48.85C118.001 49.8167 116.868 50.3 115.534 50.3C114.234 50.3 113.101 49.8167 112.134 48.85L109.584 46.3C107.884 45.4333 107.034 43.9833 107.034 41.95V14.25C107.034 12.8833 107.518 11.7167 108.484 10.75C109.484 9.75 110.668 9.25 112.034 9.25C113.968 9.25 115.418 10.1167 116.384 11.85L118.934 14.35C119.901 15.3167 120.384 16.45 120.384 17.75ZM108.034 41.95C108.034 43.05 108.418 44 109.184 44.8C109.984 45.5667 110.934 45.95 112.034 45.95C113.134 45.95 114.068 45.5667 114.834 44.8C115.634 44 116.034 43.05 116.034 41.95V14.25C116.034 13.15 115.634 12.2167 114.834 11.45C114.068 10.65 113.134 10.25 112.034 10.25C110.934 10.25 109.984 10.65 109.184 11.45C108.418 12.2167 108.034 13.15 108.034 14.25V41.95ZM151.474 22.65V22.6H130.524C129.191 22.6 128.041 22.1167 127.074 21.15L124.524 18.65C122.858 17.7167 122.024 16.25 122.024 14.25C122.024 12.8833 122.508 11.7167 123.474 10.75C124.474 9.75 125.658 9.25 127.024 9.25H148.074C151.741 9.25 154.891 10.5667 157.524 13.2C158.124 13.8667 158.558 14.3833 158.824 14.75L160.924 16.8C163.524 19.4 164.824 22.5167 164.824 26.15C164.824 29.8167 163.524 32.95 160.924 35.55C158.324 38.15 155.208 39.45 151.574 39.45H135.374V45.45C135.374 46.7833 134.891 47.9167 133.924 48.85C132.991 49.8167 131.858 50.3 130.524 50.3C129.224 50.3 128.091 49.8167 127.124 48.85L124.574 46.3C122.874 45.4333 122.024 43.9833 122.024 41.95V31.1C122.024 29.7 122.508 28.5167 123.474 27.55C124.441 26.5833 125.624 26.1 127.024 26.1H148.074C149.008 26.1 149.808 25.7667 150.474 25.1C151.141 24.4 151.474 23.5833 151.474 22.65ZM148.074 35.1C151.508 35.1 154.424 33.8833 156.824 31.45C159.258 29.0167 160.474 26.0833 160.474 22.65C160.474 19.25 159.258 16.3333 156.824 13.9C154.391 11.4667 151.474 10.25 148.074 10.25H127.024C125.924 10.25 124.974 10.65 124.174 11.45C123.408 12.2167 123.024 13.15 123.024 14.25C123.024 15.3833 123.408 16.3333 124.174 17.1C124.974 17.8667 125.924 18.25 127.024 18.25H148.074C149.274 18.25 150.308 18.6833 151.174 19.55C152.041 20.4167 152.474 21.45 152.474 22.65C152.474 23.8833 152.041 24.9333 151.174 25.8C150.308 26.6667 149.274 27.1 148.074 27.1H127.024C125.924 27.1 124.974 27.4833 124.174 28.25C123.408 29.0167 123.024 29.9667 123.024 31.1V41.95C123.024 43.05 123.408 44 124.174 44.8C124.974 45.5667 125.924 45.95 127.024 45.95C128.124 45.95 129.058 45.5667 129.824 44.8C130.624 44 131.024 43.05 131.024 41.95V35.1H148.074Z" fill="url(#paint2_linear)"/>
<path d="M41.342 11.8L40.4727 12.2943L40.5419 12.416L40.6419 12.5141L41.342 11.8ZM43.892 14.3L44.5991 13.5929L44.5921 13.5859L43.892 14.3ZM43.942 48.85L43.2349 48.1429L43.2287 48.1491L43.2226 48.1554L43.942 48.85ZM37.092 48.85L37.7991 48.1429L37.092 48.85ZM34.542 46.3L35.2491 45.5929L35.1372 45.481L34.9962 45.4091L34.542 46.3ZM31.992 36.85H32.992V35.85H31.992V36.85ZM15.892 36.85V35.85H14.892V36.85H15.892ZM14.492 48.85L13.7849 48.1429L13.7787 48.1491L13.7726 48.1554L14.492 48.85ZM7.64199 48.85L8.3491 48.1429L7.64199 48.85ZM5.09199 46.3L5.7991 45.5929L5.68718 45.481L5.54618 45.4091L5.09199 46.3ZM3.99199 10.75L3.28489 10.0429V10.0429L3.99199 10.75ZM11.892 11.8L11.0227 12.2943L11.0919 12.416L11.1919 12.5141L11.892 11.8ZM14.442 14.3L15.1491 13.5929L15.1421 13.5859L14.442 14.3ZM15.892 23.5H14.892V24.5H15.892V23.5ZM31.992 23.5V24.5H32.992V23.5H31.992ZM39.842 44.8L40.5491 45.5071L40.5566 45.4996L40.564 45.4919L39.842 44.8ZM39.842 11.45L39.12 12.1419L39.1274 12.1496L39.1349 12.1571L39.842 11.45ZM32.992 24.5V25.5H33.992V24.5H32.992ZM11.542 24.5H10.542V25.5H11.542V24.5ZM10.392 11.45L9.67 12.1419L9.67736 12.1496L9.68489 12.1571L10.392 11.45ZM4.69199 11.45L3.98489 10.7429H3.98489L4.69199 11.45ZM4.69199 44.8L3.97 45.4919L3.98473 45.5073L4.00009 45.522L4.69199 44.8ZM10.392 44.8L11.0991 45.5071L11.1066 45.4996L11.114 45.4919L10.392 44.8ZM11.542 32.5V31.5H10.542V32.5H11.542ZM32.992 32.5H33.992V31.5H32.992V32.5ZM34.142 44.8L33.42 45.4919L33.4347 45.5073L33.4501 45.522L34.142 44.8ZM36.992 10.25C38.5606 10.25 39.6812 10.9024 40.4727 12.2943L42.2113 11.3057C41.0694 9.29757 39.2901 8.25 36.992 8.25V10.25ZM40.6419 12.5141L43.1919 15.0141L44.5921 13.5859L42.0421 11.0859L40.6419 12.5141ZM43.1849 15.0071C43.9693 15.7916 44.342 16.6893 44.342 17.75H46.342C46.342 16.144 45.748 14.7418 44.5991 13.5929L43.1849 15.0071ZM44.342 17.75V45.45H46.342V17.75H44.342ZM44.342 45.45C44.342 46.5211 43.9786 47.3992 43.2349 48.1429L44.6491 49.5571C45.7721 48.4341 46.342 47.0455 46.342 45.45H44.342ZM43.2226 48.1554C42.4813 48.9232 41.5926 49.3 40.492 49.3V51.3C42.1247 51.3 43.536 50.7102 44.6614 49.5446L43.2226 48.1554ZM40.492 49.3C39.4721 49.3 38.589 48.9328 37.7991 48.1429L36.3849 49.5571C37.5283 50.7005 38.9119 51.3 40.492 51.3V49.3ZM37.7991 48.1429L35.2491 45.5929L33.8349 47.0071L36.3849 49.5571L37.7991 48.1429ZM34.9962 45.4091C34.2927 45.0504 33.808 44.5955 33.4922 44.0568C33.1742 43.5144 32.992 42.8262 32.992 41.95H30.992C30.992 43.1072 31.2347 44.1606 31.7668 45.0682C32.301 45.9795 33.0913 46.6829 34.0878 47.1909L34.9962 45.4091ZM32.992 41.95V36.85H30.992V41.95H32.992ZM31.992 35.85H15.892V37.85H31.992V35.85ZM14.892 36.85V45.45H16.892V36.85H14.892ZM14.892 45.45C14.892 46.5211 14.5286 47.3992 13.7849 48.1429L15.1991 49.5571C16.3221 48.4341 16.892 47.0455 16.892 45.45H14.892ZM13.7726 48.1554C13.0313 48.9232 12.1426 49.3 11.042 49.3V51.3C12.6747 51.3 14.086 50.7102 15.2114 49.5446L13.7726 48.1554ZM11.042 49.3C10.0221 49.3 9.13899 48.9328 8.3491 48.1429L6.93489 49.5571C8.07833 50.7005 9.46193 51.3 11.042 51.3V49.3ZM8.3491 48.1429L5.7991 45.5929L4.38489 47.0071L6.93489 49.5571L8.3491 48.1429ZM5.54618 45.4091C4.84268 45.0504 4.35799 44.5955 4.04219 44.0568C3.72424 43.5144 3.54199 42.8262 3.54199 41.95H1.54199C1.54199 43.1072 1.78474 44.1606 2.31679 45.0682C2.85099 45.9795 3.6413 46.6829 4.6378 47.1909L5.54618 45.4091ZM3.54199 41.95V14.25H1.54199V41.95H3.54199ZM3.54199 14.25C3.54199 13.1486 3.91991 12.2363 4.6991 11.4571L3.28489 10.0429C2.13075 11.197 1.54199 12.618 1.54199 14.25H3.54199ZM4.6991 11.4571C5.51885 10.6374 6.45068 10.25 7.54199 10.25V8.25C5.89998 8.25 4.46513 8.86264 3.28489 10.0429L4.6991 11.4571ZM7.54199 10.25C9.11059 10.25 10.2312 10.9024 11.0227 12.2943L12.7613 11.3057C11.6194 9.29757 9.84007 8.25 7.54199 8.25V10.25ZM11.1919 12.5141L13.7419 15.0141L15.1421 13.5859L12.5921 11.0859L11.1919 12.5141ZM13.7349 15.0071C14.5193 15.7916 14.892 16.6893 14.892 17.75H16.892C16.892 16.144 16.298 14.7418 15.1491 13.5929L13.7349 15.0071ZM14.892 17.75V23.5H16.892V17.75H14.892ZM15.892 24.5H31.992V22.5H15.892V24.5ZM32.992 23.5V14.25H30.992V23.5H32.992ZM32.992 14.25C32.992 13.1486 33.3699 12.2363 34.1491 11.4571L32.7349 10.0429C31.5807 11.197 30.992 12.618 30.992 14.25H32.992ZM34.1491 11.4571C34.9689 10.6374 35.9007 10.25 36.992 10.25V8.25C35.35 8.25 33.9151 8.86264 32.7349 10.0429L34.1491 11.4571ZM36.992 46.95C38.3772 46.95 39.5856 46.4706 40.5491 45.5071L39.1349 44.0929C38.565 44.6628 37.8735 44.95 36.992 44.95V46.95ZM40.564 45.4919C41.5076 44.5073 41.992 43.31 41.992 41.95H39.992C39.992 42.79 39.7097 43.4927 39.12 44.1081L40.564 45.4919ZM41.992 41.95V14.25H39.992V41.95H41.992ZM41.992 14.25C41.992 12.8891 41.5063 11.7001 40.5491 10.7429L39.1349 12.1571C39.711 12.7332 39.992 13.4109 39.992 14.25H41.992ZM40.564 10.7581C39.6039 9.75627 38.3909 9.25 36.992 9.25V11.25C37.8597 11.25 38.5468 11.5437 39.12 12.1419L40.564 10.7581ZM36.992 9.25C35.6184 9.25 34.4164 9.76134 33.4349 10.7429L34.8491 12.1571C35.4675 11.5387 36.1656 11.25 36.992 11.25V9.25ZM33.4349 10.7429C32.4776 11.7001 31.992 12.8891 31.992 14.25H33.992C33.992 13.4109 34.273 12.7332 34.8491 12.1571L33.4349 10.7429ZM31.992 14.25V24.5H33.992V14.25H31.992ZM32.992 23.5H11.542V25.5H32.992V23.5ZM12.542 24.5V14.25H10.542V24.5H12.542ZM12.542 14.25C12.542 12.8891 12.0563 11.7001 11.0991 10.7429L9.68489 12.1571C10.261 12.7332 10.542 13.4109 10.542 14.25H12.542ZM11.114 10.7581C10.1539 9.75627 8.9409 9.25 7.54199 9.25V11.25C8.40975 11.25 9.09675 11.5437 9.67 12.1419L11.114 10.7581ZM7.54199 9.25C6.16843 9.25 4.96644 9.76134 3.98489 10.7429L5.3991 12.1571C6.01755 11.5387 6.71555 11.25 7.54199 11.25V9.25ZM3.98489 10.7429C3.02764 11.7001 2.54199 12.8891 2.54199 14.25H4.54199C4.54199 13.4109 4.82301 12.7332 5.3991 12.1571L3.98489 10.7429ZM2.54199 14.25V41.95H4.54199V14.25H2.54199ZM2.54199 41.95C2.54199 43.31 3.02639 44.5073 3.97 45.4919L5.41398 44.1081C4.82426 43.4927 4.54199 42.79 4.54199 41.95H2.54199ZM4.00009 45.522C4.98473 46.4656 6.18204 46.95 7.54199 46.95V44.95C6.70195 44.95 5.99925 44.6677 5.3839 44.078L4.00009 45.522ZM7.54199 46.95C8.92716 46.95 10.1356 46.4706 11.0991 45.5071L9.68489 44.0929C9.11501 44.6628 8.42349 44.95 7.54199 44.95V46.95ZM11.114 45.4919C12.0576 44.5073 12.542 43.31 12.542 41.95H10.542C10.542 42.79 10.2597 43.4927 9.67 44.1081L11.114 45.4919ZM12.542 41.95V32.5H10.542V41.95H12.542ZM11.542 33.5H32.992V31.5H11.542V33.5ZM31.992 32.5V41.95H33.992V32.5H31.992ZM31.992 41.95C31.992 43.31 32.4764 44.5073 33.42 45.4919L34.864 44.1081C34.2743 43.4927 33.992 42.79 33.992 41.95H31.992ZM33.4501 45.522C34.4347 46.4656 35.632 46.95 36.992 46.95V44.95C36.1519 44.95 35.4493 44.6677 34.8339 44.078L33.4501 45.522ZM118.934 48.85L118.24 48.1306L118.227 48.1428L118.215 48.1554L118.934 48.85ZM112.134 48.85L112.841 48.1429L112.134 48.85ZM109.584 46.3L110.291 45.5929L110.179 45.481L110.038 45.4091L109.584 46.3ZM108.484 10.75L107.777 10.0429V10.0429L108.484 10.75ZM116.384 11.85L115.511 12.3371L115.581 12.4631L115.684 12.5641L116.384 11.85ZM118.934 14.35L119.641 13.6429L119.634 13.6359L118.934 14.35ZM109.184 44.8L108.462 45.4919L108.477 45.5073L108.492 45.522L109.184 44.8ZM114.834 44.8L115.541 45.5071L114.834 44.8ZM114.834 11.45L114.112 12.1419L114.127 12.1573L114.142 12.172L114.834 11.45ZM109.184 11.45L108.477 10.7429L109.184 11.45ZM119.384 17.75V45.45H121.384V17.75H119.384ZM119.384 45.45C119.384 46.5097 119.013 47.3841 118.24 48.1306L119.629 49.5694C120.789 48.4493 121.384 47.057 121.384 45.45H119.384ZM118.215 48.1554C117.468 48.9286 116.594 49.3 115.534 49.3V51.3C117.141 51.3 118.533 50.7047 119.654 49.5446L118.215 48.1554ZM115.534 49.3C114.514 49.3 113.631 48.9328 112.841 48.1429L111.427 49.5571C112.571 50.7005 113.954 51.3 115.534 51.3V49.3ZM112.841 48.1429L110.291 45.5929L108.877 47.0071L111.427 49.5571L112.841 48.1429ZM110.038 45.4091C109.335 45.0504 108.85 44.5955 108.534 44.0568C108.216 43.5144 108.034 42.8262 108.034 41.95H106.034C106.034 43.1072 106.277 44.1606 106.809 45.0682C107.343 45.9795 108.133 46.6829 109.13 47.1909L110.038 45.4091ZM108.034 41.95V14.25H106.034V41.95H108.034ZM108.034 14.25C108.034 13.1486 108.412 12.2363 109.191 11.4571L107.777 10.0429C106.623 11.197 106.034 12.618 106.034 14.25H108.034ZM109.191 11.4571C110.011 10.6374 110.943 10.25 112.034 10.25V8.25C110.392 8.25 108.957 8.86264 107.777 10.0429L109.191 11.4571ZM112.034 10.25C112.847 10.25 113.51 10.4305 114.059 10.7584C114.609 11.087 115.098 11.5966 115.511 12.3371L117.258 11.3629C116.704 10.37 115.985 9.57962 115.085 9.04164C114.183 8.50286 113.155 8.25 112.034 8.25V10.25ZM115.684 12.5641L118.234 15.0641L119.634 13.6359L117.084 11.1359L115.684 12.5641ZM118.227 15.0571C119.017 15.847 119.384 16.7301 119.384 17.75H121.384C121.384 16.1699 120.785 14.7863 119.641 13.6429L118.227 15.0571ZM107.034 41.95C107.034 43.31 107.519 44.5073 108.462 45.4919L109.906 44.1081C109.316 43.4927 109.034 42.79 109.034 41.95H107.034ZM108.492 45.522C109.477 46.4656 110.674 46.95 112.034 46.95V44.95C111.194 44.95 110.491 44.6677 109.876 44.078L108.492 45.522ZM112.034 46.95C113.395 46.95 114.584 46.4643 115.541 45.5071L114.127 44.0929C113.551 44.669 112.873 44.95 112.034 44.95V46.95ZM115.541 45.5071C116.523 44.5256 117.034 43.3236 117.034 41.95H115.034C115.034 42.7764 114.746 43.4744 114.127 44.0929L115.541 45.5071ZM117.034 41.95V14.25H115.034V41.95H117.034ZM117.034 14.25C117.034 12.8752 116.521 11.6817 115.526 10.728L114.142 12.172C114.747 12.7516 115.034 13.4248 115.034 14.25H117.034ZM115.556 10.7581C114.602 9.76291 113.409 9.25 112.034 9.25V11.25C112.859 11.25 113.533 11.5371 114.112 12.1419L115.556 10.7581ZM112.034 9.25C110.661 9.25 109.459 9.76134 108.477 10.7429L109.891 12.1571C110.51 11.5387 111.208 11.25 112.034 11.25V9.25ZM108.477 10.7429C107.52 11.7001 107.034 12.8891 107.034 14.25H109.034C109.034 13.4109 109.315 12.7332 109.891 12.1571L108.477 10.7429ZM107.034 14.25V41.95H109.034V14.25H107.034ZM151.474 22.6H152.474V21.6H151.474V22.6ZM127.074 21.15L127.782 20.4429L127.774 20.4359L127.074 21.15ZM124.524 18.65L125.224 17.9359L125.129 17.8426L125.013 17.7775L124.524 18.65ZM123.474 10.75L122.767 10.0429V10.0429L123.474 10.75ZM157.524 13.2L158.268 12.531L158.25 12.5115L158.232 12.4929L157.524 13.2ZM158.824 14.75L158.016 15.3382L158.065 15.4065L158.126 15.4656L158.824 14.75ZM160.924 16.8L161.632 16.0928L161.623 16.0844L160.924 16.8ZM160.924 35.55L161.632 36.2571L160.924 35.55ZM135.374 39.45V38.45H134.374V39.45H135.374ZM133.924 48.85L133.23 48.1306L133.217 48.1428L133.205 48.1554L133.924 48.85ZM127.124 48.85L127.832 48.1429L127.124 48.85ZM124.574 46.3L125.282 45.5929L125.17 45.481L125.029 45.4091L124.574 46.3ZM123.474 27.55L124.182 28.2571L123.474 27.55ZM150.474 25.1L151.182 25.8071L151.19 25.7985L151.199 25.7897L150.474 25.1ZM156.824 31.45L156.117 30.7429L156.112 30.7478L156.824 31.45ZM156.824 13.9L156.117 14.6071L156.824 13.9ZM124.174 11.45L123.467 10.7429L124.174 11.45ZM124.174 17.1L123.467 17.8071L123.475 17.8146L123.483 17.822L124.174 17.1ZM151.174 19.55L150.467 20.2571L151.174 19.55ZM151.174 25.8L150.467 25.0929L150.467 25.0929L151.174 25.8ZM124.174 28.25L123.483 27.528L123.475 27.5354L123.467 27.5429L124.174 28.25ZM124.174 44.8L123.452 45.4919L123.467 45.5073L123.483 45.522L124.174 44.8ZM129.824 44.8L130.532 45.5071L129.824 44.8ZM131.024 35.1V34.1H130.024V35.1H131.024ZM152.474 22.65V22.6H150.474V22.65H152.474ZM151.474 21.6H130.524V23.6H151.474V21.6ZM130.524 21.6C129.464 21.6 128.566 21.2273 127.782 20.4429L126.367 21.8571C127.516 23.006 128.918 23.6 130.524 23.6V21.6ZM127.774 20.4359L125.224 17.9359L123.824 19.3641L126.374 21.8641L127.774 20.4359ZM125.013 17.7775C123.68 17.0311 123.024 15.9091 123.024 14.25H121.024C121.024 16.5909 122.035 18.4023 124.036 19.5225L125.013 17.7775ZM123.024 14.25C123.024 13.1486 123.402 12.2363 124.182 11.4571L122.767 10.0429C121.613 11.197 121.024 12.618 121.024 14.25H123.024ZM124.182 11.4571C125.001 10.6374 125.933 10.25 127.024 10.25V8.25C125.382 8.25 123.948 8.86264 122.767 10.0429L124.182 11.4571ZM127.024 10.25H148.074V8.25H127.024V10.25ZM148.074 10.25C151.471 10.25 154.368 11.458 156.817 13.9071L158.232 12.4929C155.414 9.67532 152.011 8.25 148.074 8.25V10.25ZM156.781 13.869C157.376 14.5296 157.781 15.015 158.016 15.3382L159.633 14.1618C159.335 13.7517 158.873 13.2037 158.268 12.531L156.781 13.869ZM158.126 15.4656L160.226 17.5156L161.623 16.0844L159.523 14.0344L158.126 15.4656ZM160.217 17.5071C162.632 19.9221 163.824 22.7854 163.824 26.15H165.824C165.824 22.2479 164.417 18.8779 161.632 16.0929L160.217 17.5071ZM163.824 26.15C163.824 29.5506 162.63 32.4298 160.217 34.8429L161.632 36.2571C164.418 33.4702 165.824 30.0827 165.824 26.15H163.824ZM160.217 34.8429C157.802 37.2579 154.939 38.45 151.574 38.45V40.45C155.477 40.45 158.847 39.0421 161.632 36.2571L160.217 34.8429ZM151.574 38.45H135.374V40.45H151.574V38.45ZM134.374 39.45V45.45H136.374V39.45H134.374ZM134.374 45.45C134.374 46.5097 134.003 47.3841 133.23 48.1306L134.619 49.5694C135.779 48.4493 136.374 47.057 136.374 45.45H134.374ZM133.205 48.1554C132.458 48.9286 131.584 49.3 130.524 49.3V51.3C132.131 51.3 133.524 50.7047 134.644 49.5446L133.205 48.1554ZM130.524 49.3C129.504 49.3 128.621 48.9328 127.832 48.1429L126.417 49.5571C127.561 50.7005 128.944 51.3 130.524 51.3V49.3ZM127.832 48.1429L125.282 45.5929L123.867 47.0071L126.417 49.5571L127.832 48.1429ZM125.029 45.4091C124.325 45.0504 123.84 44.5955 123.525 44.0568C123.207 43.5144 123.024 42.8262 123.024 41.95H121.024C121.024 43.1072 121.267 44.1606 121.799 45.0682C122.333 45.9795 123.124 46.6829 124.12 47.1909L125.029 45.4091ZM123.024 41.95V31.1H121.024V41.95H123.024ZM123.024 31.1C123.024 29.9581 123.407 29.0312 124.182 28.2571L122.767 26.8429C121.608 28.0021 121.024 29.4419 121.024 31.1H123.024ZM124.182 28.2571C124.956 27.483 125.882 27.1 127.024 27.1V25.1C125.366 25.1 123.927 25.6837 122.767 26.8429L124.182 28.2571ZM127.024 27.1H148.074V25.1H127.024V27.1ZM148.074 27.1C149.276 27.1 150.329 26.6592 151.182 25.8071L149.767 24.3929C149.286 24.8742 148.74 25.1 148.074 25.1V27.1ZM151.199 25.7897C152.035 24.9111 152.474 23.8501 152.474 22.65H150.474C150.474 23.3166 150.247 23.8889 149.75 24.4103L151.199 25.7897ZM148.074 36.1C151.774 36.1 154.947 34.7771 157.536 32.1522L156.112 30.7478C153.901 32.9896 151.242 34.1 148.074 34.1V36.1ZM157.532 32.1571C160.152 29.5367 161.474 26.3492 161.474 22.65H159.474C159.474 25.8174 158.364 28.4966 156.117 30.7429L157.532 32.1571ZM161.474 22.65C161.474 18.9812 160.15 15.8112 157.532 13.1929L156.117 14.6071C158.366 16.8555 159.474 19.5188 159.474 22.65H161.474ZM157.532 13.1929C154.913 10.5746 151.743 9.25 148.074 9.25V11.25C151.206 11.25 153.869 12.3588 156.117 14.6071L157.532 13.1929ZM148.074 9.25H127.024V11.25H148.074V9.25ZM127.024 9.25C125.651 9.25 124.449 9.76134 123.467 10.7429L124.882 12.1571C125.5 11.5387 126.198 11.25 127.024 11.25V9.25ZM123.467 10.7429C122.51 11.7001 122.024 12.8891 122.024 14.25H124.024C124.024 13.4109 124.305 12.7332 124.882 12.1571L123.467 10.7429ZM122.024 14.25C122.024 15.6352 122.504 16.8436 123.467 17.8071L124.882 16.3929C124.312 15.823 124.024 15.1315 124.024 14.25H122.024ZM123.483 17.822C124.467 18.7656 125.664 19.25 127.024 19.25V17.25C126.184 17.25 125.482 16.9677 124.866 16.378L123.483 17.822ZM127.024 19.25H148.074V17.25H127.024V19.25ZM148.074 19.25C149.003 19.25 149.784 19.5735 150.467 20.2571L151.882 18.8429C150.832 17.7932 149.546 17.25 148.074 17.25V19.25ZM150.467 20.2571C151.151 20.9407 151.474 21.7215 151.474 22.65H153.474C153.474 21.1785 152.931 19.8926 151.882 18.8429L150.467 20.2571ZM151.474 22.65C151.474 23.62 151.145 24.4151 150.467 25.0929L151.882 26.5071C152.937 25.4516 153.474 24.1467 153.474 22.65H151.474ZM150.467 25.0929C149.784 25.7765 149.003 26.1 148.074 26.1V28.1C149.546 28.1 150.832 27.5568 151.882 26.5071L150.467 25.0929ZM148.074 26.1H127.024V28.1H148.074V26.1ZM127.024 26.1C125.664 26.1 124.467 26.5844 123.483 27.528L124.866 28.972C125.482 28.3823 126.184 28.1 127.024 28.1V26.1ZM123.467 27.5429C122.504 28.5064 122.024 29.7148 122.024 31.1H124.024C124.024 30.2185 124.312 29.527 124.882 28.9571L123.467 27.5429ZM122.024 31.1V41.95H124.024V31.1H122.024ZM122.024 41.95C122.024 43.31 122.509 44.5073 123.452 45.4919L124.896 44.1081C124.307 43.4927 124.024 42.79 124.024 41.95H122.024ZM123.483 45.522C124.467 46.4656 125.664 46.95 127.024 46.95V44.95C126.184 44.95 125.482 44.6677 124.866 44.078L123.483 45.522ZM127.024 46.95C128.385 46.95 129.574 46.4643 130.532 45.5071L129.117 44.0929C128.541 44.669 127.864 44.95 127.024 44.95V46.95ZM130.532 45.5071C131.513 44.5256 132.024 43.3236 132.024 41.95H130.024C130.024 42.7764 129.736 43.4744 129.117 44.0929L130.532 45.5071ZM132.024 41.95V35.1H130.024V41.95H132.024ZM131.024 36.1H148.074V34.1H131.024V36.1Z" fill="#FA9D34" fill-opacity="0.04"/>
<path d="M38.3922 9.965C39.5028 9.965 40.4338 10.357 41.1852 11.141C41.9365 11.8923 42.3122 12.807 42.3122 13.885V41.031C42.3122 42.109 41.9365 43.04 41.1852 43.824C40.4338 44.5753 39.5028 44.951 38.3922 44.951C37.3142 44.951 36.3832 44.5753 35.5992 43.824C34.8478 43.04 34.4722 42.109 34.4722 41.031V31.77H13.4512V41.031C13.4512 42.109 13.0755 43.04 12.3242 43.824C11.5728 44.5753 10.6418 44.951 9.53115 44.951C8.45315 44.951 7.52215 44.5753 6.73815 43.824C5.98682 43.04 5.61115 42.109 5.61115 41.031V13.885C5.61115 12.807 5.98682 11.8923 6.73815 11.141C7.52215 10.357 8.45315 9.965 9.53115 9.965C10.6418 9.965 11.5728 10.357 12.3242 11.141C13.0755 11.8923 13.4512 12.807 13.4512 13.885V23.93H34.4722V13.885C34.4722 12.807 34.8478 11.8923 35.5992 11.141C36.3832 10.357 37.3142 9.965 38.3922 9.965ZM114.677 43.824C113.926 44.5753 113.011 44.951 111.933 44.951C110.855 44.951 109.924 44.5753 109.14 43.824C108.389 43.04 108.013 42.109 108.013 41.031V13.885C108.013 12.807 108.389 11.8923 109.14 11.141C109.924 10.357 110.855 9.965 111.933 9.965C113.011 9.965 113.926 10.357 114.677 11.141C115.461 11.8923 115.853 12.807 115.853 13.885V41.031C115.853 42.109 115.461 43.04 114.677 43.824ZM151.565 22.117C151.565 20.941 151.14 19.9283 150.291 19.079C149.442 18.2297 148.429 17.805 147.253 17.805H126.624C125.546 17.805 124.615 17.4293 123.831 16.678C123.08 15.9267 122.704 14.9957 122.704 13.885C122.704 12.807 123.08 11.8923 123.831 11.141C124.615 10.357 125.546 9.965 126.624 9.965H147.253C150.585 9.965 153.443 11.1573 155.828 13.542C158.213 15.9267 159.405 18.785 159.405 22.117C159.405 25.4817 158.213 28.3563 155.828 30.741C153.476 33.1257 150.618 34.318 147.253 34.318H130.544V41.031C130.544 42.109 130.152 43.04 129.368 43.824C128.617 44.5753 127.702 44.951 126.624 44.951C125.546 44.951 124.615 44.5753 123.831 43.824C123.08 43.04 122.704 42.109 122.704 41.031V30.398C122.704 29.2873 123.08 28.3563 123.831 27.605C124.615 26.8537 125.546 26.478 126.624 26.478H147.253C148.429 26.478 149.442 26.0533 150.291 25.204C151.14 24.3547 151.565 23.3257 151.565 22.117Z" fill="url(#paint3_linear)"/>
<path d="M41.1852 11.141L40.4632 11.8329L40.4705 11.8406L40.4781 11.8481L41.1852 11.141ZM41.1852 43.824L41.8923 44.5311L41.8998 44.5236L41.9071 44.5159L41.1852 43.824ZM35.5992 43.824L34.8772 44.5159L34.8919 44.5313L34.9072 44.546L35.5992 43.824ZM34.4722 31.77H35.4722V30.77H34.4722V31.77ZM13.4512 31.77V30.77H12.4512V31.77H13.4512ZM12.3242 43.824L13.0313 44.5311L13.0388 44.5236L13.0461 44.5159L12.3242 43.824ZM6.73815 43.824L6.01616 44.5159L6.03089 44.5313L6.04625 44.546L6.73815 43.824ZM6.73815 11.141L6.03105 10.4339L6.03105 10.4339L6.73815 11.141ZM12.3242 11.141L11.6022 11.8329L11.6095 11.8406L11.617 11.8481L12.3242 11.141ZM13.4512 23.93H12.4512V24.93H13.4512V23.93ZM34.4722 23.93V24.93H35.4722V23.93H34.4722ZM38.3922 10.965C39.2372 10.965 39.9052 11.2507 40.4632 11.8329L41.9071 10.4491C40.9624 9.46327 39.7684 8.965 38.3922 8.965V10.965ZM40.4781 11.8481C41.0388 12.4089 41.3122 13.0679 41.3122 13.885H43.3122C43.3122 12.5461 42.8342 11.3758 41.8923 10.4339L40.4781 11.8481ZM41.3122 13.885V41.031H43.3122V13.885H41.3122ZM41.3122 41.031C41.3122 41.849 41.0376 42.5327 40.4632 43.1321L41.9071 44.5159C42.8354 43.5473 43.3122 42.369 43.3122 41.031H41.3122ZM40.4781 43.1169C39.9235 43.6714 39.251 43.951 38.3922 43.951V45.951C39.7547 45.951 40.9441 45.4792 41.8923 44.5311L40.4781 43.1169ZM38.3922 43.951C37.5741 43.951 36.8904 43.6764 36.2911 43.102L34.9072 44.546C35.8759 45.4743 37.0542 45.951 38.3922 45.951V43.951ZM36.3211 43.1321C35.7468 42.5327 35.4722 41.849 35.4722 41.031H33.4722C33.4722 42.369 33.9489 43.5473 34.8772 44.5159L36.3211 43.1321ZM35.4722 41.031V31.77H33.4722V41.031H35.4722ZM34.4722 30.77H13.4512V32.77H34.4722V30.77ZM12.4512 31.77V41.031H14.4512V31.77H12.4512ZM12.4512 41.031C12.4512 41.849 12.1765 42.5327 11.6022 43.1321L13.0461 44.5159C13.9744 43.5473 14.4512 42.369 14.4512 41.031H12.4512ZM11.617 43.1169C11.0625 43.6714 10.39 43.951 9.53115 43.951V45.951C10.8937 45.951 12.0831 45.4792 13.0313 44.5311L11.617 43.1169ZM9.53115 43.951C8.71311 43.951 8.02941 43.6764 7.43006 43.102L6.04625 44.546C7.01489 45.4743 8.1932 45.951 9.53115 45.951V43.951ZM7.46014 43.1321C6.88576 42.5327 6.61115 41.849 6.61115 41.031H4.61115C4.61115 42.369 5.08788 43.5473 6.01616 44.5159L7.46014 43.1321ZM6.61115 41.031V13.885H4.61115V41.031H6.61115ZM6.61115 13.885C6.61115 13.0679 6.8845 12.4089 7.44526 11.8481L6.03105 10.4339C5.08914 11.3758 4.61115 12.5461 4.61115 13.885H6.61115ZM7.44526 11.8481C8.04771 11.2457 8.72671 10.965 9.53115 10.965V8.965C8.17959 8.965 6.9966 9.46834 6.03105 10.4339L7.44526 11.8481ZM9.53115 10.965C10.3762 10.965 11.0442 11.2507 11.6022 11.8329L13.0461 10.4491C12.1014 9.46327 10.9074 8.965 9.53115 8.965V10.965ZM11.617 11.8481C12.1778 12.4089 12.4512 13.0679 12.4512 13.885H14.4512C14.4512 12.5461 13.9732 11.3758 13.0313 10.4339L11.617 11.8481ZM12.4512 13.885V23.93H14.4512V13.885H12.4512ZM13.4512 24.93H34.4722V22.93H13.4512V24.93ZM35.4722 23.93V13.885H33.4722V23.93H35.4722ZM35.4722 13.885C35.4722 13.0679 35.7455 12.4089 36.3063 11.8481L34.892 10.4339C33.9501 11.3758 33.4722 12.5461 33.4722 13.885H35.4722ZM36.3063 11.8481C36.9087 11.2457 37.5877 10.965 38.3922 10.965V8.965C37.0406 8.965 35.8576 9.46834 34.892 10.4339L36.3063 11.8481ZM114.677 43.824L115.385 44.5311L114.677 43.824ZM109.14 43.824L108.419 44.5159L108.433 44.5313L108.449 44.546L109.14 43.824ZM109.14 11.141L108.433 10.4339V10.4339L109.14 11.141ZM114.677 11.141L113.956 11.8329L113.97 11.8483L113.986 11.863L114.677 11.141ZM113.97 43.1169C113.41 43.6777 112.751 43.951 111.933 43.951V45.951C113.272 45.951 114.443 45.473 115.385 44.5311L113.97 43.1169ZM111.933 43.951C111.115 43.951 110.432 43.6764 109.832 43.102L108.449 44.546C109.417 45.4743 110.596 45.951 111.933 45.951V43.951ZM109.862 43.1321C109.288 42.5327 109.013 41.849 109.013 41.031H107.013C107.013 42.369 107.49 43.5473 108.419 44.5159L109.862 43.1321ZM109.013 41.031V13.885H107.013V41.031H109.013ZM109.013 13.885C109.013 13.0679 109.287 12.4089 109.848 11.8481L108.433 10.4339C107.491 11.3758 107.013 12.5461 107.013 13.885H109.013ZM109.848 11.8481C110.45 11.2457 111.129 10.965 111.933 10.965V8.965C110.582 8.965 109.399 9.46834 108.433 10.4339L109.848 11.8481ZM111.933 10.965C112.737 10.965 113.391 11.2441 113.956 11.8329L115.399 10.4491C114.461 9.46991 113.286 8.965 111.933 8.965V10.965ZM113.986 11.863C114.574 12.4273 114.853 13.0818 114.853 13.885H116.853C116.853 12.5322 116.349 11.3574 115.369 10.419L113.986 11.863ZM114.853 13.885V41.031H116.853V13.885H114.853ZM114.853 41.031C114.853 41.8354 114.573 42.5144 113.97 43.1169L115.385 44.5311C116.35 43.5656 116.853 42.3826 116.853 41.031H114.853ZM123.831 16.678L123.124 17.3851L123.131 17.3926L123.139 17.4L123.831 16.678ZM123.831 11.141L123.124 10.4339V10.4339L123.831 11.141ZM155.828 30.741L155.121 30.0339L155.116 30.0388L155.828 30.741ZM130.544 34.318V33.318H129.544V34.318H130.544ZM129.368 43.824L130.075 44.5311L129.368 43.824ZM123.831 43.824L123.109 44.5159L123.124 44.5313L123.139 44.546L123.831 43.824ZM123.831 27.605L123.139 26.883L123.131 26.8904L123.124 26.8979L123.831 27.605ZM150.291 25.204L149.584 24.4969V24.4969L150.291 25.204ZM152.565 22.117C152.565 20.6695 152.03 19.4043 150.998 18.3719L149.584 19.7861C150.25 20.4524 150.565 21.2125 150.565 22.117H152.565ZM150.998 18.3719C149.966 17.3395 148.7 16.805 147.253 16.805V18.805C148.157 18.805 148.918 19.1198 149.584 19.7861L150.998 18.3719ZM147.253 16.805H126.624V18.805H147.253V16.805ZM126.624 16.805C125.806 16.805 125.122 16.5304 124.523 15.956L123.139 17.4C124.108 18.3283 125.286 18.805 126.624 18.805V16.805ZM124.538 15.9709C123.983 15.4164 123.704 14.7438 123.704 13.885H121.704C121.704 15.2475 122.176 16.437 123.124 17.3851L124.538 15.9709ZM123.704 13.885C123.704 13.0679 123.977 12.4089 124.538 11.8481L123.124 10.4339C122.182 11.3758 121.704 12.5461 121.704 13.885H123.704ZM124.538 11.8481C125.14 11.2457 125.819 10.965 126.624 10.965V8.965C125.272 8.965 124.089 9.46834 123.124 10.4339L124.538 11.8481ZM126.624 10.965H147.253V8.965H126.624V10.965ZM147.253 10.965C150.316 10.965 152.921 12.0494 155.121 14.2491L156.535 12.8349C153.965 10.2652 150.854 8.965 147.253 8.965V10.965ZM155.121 14.2491C157.321 16.4488 158.405 19.0538 158.405 22.117H160.405C160.405 18.5162 159.105 15.4045 156.535 12.8349L155.121 14.2491ZM158.405 22.117C158.405 25.2158 157.318 27.8363 155.121 30.0339L156.535 31.4481C159.107 28.8764 160.405 25.7476 160.405 22.117H158.405ZM155.116 30.0388C152.953 32.2319 150.351 33.318 147.253 33.318V35.318C150.884 35.318 153.999 34.0194 156.54 31.4432L155.116 30.0388ZM147.253 33.318H130.544V35.318H147.253V33.318ZM129.544 34.318V41.031H131.544V34.318H129.544ZM129.544 41.031C129.544 41.8354 129.263 42.5144 128.661 43.1169L130.075 44.5311C131.041 43.5656 131.544 42.3826 131.544 41.031H129.544ZM128.661 43.1169C128.1 43.6777 127.441 43.951 126.624 43.951V45.951C127.963 45.951 129.133 45.473 130.075 44.5311L128.661 43.1169ZM126.624 43.951C125.806 43.951 125.122 43.6764 124.523 43.102L123.139 44.546C124.108 45.4743 125.286 45.951 126.624 45.951V43.951ZM124.553 43.1321C123.979 42.5327 123.704 41.849 123.704 41.031H121.704C121.704 42.369 122.181 43.5473 123.109 44.5159L124.553 43.1321ZM123.704 41.031V30.398H121.704V41.031H123.704ZM123.704 30.398C123.704 29.5392 123.983 28.8666 124.538 28.3121L123.124 26.8979C122.176 27.846 121.704 29.0355 121.704 30.398H123.704ZM124.523 28.327C125.122 27.7526 125.806 27.478 126.624 27.478V25.478C125.286 25.478 124.108 25.9547 123.139 26.883L124.523 28.327ZM126.624 27.478H147.253V25.478H126.624V27.478ZM147.253 27.478C148.7 27.478 149.966 26.9435 150.998 25.9111L149.584 24.4969C148.918 25.1632 148.157 25.478 147.253 25.478V27.478ZM150.998 25.9111C152.036 24.8729 152.565 23.589 152.565 22.117H150.565C150.565 23.0623 150.244 23.8364 149.584 24.4969L150.998 25.9111Z" fill="#FA9D34" fill-opacity="0.04"/>
<path d="M38.2976 68.78V75.083C38.2976 76.887 37.7146 78.229 36.5486 79.109C35.3826 79.967 33.5786 80.396 31.1366 80.396C28.6946 80.396 26.8906 79.978 25.7246 79.142C24.5586 78.284 23.9756 76.964 23.9756 75.182C23.9756 71.75 26.2086 70.034 30.6746 70.034H34.0076V68.78C34.0076 68.032 33.7436 67.515 33.2156 67.229C32.6876 66.921 31.8076 66.767 30.5756 66.767C29.6516 66.767 28.6946 66.833 27.7046 66.965C26.9786 67.075 26.4836 67.031 26.2196 66.833C25.9776 66.613 25.8566 66.14 25.8566 65.414V65.282C25.8566 64.578 25.9666 64.094 26.1866 63.83C26.4286 63.566 26.9126 63.379 27.6386 63.269C28.6726 63.159 29.5636 63.104 30.3116 63.104C33.0176 63.104 35.0196 63.555 36.3176 64.457C37.6376 65.359 38.2976 66.8 38.2976 68.78ZM34.0076 74.852V73.268H30.6086C29.0466 73.268 28.2656 73.873 28.2656 75.083C28.3316 75.787 28.5736 76.26 28.9916 76.502C29.4096 76.722 30.1026 76.821 31.0706 76.799C32.0606 76.821 32.7756 76.7 33.2156 76.436C33.6776 76.15 33.9416 75.622 34.0076 74.852ZM40.8739 73.334V70.166C40.8739 67.966 41.5559 66.239 42.9199 64.985C44.3059 63.731 46.2529 63.104 48.7609 63.104C49.5969 63.104 50.3119 63.181 50.9059 63.335C51.6099 63.489 52.0719 63.709 52.2919 63.995C52.5339 64.281 52.6549 64.798 52.6549 65.546V65.909C52.6549 66.657 52.5339 67.13 52.2919 67.328C52.0499 67.526 51.5879 67.548 50.9059 67.394C50.3559 67.24 49.6629 67.163 48.8269 67.163C47.4849 67.163 46.5389 67.383 45.9889 67.823C45.4609 68.263 45.1969 69.066 45.1969 70.232V73.202C45.1969 74.368 45.4829 75.182 46.0549 75.644C46.6489 76.106 47.6719 76.337 49.1239 76.337C49.7619 76.337 50.4329 76.271 51.1369 76.139C51.8629 76.007 52.3469 76.04 52.5889 76.238C52.8309 76.436 52.9519 76.909 52.9519 77.657V77.987C52.9519 78.735 52.8309 79.252 52.5889 79.538C52.3469 79.802 51.8629 80.011 51.1369 80.165C50.5429 80.319 49.8059 80.396 48.9259 80.396C43.5579 80.396 40.8739 78.042 40.8739 73.334ZM53.8741 65.909V65.777C53.8741 65.117 53.9841 64.655 54.2041 64.391C54.4241 64.127 54.8531 63.929 55.4911 63.797L56.8441 63.5L57.2401 60.893C57.3281 60.211 57.5041 59.76 57.7681 59.54C58.0321 59.32 58.5161 59.21 59.2201 59.21H59.4181C60.1221 59.21 60.5841 59.32 60.8041 59.54C61.0241 59.76 61.1341 60.222 61.1341 60.926V63.5H64.8961C65.6441 63.5 66.1391 63.621 66.3811 63.863C66.6231 64.105 66.7441 64.6 66.7441 65.348V65.711C66.7441 66.459 66.6231 66.954 66.3811 67.196C66.1391 67.438 65.6441 67.559 64.8961 67.559H61.1341V74.093C61.1341 75.567 61.8271 76.304 63.2131 76.304C64.0931 76.304 64.8631 76.238 65.5231 76.106C66.2711 75.974 66.7551 75.996 66.9751 76.172C67.2171 76.326 67.3381 76.755 67.3381 77.459V77.822C67.3381 78.57 67.2061 79.109 66.9421 79.439C66.7001 79.769 66.2271 80.011 65.5231 80.165C64.9731 80.297 64.2031 80.363 63.2131 80.363C58.9671 80.363 56.8441 78.262 56.8441 74.06V67.559H55.5241C54.8641 67.559 54.4241 67.449 54.2041 67.229C53.9841 67.009 53.8741 66.569 53.8741 65.909ZM69.7322 78.152V65.348C69.7322 64.6 69.8532 64.105 70.0952 63.863C70.3372 63.621 70.8322 63.5 71.5802 63.5H72.1742C72.9222 63.5 73.4172 63.621 73.6592 63.863C73.9012 64.105 74.0222 64.6 74.0222 65.348V78.152C74.0222 78.9 73.9012 79.395 73.6592 79.637C73.4172 79.879 72.9222 80 72.1742 80H71.5802C70.8322 80 70.3372 79.879 70.0952 79.637C69.8532 79.395 69.7322 78.9 69.7322 78.152ZM73.6922 60.365C73.1862 60.871 72.5812 61.124 71.8772 61.124C71.1732 61.124 70.5682 60.871 70.0622 60.365C69.5562 59.859 69.3032 59.254 69.3032 58.55C69.3032 57.846 69.5562 57.241 70.0622 56.735C70.5682 56.229 71.1732 55.976 71.8772 55.976C72.5812 55.976 73.1862 56.229 73.6922 56.735C74.1982 57.241 74.4512 57.846 74.4512 58.55C74.4512 59.254 74.1982 59.859 73.6922 60.365ZM81.7127 65.315L83.8907 75.281C84.0227 75.853 84.1767 76.227 84.3527 76.403C84.5507 76.579 84.8587 76.667 85.2767 76.667C85.6947 76.667 85.9917 76.579 86.1677 76.403C86.3657 76.227 86.5307 75.853 86.6627 75.281L88.8407 65.315C89.0167 64.589 89.2477 64.105 89.5337 63.863C89.8417 63.621 90.3587 63.5 91.0847 63.5H91.8107C92.5587 63.5 93.0207 63.621 93.1967 63.863C93.3947 64.105 93.4167 64.589 93.2627 65.315L90.8537 75.776C90.4797 77.36 89.9957 78.482 89.4017 79.142C88.6977 79.978 87.3227 80.396 85.2767 80.396C83.2307 80.396 81.8447 79.989 81.1187 79.175C80.5467 78.471 80.0737 77.338 79.6997 75.776L77.2907 65.315C77.1367 64.589 77.1477 64.105 77.3237 63.863C77.5217 63.621 77.9947 63.5 78.7427 63.5H79.4687C80.1947 63.5 80.7007 63.621 80.9867 63.863C81.2947 64.105 81.5367 64.589 81.7127 65.315ZM96.0613 78.152V65.348C96.0613 64.6 96.1823 64.105 96.4243 63.863C96.6663 63.621 97.1613 63.5 97.9093 63.5H98.5033C99.2513 63.5 99.7463 63.621 99.9883 63.863C100.23 64.105 100.351 64.6 100.351 65.348V78.152C100.351 78.9 100.23 79.395 99.9883 79.637C99.7463 79.879 99.2513 80 98.5033 80H97.9093C97.1613 80 96.6663 79.879 96.4243 79.637C96.1823 79.395 96.0613 78.9 96.0613 78.152ZM100.021 60.365C99.5153 60.871 98.9103 61.124 98.2063 61.124C97.5023 61.124 96.8973 60.871 96.3913 60.365C95.8853 59.859 95.6323 59.254 95.6323 58.55C95.6323 57.846 95.8853 57.241 96.3913 56.735C96.8973 56.229 97.5023 55.976 98.2063 55.976C98.9103 55.976 99.5153 56.229 100.021 56.735C100.527 57.241 100.78 57.846 100.78 58.55C100.78 59.254 100.527 59.859 100.021 60.365ZM102.762 65.909V65.777C102.762 65.117 102.872 64.655 103.092 64.391C103.312 64.127 103.741 63.929 104.379 63.797L105.732 63.5L106.128 60.893C106.216 60.211 106.392 59.76 106.656 59.54C106.92 59.32 107.404 59.21 108.108 59.21H108.306C109.01 59.21 109.472 59.32 109.692 59.54C109.912 59.76 110.022 60.222 110.022 60.926V63.5H113.784C114.532 63.5 115.027 63.621 115.269 63.863C115.511 64.105 115.632 64.6 115.632 65.348V65.711C115.632 66.459 115.511 66.954 115.269 67.196C115.027 67.438 114.532 67.559 113.784 67.559H110.022V74.093C110.022 75.567 110.715 76.304 112.101 76.304C112.981 76.304 113.751 76.238 114.411 76.106C115.159 75.974 115.643 75.996 115.863 76.172C116.105 76.326 116.226 76.755 116.226 77.459V77.822C116.226 78.57 116.094 79.109 115.83 79.439C115.588 79.769 115.115 80.011 114.411 80.165C113.861 80.297 113.091 80.363 112.101 80.363C107.855 80.363 105.732 78.262 105.732 74.06V67.559H104.412C103.752 67.559 103.312 67.449 103.092 67.229C102.872 67.009 102.762 66.569 102.762 65.909ZM122.415 65.315L124.593 75.281C124.725 75.853 124.89 76.227 125.088 76.403C125.308 76.579 125.66 76.667 126.144 76.667C126.474 76.667 126.727 76.568 126.903 76.37C127.079 76.172 127.233 75.809 127.365 75.281L129.543 65.315C129.719 64.589 129.95 64.105 130.236 63.863C130.544 63.621 131.061 63.5 131.787 63.5H132.513C133.261 63.5 133.723 63.621 133.899 63.863C134.097 64.105 134.119 64.589 133.965 65.315L130.599 80C130.093 82.31 129.246 84.059 128.058 85.247C126.892 86.435 125.363 87.172 123.471 87.458C122.679 87.568 122.151 87.535 121.887 87.359C121.623 87.183 121.414 86.71 121.26 85.94L121.227 85.775C121.051 85.071 121.04 84.587 121.194 84.323C121.37 84.059 121.799 83.85 122.481 83.696C124.439 83.256 125.638 82.112 126.078 80.264C125.88 80.352 125.429 80.396 124.725 80.396C123.449 80.396 122.503 80.066 121.887 79.406C121.293 78.724 120.798 77.514 120.402 75.776L117.993 65.315C117.839 64.589 117.85 64.105 118.026 63.863C118.224 63.621 118.697 63.5 119.445 63.5H120.171C120.897 63.5 121.403 63.621 121.689 63.863C121.997 64.105 122.239 64.589 122.415 65.315Z" fill="url(#paint4_linear)"/>
<defs>
<linearGradient id="paint0_linear" x1="35.4784" y1="56.3035" x2="111.547" y2="1.45535" gradientUnits="userSpaceOnUse">
<stop stop-color="#50B300"/>
<stop offset="1" stop-color="#62CE0A" stop-opacity="0.7"/>
</linearGradient>
<linearGradient id="paint1_linear" x1="117.782" y1="56.3035" x2="41.7138" y2="1.45535" gradientUnits="userSpaceOnUse">
<stop stop-color="#50B300"/>
<stop offset="1" stop-color="#62CE0A" stop-opacity="0.7"/>
</linearGradient>
<linearGradient id="paint2_linear" x1="82" y1="66" x2="75" y2="-145" gradientUnits="userSpaceOnUse">
<stop stop-color="#F2E090"/>
<stop offset="1" stop-color="white"/>
</linearGradient>
<linearGradient id="paint3_linear" x1="82" y1="100.5" x2="82" y2="-27.5" gradientUnits="userSpaceOnUse">
<stop stop-color="#F2E090"/>
<stop offset="1" stop-color="white"/>
</linearGradient>
<linearGradient id="paint4_linear" x1="-149" y1="57" x2="-109.824" y2="189.427" gradientUnits="userSpaceOnUse">
<stop stop-color="#50B300"/>
<stop offset="1" stop-color="#62CE0A" stop-opacity="0.7"/>
</linearGradient>
</defs>
</svg>
