<svg width="8" height="8" viewBox="0 0 8 8" fill="none" xmlns="http://www.w3.org/2000/svg">
<path d="M2.66699 4C2.66699 3.26365 3.26378 2.66656 4.00016 2.66656C4.73654 2.66656 5.33366 3.26365 5.33366 4C5.33366 4.73635 4.73654 5.33344 4.00016 5.33344C3.26378 5.33344 2.66699 4.73635 2.66699 4ZM1.94612 4C1.94612 5.13441 2.86571 6.05396 4.00016 6.05396C5.13462 6.05396 6.0542 5.13441 6.0542 4C6.0542 2.86559 5.13462 1.94604 4.00016 1.94604C2.86571 1.94604 1.94612 2.86559 1.94612 4ZM5.65548 1.86462C5.65548 2.12956 5.87035 2.34475 6.13563 2.34475C6.40058 2.34475 6.61578 2.12956 6.61578 1.86462C6.61578 1.59968 6.40091 1.38481 6.13563 1.38481C5.87035 1.38481 5.65548 1.59968 5.65548 1.86462ZM2.38394 7.2559C1.99394 7.23813 1.78198 7.17318 1.6411 7.11826C1.45434 7.04556 1.32122 6.95897 1.18098 6.81906C1.04108 6.67916 0.954158 6.54604 0.88178 6.35929C0.826851 6.21842 0.761905 6.00646 0.744133 5.61648C0.724747 5.19483 0.720869 5.06817 0.720869 4C0.720869 2.93183 0.72507 2.80549 0.744133 2.38352C0.761905 1.99354 0.827174 1.78191 0.88178 1.64071C0.954481 1.45396 1.04108 1.32084 1.18098 1.18061C1.32089 1.04071 1.45402 0.953796 1.6411 0.881422C1.78198 0.826494 1.99394 0.761551 2.38394 0.74378C2.80561 0.724394 2.93227 0.720517 4.00016 0.720517C5.06838 0.720517 5.19472 0.724717 5.61671 0.74378C6.00671 0.761551 6.21835 0.826817 6.35955 0.881422C6.54631 0.953796 6.67943 1.04071 6.81966 1.18061C6.95957 1.32052 7.04617 1.45396 7.11887 1.64071C7.1738 1.78158 7.23874 1.99354 7.25651 2.38352C7.2759 2.80549 7.27978 2.93183 7.27978 4C7.27978 5.06785 7.2759 5.19451 7.25651 5.61648C7.23874 6.00646 7.17347 6.21842 7.11887 6.35929C7.04617 6.54604 6.95957 6.67916 6.81966 6.81906C6.67975 6.95897 6.54631 7.04556 6.35955 7.11826C6.21867 7.17318 6.00671 7.23813 5.61671 7.2559C5.19504 7.27528 5.06838 7.27916 4.00016 7.27916C2.93227 7.27916 2.80561 7.27528 2.38394 7.2559ZM2.35098 0.0242326C1.92512 0.0436187 1.63431 0.111147 1.38002 0.210016C1.11701 0.312116 0.894059 0.449111 0.671433 0.671405C0.44913 0.8937 0.312129 1.11664 0.210025 1.37997C0.111152 1.63425 0.0436205 1.92504 0.0242336 2.35089C0.00452361 2.77738 0 2.91373 0 4C0 5.08627 0.00452361 5.22262 0.0242336 5.64911C0.0436205 6.07496 0.111152 6.36575 0.210025 6.62003C0.312129 6.88304 0.448807 7.1063 0.671433 7.32859C0.893736 7.55089 1.11668 7.68756 1.38002 7.78998C1.63464 7.88885 1.92512 7.95638 2.35098 7.97577C2.77782 7.99515 2.91385 8 4.00016 8C5.0868 8 5.22283 7.99548 5.64934 7.97577C6.07521 7.95638 6.36601 7.88885 6.6203 7.78998C6.88332 7.68756 7.10626 7.55089 7.32889 7.32859C7.55119 7.1063 7.68787 6.88304 7.7903 6.62003C7.88917 6.36575 7.95703 6.07496 7.97609 5.64911C7.99548 5.22229 8 5.08627 8 4C8 2.91373 7.99548 2.77738 7.97609 2.35089C7.9567 1.92504 7.88917 1.63425 7.7903 1.37997C7.68787 1.11696 7.55119 0.894023 7.32889 0.671405C7.10659 0.449111 6.88332 0.312116 6.62062 0.210016C6.36601 0.111147 6.07521 0.0432956 5.64966 0.0242326C5.22315 0.00484653 5.0868 0 4.00048 0C2.91385 0 2.77782 0.00452343 2.35098 0.0242326Z" fill="#CF4D93"/>
</svg>
