<svg id="Layer_1" data-name="Layer 1" xmlns="http://www.w3.org/2000/svg" viewBox="0 0 327.91 82.68"><defs><style>.cls-1,.cls-3{fill:#a5a8a9;}.cls-2{fill:none;}.cls-3{isolation:isolate;font-size:77px;font-family:Roboto-Light, Roboto;font-weight:300;}</style></defs><title>Artboard 1</title><path class="cls-1" d="M41.33,0A41.34,41.34,0,1,0,82.67,41.34h0A41.34,41.34,0,0,0,41.33,0ZM42,42.7,37.7,57.21h23a1.18,1.18,0,0,1,1.18,1.18,1.26,1.26,0,0,1-.05.33l-2,6.89a1.58,1.58,0,0,1-1.52,1.14H23.18l5.94-20.06-6.57,2L24,44l6.58-2,8.34-28.18a1.57,1.57,0,0,1,1.51-1.15h8.9a1.18,1.18,0,0,1,1.18,1.18,1.12,1.12,0,0,1,0,.32L43.47,38,50,36l-1.41,4.77Z"/><rect class="cls-2" x="92.29" y="10.18" width="248.65" height="62.31"/><text class="cls-3" transform="translate(92.29 67.93)">litecoin</text></svg>