<svg width="30" height="30" viewBox="0 0 30 30" fill="none" xmlns="http://www.w3.org/2000/svg">
<path d="M7.26562 22.9712V7.02885C7.26562 3.79412 9.88148 1.17188 13.1084 1.17188H9.55078C6.31471 1.17188 3.69141 3.79518 3.69141 7.03125V22.9688C3.69141 26.2048 6.31471 28.8281 9.55078 28.8281H13.1084C9.88148 28.8281 7.26562 26.2059 7.26562 22.9712Z" fill="#EDEEF0"/>
<path d="M20.3906 30H9.60938C5.73234 30 2.57812 26.8458 2.57812 22.9688V7.03125C2.57812 3.15422 5.73234 0 9.60938 0H20.3906C24.2677 0 27.4219 3.15422 27.4219 7.03125V22.9688C27.4219 26.8458 24.2677 30 20.3906 30ZM9.60938 2.34375C7.02469 2.34375 4.92188 4.44656 4.92188 7.03125V22.9688C4.92188 25.5534 7.02469 27.6562 9.60938 27.6562H20.3906C22.9753 27.6562 25.0781 25.5534 25.0781 22.9688V7.03125C25.0781 4.44656 22.9753 2.34375 20.3906 2.34375H9.60938ZM21.3281 5.74219C21.3281 5.09496 20.8035 4.57031 20.1562 4.57031C19.509 4.57031 18.9844 5.09496 18.9844 5.74219C18.9844 6.71145 18.1958 7.5 17.2266 7.5H12.7734C11.8042 7.5 11.0156 6.71145 11.0156 5.74219C11.0156 5.09496 10.491 4.57031 9.84375 4.57031C9.19652 4.57031 8.67188 5.09496 8.67188 5.74219C8.67188 8.00379 10.5118 9.84375 12.7734 9.84375H17.2266C19.4882 9.84375 21.3281 8.00379 21.3281 5.74219Z" fill="white"/>
<path d="M20.4493 23.1444H10.547C9.89975 23.1444 9.3751 22.6198 9.3751 21.9726C9.3751 21.3253 9.89975 20.8007 10.547 20.8007H20.4493C21.0965 20.8007 21.6212 21.3253 21.6212 21.9726C21.6212 22.6198 21.0965 23.1444 20.4493 23.1444ZM21.6212 17.4608C21.6212 16.8136 21.0965 16.289 20.4493 16.289H18.1642C17.5169 16.289 16.9923 16.8136 16.9923 17.4608C16.9923 18.1081 17.5169 18.6327 18.1642 18.6327H20.4493C21.0965 18.6327 21.6212 18.1081 21.6212 17.4608ZM13.8165 17.9309L16.0666 15.6614C16.5223 15.2018 16.5191 14.4598 16.0595 14.0041C15.5999 13.5485 14.858 13.5516 14.4022 14.0112L12.152 16.2808C12.1413 16.2916 12.128 16.2915 12.1173 16.2808L11.0275 15.1815C10.5718 14.7219 9.82985 14.7187 9.37024 15.1744C8.91063 15.6301 8.90746 16.372 9.36309 16.8317L10.4529 17.9309C10.9016 18.3835 11.4988 18.6327 12.1347 18.6327C12.7707 18.6327 13.3679 18.3835 13.8165 17.9309Z" fill="white"/>
<path d="M20.4493 23.1444H10.547C9.89975 23.1444 9.3751 22.6198 9.3751 21.9726C9.3751 21.3253 9.89975 20.8007 10.547 20.8007H20.4493C21.0965 20.8007 21.6212 21.3253 21.6212 21.9726C21.6212 22.6198 21.0965 23.1444 20.4493 23.1444ZM21.6212 17.4608C21.6212 16.8136 21.0965 16.289 20.4493 16.289H18.1642C17.5169 16.289 16.9923 16.8136 16.9923 17.4608C16.9923 18.1081 17.5169 18.6327 18.1642 18.6327H20.4493C21.0965 18.6327 21.6212 18.1081 21.6212 17.4608ZM13.8165 17.9309L16.0666 15.6614C16.5223 15.2018 16.5191 14.4598 16.0595 14.0041C15.5999 13.5485 14.858 13.5516 14.4022 14.0112L12.152 16.2808C12.1413 16.2916 12.128 16.2915 12.1173 16.2808L11.0275 15.1815C10.5718 14.7219 9.82985 14.7187 9.37024 15.1744C8.91063 15.6301 8.90746 16.372 9.36309 16.8317L10.4529 17.9309C10.9016 18.3835 11.4988 18.6327 12.1347 18.6327C12.7707 18.6327 13.3679 18.3835 13.8165 17.9309Z" fill="url(#paint0_linear)"/>
<defs>
<linearGradient id="paint0_linear" x1="8.86193" y1="18.505" x2="21.7232" y2="18.505" gradientUnits="userSpaceOnUse">
<stop stop-color="#E2C35D"/>
<stop offset="0.485719" stop-color="#F2E090"/>
<stop offset="1" stop-color="#E8C96F"/>
</linearGradient>
</defs>
</svg>
