<svg width="28" height="28" viewBox="0 0 28 28" fill="none" xmlns="http://www.w3.org/2000/svg">
<g clip-path="url(#clip0)">
<g opacity="0.8">
<g opacity="0.8">
<path opacity="0.8" d="M4.39376 21.4254V13.5658C4.39376 10.5513 6.87184 8.10767 9.88623 8.10767H6.72054C3.70609 8.10767 1.26245 10.5513 1.26245 13.5658V21.4254C1.26245 24.4399 3.70609 26.8835 6.72054 26.8835H9.88623C6.87184 26.8835 4.39376 24.4399 4.39376 21.4254Z" fill="#F5F5F5"/>
</g>
</g>
<path d="M14.9759 15.1525C15.5093 14.6184 15.5098 13.754 14.977 13.222C14.4442 12.6899 13.5798 12.6916 13.0464 13.2258C12.513 13.76 12.5125 14.6243 13.0453 15.1564C13.5781 15.6884 14.4424 15.6867 14.9759 15.1525Z" fill="white"/>
<path d="M14.9759 15.1525C15.5093 14.6184 15.5098 13.754 14.977 13.222C14.4442 12.6899 13.5798 12.6916 13.0464 13.2258C12.513 13.76 12.5125 14.6243 13.0453 15.1564C13.5781 15.6884 14.4424 15.6867 14.9759 15.1525Z" fill="url(#paint0_linear)"/>
<path d="M21.4231 28H6.57705C2.96554 28 0.0273438 25.0618 0.0273438 21.4503V13.5906C0.0273438 9.97909 2.96554 7.04089 6.57705 7.04089H21.4231C25.0346 7.04089 27.9728 9.97909 27.9728 13.5906V21.4503C27.9728 25.0618 25.0346 28 21.4231 28ZM6.57705 9.22413C4.16938 9.22413 2.21058 11.1829 2.21058 13.5906V21.4503C2.21058 23.8579 4.16938 25.8167 6.57705 25.8167H21.4231C23.8307 25.8167 25.7895 23.8579 25.7895 21.4503V13.5906C25.7895 11.1829 23.8307 9.22413 21.4231 9.22413H6.57705Z" fill="white"/>
<path d="M16.6745 20.6315H11.3255C8.04506 20.6315 5.37622 17.9627 5.37622 14.6822C5.37622 14.0793 5.86494 13.5906 6.46784 13.5906C7.07074 13.5906 7.55946 14.0793 7.55946 14.6822C7.55946 16.7588 9.2489 18.4483 11.3255 18.4483H16.6745C18.7511 18.4483 20.4405 16.7588 20.4405 14.6822C20.4405 14.0793 20.9293 13.5906 21.5322 13.5906C22.1351 13.5906 22.6238 14.0793 22.6238 14.6822C22.6238 17.9627 19.9549 20.6315 16.6745 20.6315Z" fill="white"/>
<path d="M16.6745 20.6315H11.3255C8.04506 20.6315 5.37622 17.9627 5.37622 14.6822C5.37622 14.0793 5.86494 13.5906 6.46784 13.5906C7.07074 13.5906 7.55946 14.0793 7.55946 14.6822C7.55946 16.7588 9.2489 18.4483 11.3255 18.4483H16.6745C18.7511 18.4483 20.4405 16.7588 20.4405 14.6822C20.4405 14.0793 20.9293 13.5906 21.5322 13.5906C22.1351 13.5906 22.6238 14.0793 22.6238 14.6822C22.6238 17.9627 19.9549 20.6315 16.6745 20.6315Z" fill="url(#paint1_linear)"/>
<path d="M18.0937 4.8577C17.4908 4.8577 17.0021 4.36898 17.0021 3.76608C17.0021 2.89333 16.292 2.18324 15.4192 2.18324H12.581C11.7082 2.18324 10.9982 2.89333 10.9982 3.76608C10.9982 4.36898 10.5095 4.8577 9.90656 4.8577C9.30366 4.8577 8.81494 4.36898 8.81494 3.76608C8.81494 1.68944 10.5044 0 12.581 0H15.4192C17.4959 0 19.1853 1.68944 19.1853 3.76608C19.1853 4.36898 18.6966 4.8577 18.0937 4.8577Z" fill="white"/>
</g>
<defs>
<linearGradient id="paint0_linear" x1="13.041" y1="15.2016" x2="15.0131" y2="13.2267" gradientUnits="userSpaceOnUse">
<stop stop-color="#E2C35D"/>
<stop offset="0.485719" stop-color="#F2E090"/>
<stop offset="1" stop-color="#E8C96F"/>
</linearGradient>
<linearGradient id="paint1_linear" x1="5.1551" y1="17.1858" x2="22.7634" y2="17.1858" gradientUnits="userSpaceOnUse">
<stop stop-color="#E2C35D"/>
<stop offset="0.485719" stop-color="#F2E090"/>
<stop offset="1" stop-color="#E8C96F"/>
</linearGradient>
<clipPath id="clip0">
<rect width="28" height="28" fill="white"/>
</clipPath>
</defs>
</svg>
