<svg width="27" height="37" viewBox="0 0 27 37" fill="none" xmlns="http://www.w3.org/2000/svg">
<path d="M18.9316 33.423V34.7218C16.6984 34.7218 14.3681 32.9693 12.763 31.4442C11.6363 30.3736 11.6363 28.0857 12.763 27.0151C14.3681 25.4899 16.6984 23.7374 18.9316 23.7374V25.0362C17.7225 25.4824 16.5551 26.5176 15.6857 27.448C14.8808 28.3093 14.8808 30.1499 15.6857 31.0112C16.5551 31.9417 17.7225 32.9768 18.9316 33.423ZM6.32812 2.27454C3.41566 2.27454 1.05469 5.50994 1.05469 9.5011V21.9308C1.05469 25.9219 3.41566 29.1573 6.32812 29.1573L8.05069 29.1431C8.05307 29.0575 8.05549 28.9718 8.05776 28.8862C5.84249 28.03 4.21875 25.2405 4.21875 21.9308V9.5011C4.21875 5.50994 6.57972 2.27454 9.49219 2.27454H6.32812Z" fill="#F3F3F3"/>
<path d="M7.69922 30.604H6.32812C2.8388 30.604 0 26.7138 0 21.9321V9.50244C0 4.72077 2.8388 0.830566 6.32812 0.830566H20.6719C24.1612 0.830566 27 4.72077 27 9.50244V21.2095C27 22.0077 26.5278 22.6548 25.9453 22.6548C25.3628 22.6548 24.8906 22.0077 24.8906 21.2095V9.50244C24.8906 6.31466 22.9981 3.72119 20.6719 3.72119H6.32812C4.00191 3.72119 2.10938 6.31466 2.10938 9.50244V21.9321C2.10938 25.1199 4.00191 27.7134 6.32812 27.7134H7.69922C8.28172 27.7134 8.75391 28.3604 8.75391 29.1587C8.75391 29.9569 8.28172 30.604 7.69922 30.604ZM25.7012 32.6332C26.5145 31.8605 27 30.5886 27 29.231C27 27.8733 26.5145 26.6014 25.7012 25.8287C24.004 24.2159 21.4517 22.2935 18.9316 22.2935C16.4116 22.2935 13.8593 24.2159 12.1621 25.8287C11.3488 26.6014 10.8633 27.8733 10.8633 29.231C10.8633 30.5886 11.3488 31.8605 12.1621 32.6332C13.8593 34.246 16.4116 36.1685 18.9316 36.1685C21.4517 36.1685 24.004 34.246 25.7012 32.6332ZM24.4992 28.2041C24.748 28.4405 24.8906 28.8147 24.8906 29.231C24.8906 29.6472 24.748 30.0214 24.4992 30.2578C23.0493 31.6355 20.9064 33.2778 18.9316 33.2778C16.9569 33.2778 14.814 31.6355 13.3641 30.2578C13.1153 30.0214 12.9727 29.6472 12.9727 29.231C12.9727 28.8147 13.1153 28.4405 13.3641 28.2041C14.814 26.8265 16.9569 25.1841 18.9316 25.1841C20.9064 25.1841 23.0493 26.8265 24.4992 28.2041ZM12.763 27.0164H12.7636H12.763Z" fill="white"/>
<path d="M21.7266 10.876H5.27344C4.69093 10.876 4.21875 10.2289 4.21875 9.43066C4.21875 8.63242 4.69093 7.98535 5.27344 7.98535H21.7266C22.3091 7.98535 22.7812 8.63242 22.7812 9.43066C22.7812 10.2289 22.3091 10.876 21.7266 10.876ZM22.7812 15.2119C22.7812 14.4137 22.3091 13.7666 21.7266 13.7666H5.27344C4.69093 13.7666 4.21875 14.4137 4.21875 15.2119C4.21875 16.0102 4.69093 16.6572 5.27344 16.6572H21.7266C22.3091 16.6572 22.7812 16.0102 22.7812 15.2119ZM18.9844 31.0381C19.7125 31.0381 20.3027 30.2292 20.3027 29.2314C20.3027 28.2337 19.7125 27.4248 18.9844 27.4248C18.2563 27.4248 17.666 28.2337 17.666 29.2314C17.666 30.2292 18.2563 31.0381 18.9844 31.0381Z" fill="white"/>
<path d="M21.7266 10.876H5.27344C4.69093 10.876 4.21875 10.2289 4.21875 9.43066C4.21875 8.63242 4.69093 7.98535 5.27344 7.98535H21.7266C22.3091 7.98535 22.7812 8.63242 22.7812 9.43066C22.7812 10.2289 22.3091 10.876 21.7266 10.876ZM22.7812 15.2119C22.7812 14.4137 22.3091 13.7666 21.7266 13.7666H5.27344C4.69093 13.7666 4.21875 14.4137 4.21875 15.2119C4.21875 16.0102 4.69093 16.6572 5.27344 16.6572H21.7266C22.3091 16.6572 22.7812 16.0102 22.7812 15.2119ZM18.9844 31.0381C19.7125 31.0381 20.3027 30.2292 20.3027 29.2314C20.3027 28.2337 19.7125 27.4248 18.9844 27.4248C18.2563 27.4248 17.666 28.2337 17.666 29.2314C17.666 30.2292 18.2563 31.0381 18.9844 31.0381Z" fill="url(#paint0_linear)"/>
<defs>
<linearGradient id="paint0_linear" x1="3.98077" y1="19.7564" x2="22.9316" y2="19.7564" gradientUnits="userSpaceOnUse">
<stop stop-color="#E2C35D"/>
<stop offset="0.485719" stop-color="#F2E090"/>
<stop offset="1" stop-color="#E8C96F"/>
</linearGradient>
</defs>
</svg>
