<svg width="23" height="23" viewBox="0 0 23 23" fill="none" xmlns="http://www.w3.org/2000/svg">
<path d="M3.63867 17.6094V5.39062C3.63867 2.90963 5.64987 0.898438 8.13086 0.898438H5.39062C2.90963 0.898438 0.898438 2.90963 0.898438 5.39062V17.6094C0.898438 20.0903 2.90963 22.1016 5.39062 22.1016H8.13086C5.64987 22.1016 3.63867 20.0903 3.63867 17.6094Z" fill="#EFEFEF"/>
<path d="M17.6094 23H5.39062C2.41823 23 0 20.5818 0 17.6094V5.39062C0 2.41823 2.41823 0 5.39062 0H17.6094C20.5818 0 23 2.41823 23 5.39062V17.6094C23 20.5818 20.5818 23 17.6094 23ZM5.39062 1.79688C3.40903 1.79688 1.79688 3.40903 1.79688 5.39062V17.6094C1.79688 19.591 3.40903 21.2031 5.39062 21.2031H17.6094C19.591 21.2031 21.2031 19.591 21.2031 17.6094V5.39062C21.2031 3.40903 19.591 1.79688 17.6094 1.79688H5.39062ZM9.47852 4.53711C9.47852 4.0409 9.07629 3.63867 8.58008 3.63867H4.80664C4.31043 3.63867 3.9082 4.0409 3.9082 4.53711C3.9082 5.03332 4.31043 5.43555 4.80664 5.43555H8.58008C9.07629 5.43555 9.47852 5.03332 9.47852 4.53711ZM17.6992 15.0039C17.6992 14.5077 17.297 14.1055 16.8008 14.1055H9.29883C8.80262 14.1055 8.40039 14.5077 8.40039 15.0039C8.40039 15.5001 8.80262 15.9023 9.29883 15.9023H16.8008C17.297 15.9023 17.6992 15.5001 17.6992 15.0039ZM18.9121 18.5078C18.9121 18.0116 18.5099 17.6094 18.0137 17.6094H16.0371C15.5409 17.6094 15.1387 18.0116 15.1387 18.5078C15.1387 19.004 15.5409 19.4062 16.0371 19.4062H18.0137C18.5099 19.4062 18.9121 19.004 18.9121 18.5078Z" fill="white"/>
<path d="M18.1484 12.3984H11.8145C11.3182 12.3984 10.916 11.9962 10.916 11.5C10.916 11.0038 11.3182 10.6016 11.8145 10.6016H18.1484C18.6446 10.6016 19.0469 11.0038 19.0469 11.5C19.0469 11.9962 18.6446 12.3984 18.1484 12.3984ZM15.9023 8.04102C15.9023 7.54481 15.5001 7.14258 15.0039 7.14258H6.60352C6.10731 7.14258 5.70508 7.54481 5.70508 8.04102C5.70508 8.53722 6.10731 8.93945 6.60352 8.93945H15.0039C15.5001 8.93945 15.9023 8.53722 15.9023 8.04102Z" fill="white"/>
<path d="M18.1484 12.3984H11.8145C11.3182 12.3984 10.916 11.9962 10.916 11.5C10.916 11.0038 11.3182 10.6016 11.8145 10.6016H18.1484C18.6446 10.6016 19.0469 11.0038 19.0469 11.5C19.0469 11.9962 18.6446 12.3984 18.1484 12.3984ZM15.9023 8.04102C15.9023 7.54481 15.5001 7.14258 15.0039 7.14258H6.60352C6.10731 7.14258 5.70508 7.54481 5.70508 8.04102C5.70508 8.53722 6.10731 8.93945 6.60352 8.93945H15.0039C15.5001 8.93945 15.9023 8.53722 15.9023 8.04102Z" fill="url(#paint0_linear)"/>
<defs>
<linearGradient id="paint0_linear" x1="5.53403" y1="9.82628" x2="19.1549" y2="9.82628" gradientUnits="userSpaceOnUse">
<stop stop-color="#E2C35D"/>
<stop offset="0.485719" stop-color="#F2E090"/>
<stop offset="1" stop-color="#E8C96F"/>
</linearGradient>
</defs>
</svg>
