<svg width="28" height="28" viewBox="0 0 28 28" fill="none" xmlns="http://www.w3.org/2000/svg">
<g clip-path="url(#clip0)">
<path d="M4.375 13.9983C4.375 7.42617 9.28736 2.00138 15.6406 1.1954C15.1033 1.12721 14.5558 1.09204 14 1.09204C6.87209 1.09204 1.09375 6.87038 1.09375 13.9983C1.09375 21.1262 6.87209 26.9045 14 26.9045C14.5558 26.9045 15.1033 26.8694 15.6406 26.8012C9.28736 25.9952 4.375 20.5704 4.375 13.9983Z" fill="#F0F0F0"/>
<path d="M23.625 14C23.625 14.6041 23.1353 15.0938 22.5312 15.0938H19.834C19.8194 15.5798 19.7962 16.0631 19.7624 16.5386C19.7214 17.1147 19.2412 17.5547 18.6725 17.5547C18.6464 17.5547 18.6201 17.5538 18.5937 17.5519C17.9911 17.509 17.5375 16.9858 17.5804 16.3833C17.6106 15.9589 17.632 15.5276 17.6459 15.0938H10.366C10.5139 17.8616 11.1869 20.3139 11.7083 21.9871C11.888 22.5638 11.5662 23.1771 10.9895 23.3568C10.8812 23.3905 10.7715 23.4065 10.6637 23.4065C10.1977 23.4065 9.76577 23.1063 9.6198 22.6379C9.05466 20.8241 8.32344 18.1505 8.17562 15.0938H5.46875C4.86467 15.0938 4.375 14.6041 4.375 14C4.375 13.3959 4.86467 12.9062 5.46875 12.9062H8.17578C8.32453 9.84987 9.06024 7.17516 9.62883 5.36047C9.80946 4.78401 10.4232 4.46299 10.9996 4.64384C11.576 4.82448 11.8969 5.43813 11.7163 6.01459C11.1919 7.68808 10.515 10.1403 10.3661 12.9063H17.6366C17.5308 10.7054 17.1067 8.43965 16.3469 6.01459C16.1662 5.43813 16.4871 4.82442 17.0635 4.64384C17.6401 4.46316 18.2536 4.78412 18.4343 5.36047C19.2628 8.00461 19.7209 10.4845 19.827 12.9062H22.5312C23.1353 12.9062 23.625 13.3959 23.625 14ZM23.8995 4.10047C21.2552 1.45627 17.7395 0 14 0C10.2605 0 6.74477 1.45627 4.10047 4.10047C1.45627 6.74472 0 10.2605 0 14C0 17.7395 1.45627 21.2553 4.10047 23.8995C6.74477 26.5437 10.2605 28 14 28C14.5939 28 15.1921 27.9623 15.7783 27.8879C16.3775 27.8119 16.8017 27.2646 16.7257 26.6653C16.6497 26.066 16.1021 25.6419 15.503 25.7179C15.0078 25.7807 14.5021 25.8125 14 25.8125C7.48656 25.8125 2.1875 20.5134 2.1875 14C2.1875 7.48656 7.48656 2.1875 14 2.1875C20.5134 2.1875 25.8125 7.48656 25.8125 14C25.8125 14.4832 25.7825 14.9727 25.7233 15.455C25.6497 16.0545 26.0761 16.6002 26.6757 16.6738C27.2753 16.7475 27.821 16.3209 27.8945 15.7214C27.9645 15.151 28 14.5719 28 13.9999C28 10.2605 26.5437 6.74472 23.8995 4.10047Z" fill="white"/>
<path d="M19.5234 25.8125C18.9194 25.8125 18.4297 25.3228 18.4297 24.7188V21.6563C18.4297 19.847 19.9017 18.375 21.7109 18.375H24.8281C25.4322 18.375 25.9219 18.8647 25.9219 19.4688C25.9219 20.0728 25.4322 20.5625 24.8281 20.5625H21.7109C21.1078 20.5625 20.6172 21.0532 20.6172 21.6563V24.7188C20.6172 25.3228 20.1275 25.8125 19.5234 25.8125ZM27.6796 27.6797C28.1068 27.2525 28.1068 26.56 27.6796 26.1329L24.0703 22.5235C23.6431 22.0963 22.9506 22.0963 22.5235 22.5235C22.0964 22.9506 22.0963 23.6432 22.5235 24.0703L26.1329 27.6797C26.3464 27.8933 26.6263 28 26.9062 28C27.1862 28 27.4661 27.8933 27.6796 27.6797Z" fill="white"/>
<path d="M19.5234 25.8125C18.9194 25.8125 18.4297 25.3228 18.4297 24.7188V21.6563C18.4297 19.847 19.9017 18.375 21.7109 18.375H24.8281C25.4322 18.375 25.9219 18.8647 25.9219 19.4688C25.9219 20.0728 25.4322 20.5625 24.8281 20.5625H21.7109C21.1078 20.5625 20.6172 21.0532 20.6172 21.6563V24.7188C20.6172 25.3228 20.1275 25.8125 19.5234 25.8125ZM27.6796 27.6797C28.1068 27.2525 28.1068 26.56 27.6796 26.1329L24.0703 22.5235C23.6431 22.0963 22.9506 22.0963 22.5235 22.5235C22.0964 22.9506 22.0963 23.6432 22.5235 24.0703L26.1329 27.6797C26.3464 27.8933 26.6263 28 26.9062 28C27.1862 28 27.4661 27.8933 27.6796 27.6797Z" fill="url(#paint0_linear)"/>
</g>
<defs>
<linearGradient id="paint0_linear" x1="18.307" y1="23.2896" x2="28.0775" y2="23.2896" gradientUnits="userSpaceOnUse">
<stop stop-color="#E2C35D"/>
<stop offset="0.485719" stop-color="#F2E090"/>
<stop offset="1" stop-color="#E8C96F"/>
</linearGradient>
<clipPath id="clip0">
<rect width="28" height="28" fill="white"/>
</clipPath>
</defs>
</svg>
