<svg width="17" height="11" viewBox="0 0 17 11" fill="none" xmlns="http://www.w3.org/2000/svg">
<path d="M9.53637 5.52095C9.53637 3.77066 9.53895 2.02037 9.53223 0.270592C9.53171 0.079162 9.56688 3.02889e-06 9.78097 0.000520408C11.6339 0.00776371 13.4863 0.00672896 15.3392 3.02899e-06C15.5269 -0.00051435 15.5693 0.0651928 15.5651 0.239549C15.5543 0.6876 15.5543 1.13617 15.5651 1.58422C15.5693 1.75288 15.5212 1.80203 15.3495 1.801C14.2035 1.79324 13.057 1.80307 11.9111 1.79169C11.6933 1.78962 11.638 1.85067 11.6421 2.06435C11.6561 2.76229 11.6561 3.46127 11.6421 4.15921C11.638 4.37703 11.6789 4.4536 11.9193 4.44946C12.8497 4.43291 13.7805 4.44998 14.7113 4.43756C14.9229 4.43498 14.9689 4.50275 14.9637 4.69884C14.9503 5.17276 14.9513 5.64719 14.9637 6.12111C14.9684 6.30323 14.9136 6.35393 14.732 6.35238C13.7841 6.34359 12.8362 6.35342 11.8883 6.3441C11.699 6.34203 11.6396 6.38549 11.6421 6.58417C11.654 7.39438 11.654 8.20512 11.6421 9.01533C11.6396 9.21194 11.6954 9.2585 11.8873 9.25747C13.2055 9.24867 14.5241 9.25798 15.8428 9.24815C16.0502 9.2466 16.104 9.30558 16.0968 9.50684C16.0818 9.92851 16.0864 10.3517 16.0947 10.7739C16.0978 10.9296 16.0735 11.0005 15.8889 11C13.8379 10.9933 11.7869 10.9933 9.73598 11C9.5493 11.0005 9.53223 10.925 9.53275 10.7718C9.5374 9.02102 9.53637 7.27073 9.53637 5.52095Z" fill="#0098DD"/>
<path d="M7.17838 2.48323C7.0522 1.8453 6.79001 1.2648 6.23616 0.865906C5.41495 0.274542 4.466 0.0681074 3.48758 0.029304C2.41194 -0.0131211 1.33371 0.0246476 0.256513 0.0148174C0.0558645 0.0132653 -0.00102048 0.063451 1.37914e-05 0.269885C0.0088051 2.02018 0.00518515 3.77047 0.00518515 5.52076C0.00518515 7.26226 0.00777083 9.00428 0.00104806 10.7458C0.000530927 10.9289 0.0279391 11.0019 0.234276 10.9957C0.785544 10.9796 1.33733 10.9827 1.88859 10.9941C2.07114 10.9983 2.11872 10.9434 2.11665 10.7634C2.10683 10.022 2.10786 9.28056 2.11458 8.53915C2.11769 8.17026 2.08355 7.80085 2.13475 7.433C2.50088 7.36263 2.87115 7.40299 3.23884 7.40454C3.94525 7.40764 4.63407 7.32486 5.30066 7.08118C6.01224 6.82094 6.57695 6.37134 6.89395 5.68736C7.36869 4.66243 7.39402 3.57387 7.17838 2.48323ZM4.76439 4.52843C4.58598 5.0841 4.2095 5.39245 3.66237 5.51352C3.19747 5.61648 2.72325 5.55439 2.25318 5.57095C2.08149 5.57716 2.11355 5.46023 2.11355 5.36193C2.11251 4.80161 2.11303 4.2418 2.11303 3.68148C2.11303 3.12116 2.11148 2.56136 2.11458 2.00103C2.1151 1.91618 2.07166 1.79357 2.23146 1.79771C2.72687 1.81116 3.22436 1.75476 3.71667 1.86496C4.38429 2.01449 4.74991 2.47237 4.84299 3.1015C4.91177 3.56766 4.91694 4.05451 4.76439 4.52843Z" fill="#3E3E3E"/>
</svg>
