<svg width="10" height="13" viewBox="0 0 10 13" fill="none" xmlns="http://www.w3.org/2000/svg">
<path d="M2.54781 7.76965H4.61031C5.78092 7.85 6.9398 7.48852 7.86906 6.75318C8.26247 6.41711 8.57193 5.98935 8.77165 5.50557C8.97136 5.02178 9.05555 4.49598 9.01719 3.97201C9.04919 3.22878 8.86748 2.4923 8.49469 1.85436C8.15065 1.22972 7.6205 0.734877 6.98219 0.442596C6.25902 0.11975 5.47378 -0.0299107 4.68594 0.00494884H0.148438V12.0049H2.54781V7.76965ZM2.14219 1.73436H4.20469C4.6803 1.73686 5.14273 1.89513 5.52469 2.18613C5.69004 2.3654 5.81801 2.57745 5.90076 2.80927C5.98351 3.0411 6.0193 3.28783 6.00594 3.53436C6.013 3.76699 5.9733 3.99861 5.88932 4.21479C5.80534 4.43097 5.67887 4.62706 5.51781 4.79083C5.13287 5.1169 4.64061 5.27863 4.14281 5.2426H2.14219V1.73436Z" fill="#3A99D8"/>
</svg>
