<svg width="13" height="16" viewBox="0 0 13 16" fill="none" xmlns="http://www.w3.org/2000/svg">
<path d="M4.15307 14.87L4.40574 13.2623L3.8429 13.2492H1.15527L3.02304 1.38557C3.0286 1.34932 3.04698 1.31628 3.07482 1.29247C3.10267 1.26866 3.13813 1.25567 3.17474 1.25586H7.70645C9.21091 1.25586 10.2491 1.56948 10.7912 2.18848C11.0453 2.47886 11.2072 2.78231 11.2854 3.11626C11.3676 3.46665 11.369 3.88529 11.2888 4.39588L11.283 4.43315V4.76032L11.5372 4.90454C11.7312 5.003 11.9055 5.13619 12.0517 5.29753C12.2691 5.5458 12.4097 5.86136 12.4691 6.23547C12.5305 6.62023 12.5102 7.07807 12.4097 7.5964C12.2937 8.19266 12.1063 8.71196 11.8531 9.13689C11.6298 9.51756 11.3294 9.84726 10.9714 10.1048C10.6352 10.3439 10.2356 10.5254 9.78389 10.6416C9.34618 10.7558 8.84711 10.8134 8.29973 10.8134H7.94705C7.69486 10.8134 7.44991 10.9044 7.25763 11.0675C7.06562 11.2323 6.93824 11.4601 6.89819 11.7102L6.87161 11.8549L6.42521 14.6886L6.40491 14.7926C6.3996 14.8255 6.39042 14.842 6.37689 14.8531C6.36379 14.8638 6.34744 14.8698 6.33051 14.87H4.15307Z" fill="#253B80"/>
<path d="M11.7781 4.47107C11.7646 4.5577 11.7491 4.64627 11.7318 4.73726C11.1341 7.81097 9.08954 8.87281 6.47825 8.87281H5.14869C4.82934 8.87281 4.56024 9.10512 4.51048 9.42067L3.82976 13.7455L3.63699 14.9714C3.62931 15.02 3.63224 15.0697 3.64558 15.1171C3.65892 15.1645 3.68236 15.2084 3.71427 15.2458C3.74618 15.2833 3.78581 15.3134 3.83044 15.334C3.87506 15.3546 3.92362 15.3653 3.97276 15.3653H6.3309C6.61014 15.3653 6.84736 15.1621 6.89132 14.8862L6.91451 14.7662L7.35851 11.9436L7.38701 11.7888C7.43049 11.5119 7.66819 11.3087 7.94744 11.3087H8.30012C10.5848 11.3087 12.3733 10.3794 12.8961 7.69046C13.1145 6.56716 13.0014 5.62922 12.4236 4.96956C12.2405 4.7655 12.0217 4.59658 11.7781 4.47107Z" fill="#179BD7"/>
<path d="M11.1542 4.2214C10.9634 4.16611 10.7693 4.12295 10.573 4.09218C10.1852 4.03248 9.79329 4.00384 9.40095 4.00652H5.84901C5.71384 4.00642 5.58308 4.05476 5.48039 4.14281C5.37769 4.23086 5.30983 4.35282 5.28907 4.48662L4.53346 9.28087L4.51172 9.42073C4.53526 9.26811 4.61255 9.12897 4.72961 9.02849C4.84667 8.928 4.99577 8.8728 5.14993 8.87288H6.47949C9.09079 8.87288 11.1354 7.81055 11.733 4.73732C11.7509 4.64633 11.7659 4.55777 11.7794 4.47113C11.6217 4.38829 11.4573 4.31884 11.288 4.26351C11.2437 4.24876 11.199 4.23472 11.1542 4.2214Z" fill="#222D65"/>
<path d="M5.28828 4.48649C5.30886 4.35265 5.37669 4.23064 5.47944 4.14263C5.58218 4.05462 5.71304 4.00645 5.84822 4.00687H9.40016C9.82096 4.00687 10.2137 4.03446 10.5722 4.09254C10.8148 4.13073 11.054 4.18785 11.2877 4.26338C11.4641 4.32194 11.6279 4.39115 11.7791 4.471C11.9569 3.33512 11.7776 2.56173 11.1645 1.86142C10.4886 1.09045 9.26875 0.760376 7.70777 0.760376H3.17605C2.85719 0.760376 2.58519 0.992683 2.53591 1.30872L0.648342 13.2943C0.63955 13.35 0.642895 13.4069 0.658147 13.4611C0.673399 13.5153 0.700196 13.5656 0.736695 13.6085C0.773194 13.6513 0.818528 13.6858 0.869579 13.7094C0.92063 13.733 0.976187 13.7453 1.03243 13.7454H3.83021L4.53267 9.28073L5.28828 4.48649Z" fill="#253B80"/>
</svg>
