<svg width="14" height="15" viewBox="0 0 14 15" fill="none" xmlns="http://www.w3.org/2000/svg">
<path d="M13.8148 14.1204C13.7521 13.948 13.6384 13.8304 13.5561 13.6775C13.3562 13.4149 13.121 13.1875 12.8859 12.9602C12.8035 12.9328 12.7683 12.8544 12.6899 12.823C12.6389 12.7564 12.5566 12.7211 12.49 12.6701C12.3567 12.5682 12.2117 12.482 12.0627 12.3958C11.7805 12.2155 11.4317 12.1018 11.0867 11.9842C10.7144 11.8941 10.3224 11.8274 9.91474 11.7725C9.51102 11.7137 9.10729 11.6589 8.80156 11.4982C8.62517 11.4472 8.49582 11.3492 8.34295 11.2708C8.20185 11.1768 8.04898 11.0984 7.93139 10.9808C7.78636 10.8945 7.69621 10.7495 7.58254 10.6319C7.54334 10.5535 7.47671 10.5065 7.44535 10.4203C7.40615 10.4046 7.39439 10.3575 7.37088 10.3301C7.34344 10.2987 7.34344 10.236 7.2964 10.2243C7.27288 10.385 7.28072 10.577 7.2964 10.7417C7.316 10.8122 7.32384 10.8985 7.34344 10.969C7.3552 11.0317 7.41399 11.1336 7.39047 11.1807C6.16754 11.118 5.27385 10.7299 4.49775 10.2203C4.11363 9.96557 3.78437 9.65592 3.47864 9.32274C3.34537 9.13852 3.20034 8.96213 3.08275 8.75831C2.96124 8.55841 2.85933 8.33107 2.74958 8.1194C2.56927 7.6608 2.40073 7.19044 2.33801 6.61425C2.2557 6.07725 2.2753 5.39131 2.39681 4.89351C2.43992 4.61913 2.53008 4.38787 2.60847 4.14877C2.65943 4.03902 2.7143 3.92927 2.76134 3.8156C2.82797 3.72153 2.86325 3.59218 2.94556 3.50987C3.16898 3.09046 3.50216 2.77689 3.84317 2.47507C4.21162 2.20461 4.63102 1.98511 5.13666 1.85184C5.6227 1.74209 6.28513 1.72249 6.81036 1.83616C7.87651 2.05567 8.68005 2.53387 9.35423 3.14534C10.0363 3.74505 10.5615 4.50546 10.9221 5.43051C11.2945 6.30851 11.4238 7.67648 11.0906 8.67208C10.9535 8.59368 10.8163 8.51921 10.6791 8.44474C10.5145 8.3977 10.3537 8.34282 10.1617 8.32323C9.93042 8.31931 9.70308 8.32323 9.55413 8.3977C9.85595 8.36634 10.099 8.44866 10.2871 8.51921C10.3969 8.56233 10.4596 8.58976 10.5458 8.64072C10.7144 8.73871 10.8633 8.82887 10.9887 8.96213C11.3454 9.27571 11.6002 9.69119 11.7217 10.2399C11.7217 10.2556 11.7413 10.2517 11.7374 10.2243C11.7531 10.2203 11.7609 10.2086 11.7688 10.1929C11.7883 10.1694 11.8119 10.1459 11.8315 10.1184C11.8707 10.0714 11.9099 10.0244 11.9373 9.96557C12.0196 9.86758 12.0862 9.75783 12.149 9.64416C12.294 9.43249 12.4037 9.18947 12.5292 8.95821C12.7448 8.46433 12.9211 7.93126 13.0309 7.32763C13.2504 5.9871 12.9878 4.71713 12.5292 3.78032C12.0588 2.83568 11.4003 2.07918 10.5497 1.51083C9.69132 0.946398 8.68789 0.530912 7.30816 0.491716C7.30032 0.464278 7.28856 0.495635 7.26112 0.491716C6.53206 0.468198 5.94411 0.570109 5.36008 0.719057C5.08962 0.809209 4.80741 0.887603 4.56831 1.00911C4.29393 1.09927 4.07443 1.24821 3.82357 1.35796C3.73342 1.4442 3.59623 1.48731 3.50216 1.56963C3.38065 1.62842 3.29049 1.72249 3.16898 1.78129C2.973 1.95375 2.76526 2.10662 2.57319 2.28301C2.38505 2.45547 2.22042 2.65146 2.04012 2.83176C2.01268 2.89448 1.96564 2.93759 1.91861 2.98463C1.88725 3.04342 1.84805 3.09438 1.7971 3.1375C1.7775 3.20805 1.71478 3.23549 1.69127 3.30604C1.64031 3.34524 1.62855 3.42363 1.56976 3.45891C1.5188 3.58434 1.42865 3.67449 1.36985 3.79208C1.2993 3.90575 1.24442 4.03118 1.17387 4.14093C1.06412 4.39571 0.946528 4.64265 0.856376 4.91703C0.762304 5.18357 0.68391 5.46578 0.629035 5.77152C0.57024 6.05765 0.515364 6.43002 0.523203 6.73184C0.484007 6.84159 0.515364 7.04541 0.523203 7.17476C0.523203 7.19828 0.507525 7.20612 0.507525 7.2218C0.507525 7.36683 0.546722 7.54321 0.554561 7.63336C0.585918 7.96654 0.644713 8.27619 0.738786 8.54665C0.797581 8.84846 0.92301 9.08364 1.01316 9.3541C1.15035 9.58144 1.24442 9.8519 1.40905 10.0557C1.53056 10.2948 1.70303 10.483 1.86765 10.679C2.04404 10.8671 2.22042 11.0592 2.43209 11.212C2.82013 11.5491 3.27482 11.8196 3.77261 12.0508C4.70158 12.5016 6.08914 12.7956 7.3356 12.7211C7.65309 12.678 7.9745 12.6388 8.26456 12.5682C8.5311 12.4702 8.84075 12.4114 9.16217 12.3723C9.89515 12.3252 10.5301 12.3918 11.0946 12.5565C11.6668 12.7093 12.1607 12.9406 12.588 13.2424C12.8153 13.3757 13.0034 13.5482 13.1955 13.7128C13.3915 13.8813 13.5483 14.0891 13.7286 14.2772C13.7521 14.3478 13.7991 14.3987 13.8344 14.4614C13.8815 14.5124 13.8579 14.63 13.9716 14.6143C14.0422 14.5438 13.9598 14.4418 13.9559 14.3556C13.8854 14.2811 13.8697 14.1831 13.8148 14.1204Z" fill="#FCB316"/>
<path d="M10.969 9.9499C10.9534 9.9499 10.9494 9.96166 10.9377 9.96558C10.9102 10.0244 10.922 10.1184 10.9377 10.1772C11.02 10.3458 11.0474 10.5653 11.2277 10.6358C11.314 10.6084 11.3061 10.483 11.3022 10.3615C11.263 10.2125 11.2081 10.0793 11.118 9.98126C11.0553 9.95774 11.0122 9.91854 10.969 9.9499ZM9.90288 10.3771C9.90288 10.3693 9.89112 10.3615 9.8872 10.3771C9.73826 10.3575 9.6873 10.4399 9.61283 10.4987C9.48348 10.8397 9.69122 11.1728 10.0558 11.1689C10.2008 11.1336 10.2909 11.0396 10.3144 10.8789C10.2949 10.5927 10.1733 10.4085 9.90288 10.3771Z" fill="#FCB316"/>
</svg>
