<svg width="16" height="16" viewBox="0 0 16 16" fill="none" xmlns="http://www.w3.org/2000/svg">
<path d="M8 0C12.4181 0 16 3.58192 16 8C16 12.4181 12.4179 16 8 16C3.58208 16 0 12.419 0 8C0 3.58096 3.58144 0 8 0Z" fill="#53AE94"/>
<path d="M8.98709 6.93402V5.74394H11.7085V3.93066H4.29797V5.74394H7.01973V6.93306C4.80773 7.03466 3.14453 7.47274 3.14453 7.99754C3.14453 8.52234 4.80853 8.96042 7.01973 9.06266V12.8747H8.98773V9.06235C11.1957 8.96042 12.8556 8.52266 12.8556 7.99834C12.8556 7.47402 11.1957 7.03626 8.98773 6.93434L8.98709 6.93402ZM8.98773 8.73946V8.7385C8.93221 8.74202 8.64693 8.75914 8.01173 8.75914C7.50389 8.75914 7.14661 8.74474 7.02069 8.73818V8.73978C5.06645 8.65322 3.60773 8.3129 3.60773 7.9057C3.60773 7.4985 5.06661 7.15866 7.02069 7.07194V8.40074C7.14869 8.40954 7.51477 8.43114 8.02005 8.43114C8.62693 8.43114 8.93205 8.40586 8.98805 8.40074V7.07194C10.9385 7.15882 12.3938 7.49946 12.3938 7.90522C12.3938 8.31098 10.9378 8.65178 8.98805 8.73866" fill="white"/>
</svg>
