<svg width="21" height="21" viewBox="0 0 21 21" fill="none" xmlns="http://www.w3.org/2000/svg">
<path d="M9.32465 13.2715H7.88254L8.78384 7.7324H10.2261L9.32465 13.2715ZM6.66935 7.7324L5.29451 11.5422L5.13182 10.7218L5.13197 10.7221L4.64672 8.23113C4.64672 8.23113 4.58805 7.7324 3.96264 7.7324H1.68976L1.66309 7.82619C1.66309 7.82619 2.35814 7.9708 3.17157 8.45931L4.42447 13.2716H5.92704L8.2214 7.7324H6.66935ZM18.0123 13.2715H19.3364L18.1819 7.73225H17.0227C16.4873 7.73225 16.357 8.14504 16.357 8.14504L14.2062 13.2715H15.7095L16.0101 12.4487H17.8434L18.0123 13.2715ZM16.4254 11.3121L17.1831 9.23926L17.6094 11.3121H16.4254ZM14.3189 9.06442L14.5247 7.87493C14.5247 7.87493 13.8897 7.63342 13.2277 7.63342C12.512 7.63342 10.8125 7.9462 10.8125 9.46714C10.8125 10.8981 12.8072 10.9159 12.8072 11.6676C12.8072 12.4192 11.0181 12.2845 10.4276 11.8105L10.2132 13.0543C10.2132 13.0543 10.8571 13.367 11.841 13.367C12.8251 13.367 14.3097 12.8575 14.3097 11.4707C14.3097 10.0305 12.2972 9.89638 12.2972 9.27022C12.2973 8.64392 13.7018 8.72438 14.3189 9.06442Z" fill="#2566AF"/>
<path d="M5.13197 10.7219L4.64672 8.23091C4.64672 8.23091 4.58805 7.73218 3.96264 7.73218H1.68976L1.66309 7.82597C1.66309 7.82597 2.75552 8.05237 3.80336 8.90062C4.80526 9.71139 5.13197 10.7219 5.13197 10.7219Z" fill="#E6A540"/>
</svg>
