<svg width="11" height="6" viewBox="0 0 11 6" fill="none" xmlns="http://www.w3.org/2000/svg">
<path d="M8.535 3.44057C8.36871 3.23057 8.41629 3.13714 8.535 2.94943C8.53714 2.94729 9.90986 1.05043 10.0513 0.407143L10.0521 0.406714C10.1224 0.172286 10.0521 0 9.71229 0H8.58771C8.30143 0 8.16943 0.147857 8.09871 0.313286C8.09871 0.313286 7.52614 1.68386 6.71614 2.57229C6.45471 2.829 6.33386 2.91129 6.19114 2.91129C6.12086 2.91129 6.01157 2.829 6.01157 2.59457V0.406714C6.01157 0.125571 5.93143 0 5.69443 0H3.92614C3.74657 0 3.63986 0.131143 3.63986 0.253286C3.63986 0.519857 4.04486 0.581143 4.08686 1.33114V2.95843C4.08686 3.315 4.02214 3.38057 3.87857 3.38057C3.49629 3.38057 2.56843 2.00443 2.01857 0.429429C1.90757 0.123857 1.79914 0.00042854 1.51071 0.00042854H0.385714C0.0647143 0.00042854 0 0.148286 0 0.313714C0 0.606 0.382286 2.05929 1.77771 3.97929C2.70771 5.28986 4.01743 6 5.20886 6C5.925 6 6.01243 5.84229 6.01243 5.571C6.01243 4.31871 5.94771 4.20043 6.30643 4.20043C6.47271 4.20043 6.759 4.28271 7.42757 4.91486C8.19171 5.66443 8.31729 6 8.745 6H9.86957C10.1901 6 10.3526 5.84229 10.2591 5.53114C10.0453 4.87671 8.60014 3.53057 8.535 3.44057Z" fill="#5772D2"/>
</svg>
