<svg width="10" height="7" viewBox="0 0 10 7" fill="none" xmlns="http://www.w3.org/2000/svg">
<path d="M5.22154 6.99083L3.16993 6.95286C2.50566 6.93963 1.83975 6.96604 1.1885 6.82896C0.197814 6.62416 0.12763 5.61996 0.05419 4.77763C-0.0470029 3.59342 -0.00782813 2.38771 0.183136 1.21339C0.290942 0.554467 0.7152 0.161284 1.3713 0.118498C3.58613 -0.0367772 5.81568 -0.0183754 8.02559 0.0540663C8.25899 0.0607072 8.49399 0.0970041 8.72412 0.13832C9.86014 0.339828 9.88784 1.47781 9.96148 2.43577C10.0349 3.40362 10.0039 4.37644 9.86355 5.3377C9.75093 6.13359 9.53547 6.80103 8.62619 6.86546C7.48691 6.94972 6.37379 7.01754 5.23131 6.99595C5.23136 6.99083 5.2248 6.99083 5.22154 6.99083ZM4.01539 4.97584C4.87393 4.47702 5.71609 3.9865 6.56972 3.49102C5.70957 2.99219 4.86902 2.50167 4.01539 2.00619V4.97584Z" fill="#E43636"/>
</svg>
