<svg width="29" height="31" viewBox="0 0 29 31" fill="none" xmlns="http://www.w3.org/2000/svg">
<path d="M5.8442 1.38281H1.2041C1.05847 1.38281 0.94043 1.26478 0.94043 1.11914C0.94043 0.973506 1.05847 0.855469 1.2041 0.855469H5.8442C5.98984 0.855469 6.10787 0.973506 6.10787 1.11914C6.10787 1.26478 5.98992 1.38281 5.8442 1.38281Z" fill="#E2C35D"/>
<path d="M9.68853 1.38281H8.0376C7.89196 1.38281 7.77393 1.26478 7.77393 1.11914C7.77393 0.973506 7.89196 0.855469 8.0376 0.855469H9.68853C9.83417 0.855469 9.95221 0.973506 9.95221 1.11914C9.95221 1.26478 9.83417 1.38281 9.68853 1.38281Z" fill="#E2C35D"/>
<path d="M24.33 30.3977H22.1394C21.9938 30.3977 21.8757 30.2797 21.8757 30.134C21.8757 29.9884 21.9938 29.8704 22.1394 29.8704H24.33C24.4756 29.8704 24.5937 29.9884 24.5937 30.134C24.5937 30.2797 24.4756 30.3977 24.33 30.3977Z" fill="#E2C35D"/>
<path d="M14.4686 20.9221C18.406 20.9221 21.5979 17.7302 21.5979 13.7928C21.5979 9.85545 18.406 6.66357 14.4686 6.66357C10.5312 6.66357 7.33936 9.85545 7.33936 13.7928C7.33936 17.7302 10.5312 20.9221 14.4686 20.9221Z" fill="white"/>
<path d="M14.4687 21.1858C12.494 21.1858 10.6374 20.4168 9.24104 19.0205C7.84464 17.6241 7.07568 15.7676 7.07568 13.7928C7.07568 11.8181 7.84464 9.96158 9.24104 8.56526C10.6374 7.16886 12.494 6.3999 14.4687 6.3999C16.4434 6.3999 18.3 7.16895 19.6963 8.56526C21.0927 9.96158 21.8617 11.8181 21.8617 13.7928C21.8617 15.7675 21.0927 17.6241 19.6963 19.0205C18.3 20.4168 16.4434 21.1858 14.4687 21.1858ZM14.4687 6.92725C12.6348 6.92725 10.9107 7.64136 9.61396 8.93809C8.31723 10.2348 7.60312 11.959 7.60312 13.7928C7.60312 15.6267 8.31723 17.3508 9.61396 18.6475C10.9107 19.9443 12.6348 20.6584 14.4687 20.6584C16.3025 20.6584 18.0267 19.9443 19.3234 18.6475C20.6201 17.3508 21.3343 15.6267 21.3343 13.7928C21.3343 11.959 20.6201 10.2349 19.3234 8.93809C18.0268 7.64145 16.3026 6.92725 14.4687 6.92725Z" fill="#E2C35D"/>
<path d="M18.3842 10.1411C18.3167 10.1411 18.2492 10.1153 18.1977 10.0638C17.9791 9.84515 17.7408 9.64494 17.4894 9.46889C17.3702 9.38539 17.3411 9.22095 17.4247 9.10168C17.5082 8.98259 17.6726 8.95333 17.792 9.037C18.0685 9.23062 18.3304 9.45061 18.5706 9.6909C18.6736 9.79391 18.6736 9.96081 18.5706 10.0638C18.5191 10.1153 18.4517 10.1411 18.3842 10.1411Z" fill="#E2C35D"/>
<path d="M10.5532 10.1409C10.4857 10.1409 10.4183 10.1152 10.3668 10.0637C10.2638 9.96073 10.2638 9.79382 10.3668 9.69082C11.827 8.23043 13.9751 7.65483 15.9723 8.18903C16.1131 8.22665 16.1966 8.37123 16.159 8.51185C16.1214 8.65256 15.9764 8.73624 15.8362 8.69844C14.0198 8.21294 12.0671 8.73606 10.7396 10.0636C10.6881 10.1152 10.6206 10.1409 10.5532 10.1409Z" fill="#E2C35D"/>
<path d="M21.5846 19.7949L20.033 18.2434C19.7036 18.6546 19.3304 19.0279 18.9192 19.3573L20.4707 20.9089L21.5846 19.7949Z" fill="white"/>
<path d="M20.4707 21.1725C20.4007 21.1725 20.3337 21.1447 20.2843 21.0953L18.7327 19.5438C18.6796 19.4907 18.6518 19.4177 18.6559 19.3428C18.6601 19.2679 18.6958 19.1984 18.7543 19.1515C19.1495 18.8349 19.5105 18.474 19.8272 18.0786C19.8742 18.02 19.9437 17.9843 20.0186 17.9801C20.0936 17.9761 20.1665 18.0039 20.2195 18.057L21.7709 19.6086C21.8739 19.7115 21.8739 19.8785 21.7709 19.9814L20.6571 21.0952C20.6077 21.1447 20.5406 21.1725 20.4707 21.1725ZM19.3096 19.3749L20.4708 20.5359L21.2118 19.7949L20.0507 18.6339C19.8215 18.8978 19.5735 19.1458 19.3096 19.3749Z" fill="#E2C35D"/>
<path d="M27.3577 24.5517L25.4815 22.6755L24.0937 21.2877L22.3664 19.5604C22.2152 19.4092 21.9702 19.4092 21.819 19.5604L20.2252 21.1542C20.074 21.3054 20.074 21.5504 20.2252 21.7016L25.2165 26.6929C25.8019 27.2783 26.7509 27.2783 27.3362 26.6929L27.3577 26.6715C27.943 26.0861 27.943 25.1371 27.3577 24.5517Z" fill="#F2E090"/>
<path d="M26.2764 27.3947C25.825 27.3947 25.3737 27.2228 25.03 26.8792L20.0387 21.8879C19.785 21.6342 19.785 21.2214 20.0387 20.9677L21.6325 19.3739C21.8863 19.1201 22.2991 19.1202 22.5527 19.3739L24.28 21.1011C24.383 21.2041 24.383 21.371 24.28 21.474C24.177 21.577 24.0102 21.5769 23.9072 21.474L22.1799 19.7467C22.1319 19.6987 22.0535 19.6985 22.0054 19.7467L20.4116 21.3405C20.3635 21.3886 20.3635 21.4669 20.4116 21.515L25.4029 26.5063C25.8845 26.9878 26.6681 26.9879 27.1498 26.5063L27.1712 26.4849C27.6527 26.0033 27.6527 25.2196 27.1712 24.738L25.295 22.8618C25.192 22.7589 25.192 22.5919 25.295 22.489C25.398 22.386 25.5648 22.386 25.6678 22.489L27.544 24.3652C28.2312 25.0524 28.2312 26.1706 27.544 26.8577L27.5227 26.8791C27.1791 27.2228 26.7277 27.3947 26.2764 27.3947Z" fill="#E2C35D"/>
</svg>
